<svg xmlns="http://www.w3.org/2000/svg" style="border: 0 !important; clip: rect(0 0 0 0) !important; height: 1px !important; margin: -1px !important; overflow: hidden !important; padding: 0 !important; position: absolute !important; width: 1px !important;" class="root-svg-symbols-element">
    <symbol id="age" viewBox="0 0 13 14">
      <path d="M12.9062 6.22368C12.9062 4.28228 11.3258 2.70454 9.38711 2.70454C8.60781 2.70454 7.8668 2.95884 7.2543 3.42642C6.81133 1.44946 5.38398 0.000244141 3.69687 0.000244141C1.65977 0.000244141 0 2.11938 0 4.72251C0 6.98384 1.25234 8.87876 2.91758 9.33813L1.89492 10.462C1.78555 10.5823 1.7582 10.7545 1.82383 10.9022C1.88945 11.0499 2.03711 11.1456 2.19844 11.1456H3.28945V13.5901C3.28945 13.817 3.47266 14.0002 3.69961 14.0002C3.92656 14.0002 4.10977 13.817 4.10977 13.5901V11.1456H5.20078C5.36211 11.1456 5.50977 11.0499 5.57539 10.9022C5.64102 10.7545 5.61367 10.5823 5.5043 10.462L4.48164 9.33813C5.20898 9.13853 5.85703 8.66548 6.35469 8.00649C6.84141 8.83501 7.64258 9.42837 8.575 9.64712L7.46211 10.8694C7.35273 10.9897 7.32539 11.162 7.39102 11.3096C7.45664 11.4573 7.6043 11.553 7.76562 11.553H8.98242V13.5627C8.98242 13.7897 9.16562 13.9729 9.39258 13.9729C9.61953 13.9729 9.80273 13.7897 9.80273 13.5627V11.5557H11.0195C11.1809 11.5557 11.3285 11.46 11.3941 11.3124C11.4598 11.1647 11.4324 10.9924 11.323 10.8721L10.1992 9.64712C11.7496 9.27798 12.9062 7.88345 12.9062 6.22368ZM3.12266 10.328L3.69687 9.69634L4.27109 10.328H3.12266ZM5.6957 7.51978C5.15156 8.23071 4.44336 8.62446 3.69687 8.62446C2.95039 8.62446 2.24219 8.23071 1.70078 7.51978C1.13203 6.77603 0.820312 5.78071 0.820312 4.72251C0.820312 3.66431 1.13203 2.66899 1.70078 1.92251C2.24492 1.21157 2.95312 0.817822 3.69961 0.817822C4.44609 0.817822 5.1543 1.20884 5.69844 1.92251C6.26719 2.66626 6.57891 3.66157 6.57891 4.71978C6.57891 5.77798 6.26445 6.77603 5.6957 7.51978ZM8.68711 10.7381L9.38711 9.96978L10.0871 10.7381H8.68711ZM9.38438 8.92524C8.25508 8.92524 7.25156 8.22524 6.85508 7.17524C7.19688 6.46157 7.39375 5.62212 7.39375 4.72251C7.39375 4.6104 7.39102 4.49829 7.38555 4.38892C7.65625 4.00884 8.36445 3.53853 9.38438 3.52212C10.8746 3.49478 12.0859 4.73345 12.0859 6.22368C12.0859 7.71392 10.8746 8.92524 9.38438 8.92524Z"/><path d="M2.9259 1.66008C2.3216 1.93625 1.82394 2.55969 1.56144 3.37453C1.49308 3.59055 1.61066 3.82024 1.82394 3.8886C1.86496 3.90227 1.90871 3.90774 1.94972 3.90774C2.12199 3.90774 2.28332 3.79836 2.33801 3.62336C2.52941 3.02727 2.86847 2.5843 3.26222 2.40383C3.4673 2.31086 3.56027 2.0675 3.46457 1.86242C3.37433 1.65735 3.13371 1.56438 2.9259 1.66008Z"/><path d="M8.44902 4.5043C7.93496 4.88985 7.62598 5.50235 7.62598 6.14492C7.62598 6.29532 7.64238 6.44844 7.6752 6.5961C7.71895 6.7875 7.88574 6.91602 8.07441 6.91602C8.10449 6.91602 8.13457 6.91328 8.16465 6.90508C8.38613 6.85586 8.52285 6.63711 8.47363 6.41563C8.45449 6.32813 8.44355 6.23516 8.44355 6.14492C8.44355 5.75938 8.62949 5.39024 8.93848 5.16055C9.11895 5.02657 9.15723 4.76953 9.02051 4.58633C8.88652 4.40586 8.62949 4.36758 8.44902 4.5043Z"/>
    </symbol>
    <symbol id="children" viewBox="0 0 12 14">
      <path d="M11.1798 10.2678C10.9583 9.88228 10.6274 9.63071 10.2036 9.52134C10.1024 9.49399 9.9985 9.47759 9.89733 9.47212C9.91101 9.3272 9.91647 9.17954 9.91647 9.03188C9.91647 8.84595 9.90554 8.65728 9.88366 8.47407C10.6383 8.37017 11.2235 7.74126 11.2235 6.98384C11.2235 6.15532 10.5235 5.47993 9.66491 5.47993C9.58014 5.47993 9.49811 5.4854 9.41608 5.49907C9.59382 5.07251 9.68952 4.6104 9.68952 4.12368C9.68952 3.80923 9.6485 3.49751 9.56647 3.19399C10.1872 2.93149 10.6001 2.33813 10.6001 1.66821C10.6001 0.749463 9.8235 0.000244141 8.86921 0.000244141C8.28679 0.000244141 7.74811 0.284619 7.43093 0.738525C6.92507 0.514307 6.36725 0.396729 5.80671 0.396729C5.24616 0.396729 4.69108 0.517041 4.18522 0.738525C3.86804 0.281885 3.32936 0.000244141 2.74694 0.000244141C1.79264 0.000244141 1.01608 0.749463 1.01608 1.66821C1.01608 2.34087 1.42897 2.93423 2.04968 3.19399C1.96764 3.49751 1.92663 3.80923 1.92663 4.12368C1.92663 4.6104 2.02507 5.07251 2.20007 5.49907C2.11804 5.4854 2.036 5.47993 1.95124 5.47993C1.09265 5.47993 0.392645 6.15532 0.392645 6.98384C0.392645 7.74126 0.975067 8.37017 1.73249 8.47407C1.71061 8.66001 1.69968 8.84595 1.69968 9.03188C1.69968 9.18227 1.70788 9.3354 1.72155 9.48306C1.71061 9.48306 1.69968 9.48306 1.68874 9.48306C1.55475 9.48306 1.41804 9.49946 1.28405 9.53501C0.857489 9.64439 0.529364 9.89595 0.307879 10.2815C-0.0776675 10.9487 -0.0585269 11.9358 0.132879 12.6194C0.359832 13.4315 1.13093 14.0002 2.00319 14.0002C2.03874 14.0002 2.07702 14.0002 2.11257 13.9975C2.1153 13.9975 2.1153 13.9975 2.11804 13.9975C2.12077 13.9975 2.1235 13.9975 2.12624 13.9975C2.12897 13.9975 2.13171 13.9975 2.13444 13.9975C2.85085 13.9592 3.48249 13.5354 3.78054 12.9256C4.39577 13.3084 5.0903 13.5081 5.80944 13.5081C6.49577 13.5081 7.16296 13.3249 7.75905 12.9721C7.76999 12.9913 7.77819 13.0077 7.78913 13.0268C8.04616 13.4725 8.47272 13.7924 8.98405 13.9237C9.14811 13.9647 9.31491 13.9866 9.48444 13.9866C10.3594 13.9866 11.1278 13.4178 11.3548 12.6057C11.5434 11.9221 11.5653 10.935 11.1798 10.2678ZM1.56296 1.66821C1.56296 1.05024 2.09343 0.547119 2.74694 0.547119C3.21452 0.547119 3.63835 0.806885 3.82975 1.21157C3.86257 1.27993 3.91999 1.33188 3.99108 1.35376C4.06218 1.37837 4.13874 1.37017 4.20436 1.33735C4.69382 1.08032 5.24889 0.943604 5.80944 0.943604C6.36999 0.943604 6.92507 1.08032 7.41452 1.33735C7.48015 1.3729 7.55671 1.37837 7.6278 1.35376C7.69889 1.32915 7.75632 1.2772 7.78913 1.21157C7.98054 0.806885 8.40436 0.547119 8.87194 0.547119C9.52546 0.547119 10.0559 1.05024 10.0559 1.66821C10.0559 2.10571 9.79069 2.49399 9.38601 2.6772C9.32038 2.52954 9.24655 2.38462 9.16179 2.2479C9.08249 2.11938 8.91569 2.07837 8.78718 2.15493C8.65866 2.23423 8.61765 2.40103 8.69421 2.52954C8.80632 2.71274 8.89929 2.90962 8.97038 3.10923C8.97311 3.1147 8.97311 3.12017 8.97585 3.1229C9.08796 3.44282 9.14264 3.77915 9.14264 4.12095C9.14264 5.78618 7.79186 7.1561 6.08288 7.29009V5.25571C6.47936 5.11899 6.75827 4.70884 6.75827 4.34517C6.75827 4.14556 6.6653 3.68345 5.80944 3.68345C4.95358 3.68345 4.86061 4.14556 4.86061 4.34517C4.86061 4.70884 5.13952 5.11899 5.536 5.25571V7.29009C3.82429 7.1561 2.47624 5.78618 2.47624 4.12095C2.47624 3.77368 2.53366 3.43188 2.6485 3.10649C2.67311 3.03267 2.66764 2.95337 2.6321 2.88501C2.59382 2.81665 2.53093 2.76743 2.4571 2.75103C1.92936 2.62798 1.56296 2.18228 1.56296 1.66821ZM5.80944 9.40923C5.65905 9.40923 5.536 9.53228 5.536 9.68267V10.5112C4.60905 10.3772 3.89538 9.57876 3.89538 8.61626C3.89538 8.22524 4.01569 7.8479 4.23444 7.52798C4.71569 7.73306 5.24889 7.8479 5.80944 7.8479C6.36999 7.8479 6.90319 7.73306 7.38444 7.52798C7.60319 7.84517 7.7235 8.22524 7.7235 8.61626C7.7235 9.57876 7.00983 10.3772 6.08288 10.5112V9.68267C6.08288 9.53228 5.95983 9.40923 5.80944 9.40923ZM5.40749 4.3479C5.40749 4.32056 5.40749 4.30962 5.45397 4.28774C5.49499 4.26587 5.5989 4.23306 5.81218 4.23306C6.02546 4.23306 6.12663 4.2686 6.17038 4.28774C6.21686 4.30962 6.21686 4.32056 6.21686 4.3479C6.21686 4.50103 6.02819 4.75806 5.81491 4.75806C5.59343 4.75806 5.40749 4.50376 5.40749 4.3479ZM3.22819 12.767C3.04499 13.0842 2.73874 13.3139 2.3696 13.4069C2.27936 13.4288 2.18913 13.4452 2.09889 13.4506C2.06882 13.4534 2.03874 13.4534 2.00866 13.4534C1.37975 13.4534 0.827411 13.0487 0.666083 12.4717C0.510223 11.9194 0.482879 11.0827 0.786395 10.5549C0.934051 10.2979 1.1446 10.1366 1.42624 10.0655C1.51647 10.0436 1.60671 10.0299 1.69421 10.0299C1.78718 10.0299 1.87741 10.0436 1.96218 10.0655C1.96764 10.0655 1.97038 10.0682 1.97585 10.0682C2.68132 10.2706 3.18718 11.1866 3.35397 11.7909C3.44421 12.1217 3.39772 12.469 3.22819 12.767ZM7.61139 11.6323C7.53483 11.9002 7.5239 12.1764 7.57311 12.4444C7.03718 12.7834 6.43014 12.9612 5.80944 12.9612C5.13952 12.9612 4.49421 12.7561 3.93093 12.3706C3.961 12.1327 3.9446 11.8866 3.87897 11.6487C3.67936 10.9377 3.11882 9.94243 2.28757 9.60337C2.26296 9.4147 2.24929 9.22329 2.24929 9.03188C2.24929 8.77212 2.27116 8.51235 2.31764 8.26079C2.33132 8.17876 2.30944 8.09126 2.25202 8.02837C2.1946 7.96548 2.11257 7.93267 2.03054 7.93813C2.00593 7.94087 1.98132 7.94087 1.95397 7.94087C1.39616 7.94087 0.942254 7.51157 0.942254 6.98384C0.942254 6.4561 1.39616 6.02681 1.95397 6.02681C2.22194 6.02681 2.47077 6.12524 2.66218 6.30024C2.95475 6.68853 3.32116 7.01938 3.74499 7.27642C3.48796 7.6729 3.3485 8.13774 3.3485 8.61626C3.3485 9.97251 4.45319 11.0772 5.80944 11.0772C7.16569 11.0772 8.27038 9.97251 8.27038 8.61626C8.27038 8.13774 8.13093 7.6729 7.8739 7.27642C8.29772 7.01938 8.66413 6.68853 8.95671 6.30024C9.14811 6.12251 9.39694 6.02681 9.66491 6.02681C10.2227 6.02681 10.6766 6.4561 10.6766 6.98384C10.6766 7.51157 10.2227 7.94087 9.66491 7.94087C9.6403 7.94087 9.61569 7.94087 9.58835 7.93813C9.50358 7.93267 9.42155 7.96548 9.36686 8.02837C9.30944 8.09126 9.28757 8.17603 9.30124 8.26079C9.34772 8.51235 9.3696 8.77212 9.3696 9.03188C9.3696 9.20142 9.35866 9.37095 9.33952 9.53774C8.43171 9.81665 7.81921 10.8831 7.61139 11.6323ZM10.827 12.4581C10.6657 13.035 10.1133 13.4397 9.48444 13.4397C9.36139 13.4397 9.24108 13.4233 9.12077 13.3932C8.75163 13.2975 8.44811 13.0706 8.26218 12.7534C8.08991 12.4553 8.04616 12.1108 8.13913 11.7799C8.31686 11.1428 8.86921 10.1612 9.6321 10.0299C9.63483 10.0299 9.63757 10.0299 9.6403 10.0272C9.69226 10.019 9.74421 10.0135 9.79889 10.0135C9.8864 10.0135 9.97663 10.0245 10.0669 10.0491C10.3485 10.1202 10.5563 10.2815 10.7067 10.5385C11.0102 11.069 10.9829 11.903 10.827 12.4581Z"/><path d="M7.5292 3.09839C7.27764 3.09839 7.06982 3.29526 7.06982 3.53589C7.06982 3.77651 7.2749 3.97339 7.5292 3.97339C7.7835 3.97339 7.98857 3.77651 7.98857 3.53589C7.98584 3.29526 7.78076 3.09839 7.5292 3.09839Z"/><path d="M4.08926 3.0979C3.8377 3.0979 3.62988 3.29478 3.62988 3.5354C3.62988 3.77603 3.83496 3.9729 4.08926 3.9729C4.34082 3.9729 4.54863 3.77603 4.54863 3.5354C4.54863 3.29478 4.34082 3.0979 4.08926 3.0979Z"/><path d="M8.61212 1.54782L8.60665 1.54235C8.49728 1.43844 8.32501 1.43844 8.21837 1.54782C8.11447 1.65719 8.11447 1.82946 8.22384 1.93336L8.22658 1.9361C8.27853 1.98805 8.34962 2.01539 8.41798 2.01539C8.48908 2.01539 8.55743 1.98805 8.61212 1.9361C8.71876 1.82672 8.71876 1.65446 8.61212 1.54782Z"/><path d="M5.80957 8.61646C5.65918 8.61646 5.53613 8.7395 5.53613 8.88989V8.89536C5.53613 9.04575 5.65918 9.1688 5.80957 9.1688C5.95996 9.1688 6.08301 9.04575 6.08301 8.89536V8.88989C6.08301 8.7395 5.95996 8.61646 5.80957 8.61646Z"/>
    </symbol>
    <symbol id="close" viewBox="0 0 22 22">
      <path clip-rule="evenodd" d="M12.9378 10.9931L21.5838 2.34713C22.121 1.81042 22.121 0.939583 21.5838 0.402875C21.0467 -0.134292 20.1772 -0.134292 19.6396 0.402875L10.9936 9.04887L2.34758 0.402875C1.81042 -0.134292 0.940042 -0.134292 0.402875 0.402875C-0.134292 0.939583 -0.134292 1.81042 0.402875 2.34713L9.04979 10.9931L0.402875 19.6391C-0.134292 20.1763 -0.134292 21.0467 0.402875 21.5834C0.671458 21.8515 1.02346 21.9858 1.375 21.9858C1.727 21.9858 2.079 21.8515 2.34758 21.5829L10.9936 12.9369L19.6396 21.5829C19.9082 21.8515 20.2606 21.9858 20.6117 21.9858C20.9637 21.9858 21.3153 21.8515 21.5838 21.5829C22.121 21.0462 22.121 20.1754 21.5838 19.6387L12.9378 10.9931Z"/>
    </symbol>
    <symbol id="cloudy" viewBox="0 0 397.401 397.401">
      <path d="M173.573,97.768l-21.88-22.12c-2.58-3.084-7.171-3.492-10.255-0.912c-3.084,2.58-3.492,7.171-0.912,10.255 c0.258,0.308,0.541,0.595,0.847,0.857l21.88,22.12c3.053,2.616,7.649,2.261,10.265-0.792 C175.832,104.475,175.856,100.496,173.573,97.768z"/><path d="M359.085,76.793c-2.58-3.084-7.171-3.492-10.255-0.912c-0.308,0.258-0.595,0.541-0.857,0.847l-22.12,21.88 c-3.084,2.58-3.492,7.171-0.912,10.255c2.58,3.084,7.171,3.492,10.255,0.912c0.308-0.258,0.595-0.541,0.857-0.847l22.12-21.88 C361.256,84.468,361.665,79.877,359.085,76.793z"/><path d="M227.256,72.236c-0.045-0.212-0.099-0.421-0.163-0.628l-8-30.08c-0.832-3.911-4.677-6.407-8.588-5.576 s-6.407,4.677-5.576,8.588c0.045,0.212,0.099,0.421,0.163,0.628l8,30.08c0.832,3.911,4.677,6.407,8.588,5.576 S228.088,76.147,227.256,72.236z"/><path d="M326.733,227.128c-1.36-1.36-2.773-2.693-4.24-4l1.2-2.16c1.489-2.737,2.824-5.555,4-8.44 c17.039-42.555-3.646-90.866-46.201-107.905c-0.08-0.032-0.159-0.064-0.239-0.095c-38.472-15.335-82.362,0.024-102.88,36 c-50.15-14.006-102.159,15.294-116.166,65.445c-2.331,8.345-3.5,16.971-3.474,25.635c0,1.2,0,2.453,0,3.76 c-34.817,2.469-61.041,32.695-58.572,67.512c2.333,32.907,29.584,58.483,62.572,58.728h0.2h208 c43.498,0.075,78.821-35.125,78.897-78.623C349.866,262.035,341.554,241.934,326.733,227.128z M225.293,118.048 c16.222-6.451,34.298-6.451,50.52,0c35.167,14.031,52.331,53.889,38.36,89.08c-1.012,2.423-2.16,4.787-3.44,7.08v0.64 c-20.081-11.674-44.288-13.898-66.16-6.08c-4.037-16.106-12.262-30.858-23.84-42.76c8.089-15.018,26.11-21.643,42-15.44 c3.798,1.249,7.89-0.818,9.139-4.616c1.146-3.484-0.495-7.275-3.819-8.824c-21.575-8.645-46.243-0.591-58.56,19.12 c-5.459-4.104-11.346-7.605-17.56-10.44C199.745,133.179,211.454,123.435,225.293,118.048z M286.128,345.289 c-4.951,1.183-10.025,1.774-15.115,1.76h-208c-26.885-0.024-48.66-21.839-48.636-48.724c0.012-12.885,5.131-25.239,14.236-34.356 l-0.08,0.04c9.117-9.132,21.496-14.257,34.4-14.24h1.76h1.56c3.989,0.272,7.444-2.742,7.715-6.731 c0.043-0.625,0.004-1.254-0.115-1.869c-0.16-1.387-0.293-2.893-0.4-4.52c0-1.52,0-3.2,0-5.08 c0.593-44.046,36.78-79.272,80.827-78.679c38.703,0.521,71.445,28.754,77.653,66.959c0.573,3.957,4.245,6.701,8.203,6.128 c0.764-0.111,1.506-0.343,2.197-0.688c4.429-2.215,9.1-3.906,13.92-5.04c34.529-8.25,69.208,13.054,77.458,47.583 C341.961,302.36,320.657,337.039,286.128,345.289z"/><path d="M397.077,145.396c-1.104-3.581-4.759-5.727-8.425-4.948l-30.08,8c-3.862,1-6.187,4.935-5.2,8.8 c0.997,3.872,4.944,6.203,8.817,5.206c0.008-0.002,0.016-0.004,0.023-0.006l30.08-8 C396.114,153.27,398.256,149.217,397.077,145.396z"/><path d="M391.973,216.168l-30-8.2c-3.855-1.105-7.875,1.125-8.98,4.98s1.125,7.875,4.98,8.98l30,8.2 c3.855,1.105,7.875-1.125,8.98-4.98C398.057,221.293,395.828,217.273,391.973,216.168z"/><path d="M289.753,36.668c-3.855-1.105-7.875,1.125-8.98,4.98l-8.2,30c-1.144,3.831,1.034,7.865,4.865,9.009 c0.084,0.025,0.169,0.049,0.255,0.071c3.836,1.129,7.861-1.065,8.99-4.901c0.018-0.059,0.034-0.119,0.05-0.179l8-30 C295.837,41.793,293.608,37.773,289.753,36.668z"/>
    </symbol>
    <symbol id="comment" viewBox="0 0 14 12">
      <path d="M11.1289 0H2.87109C1.28789 0 0 1.28789 0 2.87109V7.30625C0 8.56953 0.828516 9.66875 2.03164 10.0215L3.41797 11.4078C3.49453 11.4844 3.59844 11.5281 3.70781 11.5281C3.81719 11.5281 3.92109 11.4844 3.99766 11.4078L5.26914 10.1363H11.1289C12.7121 10.1363 14 8.84844 14 7.26523V2.87109C14 1.28789 12.7121 0 11.1289 0ZM13.1797 7.26523C13.1797 8.39727 12.2609 9.31602 11.1289 9.31602H5.09961C4.99023 9.31602 4.88633 9.35977 4.80977 9.43633L3.70781 10.5383L2.53477 9.36523C2.48281 9.31328 2.41719 9.275 2.34336 9.25859C1.44648 9.03164 0.820312 8.23047 0.820312 7.30625V2.87109C0.820312 1.73906 1.73906 0.820312 2.87109 0.820312H11.1289C12.2609 0.820312 13.1797 1.73906 13.1797 2.87109V7.26523Z"/><path d="M9.60322 3.93213H4.39697C4.17002 3.93213 3.98682 4.11533 3.98682 4.34229C3.98682 4.56924 4.17002 4.75244 4.39697 4.75244H9.60596C9.83291 4.75244 10.0161 4.56924 10.0161 4.34229C10.0134 4.11533 9.83018 3.93213 9.60322 3.93213Z"/><path d="M9.60322 5.38403H4.39697C4.17002 5.38403 3.98682 5.56724 3.98682 5.79419C3.98682 6.02114 4.17002 6.20435 4.39697 6.20435H9.60596C9.83291 6.20435 10.0161 6.02114 10.0161 5.79419C10.0161 5.56724 9.83018 5.38403 9.60322 5.38403Z"/>
    </symbol>
    <symbol id="date" viewBox="0 0 14 14">
      <path d="M13.4531 9.625C13.7539 9.625 14 9.37891 14 9.07812V3.28125C14 2.07539 13.0184 1.09375 11.8125 1.09375H11.1016V0.546875C11.1016 0.246094 10.8555 0 10.5547 0C10.2539 0 10.0078 0.246094 10.0078 0.546875V1.09375H7.51953V0.546875C7.51953 0.246094 7.27344 0 6.97266 0C6.67188 0 6.42578 0.246094 6.42578 0.546875V1.09375H3.96484V0.546875C3.96484 0.246094 3.71875 0 3.41797 0C3.11719 0 2.87109 0.246094 2.87109 0.546875V1.09375H2.1875C0.981641 1.09375 0 2.07539 0 3.28125V11.8125C0 13.0184 0.981641 14 2.1875 14H11.8125C13.0184 14 14 13.0184 14 11.8125C14 11.5117 13.7539 11.2656 13.4531 11.2656C13.1523 11.2656 12.9062 11.5117 12.9062 11.8125C12.9062 12.4168 12.4168 12.9062 11.8125 12.9062H2.1875C1.5832 12.9062 1.09375 12.4168 1.09375 11.8125V3.28125C1.09375 2.67695 1.5832 2.1875 2.1875 2.1875H2.87109V2.73438C2.87109 3.03516 3.11719 3.28125 3.41797 3.28125C3.71875 3.28125 3.96484 3.03516 3.96484 2.73438V2.1875H6.42578V2.73438C6.42578 3.03516 6.67188 3.28125 6.97266 3.28125C7.27344 3.28125 7.51953 3.03516 7.51953 2.73438V2.1875H10.0078V2.73438C10.0078 3.03516 10.2539 3.28125 10.5547 3.28125C10.8555 3.28125 11.1016 3.03516 11.1016 2.73438V2.1875H11.8125C12.4168 2.1875 12.9062 2.67695 12.9062 3.28125V9.07812C12.9062 9.37891 13.1523 9.625 13.4531 9.625Z"/><path d="M3.41797 6.28857C3.72 6.28857 3.96484 6.04373 3.96484 5.7417C3.96484 5.43967 3.72 5.19482 3.41797 5.19482C3.11594 5.19482 2.87109 5.43967 2.87109 5.7417C2.87109 6.04373 3.11594 6.28857 3.41797 6.28857Z"/><path d="M8.17578 6.28857C8.47781 6.28857 8.72266 6.04373 8.72266 5.7417C8.72266 5.43967 8.47781 5.19482 8.17578 5.19482C7.87375 5.19482 7.62891 5.43967 7.62891 5.7417C7.62891 6.04373 7.87375 6.28857 8.17578 6.28857Z"/><path d="M10.5547 6.28857C10.8567 6.28857 11.1016 6.04373 11.1016 5.7417C11.1016 5.43967 10.8567 5.19482 10.5547 5.19482C10.2527 5.19482 10.0078 5.43967 10.0078 5.7417C10.0078 6.04373 10.2527 6.28857 10.5547 6.28857Z"/><path d="M3.41797 8.66846C3.72 8.66846 3.96484 8.42361 3.96484 8.12158C3.96484 7.81955 3.72 7.57471 3.41797 7.57471C3.11594 7.57471 2.87109 7.81955 2.87109 8.12158C2.87109 8.42361 3.11594 8.66846 3.41797 8.66846Z"/><path d="M3.41797 11.0469C3.72 11.0469 3.96484 10.802 3.96484 10.5C3.96484 10.198 3.72 9.95312 3.41797 9.95312C3.11594 9.95312 2.87109 10.198 2.87109 10.5C2.87109 10.802 3.11594 11.0469 3.41797 11.0469Z"/><path d="M5.79688 6.28857C6.09891 6.28857 6.34375 6.04373 6.34375 5.7417C6.34375 5.43967 6.09891 5.19482 5.79688 5.19482C5.49484 5.19482 5.25 5.43967 5.25 5.7417C5.25 6.04373 5.49484 6.28857 5.79688 6.28857Z"/><path d="M5.79688 8.66846C6.09891 8.66846 6.34375 8.42361 6.34375 8.12158C6.34375 7.81955 6.09891 7.57471 5.79688 7.57471C5.49484 7.57471 5.25 7.81955 5.25 8.12158C5.25 8.42361 5.49484 8.66846 5.79688 8.66846Z"/><path d="M5.79688 11.0469C6.09891 11.0469 6.34375 10.802 6.34375 10.5C6.34375 10.198 6.09891 9.95312 5.79688 9.95312C5.49484 9.95312 5.25 10.198 5.25 10.5C5.25 10.802 5.49484 11.0469 5.79688 11.0469Z"/><path d="M8.17578 8.66846C8.47781 8.66846 8.72266 8.42361 8.72266 8.12158C8.72266 7.81955 8.47781 7.57471 8.17578 7.57471C7.87375 7.57471 7.62891 7.81955 7.62891 8.12158C7.62891 8.42361 7.87375 8.66846 8.17578 8.66846Z"/><path d="M10.5547 8.66846C10.8567 8.66846 11.1016 8.42361 11.1016 8.12158C11.1016 7.81955 10.8567 7.57471 10.5547 7.57471C10.2527 7.57471 10.0078 7.81955 10.0078 8.12158C10.0078 8.42361 10.2527 8.66846 10.5547 8.66846Z"/><path d="M8.17578 11.0469C8.47781 11.0469 8.72266 10.802 8.72266 10.5C8.72266 10.198 8.47781 9.95312 8.17578 9.95312C7.87375 9.95312 7.62891 10.198 7.62891 10.5C7.62891 10.802 7.87375 11.0469 8.17578 11.0469Z"/>
    </symbol>
    <symbol id="dot" viewBox="0 0 32 32">
      <circle cx="16" cy="16" r="15" stroke="#fff" fill="none" stroke-width="2"/><path d="M17.63 14.3178C18.8958 15.3727 18.8629 17.3273 17.5622 18.339C15.8664 19.6579 13.3955 18.4495 13.3955 16.3011C13.3955 14.1122 15.9484 12.9165 17.63 14.3178Z" fill="#fff"/>
    </symbol>
    <symbol id="eat" viewBox="0 0 14 14">
      <path d="M13.6315 11.904L8.14338 6.41586L1.72825 0.000732422H1.22784L1.12666 0.260509C0.855949 0.946867 0.738366 1.64963 0.790321 2.29224C0.85048 3.02508 1.12666 3.65675 1.59426 4.12435L6.60112 9.13121L7.26287 8.46946L11.8924 13.6459C12.3518 14.1053 13.1448 14.1326 13.6342 13.6459C14.1128 13.1646 14.1128 12.3853 13.6315 11.904Z"/><path d="M4.28222 7.96899L0.360953 11.893C-0.120318 12.3743 -0.120318 13.1536 0.360953 13.6349C0.817614 14.0915 1.60515 14.1298 2.10283 13.6349L6.02409 9.7136L4.28222 7.96899Z"/><path d="M13.4018 2.33081L11.1759 4.55396L10.5962 3.97424L12.8221 1.7511L12.2424 1.17139L10.0165 3.39453L9.4368 2.81482L11.6627 0.591676L11.0802 0.0119629L8.17894 2.91326C7.82345 3.26874 7.61289 3.73908 7.58282 4.23949C7.57461 4.36528 7.54727 4.49106 7.49805 4.60865L9.38211 6.49271C9.4997 6.44623 9.62548 6.41615 9.75127 6.40794C10.2517 6.37786 10.7247 6.16731 11.0775 5.81182L13.9788 2.91053L13.4018 2.33081Z"/>
    </symbol>
    <symbol id="email" viewBox="0 0 512 512">
      <path d="M467,61H45C20.218,61,0,81.196,0,106v300c0,24.72,20.128,45,45,45h422c24.72,0,45-20.128,45-45V106 C512,81.28,491.872,61,467,61z M460.786,91L256.954,294.833L51.359,91H460.786z M30,399.788V112.069l144.479,143.24L30,399.788z M51.213,421l144.57-144.57l50.657,50.222c5.864,5.814,15.327,5.795,21.167-0.046L317,277.213L460.787,421H51.213z M482,399.787 L338.213,256L482,112.212V399.787z"/>
    </symbol>
    <symbol id="location" viewBox="0 0 16 23">
      <path d="M7.53836 0C3.37959 0 0 3.37959 0 7.53367C0 11.5235 6.84837 22.3241 7.13939 22.7841C7.22388 22.9202 7.37408 23 7.53367 23C7.69326 23 7.84347 22.9202 7.92796 22.7841C8.21898 22.3241 15.0673 11.5235 15.0673 7.53367C15.0767 3.37959 11.6924 0 7.53836 0ZM7.53836 21.6435C6.91877 20.639 5.66081 18.5643 4.41694 16.2643C2.1451 12.068 0.943469 9.0451 0.943469 7.52898C0.938775 3.89592 3.90061 0.938776 7.53836 0.938776C11.1761 0.938776 14.138 3.89592 14.138 7.53367C14.138 9.0498 12.9363 12.068 10.6645 16.269C9.41591 18.5643 8.15796 20.6437 7.53836 21.6435Z" fill="#fff"/><path d="M7.53854 3.57324C5.5718 3.57324 3.97119 5.12692 3.97119 7.04202C3.97119 8.95242 5.5718 10.5108 7.53854 10.5108C9.50527 10.5108 11.1059 8.95712 11.1059 7.04202C11.1012 5.12692 9.50527 3.57324 7.53854 3.57324ZM7.53854 9.57202C6.08813 9.57202 4.90997 8.4361 4.90997 7.04202C4.90997 5.64794 6.08813 4.51202 7.53854 4.51202C8.98895 4.51202 10.1671 5.64794 10.1671 7.04202C10.1624 8.4361 8.98425 9.57202 7.53854 9.57202Z" fill="#fff"/>
    </symbol>
    <symbol id="meteo" viewBox="0 0 51 46">
      <path d="M35.9457 0.000488281C35.403 0.000488281 34.959 0.444499 34.959 0.987179V4.50966C34.959 5.05234 35.403 5.49635 35.9457 5.49635C36.4884 5.49635 36.9324 5.05234 36.9324 4.50966V0.987179C36.9324 0.444499 36.4884 0.000488281 35.9457 0.000488281Z" fill="#fff"/><path d="M48.4073 2.97171C48.0225 2.5869 47.4009 2.5869 47.0161 2.97171L42.9805 7.00728C42.5957 7.39208 42.5957 8.0137 42.9805 8.39851C43.1778 8.59585 43.4245 8.68465 43.6811 8.68465C43.9376 8.68465 44.1843 8.58598 44.3816 8.39851L48.4172 4.36295C48.7921 3.988 48.7921 3.35652 48.4073 2.97171Z" fill="#fff"/><path d="M18.3828 30.8047C17.998 30.4199 17.3764 30.4199 16.9916 30.8047L9.68021 38.1161C9.2954 38.5009 9.2954 39.1225 9.68021 39.5073C9.87755 39.7047 10.1242 39.7935 10.3808 39.7935C10.6373 39.7935 10.884 39.6948 11.0813 39.5073L18.3927 32.196C18.7676 31.8111 18.7676 31.1895 18.3828 30.8047Z" fill="#fff"/><path d="M32.8769 31.2891C32.4921 30.9043 31.8704 30.9043 31.4856 31.2891L26.7989 35.9759C26.4141 36.3607 26.4141 36.9823 26.7989 37.3671C26.9962 37.5644 27.2429 37.6532 27.4994 37.6532C27.756 37.6532 28.0026 37.5546 28.2 37.3671L32.8867 32.6803C33.2617 32.3054 33.2617 31.6739 32.8769 31.2891Z" fill="#fff"/><path d="M24.3916 39.773C24.0068 39.3882 23.3852 39.3882 23.0004 39.773L21.4908 41.2826C21.1059 41.6674 21.1059 42.289 21.4908 42.6738C21.6881 42.8712 21.9348 42.96 22.1913 42.96C22.4478 42.96 22.6945 42.8613 22.8919 42.6738L24.4015 41.1642C24.7764 40.7794 24.7764 40.1578 24.3916 39.773Z" fill="#fff"/><path d="M25.6047 30.8638C25.2199 30.479 24.5983 30.479 24.2134 30.8638L17.7408 37.3365C17.3559 37.7213 17.3559 38.3429 17.7408 38.7277C17.9381 38.9251 18.1848 39.0139 18.4413 39.0139C18.6978 39.0139 18.9445 38.9152 19.1419 38.7277L25.6145 32.255C25.9895 31.8702 25.9895 31.2486 25.6047 30.8638Z" fill="#fff"/><path d="M15.4224 41.0469C15.0376 40.6621 14.416 40.6621 14.0312 41.0469L10.7554 44.3227C10.3706 44.7075 10.3706 45.3291 10.7554 45.714C10.9527 45.9113 11.1994 46.0001 11.456 46.0001C11.7125 46.0001 11.9592 45.9014 12.1565 45.714L15.4323 42.4381C15.8073 42.0632 15.8073 41.4317 15.4224 41.0469Z" fill="#fff"/><path d="M49.5321 14.4468H46.868C46.3254 14.4468 45.8813 14.8908 45.8813 15.4335C45.8813 15.9761 46.3254 16.4202 46.868 16.4202H49.5321C50.0748 16.4202 50.5188 15.9761 50.5188 15.4335C50.5188 14.8908 50.0748 14.4468 49.5321 14.4468Z" fill="#fff"/><path d="M21.0561 7.80566C18.8064 7.80566 16.6752 8.64435 15.0274 10.1737C13.3895 11.6932 12.4028 13.7554 12.2351 15.9755C12.1956 16.5181 12.6002 16.9917 13.1428 17.0312C13.1724 17.0312 13.1922 17.0312 13.2218 17.0312C13.7348 17.0312 14.169 16.6365 14.2085 16.1235C14.4847 12.5615 17.4941 9.77904 21.066 9.77904C21.6086 9.77904 22.0526 9.33503 22.0526 8.79235C22.0428 8.24967 21.6086 7.80566 21.0561 7.80566Z" fill="#fff"/><path d="M25.7624 8.87159C25.575 8.68412 25.3283 8.58545 25.0619 8.58545C24.8053 8.58545 24.5488 8.69399 24.3613 8.87159C24.1739 9.04919 24.0752 9.30573 24.0752 9.57214C24.0752 9.82868 24.1837 10.0852 24.3613 10.2727C24.5488 10.4602 24.7955 10.5588 25.0619 10.5588C25.3184 10.5588 25.575 10.4503 25.7624 10.2727C25.9499 10.0852 26.0486 9.83855 26.0486 9.57214C26.0486 9.30573 25.94 9.05906 25.7624 8.87159Z" fill="#fff"/><path d="M43.6614 19.1139C44.2041 17.9694 44.5001 16.7064 44.5001 15.4336C44.5001 10.7172 40.6619 6.87896 35.9455 6.87896C34.4655 6.87896 33.0347 7.2539 31.7521 7.97418C29.1768 4.94504 25.3386 3.021 21.0563 3.021C17.4944 3.021 14.1002 4.35303 11.4953 6.78029C9.11738 8.99047 7.59788 11.9209 7.15387 15.108C6.02904 15.2264 4.93382 15.5914 3.95699 16.1637C0.14837 18.4035 -1.13433 23.3172 1.09559 27.1357C2.53616 29.6024 5.17062 31.0923 8.01229 31.0923C8.08136 31.0923 8.15043 31.0923 8.21949 31.0923C8.23923 31.0923 8.26883 31.0923 8.28856 31.0923H11.663C12.2057 31.0923 12.6497 30.6483 12.6497 30.1056C12.6497 29.563 12.2057 29.119 11.663 29.119H8.38723C8.3379 29.119 8.29843 29.1091 8.2491 29.119C6.01918 29.2078 3.92739 28.0632 2.80257 26.1392C1.98361 24.7479 1.75668 23.1199 2.17108 21.5609C2.57563 20.0019 3.57218 18.6896 4.96342 17.8707C5.89091 17.328 6.94666 17.0419 8.01229 17.0419C8.02216 17.0419 8.04189 17.0419 8.06162 17.0419C8.5747 17.0419 9.00885 16.6472 9.04831 16.1341C9.52193 9.89823 14.8106 5.00424 21.0761 5.00424C27.7264 5.00424 33.1334 10.4113 33.1334 17.0616C33.1334 17.7128 33.0841 18.3739 32.9756 19.0251C32.9065 19.4395 33.1137 19.8539 33.4788 20.0513C33.8438 20.2486 34.2977 20.1993 34.6135 19.9131C35.5903 19.035 36.8434 18.5515 38.1655 18.5515C41.0861 18.5515 43.4542 20.9196 43.4542 23.8402C43.4542 26.7608 41.0861 29.1288 38.1655 29.1288H36.35C35.8074 29.1288 35.3633 29.5728 35.3633 30.1155C35.3633 30.6582 35.8074 31.1022 36.35 31.1022H38.1655C42.1715 31.1022 45.4276 27.8461 45.4276 23.8402C45.4078 22.0345 44.7468 20.3867 43.6614 19.1139ZM42.1024 17.7523C40.9677 17.0123 39.6061 16.5781 38.1458 16.5781C37.0802 16.5781 36.0442 16.8149 35.0969 17.2491C35.0969 17.1899 35.0969 17.1307 35.0969 17.0715C35.0969 14.3285 34.3076 11.7631 32.9361 9.60222C33.8636 9.11874 34.8897 8.87207 35.9455 8.87207C39.5765 8.87207 42.5267 11.8223 42.5267 15.4533C42.5267 16.2229 42.3787 17.0123 42.1024 17.7523Z" fill="#fff"/>
    </symbol>
    <symbol id="people" viewBox="0 0 16 14">
      <path d="M5.42561 4.33485C5.32201 4.05426 5.04141 3.89453 4.75218 3.89453C4.60972 3.89453 4.59677 3.89885 4.51044 3.89885H2.19227C2.10593 3.89885 2.03255 3.89885 1.95053 3.89885C1.62244 3.89885 1.3807 4.05426 1.27709 4.33485L0.0381473 8.09917C-0.0784085 8.41862 0.0813161 8.77261 0.392132 8.88916C0.707264 9.01004 1.05693 8.84599 1.17349 8.53086L1.50157 7.6459C1.50157 7.6459 1.52315 7.55525 1.52315 7.94808V13.1715C1.52315 13.6291 1.89009 14.0003 2.34336 14.0003C2.79663 14.0003 3.16357 13.6291 3.16357 13.1715V9.75686C3.16357 9.75686 3.15925 9.72664 3.18947 9.72664C3.26717 9.72664 3.41826 9.72664 3.49597 9.72664C3.52619 9.72664 3.52619 9.75686 3.52619 9.75686V13.1715C3.52619 13.6291 3.89312 14.0003 4.34639 14.0003C4.79967 14.0003 5.1666 13.6291 5.1666 13.1715V7.94377C5.1666 7.54661 5.20114 7.6718 5.20114 7.6718L5.52059 8.53086C5.63714 8.85031 5.99113 9.01004 6.30194 8.88916C6.61707 8.76829 6.7768 8.41431 6.65593 8.09917L5.42561 4.33485Z"/><path d="M3.36635 3.48038C4.33669 3.48038 5.12332 2.70149 5.12332 1.74068C5.12332 0.779868 4.33669 0.000976562 3.36635 0.000976562C2.396 0.000976562 1.60938 0.779868 1.60938 1.74068C1.60938 2.70149 2.396 3.48038 3.36635 3.48038Z"/><path d="M12.2286 3.50021C13.1952 3.50021 13.9787 2.71666 13.9787 1.75011C13.9787 0.783549 13.1952 0 12.2286 0C11.2621 0 10.4785 0.783549 10.4785 1.75011C10.4785 2.71666 11.2621 3.50021 12.2286 3.50021Z"/><path d="M15.6734 8.00961L14.177 4.3675C14.091 4.1826 14.0179 3.9375 13.6653 3.9375C13.5363 3.9375 13.4073 3.9375 13.2568 3.9375H11.4336C11.2831 3.9375 11.2014 3.9375 11.0165 3.9375C10.6682 3.9375 10.4833 4.1654 10.3844 4.3718L8.83205 7.98381C8.68585 8.28911 8.80625 8.65462 9.10725 8.80082C9.40825 8.95132 9.76946 8.82232 9.91996 8.52131L10.0361 8.28051C10.0361 8.28051 10.0705 8.21601 10.0576 8.28911C9.97156 8.73202 9.73936 10.0736 9.73936 10.0736C9.68346 10.3531 9.86836 10.581 10.1522 10.581C10.1522 10.581 10.6596 10.581 10.8273 10.581C10.8746 10.581 10.866 10.6154 10.866 10.6154V13.3072C10.866 13.7587 11.1455 13.9952 11.4938 13.9952C11.8421 13.9952 12.1216 13.7587 12.1216 13.3072V10.6068C12.1216 10.6068 12.1216 10.581 12.1474 10.581C12.1818 10.581 12.2764 10.581 12.3194 10.581C12.3409 10.581 12.3409 10.6111 12.3409 10.6111V13.3115C12.3409 13.763 12.6204 13.9995 12.9687 13.9995C13.317 13.9995 13.5965 13.763 13.5965 13.3115V10.6283C13.5965 10.6283 13.5922 10.5853 13.6438 10.5853C13.8244 10.5853 14.3705 10.5853 14.3705 10.5853C14.6543 10.5853 14.8435 10.3574 14.7962 10.0779C14.7962 10.0779 14.564 8.64172 14.4995 8.25041C14.4823 8.13861 14.6672 8.53421 14.6672 8.53421C14.8091 8.83952 15.0843 8.96852 15.3853 8.82662C15.6863 8.68042 15.8196 8.31491 15.6734 8.00961Z"/>
    </symbol>
    <symbol id="person" viewBox="0 0 13 14">
      <path clip-rule="evenodd" d="M6.3 7C8.2336 7 9.8 5.4336 9.8 3.5C9.8 1.5664 8.2336 0 6.3 0C4.3664 0 2.8 1.5664 2.8 3.5C2.8 5.4336 4.3664 7 6.3 7ZM6.3002 1.4C7.4606 1.4 8.4002 2.3396 8.4002 3.5C8.4002 4.6604 7.4606 5.6 6.3002 5.6C5.13979 5.6 4.2002 4.6604 4.2002 3.5C4.2002 2.3396 5.13979 1.4 6.3002 1.4ZM12.6 13.3C12.6 13.6866 12.2866 14 11.9 14C11.5134 14 11.2 13.6866 11.2 13.3V11.9C11.2 10.8779 8.5092 9.8 6.3 9.8C4.0908 9.8 1.4 10.8779 1.4 11.9L1.4 13.3C1.4 13.6866 1.0866 14 0.7 14C0.313401 14 0 13.6866 0 13.3V11.9C0 9.7547 3.38169 8.4 6.3 8.4C9.21831 8.4 12.6 9.7547 12.6 11.9V13.3Z"/>
    </symbol>
    <symbol id="photo" viewBox="0 0 33 27">
      <path d="M32.0965 7.3411C31.9704 7.27177 29.18 5.82272 24.4886 4.83449C23.9662 4.72445 23.5479 4.32727 23.4261 3.80749C22.905 1.56975 20.9345 0 18.63 0H13.9474C11.6496 0 9.67904 1.56307 9.15133 3.80749C9.02954 4.32715 8.61105 4.72403 8.08866 4.83353C3.39728 5.81681 0.607 7.27177 0.480946 7.3411C0.187034 7.49474 0 7.80201 0 8.136V18.7569C0 23.0119 3.46014 26.4787 7.72185 26.4787C8.22284 26.4787 8.62363 26.078 8.62363 25.577C8.62363 25.076 8.22284 24.6752 7.72185 24.6752C4.46211 24.6752 1.80355 22.0233 1.80355 18.7569V13.202C1.80355 10.4617 3.39712 7.93362 6.03531 7.19256C7.14119 6.88192 8.4211 6.5792 9.85271 6.33245C10.2067 6.27234 10.494 5.99846 10.5741 5.65111L10.9081 4.21496C11.2421 2.79884 12.4846 1.80355 13.9474 1.80355H18.63C20.0862 1.80355 21.3353 2.79216 21.6693 4.21496L22.0033 5.65111C22.0834 6.00514 22.3707 6.27234 22.7247 6.33245C24.1498 6.57888 25.4259 6.88112 26.5302 7.19133C29.174 7.93404 30.7739 10.4673 30.7739 13.2135V18.7569C30.7739 22.0166 28.122 24.6752 24.8556 24.6752C24.3546 24.6752 23.9538 25.076 23.9538 25.577C23.9538 26.078 24.3546 26.4787 24.8556 26.4787C29.1106 26.4787 32.5774 23.0186 32.5774 18.7569V8.136C32.5774 7.80201 32.397 7.49474 32.0965 7.3411Z" fill="#fff"/><path d="M2.95238 5.49799C3.0459 5.49799 3.13942 5.48463 3.23293 5.45123C4.18147 5.13728 5.17676 4.85673 6.19209 4.61625C6.67971 4.5027 6.97362 4.01507 6.86007 3.53413C6.74651 3.0465 6.25888 2.75259 5.77794 2.86614C4.71585 3.11998 3.66712 3.41389 2.66515 3.7412C2.19088 3.89483 1.93705 4.40918 2.09069 4.87677C2.22428 5.25751 2.57831 5.49799 2.95238 5.49799Z" fill="#fff"/><path d="M16.292 6.23242C10.5674 6.23242 5.91162 10.8882 5.91162 16.6128C5.91162 22.3374 10.5674 26.9999 16.292 26.9999C22.0166 26.9999 26.6724 22.3441 26.6724 16.6195C26.6724 10.8949 22.0166 6.23242 16.292 6.23242ZM16.292 25.1964C11.5627 25.1964 7.71517 21.3488 7.71517 16.6195C7.71517 11.8902 11.5627 8.03597 16.292 8.03597C21.0213 8.03597 24.8689 11.8835 24.8689 16.6128C24.8689 21.3421 21.0213 25.1964 16.292 25.1964Z" fill="#fff"/>
    </symbol>
    <symbol id="sport" viewBox="0 0 14 14">
      <path d="M7 0C3.13542 0 0 3.13542 0 7C0 10.8646 3.13542 14 7 14C10.8646 14 14 10.8646 14 7C13.9971 3.13542 10.8646 0.00291667 7 0ZM7.25083 2.01833L9.68333 1.04417C9.96042 1.16958 10.2258 1.3125 10.4825 1.47583L10.4883 1.47875C10.7392 1.63917 10.9812 1.81417 11.2087 2.00667L11.2292 2.02417C11.3313 2.11167 11.4304 2.20208 11.5267 2.29542C11.5383 2.30708 11.5529 2.31875 11.5646 2.33042C11.6667 2.42958 11.7629 2.53167 11.8592 2.63667C11.8679 2.64542 11.8737 2.65417 11.8825 2.66292C11.9671 2.75625 12.0458 2.8525 12.1246 2.95167C12.1421 2.975 12.1625 2.99833 12.18 3.02167C12.2646 3.12958 12.3462 3.24333 12.4221 3.35708L11.9379 5.41917L9.55208 6.21542L7.25083 4.375V2.01833ZM1.82 3.02458C1.8375 3.00125 1.85792 2.97792 1.87542 2.95458C1.95125 2.85833 2.03292 2.76208 2.11458 2.66875C2.12333 2.66 2.13208 2.64833 2.14083 2.63958C2.23417 2.53458 2.33333 2.4325 2.43542 2.33333C2.44708 2.32167 2.45875 2.31 2.47042 2.29833C2.56667 2.205 2.66583 2.1175 2.765 2.03L2.78833 2.00958C3.01292 1.82 3.25208 1.64208 3.50292 1.48458L3.51167 1.47875C3.76542 1.31833 4.03083 1.1725 4.305 1.04708L6.74917 2.01542V4.375L4.45083 6.21542L2.065 5.42208L1.58083 3.36C1.65667 3.24333 1.73833 3.1325 1.82 3.02458ZM1.54 10.5817C1.47 10.4767 1.40583 10.3717 1.34458 10.2608L1.33 10.2346C1.26875 10.1267 1.2075 10.0158 1.15208 9.905L1.14917 9.90208C1.0325 9.66875 0.930417 9.42667 0.842917 9.17875V9.17583C0.802083 9.05917 0.764167 8.93958 0.729167 8.82L0.7175 8.77625C0.685417 8.6625 0.65625 8.54875 0.63 8.435C0.627083 8.42333 0.624167 8.41167 0.62125 8.40292C0.562917 8.14333 0.522083 7.87792 0.49875 7.6125L1.92208 5.90333L4.29333 6.69375L4.98167 9.44417L3.85 10.9462L1.54 10.5817ZM8.55458 13.3438C8.43792 13.3729 8.31833 13.3962 8.19875 13.4196C8.18125 13.4225 8.16375 13.4254 8.14917 13.4283C8.04708 13.4458 7.945 13.4633 7.84 13.475C7.81375 13.4779 7.78458 13.4808 7.75833 13.4867C7.66208 13.4983 7.56583 13.5071 7.46958 13.5129C7.44042 13.5158 7.40833 13.5188 7.37917 13.5188C7.25375 13.5275 7.13125 13.5304 7.00292 13.5304C6.88625 13.5304 6.7725 13.5275 6.65875 13.5217C6.64417 13.5217 6.6325 13.5188 6.61792 13.5188C6.51583 13.5129 6.41667 13.5042 6.31458 13.4954L6.30292 13.4925C6.08125 13.4692 5.8625 13.4342 5.64375 13.3875L4.26125 11.2292L5.3725 9.74458H8.62458L9.75625 11.2379L8.55458 13.3438ZM13.3817 8.4C13.3787 8.41167 13.3758 8.42333 13.3729 8.43208C13.3467 8.54875 13.3175 8.6625 13.2854 8.77333L13.2738 8.81708C13.2388 8.93667 13.2008 9.05625 13.16 9.17292V9.17583C13.0725 9.42375 12.9704 9.66583 12.8538 9.89917L12.8508 9.90208C12.7954 10.0129 12.7371 10.1237 12.6729 10.2317L12.6583 10.2579C12.5971 10.3658 12.53 10.4738 12.4629 10.5758L10.1617 10.9375L9.02417 9.43542L9.7125 6.685L12.0837 5.89458L13.5071 7.60375C13.4779 7.875 13.4371 8.14042 13.3817 8.4Z"/>
    </symbol>
    <symbol id="storm" viewBox="0 -3 378.583 378">
      <path d="m90.101562 267.550781h-6.382812c-46.164062 0-83.71875-37.195312-83.71875-82.910156 0-43.71875 34.492188-79.742187 77.945312-82.695313 14.695313-59.222656 68.976563-101.652343 131.09375-101.652343 74.433594 0 134.996094 59.945312 134.996094 133.628906 0 1.683594-.042968 3.355469-.113281 5.023437 13.398437 4.386719 25.105469 12.914063 33.371094 24.417969 2.207031 3.066407 1.507812 7.332031-1.550781 9.53125-3.074219 2.195313-7.335938 1.496094-9.527344-1.554687-7.480469-10.40625-18.488282-17.742188-31-20.671875-3.285156-.769531-5.519532-3.824219-5.253906-7.1875.253906-3.160157.421874-6.339844.421874-9.558594 0-66.15625-54.433593-119.976563-121.339843-119.976563-57.496094 0-107.5 40.371094-118.914063 96.003907-.648437 3.164062-3.429687 5.441406-6.660156 5.453125-38.496094.136718-69.8125 31.199218-69.8125 69.238281 0 38.1875 31.433594 69.257813 70.066406 69.257813h6.378906c3.773438 0 6.828126 3.054687 6.828126 6.824218 0 3.769532-3.054688 6.828125-6.828126 6.828125zm0 0"/><path d="m49.148438 193.402344c-3.773438 0-6.828126-3.054688-6.828126-6.824219 0-28.308594 23.027344-51.332031 51.332032-51.332031 3.773437 0 6.828125 3.054687 6.828125 6.824218 0 3.769532-3.054688 6.828126-6.828125 6.828126-20.78125 0-37.679688 16.902343-37.679688 37.679687 0 3.769531-3.050781 6.824219-6.824218 6.824219zm0 0"/><path d="m283.933594 115.121094c-2.660156 0-5.183594-1.566406-6.285156-4.167969-11.78125-27.863281-38.941407-45.867187-69.195313-45.867187-3.773437 0-6.824219-3.058594-6.824219-6.828126 0-3.769531 3.050782-6.828124 6.824219-6.828124 35.746094 0 67.847656 21.277343 81.765625 54.203124 1.46875 3.472657-.152344 7.480469-3.625 8.945313-.867188.367187-1.773438.542969-2.660156.542969zm0 0"/><path d="m92.394531 372.285156c-1.085937 0-2.1875-.261718-3.199219-.800781-2.902343-1.542969-4.289062-4.929687-3.3125-8.0625l24.585938-78.765625h-29.839844c-2.660156 0-5.082031-1.546875-6.195312-3.960938-1.117188-2.410156-.734375-5.253906.988281-7.285156l93.691406-110.347656c2.132813-2.507812 5.753907-3.148438 8.613281-1.492188 2.859376 1.644532 4.128907 5.09375 3.027344 8.203126l-26.921875 75.644531h29.394531c2.628907 0 5.019532 1.507812 6.152344 3.875 1.140625 2.367187.816406 5.175781-.824218 7.226562l-90.828126 113.210938c-1.332031 1.660156-3.3125 2.554687-5.332031 2.554687zm2.984375-101.28125h24.367188c2.171875 0 4.214844 1.03125 5.5 2.785156 1.289062 1.746094 1.667968 4.003907 1.015625 6.078126l-16.589844 53.148437 59.328125-73.9375h-24.839844c-2.21875 0-4.300781-1.078125-5.582031-2.890625-1.277344-1.8125-1.59375-4.132812-.851563-6.226562l17.660157-49.625zm0 0"/><path d="m257.402344 341.609375c-1.714844 0-3.453125-.246094-5.175782-.769531-9.429687-2.859375-14.785156-12.863282-11.929687-22.296875 1.890625-6.257813 16.570313-27.152344 22.789063-35.84375 1.707031-2.378907 4.742187-3.394531 7.535156-2.5625 2.800781.847656 4.746094 3.386719 4.839844 6.3125.351562 10.683593.964843 36.210937-.925782 42.460937-2.339844 7.714844-9.460937 12.699219-17.132812 12.699219zm4.773437-33.589844c-4.628906 6.9375-8.195312 12.675781-8.828125 14.507813-.660156 2.195312.605469 4.570312 2.839844 5.246094 2.238281.675781 4.59375-.589844 5.273438-2.808594.492187-1.890625.707031-8.632813.714843-16.945313zm0 0"/><path d="m279.554688 275.25c-1.742188 0-3.496094-.253906-5.207032-.777344-4.574218-1.382812-8.335937-4.46875-10.585937-8.683594-2.246094-4.210937-2.730469-9.050781-1.339844-13.621093 1.882813-6.246094 16.570313-27.144531 22.792969-35.835938 1.703125-2.382812 4.746094-3.398437 7.53125-2.5625 2.800781.851563 4.746094 3.386719 4.839844 6.3125.355468 10.683594.960937 36.199219-.933594 42.460938-1.378906 4.570312-4.464844 8.332031-8.679688 10.585937-2.632812 1.40625-5.511718 2.121094-8.417968 2.121094zm4.738281-33.59375c-4.617188 6.929688-8.183594 12.664062-8.8125 14.496094-.671875 2.207031.59375 4.578125 2.828125 5.253906 1.078125.328125 2.21875.214844 3.226562-.320312.992188-.53125 1.71875-1.414063 2.046875-2.484376.492188-1.886718.707031-8.632812.710938-16.945312zm0 0"/><path d="m307.214844 319.496094c-1.746094 0-3.5-.257813-5.214844-.777344-4.574219-1.386719-8.332031-4.46875-10.585938-8.683594-2.253906-4.214844-2.726562-9.054687-1.339843-13.625 1.886719-6.246094 16.574219-27.140625 22.792969-35.832031 1.707031-2.378906 4.738281-3.390625 7.53125-2.558594 2.800781.847657 4.746093 3.386719 4.839843 6.308594.355469 10.683594.960938 36.210937-.933593 42.460937-1.382813 4.574219-4.472657 8.332032-8.679688 10.585938-2.632812 1.40625-5.511719 2.121094-8.410156 2.121094zm4.734375-33.597656c-4.621094 6.933593-8.1875 12.664062-8.816407 14.5-.320312 1.054687-.203124 2.203124.324219 3.199218.53125.996094 1.425781 1.726563 2.503907 2.050782 2.214843.667968 4.589843-.582032 5.273437-2.800782.492187-1.890625.707031-8.632812.714844-16.949218zm0 0"/><path d="m329.339844 258.65625c-1.746094 0-3.5-.253906-5.21875-.777344-4.566406-1.382812-8.328125-4.464844-10.582032-8.679687-2.25-4.210938-2.734374-9.054688-1.34375-13.625 1.890626-6.246094 16.570313-27.140625 22.789063-35.832031 1.707031-2.382813 4.753906-3.402344 7.535156-2.5625 2.800781.851562 4.746094 3.386718 4.839844 6.3125.351563 10.683593.960937 36.207031-.925781 42.453124v.003907c-1.386719 4.574219-4.472656 8.335937-8.6875 10.585937-2.632813 1.410156-5.507813 2.121094-8.40625 2.121094zm4.726562-33.589844c-4.617187 6.933594-8.183594 12.671875-8.820312 14.503906-.3125 1.046876-.199219 2.191407.335937 3.1875.53125 1 1.417969 1.730469 2.507813 2.054688 1.078125.324219 2.226562.21875 3.21875-.316406.992187-.53125 1.71875-1.410156 2.054687-2.484375.484375-1.890625.703125-8.628907.703125-16.945313zm5.835938 18.90625h.066406zm0 0h.066406zm-6.535156-1.976562"/><path d="m257.402344 225.46875c-1.714844 0-3.453125-.246094-5.175782-.769531-9.429687-2.859375-14.785156-12.863281-11.929687-22.300781 1.890625-6.253907 16.570313-27.144532 22.789063-35.839844 1.707031-2.382813 4.742187-3.398438 7.535156-2.558594 2.800781.84375 4.746094 3.382812 4.839844 6.308594.351562 10.683594.964843 36.210937-.925782 42.460937-2.339844 7.714844-9.460937 12.699219-17.132812 12.699219zm4.773437-33.589844c-4.628906 6.9375-8.195312 12.675782-8.828125 14.507813-.660156 2.199219.605469 4.570312 2.839844 5.246093 2.238281.691407 4.59375-.585937 5.273438-2.808593.492187-1.890625.707031-8.632813.714843-16.945313zm0 0"/><path d="m229.789062 286.308594c-1.746093 0-3.503906-.253906-5.214843-.773438-4.574219-1.386718-8.335938-4.46875-10.585938-8.683594-2.253906-4.214843-2.730469-9.054687-1.339843-13.625 1.882812-6.246093 16.566406-27.140624 22.785156-35.832031 1.707031-2.378906 4.753906-3.394531 7.535156-2.558593 2.800781.84375 4.746094 3.382812 4.839844 6.308593.351562 10.683594.964844 36.210938-.925782 42.460938-1.386718 4.570312-4.476562 8.332031-8.679687 10.585937-2.636719 1.40625-5.515625 2.117188-8.414063 2.117188zm4.734376-33.589844c-4.621094 6.929688-8.1875 12.664062-8.816407 14.496094-.320312 1.054687-.207031 2.203125.320313 3.199218.535156.996094 1.429687 1.726563 2.507812 2.054688 2.214844.667969 4.589844-.585938 5.273438-2.804688.492187-1.894531.707031-8.636718.714844-16.945312zm0 0"/>
    </symbol>
    <symbol id="sunny" viewBox="0 0 399.079 399.079">
      <path d="M371.84,100.04c-2.01-3.457-6.443-4.63-9.9-2.62l-35.36,20.44c-3.457,2.01-4.63,6.443-2.62,9.9 c2.01,3.457,6.443,4.63,9.9,2.62l35.36-20.44C372.677,107.929,373.85,103.497,371.84,100.04z"/><path d="M369.22,289.18l-35.36-20.44c-3.457-2.01-7.89-0.837-9.9,2.62c-2.01,3.457-0.837,7.89,2.62,9.9l35.36,20.44 c3.457,2.01,7.89,0.837,9.9-2.62C373.85,295.622,372.677,291.19,369.22,289.18z"/><path d="M200.099,342.62c-4.01-0.298-7.501,2.711-7.799,6.721c-0.027,0.359-0.027,0.719,0,1.078v40.84 c-0.298,4.01,2.711,7.501,6.721,7.799s7.501-2.711,7.799-6.721c0.027-0.359,0.027-0.719,0-1.078v-40.84 C207.117,346.41,204.108,342.918,200.099,342.62z"/><path d="M72.5,117.86L37.14,97.42c-3.457-2.01-7.89-0.837-9.9,2.62c-2.01,3.457-0.837,7.89,2.62,9.9l35.36,20.44 c3.457,2.01,7.89,0.837,9.9-2.62C77.13,124.302,75.957,119.87,72.5,117.86z"/><path d="M200.099,0.02c-4.01-0.298-7.501,2.711-7.799,6.721c-0.027,0.359-0.027,0.719,0,1.078v40.84 c0.022,3.989,3.251,7.218,7.24,7.24c4.021,0,7.28-3.259,7.28-7.28V7.82C207.117,3.81,204.108,0.318,200.099,0.02z"/><path d="M130.34,65.22l-20.4-35.36c-2.01-3.457-6.443-4.63-9.9-2.62c-3.457,2.01-4.63,6.443-2.62,9.9l20.4,35.36 c2.01,3.457,6.443,4.63,9.9,2.62C131.177,73.109,132.35,68.677,130.34,65.22z"/><path d="M200.618,134.94c-0.359-0.027-0.719-0.027-1.078,0c-35.678,0-64.6,28.922-64.6,64.6c0,4.021,3.259,7.28,7.28,7.28 c4.005-0.022,7.24-3.275,7.24-7.28c-0.022-27.636,22.364-50.058,50-50.08c0.027,0,0.053,0,0.08,0 c4.01,0.298,7.501-2.711,7.799-6.721S204.628,135.237,200.618,134.94z"/><path d="M397.98,198.98c-0.267-3.595-3.125-6.454-6.721-6.721h-40.84c-4.01-0.298-7.501,2.711-7.799,6.721 s2.711,7.501,6.721,7.799c0.359,0.027,0.72,0.027,1.079,0h40.84C395.269,206.482,398.278,202.99,397.98,198.98z"/><path d="M49.738,192.3c-0.359-0.027-0.719-0.027-1.078,0H7.82c-4.01,0.298-7.019,3.79-6.721,7.799 c0.267,3.595,3.125,6.454,6.721,6.721h40.84c4.01,0.298,7.501-2.711,7.799-6.721C56.757,196.089,53.748,192.597,49.738,192.3z"/><path d="M199.569,92.7c-59.006-0.008-106.846,47.819-106.855,106.825c-0.004,28.347,11.258,55.534,31.305,75.575 c20.009,20.059,47.188,31.316,75.52,31.28c59.006,0.008,106.847-47.819,106.855-106.825S258.575,92.708,199.569,92.7z M264.819,264.94c-36.053,36.053-94.507,36.053-130.56,0c-17.343-17.343-27.072-40.874-27.04-65.4 c-0.035-24.492,9.697-47.987,27.04-65.28v0.12c36.053-36.053,94.507-36.053,130.56,0 C300.873,170.433,300.873,228.887,264.819,264.94z"/><path d="M301.678,361.972c-0.006-0.011-0.012-0.022-0.019-0.032l-20.44-35.36c-2.01-3.457-6.443-4.63-9.9-2.62 c-3.457,2.01-4.63,6.443-2.62,9.9l20.44,35.36c2.002,3.453,6.422,4.634,9.88,2.64 C302.484,369.863,303.675,365.436,301.678,361.972z"/><path d="M299.28,27.24c-3.457-2.01-7.89-0.837-9.9,2.62l-20.44,35.36c-2.024,3.449-0.868,7.885,2.58,9.908 c0.007,0.004,0.013,0.008,0.02,0.012h0c3.454,2.014,7.887,0.847,9.901-2.608c0.006-0.011,0.013-0.022,0.019-0.032l20.44-35.36 C303.91,33.682,302.737,29.25,299.28,27.24z"/><path d="M127.76,323.96c-3.457-2.01-7.89-0.837-9.9,2.62l-20.44,35.36c-2.01,3.457-0.837,7.89,2.62,9.9s7.89,0.837,9.9-2.62 l20.44-35.36C132.39,330.402,131.217,325.97,127.76,323.96z"/><path d="M75.12,271.32c-2.01-3.457-6.443-4.63-9.9-2.62l-35.36,20.44c-3.457,2.01-4.63,6.443-2.62,9.9 c2.01,3.457,6.443,4.63,9.9,2.62l35.36-20.44C75.957,279.209,77.13,274.777,75.12,271.32z"/>
    </symbol>
    <symbol id="swiper" viewBox="0 0 34 34">
      <path d="M0.5,17h28.8 M30.8,17l-15-15 M30.8,17l-15,15"/>
    </symbol>
    <symbol id="tel" viewBox="0 0 14 14">
      <path d="M13.0012 9.96421C12.9326 9.91388 12.8594 9.85897 12.7953 9.80406C12.443 9.52037 12.0678 9.25955 11.7017 9.00331C11.6285 8.95298 11.5507 8.89807 11.4775 8.84774C11.0108 8.52286 10.5944 8.36271 10.1963 8.36271C9.66552 8.36271 9.19879 8.65556 8.81443 9.23667C8.64513 9.49292 8.43922 9.62103 8.18298 9.62103C8.03198 9.62103 7.86268 9.57985 7.67508 9.49291C6.17424 8.81113 5.09895 7.76787 4.4858 6.386C4.18838 5.71794 4.28447 5.28325 4.8061 4.93092C5.10352 4.72959 5.65261 4.35438 5.616 3.63599C5.5794 2.82151 3.78571 0.368926 3.02614 0.0898069C2.70584 -0.0291618 2.36724 -0.0291618 2.02406 0.0852312C1.15467 0.378077 0.5278 0.890558 0.21665 1.57234C-0.0853471 2.22667 -0.07162 2.99997 0.257832 3.80072C1.20043 6.12061 2.53197 8.1385 4.2021 9.80864C5.84021 11.4422 7.85353 12.7783 10.1871 13.7849C10.3976 13.8765 10.6173 13.9268 10.7774 13.9588C10.8323 13.9725 10.8781 13.9817 10.9147 13.9908C10.933 13.9954 10.9513 14 10.9742 14H10.9925C12.0906 14 13.4085 12.9979 13.8111 11.854C14.1726 10.8565 13.5228 10.3623 13.0012 9.96421Z"/>
    </symbol>
    <symbol id="up" viewBox="0 0 444.819 444.819">
      <path d="M433.968,278.657L248.387,92.79c-7.419-7.044-16.08-10.566-25.977-10.566c-10.088,0-18.652,3.521-25.697,10.566 L10.848,278.657C3.615,285.887,0,294.549,0,304.637c0,10.28,3.619,18.843,10.848,25.693l21.411,21.413 c6.854,7.23,15.42,10.852,25.697,10.852c10.278,0,18.842-3.621,25.697-10.852L222.41,213.271L361.168,351.74 c6.848,7.228,15.413,10.852,25.7,10.852c10.082,0,18.747-3.624,25.975-10.852l21.409-21.412 c7.043-7.043,10.567-15.608,10.567-25.693C444.819,294.545,441.205,285.884,433.968,278.657z"/>
    </symbol>
    <symbol id="video" viewBox="0 0 32 32">
      <circle cx="16" cy="16" r="15" fill="none" stroke="#fff" stroke-width="2"/><path d="M13.3955 21.5798V10.7891L20.0932 16.3705L13.3955 21.5798Z" fill="#fff"/>
    </symbol></svg>