<svg width="13" height="14" viewBox="0 0 13 14" xmlns="http://www.w3.org/2000/svg"><path d="M12.9062 6.22368C12.9062 4.28228 11.3258 2.70454 9.38711 2.70454C8.60781 2.70454 7.8668 2.95884 7.2543 3.42642C6.81133 1.44946 5.38398 0.000244141 3.69687 0.000244141C1.65977 0.000244141 0 2.11938 0 4.72251C0 6.98384 1.25234 8.87876 2.91758 9.33813L1.89492 10.462C1.78555 10.5823 1.7582 10.7545 1.82383 10.9022C1.88945 11.0499 2.03711 11.1456 2.19844 11.1456H3.28945V13.5901C3.28945 13.817 3.47266 14.0002 3.69961 14.0002C3.92656 14.0002 4.10977 13.817 4.10977 13.5901V11.1456H5.20078C5.36211 11.1456 5.50977 11.0499 5.57539 10.9022C5.64102 10.7545 5.61367 10.5823 5.5043 10.462L4.48164 9.33813C5.20898 9.13853 5.85703 8.66548 6.35469 8.00649C6.84141 8.83501 7.64258 9.42837 8.575 9.64712L7.46211 10.8694C7.35273 10.9897 7.32539 11.162 7.39102 11.3096C7.45664 11.4573 7.6043 11.553 7.76562 11.553H8.98242V13.5627C8.98242 13.7897 9.16562 13.9729 9.39258 13.9729C9.61953 13.9729 9.80273 13.7897 9.80273 13.5627V11.5557H11.0195C11.1809 11.5557 11.3285 11.46 11.3941 11.3124C11.4598 11.1647 11.4324 10.9924 11.323 10.8721L10.1992 9.64712C11.7496 9.27798 12.9062 7.88345 12.9062 6.22368ZM3.12266 10.328L3.69687 9.69634L4.27109 10.328H3.12266ZM5.6957 7.51978C5.15156 8.23071 4.44336 8.62446 3.69687 8.62446C2.95039 8.62446 2.24219 8.23071 1.70078 7.51978C1.13203 6.77603 0.820312 5.78071 0.820312 4.72251C0.820312 3.66431 1.13203 2.66899 1.70078 1.92251C2.24492 1.21157 2.95312 0.817822 3.69961 0.817822C4.44609 0.817822 5.1543 1.20884 5.69844 1.92251C6.26719 2.66626 6.57891 3.66157 6.57891 4.71978C6.57891 5.77798 6.26445 6.77603 5.6957 7.51978ZM8.68711 10.7381L9.38711 9.96978L10.0871 10.7381H8.68711ZM9.38438 8.92524C8.25508 8.92524 7.25156 8.22524 6.85508 7.17524C7.19688 6.46157 7.39375 5.62212 7.39375 4.72251C7.39375 4.6104 7.39102 4.49829 7.38555 4.38892C7.65625 4.00884 8.36445 3.53853 9.38438 3.52212C10.8746 3.49478 12.0859 4.73345 12.0859 6.22368C12.0859 7.71392 10.8746 8.92524 9.38438 8.92524Z"/><path d="M2.9259 1.66008C2.3216 1.93625 1.82394 2.55969 1.56144 3.37453C1.49308 3.59055 1.61066 3.82024 1.82394 3.8886C1.86496 3.90227 1.90871 3.90774 1.94972 3.90774C2.12199 3.90774 2.28332 3.79836 2.33801 3.62336C2.52941 3.02727 2.86847 2.5843 3.26222 2.40383C3.4673 2.31086 3.56027 2.0675 3.46457 1.86242C3.37433 1.65735 3.13371 1.56438 2.9259 1.66008Z"/><path d="M8.44902 4.5043C7.93496 4.88985 7.62598 5.50235 7.62598 6.14492C7.62598 6.29532 7.64238 6.44844 7.6752 6.5961C7.71895 6.7875 7.88574 6.91602 8.07441 6.91602C8.10449 6.91602 8.13457 6.91328 8.16465 6.90508C8.38613 6.85586 8.52285 6.63711 8.47363 6.41563C8.45449 6.32813 8.44355 6.23516 8.44355 6.14492C8.44355 5.75938 8.62949 5.39024 8.93848 5.16055C9.11895 5.02657 9.15723 4.76953 9.02051 4.58633C8.88652 4.40586 8.62949 4.36758 8.44902 4.5043Z"/></svg>