<svg width="12" height="14" viewBox="0 0 12 14" xmlns="http://www.w3.org/2000/svg"><path d="M11.1798 10.2678C10.9583 9.88228 10.6274 9.63071 10.2036 9.52134C10.1024 9.49399 9.9985 9.47759 9.89733 9.47212C9.91101 9.3272 9.91647 9.17954 9.91647 9.03188C9.91647 8.84595 9.90554 8.65728 9.88366 8.47407C10.6383 8.37017 11.2235 7.74126 11.2235 6.98384C11.2235 6.15532 10.5235 5.47993 9.66491 5.47993C9.58014 5.47993 9.49811 5.4854 9.41608 5.49907C9.59382 5.07251 9.68952 4.6104 9.68952 4.12368C9.68952 3.80923 9.6485 3.49751 9.56647 3.19399C10.1872 2.93149 10.6001 2.33813 10.6001 1.66821C10.6001 0.749463 9.8235 0.000244141 8.86921 0.000244141C8.28679 0.000244141 7.74811 0.284619 7.43093 0.738525C6.92507 0.514307 6.36725 0.396729 5.80671 0.396729C5.24616 0.396729 4.69108 0.517041 4.18522 0.738525C3.86804 0.281885 3.32936 0.000244141 2.74694 0.000244141C1.79264 0.000244141 1.01608 0.749463 1.01608 1.66821C1.01608 2.34087 1.42897 2.93423 2.04968 3.19399C1.96764 3.49751 1.92663 3.80923 1.92663 4.12368C1.92663 4.6104 2.02507 5.07251 2.20007 5.49907C2.11804 5.4854 2.036 5.47993 1.95124 5.47993C1.09265 5.47993 0.392645 6.15532 0.392645 6.98384C0.392645 7.74126 0.975067 8.37017 1.73249 8.47407C1.71061 8.66001 1.69968 8.84595 1.69968 9.03188C1.69968 9.18227 1.70788 9.3354 1.72155 9.48306C1.71061 9.48306 1.69968 9.48306 1.68874 9.48306C1.55475 9.48306 1.41804 9.49946 1.28405 9.53501C0.857489 9.64439 0.529364 9.89595 0.307879 10.2815C-0.0776675 10.9487 -0.0585269 11.9358 0.132879 12.6194C0.359832 13.4315 1.13093 14.0002 2.00319 14.0002C2.03874 14.0002 2.07702 14.0002 2.11257 13.9975C2.1153 13.9975 2.1153 13.9975 2.11804 13.9975C2.12077 13.9975 2.1235 13.9975 2.12624 13.9975C2.12897 13.9975 2.13171 13.9975 2.13444 13.9975C2.85085 13.9592 3.48249 13.5354 3.78054 12.9256C4.39577 13.3084 5.0903 13.5081 5.80944 13.5081C6.49577 13.5081 7.16296 13.3249 7.75905 12.9721C7.76999 12.9913 7.77819 13.0077 7.78913 13.0268C8.04616 13.4725 8.47272 13.7924 8.98405 13.9237C9.14811 13.9647 9.31491 13.9866 9.48444 13.9866C10.3594 13.9866 11.1278 13.4178 11.3548 12.6057C11.5434 11.9221 11.5653 10.935 11.1798 10.2678ZM1.56296 1.66821C1.56296 1.05024 2.09343 0.547119 2.74694 0.547119C3.21452 0.547119 3.63835 0.806885 3.82975 1.21157C3.86257 1.27993 3.91999 1.33188 3.99108 1.35376C4.06218 1.37837 4.13874 1.37017 4.20436 1.33735C4.69382 1.08032 5.24889 0.943604 5.80944 0.943604C6.36999 0.943604 6.92507 1.08032 7.41452 1.33735C7.48015 1.3729 7.55671 1.37837 7.6278 1.35376C7.69889 1.32915 7.75632 1.2772 7.78913 1.21157C7.98054 0.806885 8.40436 0.547119 8.87194 0.547119C9.52546 0.547119 10.0559 1.05024 10.0559 1.66821C10.0559 2.10571 9.79069 2.49399 9.38601 2.6772C9.32038 2.52954 9.24655 2.38462 9.16179 2.2479C9.08249 2.11938 8.91569 2.07837 8.78718 2.15493C8.65866 2.23423 8.61765 2.40103 8.69421 2.52954C8.80632 2.71274 8.89929 2.90962 8.97038 3.10923C8.97311 3.1147 8.97311 3.12017 8.97585 3.1229C9.08796 3.44282 9.14264 3.77915 9.14264 4.12095C9.14264 5.78618 7.79186 7.1561 6.08288 7.29009V5.25571C6.47936 5.11899 6.75827 4.70884 6.75827 4.34517C6.75827 4.14556 6.6653 3.68345 5.80944 3.68345C4.95358 3.68345 4.86061 4.14556 4.86061 4.34517C4.86061 4.70884 5.13952 5.11899 5.536 5.25571V7.29009C3.82429 7.1561 2.47624 5.78618 2.47624 4.12095C2.47624 3.77368 2.53366 3.43188 2.6485 3.10649C2.67311 3.03267 2.66764 2.95337 2.6321 2.88501C2.59382 2.81665 2.53093 2.76743 2.4571 2.75103C1.92936 2.62798 1.56296 2.18228 1.56296 1.66821ZM5.80944 9.40923C5.65905 9.40923 5.536 9.53228 5.536 9.68267V10.5112C4.60905 10.3772 3.89538 9.57876 3.89538 8.61626C3.89538 8.22524 4.01569 7.8479 4.23444 7.52798C4.71569 7.73306 5.24889 7.8479 5.80944 7.8479C6.36999 7.8479 6.90319 7.73306 7.38444 7.52798C7.60319 7.84517 7.7235 8.22524 7.7235 8.61626C7.7235 9.57876 7.00983 10.3772 6.08288 10.5112V9.68267C6.08288 9.53228 5.95983 9.40923 5.80944 9.40923ZM5.40749 4.3479C5.40749 4.32056 5.40749 4.30962 5.45397 4.28774C5.49499 4.26587 5.5989 4.23306 5.81218 4.23306C6.02546 4.23306 6.12663 4.2686 6.17038 4.28774C6.21686 4.30962 6.21686 4.32056 6.21686 4.3479C6.21686 4.50103 6.02819 4.75806 5.81491 4.75806C5.59343 4.75806 5.40749 4.50376 5.40749 4.3479ZM3.22819 12.767C3.04499 13.0842 2.73874 13.3139 2.3696 13.4069C2.27936 13.4288 2.18913 13.4452 2.09889 13.4506C2.06882 13.4534 2.03874 13.4534 2.00866 13.4534C1.37975 13.4534 0.827411 13.0487 0.666083 12.4717C0.510223 11.9194 0.482879 11.0827 0.786395 10.5549C0.934051 10.2979 1.1446 10.1366 1.42624 10.0655C1.51647 10.0436 1.60671 10.0299 1.69421 10.0299C1.78718 10.0299 1.87741 10.0436 1.96218 10.0655C1.96764 10.0655 1.97038 10.0682 1.97585 10.0682C2.68132 10.2706 3.18718 11.1866 3.35397 11.7909C3.44421 12.1217 3.39772 12.469 3.22819 12.767ZM7.61139 11.6323C7.53483 11.9002 7.5239 12.1764 7.57311 12.4444C7.03718 12.7834 6.43014 12.9612 5.80944 12.9612C5.13952 12.9612 4.49421 12.7561 3.93093 12.3706C3.961 12.1327 3.9446 11.8866 3.87897 11.6487C3.67936 10.9377 3.11882 9.94243 2.28757 9.60337C2.26296 9.4147 2.24929 9.22329 2.24929 9.03188C2.24929 8.77212 2.27116 8.51235 2.31764 8.26079C2.33132 8.17876 2.30944 8.09126 2.25202 8.02837C2.1946 7.96548 2.11257 7.93267 2.03054 7.93813C2.00593 7.94087 1.98132 7.94087 1.95397 7.94087C1.39616 7.94087 0.942254 7.51157 0.942254 6.98384C0.942254 6.4561 1.39616 6.02681 1.95397 6.02681C2.22194 6.02681 2.47077 6.12524 2.66218 6.30024C2.95475 6.68853 3.32116 7.01938 3.74499 7.27642C3.48796 7.6729 3.3485 8.13774 3.3485 8.61626C3.3485 9.97251 4.45319 11.0772 5.80944 11.0772C7.16569 11.0772 8.27038 9.97251 8.27038 8.61626C8.27038 8.13774 8.13093 7.6729 7.8739 7.27642C8.29772 7.01938 8.66413 6.68853 8.95671 6.30024C9.14811 6.12251 9.39694 6.02681 9.66491 6.02681C10.2227 6.02681 10.6766 6.4561 10.6766 6.98384C10.6766 7.51157 10.2227 7.94087 9.66491 7.94087C9.6403 7.94087 9.61569 7.94087 9.58835 7.93813C9.50358 7.93267 9.42155 7.96548 9.36686 8.02837C9.30944 8.09126 9.28757 8.17603 9.30124 8.26079C9.34772 8.51235 9.3696 8.77212 9.3696 9.03188C9.3696 9.20142 9.35866 9.37095 9.33952 9.53774C8.43171 9.81665 7.81921 10.8831 7.61139 11.6323ZM10.827 12.4581C10.6657 13.035 10.1133 13.4397 9.48444 13.4397C9.36139 13.4397 9.24108 13.4233 9.12077 13.3932C8.75163 13.2975 8.44811 13.0706 8.26218 12.7534C8.08991 12.4553 8.04616 12.1108 8.13913 11.7799C8.31686 11.1428 8.86921 10.1612 9.6321 10.0299C9.63483 10.0299 9.63757 10.0299 9.6403 10.0272C9.69226 10.019 9.74421 10.0135 9.79889 10.0135C9.8864 10.0135 9.97663 10.0245 10.0669 10.0491C10.3485 10.1202 10.5563 10.2815 10.7067 10.5385C11.0102 11.069 10.9829 11.903 10.827 12.4581Z"/><path d="M7.5292 3.09839C7.27764 3.09839 7.06982 3.29526 7.06982 3.53589C7.06982 3.77651 7.2749 3.97339 7.5292 3.97339C7.7835 3.97339 7.98857 3.77651 7.98857 3.53589C7.98584 3.29526 7.78076 3.09839 7.5292 3.09839Z"/><path d="M4.08926 3.0979C3.8377 3.0979 3.62988 3.29478 3.62988 3.5354C3.62988 3.77603 3.83496 3.9729 4.08926 3.9729C4.34082 3.9729 4.54863 3.77603 4.54863 3.5354C4.54863 3.29478 4.34082 3.0979 4.08926 3.0979Z"/><path d="M8.61212 1.54782L8.60665 1.54235C8.49728 1.43844 8.32501 1.43844 8.21837 1.54782C8.11447 1.65719 8.11447 1.82946 8.22384 1.93336L8.22658 1.9361C8.27853 1.98805 8.34962 2.01539 8.41798 2.01539C8.48908 2.01539 8.55743 1.98805 8.61212 1.9361C8.71876 1.82672 8.71876 1.65446 8.61212 1.54782Z"/><path d="M5.80957 8.61646C5.65918 8.61646 5.53613 8.7395 5.53613 8.88989V8.89536C5.53613 9.04575 5.65918 9.1688 5.80957 9.1688C5.95996 9.1688 6.08301 9.04575 6.08301 8.89536V8.88989C6.08301 8.7395 5.95996 8.61646 5.80957 8.61646Z"/></svg>