<svg width="14" height="12" viewBox="0 0 14 12" xmlns="http://www.w3.org/2000/svg"><path d="M11.1289 0H2.87109C1.28789 0 0 1.28789 0 2.87109V7.30625C0 8.56953 0.828516 9.66875 2.03164 10.0215L3.41797 11.4078C3.49453 11.4844 3.59844 11.5281 3.70781 11.5281C3.81719 11.5281 3.92109 11.4844 3.99766 11.4078L5.26914 10.1363H11.1289C12.7121 10.1363 14 8.84844 14 7.26523V2.87109C14 1.28789 12.7121 0 11.1289 0ZM13.1797 7.26523C13.1797 8.39727 12.2609 9.31602 11.1289 9.31602H5.09961C4.99023 9.31602 4.88633 9.35977 4.80977 9.43633L3.70781 10.5383L2.53477 9.36523C2.48281 9.31328 2.41719 9.275 2.34336 9.25859C1.44648 9.03164 0.820312 8.23047 0.820312 7.30625V2.87109C0.820312 1.73906 1.73906 0.820312 2.87109 0.820312H11.1289C12.2609 0.820312 13.1797 1.73906 13.1797 2.87109V7.26523Z"/><path d="M9.60322 3.93213H4.39697C4.17002 3.93213 3.98682 4.11533 3.98682 4.34229C3.98682 4.56924 4.17002 4.75244 4.39697 4.75244H9.60596C9.83291 4.75244 10.0161 4.56924 10.0161 4.34229C10.0134 4.11533 9.83018 3.93213 9.60322 3.93213Z"/><path d="M9.60322 5.38403H4.39697C4.17002 5.38403 3.98682 5.56724 3.98682 5.79419C3.98682 6.02114 4.17002 6.20435 4.39697 6.20435H9.60596C9.83291 6.20435 10.0161 6.02114 10.0161 5.79419C10.0161 5.56724 9.83018 5.38403 9.60322 5.38403Z"/></svg>