<svg width="14" height="14" viewBox="0 0 14 14" xmlns="http://www.w3.org/2000/svg"><path d="M13.4531 9.625C13.7539 9.625 14 9.37891 14 9.07812V3.28125C14 2.07539 13.0184 1.09375 11.8125 1.09375H11.1016V0.546875C11.1016 0.246094 10.8555 0 10.5547 0C10.2539 0 10.0078 0.246094 10.0078 0.546875V1.09375H7.51953V0.546875C7.51953 0.246094 7.27344 0 6.97266 0C6.67188 0 6.42578 0.246094 6.42578 0.546875V1.09375H3.96484V0.546875C3.96484 0.246094 3.71875 0 3.41797 0C3.11719 0 2.87109 0.246094 2.87109 0.546875V1.09375H2.1875C0.981641 1.09375 0 2.07539 0 3.28125V11.8125C0 13.0184 0.981641 14 2.1875 14H11.8125C13.0184 14 14 13.0184 14 11.8125C14 11.5117 13.7539 11.2656 13.4531 11.2656C13.1523 11.2656 12.9062 11.5117 12.9062 11.8125C12.9062 12.4168 12.4168 12.9062 11.8125 12.9062H2.1875C1.5832 12.9062 1.09375 12.4168 1.09375 11.8125V3.28125C1.09375 2.67695 1.5832 2.1875 2.1875 2.1875H2.87109V2.73438C2.87109 3.03516 3.11719 3.28125 3.41797 3.28125C3.71875 3.28125 3.96484 3.03516 3.96484 2.73438V2.1875H6.42578V2.73438C6.42578 3.03516 6.67188 3.28125 6.97266 3.28125C7.27344 3.28125 7.51953 3.03516 7.51953 2.73438V2.1875H10.0078V2.73438C10.0078 3.03516 10.2539 3.28125 10.5547 3.28125C10.8555 3.28125 11.1016 3.03516 11.1016 2.73438V2.1875H11.8125C12.4168 2.1875 12.9062 2.67695 12.9062 3.28125V9.07812C12.9062 9.37891 13.1523 9.625 13.4531 9.625Z"/><path d="M3.41797 6.28857C3.72 6.28857 3.96484 6.04373 3.96484 5.7417C3.96484 5.43967 3.72 5.19482 3.41797 5.19482C3.11594 5.19482 2.87109 5.43967 2.87109 5.7417C2.87109 6.04373 3.11594 6.28857 3.41797 6.28857Z"/><path d="M8.17578 6.28857C8.47781 6.28857 8.72266 6.04373 8.72266 5.7417C8.72266 5.43967 8.47781 5.19482 8.17578 5.19482C7.87375 5.19482 7.62891 5.43967 7.62891 5.7417C7.62891 6.04373 7.87375 6.28857 8.17578 6.28857Z"/><path d="M10.5547 6.28857C10.8567 6.28857 11.1016 6.04373 11.1016 5.7417C11.1016 5.43967 10.8567 5.19482 10.5547 5.19482C10.2527 5.19482 10.0078 5.43967 10.0078 5.7417C10.0078 6.04373 10.2527 6.28857 10.5547 6.28857Z"/><path d="M3.41797 8.66846C3.72 8.66846 3.96484 8.42361 3.96484 8.12158C3.96484 7.81955 3.72 7.57471 3.41797 7.57471C3.11594 7.57471 2.87109 7.81955 2.87109 8.12158C2.87109 8.42361 3.11594 8.66846 3.41797 8.66846Z"/><path d="M3.41797 11.0469C3.72 11.0469 3.96484 10.802 3.96484 10.5C3.96484 10.198 3.72 9.95312 3.41797 9.95312C3.11594 9.95312 2.87109 10.198 2.87109 10.5C2.87109 10.802 3.11594 11.0469 3.41797 11.0469Z"/><path d="M5.79688 6.28857C6.09891 6.28857 6.34375 6.04373 6.34375 5.7417C6.34375 5.43967 6.09891 5.19482 5.79688 5.19482C5.49484 5.19482 5.25 5.43967 5.25 5.7417C5.25 6.04373 5.49484 6.28857 5.79688 6.28857Z"/><path d="M5.79688 8.66846C6.09891 8.66846 6.34375 8.42361 6.34375 8.12158C6.34375 7.81955 6.09891 7.57471 5.79688 7.57471C5.49484 7.57471 5.25 7.81955 5.25 8.12158C5.25 8.42361 5.49484 8.66846 5.79688 8.66846Z"/><path d="M5.79688 11.0469C6.09891 11.0469 6.34375 10.802 6.34375 10.5C6.34375 10.198 6.09891 9.95312 5.79688 9.95312C5.49484 9.95312 5.25 10.198 5.25 10.5C5.25 10.802 5.49484 11.0469 5.79688 11.0469Z"/><path d="M8.17578 8.66846C8.47781 8.66846 8.72266 8.42361 8.72266 8.12158C8.72266 7.81955 8.47781 7.57471 8.17578 7.57471C7.87375 7.57471 7.62891 7.81955 7.62891 8.12158C7.62891 8.42361 7.87375 8.66846 8.17578 8.66846Z"/><path d="M10.5547 8.66846C10.8567 8.66846 11.1016 8.42361 11.1016 8.12158C11.1016 7.81955 10.8567 7.57471 10.5547 7.57471C10.2527 7.57471 10.0078 7.81955 10.0078 8.12158C10.0078 8.42361 10.2527 8.66846 10.5547 8.66846Z"/><path d="M8.17578 11.0469C8.47781 11.0469 8.72266 10.802 8.72266 10.5C8.72266 10.198 8.47781 9.95312 8.17578 9.95312C7.87375 9.95312 7.62891 10.198 7.62891 10.5C7.62891 10.802 7.87375 11.0469 8.17578 11.0469Z"/></svg>