<svg width="14" height="14" viewBox="0 0 14 14" xmlns="http://www.w3.org/2000/svg"><path d="M13.6315 11.904L8.14338 6.41586L1.72825 0.000732422H1.22784L1.12666 0.260509C0.855949 0.946867 0.738366 1.64963 0.790321 2.29224C0.85048 3.02508 1.12666 3.65675 1.59426 4.12435L6.60112 9.13121L7.26287 8.46946L11.8924 13.6459C12.3518 14.1053 13.1448 14.1326 13.6342 13.6459C14.1128 13.1646 14.1128 12.3853 13.6315 11.904Z"/><path d="M4.28222 7.96899L0.360953 11.893C-0.120318 12.3743 -0.120318 13.1536 0.360953 13.6349C0.817614 14.0915 1.60515 14.1298 2.10283 13.6349L6.02409 9.7136L4.28222 7.96899Z"/><path d="M13.4018 2.33081L11.1759 4.55396L10.5962 3.97424L12.8221 1.7511L12.2424 1.17139L10.0165 3.39453L9.4368 2.81482L11.6627 0.591676L11.0802 0.0119629L8.17894 2.91326C7.82345 3.26874 7.61289 3.73908 7.58282 4.23949C7.57461 4.36528 7.54727 4.49106 7.49805 4.60865L9.38211 6.49271C9.4997 6.44623 9.62548 6.41615 9.75127 6.40794C10.2517 6.37786 10.7247 6.16731 11.0775 5.81182L13.9788 2.91053L13.4018 2.33081Z"/></svg>