<svg width="16" height="23" viewBox="0 0 16 23" fill="none" xmlns="http://www.w3.org/2000/svg"><path d="M7.53836 0C3.37959 0 0 3.37959 0 7.53367C0 11.5235 6.84837 22.3241 7.13939 22.7841C7.22388 22.9202 7.37408 23 7.53367 23C7.69326 23 7.84347 22.9202 7.92796 22.7841C8.21898 22.3241 15.0673 11.5235 15.0673 7.53367C15.0767 3.37959 11.6924 0 7.53836 0ZM7.53836 21.6435C6.91877 20.639 5.66081 18.5643 4.41694 16.2643C2.1451 12.068 0.943469 9.0451 0.943469 7.52898C0.938775 3.89592 3.90061 0.938776 7.53836 0.938776C11.1761 0.938776 14.138 3.89592 14.138 7.53367C14.138 9.0498 12.9363 12.068 10.6645 16.269C9.41591 18.5643 8.15796 20.6437 7.53836 21.6435Z" fill="#fff"/><path d="M7.53854 3.57324C5.5718 3.57324 3.97119 5.12692 3.97119 7.04202C3.97119 8.95242 5.5718 10.5108 7.53854 10.5108C9.50527 10.5108 11.1059 8.95712 11.1059 7.04202C11.1012 5.12692 9.50527 3.57324 7.53854 3.57324ZM7.53854 9.57202C6.08813 9.57202 4.90997 8.4361 4.90997 7.04202C4.90997 5.64794 6.08813 4.51202 7.53854 4.51202C8.98895 4.51202 10.1671 5.64794 10.1671 7.04202C10.1624 8.4361 8.98425 9.57202 7.53854 9.57202Z" fill="#fff"/></svg>