<svg width="51" height="46" viewBox="0 0 51 46" fill="none" xmlns="http://www.w3.org/2000/svg"><path d="M35.9457 0.000488281C35.403 0.000488281 34.959 0.444499 34.959 0.987179V4.50966C34.959 5.05234 35.403 5.49635 35.9457 5.49635C36.4884 5.49635 36.9324 5.05234 36.9324 4.50966V0.987179C36.9324 0.444499 36.4884 0.000488281 35.9457 0.000488281Z" fill="#fff"/><path d="M48.4073 2.97171C48.0225 2.5869 47.4009 2.5869 47.0161 2.97171L42.9805 7.00728C42.5957 7.39208 42.5957 8.0137 42.9805 8.39851C43.1778 8.59585 43.4245 8.68465 43.6811 8.68465C43.9376 8.68465 44.1843 8.58598 44.3816 8.39851L48.4172 4.36295C48.7921 3.988 48.7921 3.35652 48.4073 2.97171Z" fill="#fff"/><path d="M18.3828 30.8047C17.998 30.4199 17.3764 30.4199 16.9916 30.8047L9.68021 38.1161C9.2954 38.5009 9.2954 39.1225 9.68021 39.5073C9.87755 39.7047 10.1242 39.7935 10.3808 39.7935C10.6373 39.7935 10.884 39.6948 11.0813 39.5073L18.3927 32.196C18.7676 31.8111 18.7676 31.1895 18.3828 30.8047Z" fill="#fff"/><path d="M32.8769 31.2891C32.4921 30.9043 31.8704 30.9043 31.4856 31.2891L26.7989 35.9759C26.4141 36.3607 26.4141 36.9823 26.7989 37.3671C26.9962 37.5644 27.2429 37.6532 27.4994 37.6532C27.756 37.6532 28.0026 37.5546 28.2 37.3671L32.8867 32.6803C33.2617 32.3054 33.2617 31.6739 32.8769 31.2891Z" fill="#fff"/><path d="M24.3916 39.773C24.0068 39.3882 23.3852 39.3882 23.0004 39.773L21.4908 41.2826C21.1059 41.6674 21.1059 42.289 21.4908 42.6738C21.6881 42.8712 21.9348 42.96 22.1913 42.96C22.4478 42.96 22.6945 42.8613 22.8919 42.6738L24.4015 41.1642C24.7764 40.7794 24.7764 40.1578 24.3916 39.773Z" fill="#fff"/><path d="M25.6047 30.8638C25.2199 30.479 24.5983 30.479 24.2134 30.8638L17.7408 37.3365C17.3559 37.7213 17.3559 38.3429 17.7408 38.7277C17.9381 38.9251 18.1848 39.0139 18.4413 39.0139C18.6978 39.0139 18.9445 38.9152 19.1419 38.7277L25.6145 32.255C25.9895 31.8702 25.9895 31.2486 25.6047 30.8638Z" fill="#fff"/><path d="M15.4224 41.0469C15.0376 40.6621 14.416 40.6621 14.0312 41.0469L10.7554 44.3227C10.3706 44.7075 10.3706 45.3291 10.7554 45.714C10.9527 45.9113 11.1994 46.0001 11.456 46.0001C11.7125 46.0001 11.9592 45.9014 12.1565 45.714L15.4323 42.4381C15.8073 42.0632 15.8073 41.4317 15.4224 41.0469Z" fill="#fff"/><path d="M49.5321 14.4468H46.868C46.3254 14.4468 45.8813 14.8908 45.8813 15.4335C45.8813 15.9761 46.3254 16.4202 46.868 16.4202H49.5321C50.0748 16.4202 50.5188 15.9761 50.5188 15.4335C50.5188 14.8908 50.0748 14.4468 49.5321 14.4468Z" fill="#fff"/><path d="M21.0561 7.80566C18.8064 7.80566 16.6752 8.64435 15.0274 10.1737C13.3895 11.6932 12.4028 13.7554 12.2351 15.9755C12.1956 16.5181 12.6002 16.9917 13.1428 17.0312C13.1724 17.0312 13.1922 17.0312 13.2218 17.0312C13.7348 17.0312 14.169 16.6365 14.2085 16.1235C14.4847 12.5615 17.4941 9.77904 21.066 9.77904C21.6086 9.77904 22.0526 9.33503 22.0526 8.79235C22.0428 8.24967 21.6086 7.80566 21.0561 7.80566Z" fill="#fff"/><path d="M25.7624 8.87159C25.575 8.68412 25.3283 8.58545 25.0619 8.58545C24.8053 8.58545 24.5488 8.69399 24.3613 8.87159C24.1739 9.04919 24.0752 9.30573 24.0752 9.57214C24.0752 9.82868 24.1837 10.0852 24.3613 10.2727C24.5488 10.4602 24.7955 10.5588 25.0619 10.5588C25.3184 10.5588 25.575 10.4503 25.7624 10.2727C25.9499 10.0852 26.0486 9.83855 26.0486 9.57214C26.0486 9.30573 25.94 9.05906 25.7624 8.87159Z" fill="#fff"/><path d="M43.6614 19.1139C44.2041 17.9694 44.5001 16.7064 44.5001 15.4336C44.5001 10.7172 40.6619 6.87896 35.9455 6.87896C34.4655 6.87896 33.0347 7.2539 31.7521 7.97418C29.1768 4.94504 25.3386 3.021 21.0563 3.021C17.4944 3.021 14.1002 4.35303 11.4953 6.78029C9.11738 8.99047 7.59788 11.9209 7.15387 15.108C6.02904 15.2264 4.93382 15.5914 3.95699 16.1637C0.14837 18.4035 -1.13433 23.3172 1.09559 27.1357C2.53616 29.6024 5.17062 31.0923 8.01229 31.0923C8.08136 31.0923 8.15043 31.0923 8.21949 31.0923C8.23923 31.0923 8.26883 31.0923 8.28856 31.0923H11.663C12.2057 31.0923 12.6497 30.6483 12.6497 30.1056C12.6497 29.563 12.2057 29.119 11.663 29.119H8.38723C8.3379 29.119 8.29843 29.1091 8.2491 29.119C6.01918 29.2078 3.92739 28.0632 2.80257 26.1392C1.98361 24.7479 1.75668 23.1199 2.17108 21.5609C2.57563 20.0019 3.57218 18.6896 4.96342 17.8707C5.89091 17.328 6.94666 17.0419 8.01229 17.0419C8.02216 17.0419 8.04189 17.0419 8.06162 17.0419C8.5747 17.0419 9.00885 16.6472 9.04831 16.1341C9.52193 9.89823 14.8106 5.00424 21.0761 5.00424C27.7264 5.00424 33.1334 10.4113 33.1334 17.0616C33.1334 17.7128 33.0841 18.3739 32.9756 19.0251C32.9065 19.4395 33.1137 19.8539 33.4788 20.0513C33.8438 20.2486 34.2977 20.1993 34.6135 19.9131C35.5903 19.035 36.8434 18.5515 38.1655 18.5515C41.0861 18.5515 43.4542 20.9196 43.4542 23.8402C43.4542 26.7608 41.0861 29.1288 38.1655 29.1288H36.35C35.8074 29.1288 35.3633 29.5728 35.3633 30.1155C35.3633 30.6582 35.8074 31.1022 36.35 31.1022H38.1655C42.1715 31.1022 45.4276 27.8461 45.4276 23.8402C45.4078 22.0345 44.7468 20.3867 43.6614 19.1139ZM42.1024 17.7523C40.9677 17.0123 39.6061 16.5781 38.1458 16.5781C37.0802 16.5781 36.0442 16.8149 35.0969 17.2491C35.0969 17.1899 35.0969 17.1307 35.0969 17.0715C35.0969 14.3285 34.3076 11.7631 32.9361 9.60222C33.8636 9.11874 34.8897 8.87207 35.9455 8.87207C39.5765 8.87207 42.5267 11.8223 42.5267 15.4533C42.5267 16.2229 42.3787 17.0123 42.1024 17.7523Z" fill="#fff"/></svg>