<svg width="16" height="14" viewBox="0 0 16 14" xmlns="http://www.w3.org/2000/svg"><path d="M5.42561 4.33485C5.32201 4.05426 5.04141 3.89453 4.75218 3.89453C4.60972 3.89453 4.59677 3.89885 4.51044 3.89885H2.19227C2.10593 3.89885 2.03255 3.89885 1.95053 3.89885C1.62244 3.89885 1.3807 4.05426 1.27709 4.33485L0.0381473 8.09917C-0.0784085 8.41862 0.0813161 8.77261 0.392132 8.88916C0.707264 9.01004 1.05693 8.84599 1.17349 8.53086L1.50157 7.6459C1.50157 7.6459 1.52315 7.55525 1.52315 7.94808V13.1715C1.52315 13.6291 1.89009 14.0003 2.34336 14.0003C2.79663 14.0003 3.16357 13.6291 3.16357 13.1715V9.75686C3.16357 9.75686 3.15925 9.72664 3.18947 9.72664C3.26717 9.72664 3.41826 9.72664 3.49597 9.72664C3.52619 9.72664 3.52619 9.75686 3.52619 9.75686V13.1715C3.52619 13.6291 3.89312 14.0003 4.34639 14.0003C4.79967 14.0003 5.1666 13.6291 5.1666 13.1715V7.94377C5.1666 7.54661 5.20114 7.6718 5.20114 7.6718L5.52059 8.53086C5.63714 8.85031 5.99113 9.01004 6.30194 8.88916C6.61707 8.76829 6.7768 8.41431 6.65593 8.09917L5.42561 4.33485Z"/><path d="M3.36635 3.48038C4.33669 3.48038 5.12332 2.70149 5.12332 1.74068C5.12332 0.779868 4.33669 0.000976562 3.36635 0.000976562C2.396 0.000976562 1.60938 0.779868 1.60938 1.74068C1.60938 2.70149 2.396 3.48038 3.36635 3.48038Z"/><path d="M12.2286 3.50021C13.1952 3.50021 13.9787 2.71666 13.9787 1.75011C13.9787 0.783549 13.1952 0 12.2286 0C11.2621 0 10.4785 0.783549 10.4785 1.75011C10.4785 2.71666 11.2621 3.50021 12.2286 3.50021Z"/><path d="M15.6734 8.00961L14.177 4.3675C14.091 4.1826 14.0179 3.9375 13.6653 3.9375C13.5363 3.9375 13.4073 3.9375 13.2568 3.9375H11.4336C11.2831 3.9375 11.2014 3.9375 11.0165 3.9375C10.6682 3.9375 10.4833 4.1654 10.3844 4.3718L8.83205 7.98381C8.68585 8.28911 8.80625 8.65462 9.10725 8.80082C9.40825 8.95132 9.76946 8.82232 9.91996 8.52131L10.0361 8.28051C10.0361 8.28051 10.0705 8.21601 10.0576 8.28911C9.97156 8.73202 9.73936 10.0736 9.73936 10.0736C9.68346 10.3531 9.86836 10.581 10.1522 10.581C10.1522 10.581 10.6596 10.581 10.8273 10.581C10.8746 10.581 10.866 10.6154 10.866 10.6154V13.3072C10.866 13.7587 11.1455 13.9952 11.4938 13.9952C11.8421 13.9952 12.1216 13.7587 12.1216 13.3072V10.6068C12.1216 10.6068 12.1216 10.581 12.1474 10.581C12.1818 10.581 12.2764 10.581 12.3194 10.581C12.3409 10.581 12.3409 10.6111 12.3409 10.6111V13.3115C12.3409 13.763 12.6204 13.9995 12.9687 13.9995C13.317 13.9995 13.5965 13.763 13.5965 13.3115V10.6283C13.5965 10.6283 13.5922 10.5853 13.6438 10.5853C13.8244 10.5853 14.3705 10.5853 14.3705 10.5853C14.6543 10.5853 14.8435 10.3574 14.7962 10.0779C14.7962 10.0779 14.564 8.64172 14.4995 8.25041C14.4823 8.13861 14.6672 8.53421 14.6672 8.53421C14.8091 8.83952 15.0843 8.96852 15.3853 8.82662C15.6863 8.68042 15.8196 8.31491 15.6734 8.00961Z"/></svg>