<svg width="13" height="14" viewBox="0 0 13 14" xmlns="http://www.w3.org/2000/svg"><path clip-rule="evenodd" d="M6.3 7C8.2336 7 9.8 5.4336 9.8 3.5C9.8 1.5664 8.2336 0 6.3 0C4.3664 0 2.8 1.5664 2.8 3.5C2.8 5.4336 4.3664 7 6.3 7ZM6.3002 1.4C7.4606 1.4 8.4002 2.3396 8.4002 3.5C8.4002 4.6604 7.4606 5.6 6.3002 5.6C5.13979 5.6 4.2002 4.6604 4.2002 3.5C4.2002 2.3396 5.13979 1.4 6.3002 1.4ZM12.6 13.3C12.6 13.6866 12.2866 14 11.9 14C11.5134 14 11.2 13.6866 11.2 13.3V11.9C11.2 10.8779 8.5092 9.8 6.3 9.8C4.0908 9.8 1.4 10.8779 1.4 11.9L1.4 13.3C1.4 13.6866 1.0866 14 0.7 14C0.313401 14 0 13.6866 0 13.3V11.9C0 9.7547 3.38169 8.4 6.3 8.4C9.21831 8.4 12.6 9.7547 12.6 11.9V13.3Z"/></svg>