<svg width="33" height="27" viewBox="0 0 33 27" fill="none" xmlns="http://www.w3.org/2000/svg"><path d="M32.0965 7.3411C31.9704 7.27177 29.18 5.82272 24.4886 4.83449C23.9662 4.72445 23.5479 4.32727 23.4261 3.80749C22.905 1.56975 20.9345 0 18.63 0H13.9474C11.6496 0 9.67904 1.56307 9.15133 3.80749C9.02954 4.32715 8.61105 4.72403 8.08866 4.83353C3.39728 5.81681 0.607 7.27177 0.480946 7.3411C0.187034 7.49474 0 7.80201 0 8.136V18.7569C0 23.0119 3.46014 26.4787 7.72185 26.4787C8.22284 26.4787 8.62363 26.078 8.62363 25.577C8.62363 25.076 8.22284 24.6752 7.72185 24.6752C4.46211 24.6752 1.80355 22.0233 1.80355 18.7569V13.202C1.80355 10.4617 3.39712 7.93362 6.03531 7.19256C7.14119 6.88192 8.4211 6.5792 9.85271 6.33245C10.2067 6.27234 10.494 5.99846 10.5741 5.65111L10.9081 4.21496C11.2421 2.79884 12.4846 1.80355 13.9474 1.80355H18.63C20.0862 1.80355 21.3353 2.79216 21.6693 4.21496L22.0033 5.65111C22.0834 6.00514 22.3707 6.27234 22.7247 6.33245C24.1498 6.57888 25.4259 6.88112 26.5302 7.19133C29.174 7.93404 30.7739 10.4673 30.7739 13.2135V18.7569C30.7739 22.0166 28.122 24.6752 24.8556 24.6752C24.3546 24.6752 23.9538 25.076 23.9538 25.577C23.9538 26.078 24.3546 26.4787 24.8556 26.4787C29.1106 26.4787 32.5774 23.0186 32.5774 18.7569V8.136C32.5774 7.80201 32.397 7.49474 32.0965 7.3411Z" fill="#fff"/><path d="M2.95238 5.49799C3.0459 5.49799 3.13942 5.48463 3.23293 5.45123C4.18147 5.13728 5.17676 4.85673 6.19209 4.61625C6.67971 4.5027 6.97362 4.01507 6.86007 3.53413C6.74651 3.0465 6.25888 2.75259 5.77794 2.86614C4.71585 3.11998 3.66712 3.41389 2.66515 3.7412C2.19088 3.89483 1.93705 4.40918 2.09069 4.87677C2.22428 5.25751 2.57831 5.49799 2.95238 5.49799Z" fill="#fff"/><path d="M16.292 6.23242C10.5674 6.23242 5.91162 10.8882 5.91162 16.6128C5.91162 22.3374 10.5674 26.9999 16.292 26.9999C22.0166 26.9999 26.6724 22.3441 26.6724 16.6195C26.6724 10.8949 22.0166 6.23242 16.292 6.23242ZM16.292 25.1964C11.5627 25.1964 7.71517 21.3488 7.71517 16.6195C7.71517 11.8902 11.5627 8.03597 16.292 8.03597C21.0213 8.03597 24.8689 11.8835 24.8689 16.6128C24.8689 21.3421 21.0213 25.1964 16.292 25.1964Z" fill="#fff"/></svg>