<svg width="14" height="14" viewBox="0 0 14 14" xmlns="http://www.w3.org/2000/svg"><path d="M7 0C3.13542 0 0 3.13542 0 7C0 10.8646 3.13542 14 7 14C10.8646 14 14 10.8646 14 7C13.9971 3.13542 10.8646 0.00291667 7 0ZM7.25083 2.01833L9.68333 1.04417C9.96042 1.16958 10.2258 1.3125 10.4825 1.47583L10.4883 1.47875C10.7392 1.63917 10.9812 1.81417 11.2087 2.00667L11.2292 2.02417C11.3313 2.11167 11.4304 2.20208 11.5267 2.29542C11.5383 2.30708 11.5529 2.31875 11.5646 2.33042C11.6667 2.42958 11.7629 2.53167 11.8592 2.63667C11.8679 2.64542 11.8737 2.65417 11.8825 2.66292C11.9671 2.75625 12.0458 2.8525 12.1246 2.95167C12.1421 2.975 12.1625 2.99833 12.18 3.02167C12.2646 3.12958 12.3462 3.24333 12.4221 3.35708L11.9379 5.41917L9.55208 6.21542L7.25083 4.375V2.01833ZM1.82 3.02458C1.8375 3.00125 1.85792 2.97792 1.87542 2.95458C1.95125 2.85833 2.03292 2.76208 2.11458 2.66875C2.12333 2.66 2.13208 2.64833 2.14083 2.63958C2.23417 2.53458 2.33333 2.4325 2.43542 2.33333C2.44708 2.32167 2.45875 2.31 2.47042 2.29833C2.56667 2.205 2.66583 2.1175 2.765 2.03L2.78833 2.00958C3.01292 1.82 3.25208 1.64208 3.50292 1.48458L3.51167 1.47875C3.76542 1.31833 4.03083 1.1725 4.305 1.04708L6.74917 2.01542V4.375L4.45083 6.21542L2.065 5.42208L1.58083 3.36C1.65667 3.24333 1.73833 3.1325 1.82 3.02458ZM1.54 10.5817C1.47 10.4767 1.40583 10.3717 1.34458 10.2608L1.33 10.2346C1.26875 10.1267 1.2075 10.0158 1.15208 9.905L1.14917 9.90208C1.0325 9.66875 0.930417 9.42667 0.842917 9.17875V9.17583C0.802083 9.05917 0.764167 8.93958 0.729167 8.82L0.7175 8.77625C0.685417 8.6625 0.65625 8.54875 0.63 8.435C0.627083 8.42333 0.624167 8.41167 0.62125 8.40292C0.562917 8.14333 0.522083 7.87792 0.49875 7.6125L1.92208 5.90333L4.29333 6.69375L4.98167 9.44417L3.85 10.9462L1.54 10.5817ZM8.55458 13.3438C8.43792 13.3729 8.31833 13.3962 8.19875 13.4196C8.18125 13.4225 8.16375 13.4254 8.14917 13.4283C8.04708 13.4458 7.945 13.4633 7.84 13.475C7.81375 13.4779 7.78458 13.4808 7.75833 13.4867C7.66208 13.4983 7.56583 13.5071 7.46958 13.5129C7.44042 13.5158 7.40833 13.5188 7.37917 13.5188C7.25375 13.5275 7.13125 13.5304 7.00292 13.5304C6.88625 13.5304 6.7725 13.5275 6.65875 13.5217C6.64417 13.5217 6.6325 13.5188 6.61792 13.5188C6.51583 13.5129 6.41667 13.5042 6.31458 13.4954L6.30292 13.4925C6.08125 13.4692 5.8625 13.4342 5.64375 13.3875L4.26125 11.2292L5.3725 9.74458H8.62458L9.75625 11.2379L8.55458 13.3438ZM13.3817 8.4C13.3787 8.41167 13.3758 8.42333 13.3729 8.43208C13.3467 8.54875 13.3175 8.6625 13.2854 8.77333L13.2738 8.81708C13.2388 8.93667 13.2008 9.05625 13.16 9.17292V9.17583C13.0725 9.42375 12.9704 9.66583 12.8538 9.89917L12.8508 9.90208C12.7954 10.0129 12.7371 10.1237 12.6729 10.2317L12.6583 10.2579C12.5971 10.3658 12.53 10.4738 12.4629 10.5758L10.1617 10.9375L9.02417 9.43542L9.7125 6.685L12.0837 5.89458L13.5071 7.60375C13.4779 7.875 13.4371 8.14042 13.3817 8.4Z"/></svg>