<svg height="504" viewBox="0 -3 378.583 378" width="504" xmlns="http://www.w3.org/2000/svg"><path d="m90.101562 267.550781h-6.382812c-46.164062 0-83.71875-37.195312-83.71875-82.910156 0-43.71875 34.492188-79.742187 77.945312-82.695313 14.695313-59.222656 68.976563-101.652343 131.09375-101.652343 74.433594 0 134.996094 59.945312 134.996094 133.628906 0 1.683594-.042968 3.355469-.113281 5.023437 13.398437 4.386719 25.105469 12.914063 33.371094 24.417969 2.207031 3.066407 1.507812 7.332031-1.550781 9.53125-3.074219 2.195313-7.335938 1.496094-9.527344-1.554687-7.480469-10.40625-18.488282-17.742188-31-20.671875-3.285156-.769531-5.519532-3.824219-5.253906-7.1875.253906-3.160157.421874-6.339844.421874-9.558594 0-66.15625-54.433593-119.976563-121.339843-119.976563-57.496094 0-107.5 40.371094-118.914063 96.003907-.648437 3.164062-3.429687 5.441406-6.660156 5.453125-38.496094.136718-69.8125 31.199218-69.8125 69.238281 0 38.1875 31.433594 69.257813 70.066406 69.257813h6.378906c3.773438 0 6.828126 3.054687 6.828126 6.824218 0 3.769532-3.054688 6.828125-6.828126 6.828125zm0 0"/><path d="m49.148438 193.402344c-3.773438 0-6.828126-3.054688-6.828126-6.824219 0-28.308594 23.027344-51.332031 51.332032-51.332031 3.773437 0 6.828125 3.054687 6.828125 6.824218 0 3.769532-3.054688 6.828126-6.828125 6.828126-20.78125 0-37.679688 16.902343-37.679688 37.679687 0 3.769531-3.050781 6.824219-6.824218 6.824219zm0 0"/><path d="m283.933594 115.121094c-2.660156 0-5.183594-1.566406-6.285156-4.167969-11.78125-27.863281-38.941407-45.867187-69.195313-45.867187-3.773437 0-6.824219-3.058594-6.824219-6.828126 0-3.769531 3.050782-6.828124 6.824219-6.828124 35.746094 0 67.847656 21.277343 81.765625 54.203124 1.46875 3.472657-.152344 7.480469-3.625 8.945313-.867188.367187-1.773438.542969-2.660156.542969zm0 0"/><path d="m92.394531 372.285156c-1.085937 0-2.1875-.261718-3.199219-.800781-2.902343-1.542969-4.289062-4.929687-3.3125-8.0625l24.585938-78.765625h-29.839844c-2.660156 0-5.082031-1.546875-6.195312-3.960938-1.117188-2.410156-.734375-5.253906.988281-7.285156l93.691406-110.347656c2.132813-2.507812 5.753907-3.148438 8.613281-1.492188 2.859376 1.644532 4.128907 5.09375 3.027344 8.203126l-26.921875 75.644531h29.394531c2.628907 0 5.019532 1.507812 6.152344 3.875 1.140625 2.367187.816406 5.175781-.824218 7.226562l-90.828126 113.210938c-1.332031 1.660156-3.3125 2.554687-5.332031 2.554687zm2.984375-101.28125h24.367188c2.171875 0 4.214844 1.03125 5.5 2.785156 1.289062 1.746094 1.667968 4.003907 1.015625 6.078126l-16.589844 53.148437 59.328125-73.9375h-24.839844c-2.21875 0-4.300781-1.078125-5.582031-2.890625-1.277344-1.8125-1.59375-4.132812-.851563-6.226562l17.660157-49.625zm0 0"/><path d="m257.402344 341.609375c-1.714844 0-3.453125-.246094-5.175782-.769531-9.429687-2.859375-14.785156-12.863282-11.929687-22.296875 1.890625-6.257813 16.570313-27.152344 22.789063-35.84375 1.707031-2.378907 4.742187-3.394531 7.535156-2.5625 2.800781.847656 4.746094 3.386719 4.839844 6.3125.351562 10.683593.964843 36.210937-.925782 42.460937-2.339844 7.714844-9.460937 12.699219-17.132812 12.699219zm4.773437-33.589844c-4.628906 6.9375-8.195312 12.675781-8.828125 14.507813-.660156 2.195312.605469 4.570312 2.839844 5.246094 2.238281.675781 4.59375-.589844 5.273438-2.808594.492187-1.890625.707031-8.632813.714843-16.945313zm0 0"/><path d="m279.554688 275.25c-1.742188 0-3.496094-.253906-5.207032-.777344-4.574218-1.382812-8.335937-4.46875-10.585937-8.683594-2.246094-4.210937-2.730469-9.050781-1.339844-13.621093 1.882813-6.246094 16.570313-27.144531 22.792969-35.835938 1.703125-2.382812 4.746094-3.398437 7.53125-2.5625 2.800781.851563 4.746094 3.386719 4.839844 6.3125.355468 10.683594.960937 36.199219-.933594 42.460938-1.378906 4.570312-4.464844 8.332031-8.679688 10.585937-2.632812 1.40625-5.511718 2.121094-8.417968 2.121094zm4.738281-33.59375c-4.617188 6.929688-8.183594 12.664062-8.8125 14.496094-.671875 2.207031.59375 4.578125 2.828125 5.253906 1.078125.328125 2.21875.214844 3.226562-.320312.992188-.53125 1.71875-1.414063 2.046875-2.484376.492188-1.886718.707031-8.632812.710938-16.945312zm0 0"/><path d="m307.214844 319.496094c-1.746094 0-3.5-.257813-5.214844-.777344-4.574219-1.386719-8.332031-4.46875-10.585938-8.683594-2.253906-4.214844-2.726562-9.054687-1.339843-13.625 1.886719-6.246094 16.574219-27.140625 22.792969-35.832031 1.707031-2.378906 4.738281-3.390625 7.53125-2.558594 2.800781.847657 4.746093 3.386719 4.839843 6.308594.355469 10.683594.960938 36.210937-.933593 42.460937-1.382813 4.574219-4.472657 8.332032-8.679688 10.585938-2.632812 1.40625-5.511719 2.121094-8.410156 2.121094zm4.734375-33.597656c-4.621094 6.933593-8.1875 12.664062-8.816407 14.5-.320312 1.054687-.203124 2.203124.324219 3.199218.53125.996094 1.425781 1.726563 2.503907 2.050782 2.214843.667968 4.589843-.582032 5.273437-2.800782.492187-1.890625.707031-8.632812.714844-16.949218zm0 0"/><path d="m329.339844 258.65625c-1.746094 0-3.5-.253906-5.21875-.777344-4.566406-1.382812-8.328125-4.464844-10.582032-8.679687-2.25-4.210938-2.734374-9.054688-1.34375-13.625 1.890626-6.246094 16.570313-27.140625 22.789063-35.832031 1.707031-2.382813 4.753906-3.402344 7.535156-2.5625 2.800781.851562 4.746094 3.386718 4.839844 6.3125.351563 10.683593.960937 36.207031-.925781 42.453124v.003907c-1.386719 4.574219-4.472656 8.335937-8.6875 10.585937-2.632813 1.410156-5.507813 2.121094-8.40625 2.121094zm4.726562-33.589844c-4.617187 6.933594-8.183594 12.671875-8.820312 14.503906-.3125 1.046876-.199219 2.191407.335937 3.1875.53125 1 1.417969 1.730469 2.507813 2.054688 1.078125.324219 2.226562.21875 3.21875-.316406.992187-.53125 1.71875-1.410156 2.054687-2.484375.484375-1.890625.703125-8.628907.703125-16.945313zm5.835938 18.90625h.066406zm0 0h.066406zm-6.535156-1.976562"/><path d="m257.402344 225.46875c-1.714844 0-3.453125-.246094-5.175782-.769531-9.429687-2.859375-14.785156-12.863281-11.929687-22.300781 1.890625-6.253907 16.570313-27.144532 22.789063-35.839844 1.707031-2.382813 4.742187-3.398438 7.535156-2.558594 2.800781.84375 4.746094 3.382812 4.839844 6.308594.351562 10.683594.964843 36.210937-.925782 42.460937-2.339844 7.714844-9.460937 12.699219-17.132812 12.699219zm4.773437-33.589844c-4.628906 6.9375-8.195312 12.675782-8.828125 14.507813-.660156 2.199219.605469 4.570312 2.839844 5.246093 2.238281.691407 4.59375-.585937 5.273438-2.808593.492187-1.890625.707031-8.632813.714843-16.945313zm0 0"/><path d="m229.789062 286.308594c-1.746093 0-3.503906-.253906-5.214843-.773438-4.574219-1.386718-8.335938-4.46875-10.585938-8.683594-2.253906-4.214843-2.730469-9.054687-1.339843-13.625 1.882812-6.246093 16.566406-27.140624 22.785156-35.832031 1.707031-2.378906 4.753906-3.394531 7.535156-2.558593 2.800781.84375 4.746094 3.382812 4.839844 6.308593.351562 10.683594.964844 36.210938-.925782 42.460938-1.386718 4.570312-4.476562 8.332031-8.679687 10.585937-2.636719 1.40625-5.515625 2.117188-8.414063 2.117188zm4.734376-33.589844c-4.621094 6.929688-8.1875 12.664062-8.816407 14.496094-.320312 1.054687-.207031 2.203125.320313 3.199218.535156.996094 1.429687 1.726563 2.507812 2.054688 2.214844.667969 4.589844-.585938 5.273438-2.804688.492187-1.894531.707031-8.636718.714844-16.945312zm0 0"/></svg>