<svg width="14" height="14" viewBox="0 0 14 14" xmlns="http://www.w3.org/2000/svg"><path d="M13.0012 9.96421C12.9326 9.91388 12.8594 9.85897 12.7953 9.80406C12.443 9.52037 12.0678 9.25955 11.7017 9.00331C11.6285 8.95298 11.5507 8.89807 11.4775 8.84774C11.0108 8.52286 10.5944 8.36271 10.1963 8.36271C9.66552 8.36271 9.19879 8.65556 8.81443 9.23667C8.64513 9.49292 8.43922 9.62103 8.18298 9.62103C8.03198 9.62103 7.86268 9.57985 7.67508 9.49291C6.17424 8.81113 5.09895 7.76787 4.4858 6.386C4.18838 5.71794 4.28447 5.28325 4.8061 4.93092C5.10352 4.72959 5.65261 4.35438 5.616 3.63599C5.5794 2.82151 3.78571 0.368926 3.02614 0.0898069C2.70584 -0.0291618 2.36724 -0.0291618 2.02406 0.0852312C1.15467 0.378077 0.5278 0.890558 0.21665 1.57234C-0.0853471 2.22667 -0.07162 2.99997 0.257832 3.80072C1.20043 6.12061 2.53197 8.1385 4.2021 9.80864C5.84021 11.4422 7.85353 12.7783 10.1871 13.7849C10.3976 13.8765 10.6173 13.9268 10.7774 13.9588C10.8323 13.9725 10.8781 13.9817 10.9147 13.9908C10.933 13.9954 10.9513 14 10.9742 14H10.9925C12.0906 14 13.4085 12.9979 13.8111 11.854C14.1726 10.8565 13.5228 10.3623 13.0012 9.96421Z"/></svg>