<svg width="32" height="31" viewBox="0 0 32 31" fill="none" xmlns="http://www.w3.org/2000/svg">
<path d="M19.2332 11.7723C18.997 11.5362 18.6155 11.5362 18.3793 11.7723C18.1431 12.0085 18.1431 12.39 18.3793 12.6262C18.6155 12.8624 18.997 12.8624 19.2332 12.6262C19.4693 12.39 19.4693 12.0085 19.2332 11.7723Z" fill="white"/>
<path d="M30.2975 11.8453L29.4436 10.9914C29.4739 10.943 30.4065 10.186 30.4065 8.77495C30.4065 7.96347 30.0916 7.20649 29.5163 6.63118L29.0863 6.20121L29.5163 5.77124C30.6972 4.59035 30.7033 2.67064 29.5163 1.48974C28.3354 0.308849 26.4157 0.302794 25.2348 1.48974L24.8048 1.91971L24.3749 1.48974C23.194 0.308849 21.2743 0.302794 20.0934 1.48974L20.0207 1.56241L19.1668 0.708537C18.2221 -0.236179 16.69 -0.236179 15.7392 0.708537C14.7945 1.65325 14.7945 3.18539 15.7392 4.13616L19.1668 7.56378L7.56378 19.1608L4.13616 15.7331C3.19144 14.7884 1.65931 14.7824 0.708537 15.7331C-0.236179 16.6779 -0.236179 18.21 0.708537 19.1608L1.56241 20.0147L1.48974 20.0873C0.308849 21.2682 0.302794 23.1879 1.48974 24.3688L1.91971 24.7988L1.48974 25.2288C0.308849 26.4096 0.302794 28.3294 1.48974 29.5103C2.67064 30.6911 4.59035 30.6972 5.77124 29.5103L6.20121 29.0803L6.63118 29.5103C7.81207 30.6911 9.73178 30.6972 10.9127 29.5103L10.9853 29.4376L11.8392 30.2915C12.7839 31.2362 14.3161 31.2362 15.2668 30.2915C16.2116 29.3467 16.2116 27.8146 15.2668 26.8638L11.8392 23.4362L23.4423 11.8332L26.8699 15.2608C27.8146 16.2055 29.3467 16.2116 30.2975 15.2608C31.2422 14.3221 31.2422 12.79 30.2975 11.8453ZM26.0887 2.34968C26.7972 1.64114 27.9478 1.63508 28.6564 2.34968C29.3649 3.05821 29.3649 4.20883 28.6564 4.91737L28.2264 5.34733L25.6587 2.77964L26.0887 2.34968ZM20.9473 2.34968C21.6558 1.64114 22.8064 1.64114 23.5149 2.34968L28.6503 7.48505C29.3589 8.19359 29.3589 9.34421 28.6503 10.0527L28.5777 10.1254L20.8746 2.42235L20.9473 2.34968ZM4.91737 28.6564C4.20883 29.3649 3.05821 29.371 2.34968 28.6564C1.64114 27.9478 1.64114 26.7972 2.34968 26.0887L2.77964 25.6587L5.34733 28.2264L4.91737 28.6564ZM10.0588 28.6564C9.35026 29.3649 8.19965 29.3649 7.49111 28.6564L2.35573 23.521C1.6472 22.8125 1.6472 21.6618 2.35573 20.9533L2.4284 20.8806L10.1315 28.5837L10.0588 28.6564ZM14.413 27.7298C14.8853 28.2022 14.8853 28.9713 14.413 29.4436C13.9406 29.916 13.1715 29.916 12.6992 29.4436C12.1905 28.9349 2.11955 18.858 1.56847 18.3069C1.09611 17.8345 1.09006 17.0715 1.56847 16.5931C2.04083 16.1207 2.80387 16.1207 3.28228 16.5931L14.413 27.7298ZM10.9853 22.5884L8.41766 20.0207L20.0207 8.41766L22.5884 10.9853L10.9853 22.5884ZM29.4376 14.413C28.9652 14.8853 28.2022 14.8853 27.7238 14.413L16.5931 3.27623C16.1207 2.80387 16.1207 2.03477 16.5931 1.56241C17.0654 1.09006 17.8345 1.09006 18.3069 1.56241C18.864 2.11955 28.941 12.1965 29.4376 12.6931C29.9099 13.1715 29.916 13.9346 29.4376 14.413Z" fill="white"/>
<path d="M17.5259 13.4799C17.2897 13.2437 16.9082 13.2437 16.672 13.4799L11.7728 18.3791C11.5367 18.6152 11.5367 18.9968 11.7728 19.2329C12.009 19.4691 12.3905 19.4691 12.6267 19.2329L17.5259 14.3337C17.7621 14.1036 17.7621 13.716 17.5259 13.4799Z" fill="white"/>
</svg>
