<svg width="32" height="31" viewBox="0 0 32 31" fill="none" xmlns="http://www.w3.org/2000/svg">
<path d="M19.6344 19.6841V14.9822C19.6344 14.1297 18.9368 13.4321 18.0843 13.4321H3.61686C2.76431 13.4321 2.06677 14.1297 2.06677 14.9822V19.6841C0.891296 19.9231 0 20.9694 0 22.2159V25.3161V30.483C0 30.7672 0.232512 30.9997 0.516694 30.9997H2.58347C2.86765 30.9997 3.10016 30.7672 3.10016 30.483V28.9329H18.601V30.483C18.601 30.7672 18.8335 30.9997 19.1177 30.9997H21.1844C21.4686 30.9997 21.7011 30.7672 21.7011 30.483V25.3161V22.2159C21.7011 20.9694 20.8098 19.9231 19.6344 19.6841ZM3.10016 14.9822C3.10016 14.698 3.33267 14.4655 3.61686 14.4655H18.0843C18.3685 14.4655 18.601 14.698 18.601 14.9822V19.6325H17.5676V17.5657C17.5676 16.7131 16.87 16.0156 16.0175 16.0156H12.9173C12.0648 16.0156 11.3673 16.7131 11.3673 17.5657V19.6325H10.3339V17.5657C10.3339 16.7131 9.63634 16.0156 8.78379 16.0156H5.68363C4.83109 16.0156 4.13355 16.7131 4.13355 17.5657V19.6325H3.10016V14.9822ZM16.5342 17.5657V19.6325H12.4006V17.5657C12.4006 17.2815 12.6332 17.049 12.9173 17.049H16.0175C16.3017 17.049 16.5342 17.2815 16.5342 17.5657ZM9.30048 17.5657V19.6325H5.16694V17.5657C5.16694 17.2815 5.39945 17.049 5.68363 17.049H8.78379C9.06797 17.049 9.30048 17.2815 9.30048 17.5657ZM20.6677 29.9663H19.6344V28.4162C19.6344 28.1321 19.4018 27.8995 19.1177 27.8995H2.58347C2.29929 27.8995 2.06677 28.1321 2.06677 28.4162V29.9663H1.03339V25.8328H20.6677V29.9663ZM20.6677 24.7994H1.03339V22.2159C1.03339 21.3634 1.73092 20.6658 2.58347 20.6658H4.65024H9.81718H11.884H17.0509H19.1177C19.9702 20.6658 20.6677 21.3634 20.6677 22.2159V24.7994Z" fill="white"/>
<path d="M30.4848 19.6328H23.2511C22.9669 19.6328 22.7344 19.8653 22.7344 20.1495V24.2831V27.8999H23.7678V24.7997H29.9681V27.8999H31.0015V24.2831V20.1495C31.0015 19.8653 30.769 19.6328 30.4848 19.6328ZM29.9681 23.7664H23.7678V20.6662H29.9681V23.7664Z" fill="white"/>
<path d="M27.9012 21.7002H25.8345V22.7336H27.9012V21.7002Z" fill="white"/>
<path d="M29.4255 15.3377L28.3921 12.2376C28.3211 12.0244 28.1273 11.8823 27.9013 11.8823H25.8345C25.6149 11.8823 25.4147 12.0244 25.3436 12.2376L24.3103 15.3377C24.2586 15.4927 24.2844 15.6671 24.3813 15.8027C24.4782 15.9384 24.6332 16.0159 24.8011 16.0159H26.3512V17.566H25.3178V18.5993H28.418V17.566H27.3846V16.0159H28.9347C29.1026 16.0159 29.2576 15.9384 29.3545 15.8027C29.4514 15.6671 29.4772 15.4927 29.4255 15.3377ZM25.518 14.9825L26.2091 12.9157H27.5331L28.2242 14.9825H25.518Z" fill="white"/>
<path d="M30.6981 6.76061L15.7139 0.043596C15.5783 -0.014532 15.4233 -0.014532 15.2941 0.043596L0.310016 6.76061C0.116256 6.84457 0 7.02542 0 7.2321V13.4324H1.03339V7.56795L15.5008 1.08344L29.9682 7.56795V13.4324H31.0016V7.2321C31.0016 7.02542 30.8854 6.84457 30.6981 6.76061Z" fill="white"/>
<path d="M19.0659 7.14792L18.0455 7.32231C18.0713 7.4644 18.0842 7.60649 18.0842 7.75504C18.0842 9.1824 16.9281 10.3385 15.5008 10.3385C14.0734 10.3385 12.9173 9.1824 12.9173 7.75504C12.9173 6.32767 14.0734 5.17157 15.5008 5.17157C15.7979 5.17157 16.0885 5.22324 16.3598 5.32012L16.7021 4.34486C16.3145 4.20923 15.9077 4.13818 15.4943 4.13818C13.4986 4.13818 11.8774 5.75931 11.8774 7.75504C11.8774 9.75077 13.4986 11.3719 15.4943 11.3719C17.49 11.3719 19.1112 9.75077 19.1112 7.75504C19.1176 7.54836 19.0982 7.34168 19.0659 7.14792Z" fill="white"/>
<path d="M18.7493 4.28027L15.5005 7.53544L14.8353 6.8702L14.1055 7.60003L15.1389 8.63342C15.2422 8.73676 15.3714 8.78197 15.507 8.78197C15.6426 8.78197 15.7718 8.7303 15.8751 8.63342L19.492 5.01656L18.7493 4.28027Z" fill="white"/>
</svg>
