<svg width="20" height="31" viewBox="0 0 20 31" fill="none" xmlns="http://www.w3.org/2000/svg">
<path d="M16.0146 8.30098V7.23535H17.5646C18.3941 7.23535 19.1146 6.56328 19.1146 5.68535V1.55C19.1146 0.720508 18.4426 0 17.5646 0H2.06465C1.24121 0 0.514648 0.67207 0.514648 1.55V5.68535C0.514648 6.51484 1.18672 7.23535 2.06465 7.23535H3.61465V8.30098C1.58633 8.55527 0 10.299 0 12.4V13.95V25.3146V26.8646C0 29.1352 1.85879 31 4.13535 31H15.5C17.7705 31 19.6354 29.1412 19.6354 26.8646V25.3146V13.95V12.4C19.6354 10.299 18.049 8.55527 16.0146 8.30098ZM1.55 5.68535V5.1707H6.71465C6.975 5.1707 7.2293 4.96484 7.2293 4.65605C7.2293 4.34727 7.02344 4.14141 6.71465 4.14141H1.55V3.1H3.61465C3.875 3.1 4.1293 2.89414 4.1293 2.58535C4.1293 2.27656 3.92344 2.0707 3.61465 2.0707H1.55V1.55605C1.55 1.2957 1.75586 1.04141 2.06465 1.04141H17.5646C17.825 1.04141 18.0793 1.24727 18.0793 1.55605V2.0707H12.9146C12.6059 2.0707 12.4 2.27656 12.4 2.58535C12.4 2.8457 12.6059 3.1 12.9146 3.1H18.0793V4.13535H16.0146C15.7543 4.13535 15.5 4.34121 15.5 4.65C15.5 4.91035 15.7059 5.16465 16.0146 5.16465H18.0793V5.6793C18.0793 5.93965 17.8734 6.19395 17.5646 6.19395H15.5H4.13535H2.06465C1.81035 6.2 1.55 5.99414 1.55 5.68535ZM14.9854 7.23535V8.2707H4.65V7.23535H14.9854ZM4.13535 9.3H15.5C17.2074 9.3 18.6 10.6926 18.6 12.4V13.4354H1.03535V12.4C1.03535 10.6926 2.42793 9.3 4.13535 9.3ZM18.6 24.8H1.03535V14.4646H18.6V24.8ZM15.5 29.9646H4.13535C2.42793 29.9646 1.03535 28.5721 1.03535 26.8646V25.8293H18.6V26.8646C18.6 28.5721 17.2074 29.9646 15.5 29.9646Z" fill="white"/>
<path d="M7.74986 20.2042H10.7469L8.36744 22.941C8.16158 23.1468 8.21001 23.4556 8.42193 23.6615C8.52486 23.716 8.68228 23.7644 8.78521 23.7644C8.94263 23.7644 9.094 23.7099 9.19693 23.607L12.2969 19.9923C12.3999 19.8349 12.4543 19.629 12.3514 19.4232C12.2485 19.2173 12.0911 19.1144 11.8852 19.1144H8.88814L11.2131 16.3777C11.419 16.1718 11.3706 15.863 11.1586 15.6572C10.9467 15.4513 10.644 15.4997 10.4381 15.7117L7.33814 19.3263C7.23521 19.4837 7.18072 19.6896 7.28365 19.8954C7.38658 20.1013 7.544 20.2042 7.74986 20.2042Z" fill="white"/>
</svg>
