<svg width="36" height="31" viewBox="0 0 36 31" fill="none" xmlns="http://www.w3.org/2000/svg">
<path d="M18.4758 17.8818C16.3733 17.8818 14.8994 19.3557 14.8994 21.4582V22.052C14.8994 24.9508 16.5339 26.8228 19.0695 26.8228C21.6051 26.8228 23.2397 24.9508 23.2397 22.052V21.4582C23.2397 19.3557 21.7658 17.8818 19.6633 17.8818H18.4758ZM22.0522 21.4582V22.052C22.0522 23.1277 21.7588 25.6283 19.0695 25.6283C16.3803 25.6283 16.0869 23.1277 16.0869 22.052V21.4582C16.0869 20.0123 17.0229 19.0763 18.4688 19.0763H19.6633C21.1162 19.0763 22.0522 20.0123 22.0522 21.4582Z" fill="white"/>
<path d="M17.903 21.458C17.5677 21.458 17.3022 21.7234 17.3022 22.0517C17.3022 22.38 17.5747 22.6455 17.903 22.6455C18.2313 22.6455 18.4967 22.38 18.4967 22.0517C18.4967 21.7234 18.2313 21.458 17.903 21.458Z" fill="white"/>
<path d="M20.8156 13.7047C21.1509 13.7257 21.4303 13.4812 21.4582 13.1529L22.0519 5.41335C22.1847 3.99537 24.0916 2.37482 25.6283 2.37482H26.8228C28.3944 2.37482 30.2944 3.98839 30.3992 5.39938L30.9929 13.1459C31.0139 13.4602 31.2793 13.6977 31.5866 13.6977C31.6006 13.6977 31.6146 13.6977 31.6355 13.6977C31.9638 13.6698 32.2083 13.3834 32.1874 13.0551L31.5936 5.30858C31.433 3.1362 28.7926 1.19434 26.8228 1.19434H25.6283C23.4559 1.19434 21.0531 3.26892 20.8645 5.32255L20.2707 13.0691C20.2428 13.3974 20.4873 13.6837 20.8156 13.7047Z" fill="white"/>
<path d="M26.1943 5.17564C26.1105 4.93117 25.8869 4.77051 25.6285 4.77051C25.37 4.77051 25.1465 4.93117 25.0627 5.17564C24.6157 6.51679 23.2955 6.5587 23.2466 6.5587C22.9183 6.5587 22.6528 6.82414 22.6528 7.15244V9.53437C22.6528 11.5251 24.0149 14.3052 26.2292 14.3052C28.4435 14.3052 29.8056 11.5251 29.8056 9.53437V7.15244C29.8056 6.82414 29.5402 6.5587 29.2119 6.5587C29.1839 6.5587 26.6413 6.51679 26.1943 5.17564ZM28.6111 9.53437C28.6111 11.1549 27.5494 13.1108 26.2292 13.1108C24.909 13.1108 23.8473 11.1549 23.8473 9.53437V7.67632C24.434 7.5436 25.1535 7.20832 25.6774 6.53774C26.5086 7.37596 27.8428 7.63441 28.6111 7.71823V9.53437Z" fill="white"/>
<path d="M11.9239 5.95798H12.5177C12.846 5.95798 13.1114 5.69254 13.1114 5.36424C13.1114 5.03594 12.846 4.77051 12.5177 4.77051H11.9239C11.5956 4.77051 11.3302 5.03594 11.3302 5.36424C11.3232 5.69254 11.5887 5.95798 11.9239 5.95798Z" fill="white"/>
<path d="M20.2848 22.6528C20.6131 22.6528 20.8785 22.3874 20.8785 22.0591C20.8785 21.7308 20.6131 21.4653 20.2848 21.4653H20.2778C19.9495 21.4653 19.6841 21.7308 19.6841 22.0591C19.6841 22.3804 19.9565 22.6528 20.2848 22.6528Z" fill="white"/>
<path d="M5.98593 7.00608C6.09769 8.15165 6.60062 9.1575 6.62157 9.2064C7.15943 10.2891 7.97669 11.9236 10.7288 11.9236C13.481 11.9236 14.2982 10.2891 14.8361 9.2064C14.857 9.1575 15.36 8.15165 15.4717 7.00608C15.8419 6.80352 16.0934 6.41235 16.0934 5.95831V4.77084C16.0934 4.33078 15.8559 3.9466 15.4997 3.73704V3.57639C15.4997 1.60658 13.8931 0 11.9233 0H9.54136C7.57155 0 5.96497 1.60658 5.96497 3.57639V3.73704C5.60873 3.9466 5.37124 4.33078 5.37124 4.77084V5.9653C5.36425 6.41235 5.61571 6.80352 5.98593 7.00608ZM6.55871 4.77084C6.88701 4.77084 7.15244 4.50541 7.15244 4.17711V3.58337C7.15244 2.27017 8.22117 1.20144 9.53437 1.20144H11.9163C13.2295 1.20144 14.2982 2.27017 14.2982 3.58337V4.17711C14.2982 4.50541 14.5637 4.77084 14.892 4.77084V5.9653C14.5637 5.9653 14.2982 6.23073 14.2982 6.55904C14.2982 7.59283 13.7674 8.66854 13.7674 8.67553C13.1457 9.91888 12.6008 10.7292 10.7218 10.7292C8.84284 10.7292 8.298 9.91888 7.67633 8.67553C7.66934 8.66156 7.14546 7.58585 7.14546 6.55904C7.14546 6.23073 6.88002 5.9653 6.55172 5.9653L6.55871 4.77084Z" fill="white"/>
<path d="M20.8647 27.417C20.7459 27.417 20.6342 27.4519 20.5364 27.5148L19.0765 28.4857L17.6166 27.5218C17.5188 27.4589 17.407 27.424 17.2883 27.424C13.8376 27.424 13.1182 29.0445 13.1182 30.4066C13.1182 30.7349 13.3836 31.0004 13.7119 31.0004C14.0402 31.0004 14.3056 30.7349 14.3056 30.4066C14.3056 29.9247 14.3056 28.6743 17.1067 28.6184L18.7412 29.7081C18.9438 29.8408 19.2022 29.8408 19.4048 29.7081L21.0393 28.6184C23.8403 28.6673 23.8403 29.9247 23.8403 30.4066C23.8403 30.7349 24.1058 31.0004 24.4341 31.0004C24.7624 31.0004 25.0278 30.7349 25.0278 30.4066C25.0348 29.0375 24.3083 27.417 20.8647 27.417Z" fill="white"/>
<path d="M31.6288 20.2642C31.3005 20.2642 31.0351 20.5296 31.0281 20.8579L30.9932 30.3926C30.9932 30.7209 31.2586 30.9863 31.5869 30.9933C31.9152 30.9933 32.1806 30.7279 32.1806 30.3996L32.2156 20.8649C32.2225 20.5366 31.9571 20.2642 31.6288 20.2642Z" fill="white"/>
<path d="M8.9409 5.95798H9.53464C9.86294 5.95798 10.1284 5.69254 10.1284 5.36424C10.1284 5.03594 9.86294 4.77051 9.53464 4.77051H8.9409C8.6126 4.77051 8.34717 5.03594 8.34717 5.36424C8.34717 5.69254 8.6126 5.95798 8.9409 5.95798Z" fill="white"/>
<path d="M13.6982 16.8063L14.1941 14.3196C17.2047 14.3895 19.3701 15.1369 20.0337 16.3593C20.1873 16.6457 20.5506 16.7574 20.844 16.5968C21.1303 16.4361 21.2421 16.0799 21.0814 15.7865C20.1454 14.0682 17.54 13.1252 13.7471 13.1252C13.4537 13.1182 13.1813 13.3138 13.1254 13.6072L12.5316 16.5828C12.4688 16.9041 12.6783 17.2185 12.9997 17.2813C13.0416 17.2883 13.0765 17.2953 13.1184 17.2953C13.3908 17.2883 13.6423 17.0927 13.6982 16.8063Z" fill="white"/>
<path d="M34.3039 16.0937C33.1374 14.9272 31.3771 14.3125 29.2257 14.3125C28.8834 14.3195 28.611 14.5709 28.611 14.9062C28.611 15.025 28.5691 17.8819 26.2291 17.8819C23.8891 17.8819 23.8471 15.032 23.8471 14.9062C23.8471 14.5779 23.5817 14.3125 23.2534 14.3125C22.9251 14.3125 22.6597 14.5779 22.6597 14.9062C22.6597 16.2404 23.3023 18.6642 25.6423 19.0205V22.052C25.6423 22.3803 25.9078 22.6458 26.2361 22.6458C26.5644 22.6458 26.8298 22.3803 26.8298 22.052V19.0205C28.8415 18.7131 29.5959 16.876 29.7705 15.5139C31.3492 15.6047 32.6205 16.0867 33.4657 16.9319C34.1851 17.6444 34.5763 18.6153 34.5763 19.6631V29.1978C34.5763 29.5261 34.8417 29.7915 35.17 29.7915C35.4983 29.7915 35.7638 29.5261 35.7638 29.1978V19.6701C35.7638 18.308 35.2469 17.0367 34.3039 16.0937Z" fill="white"/>
<path d="M10.7291 13.1113C10.0725 13.1113 9.53467 13.6492 9.53467 14.3058C9.53467 14.7458 9.77915 15.123 10.1284 15.3326V19.6704C10.1284 19.9987 10.3938 20.2641 10.7221 20.2641C11.0504 20.2641 11.3159 19.9987 11.3159 19.6704V15.3326C11.6721 15.123 11.9096 14.7458 11.9096 14.3058C11.9236 13.6492 11.3857 13.1113 10.7291 13.1113Z" fill="white"/>
<path d="M4.16991 20.2642C3.84161 20.2642 3.57617 20.5296 3.57617 20.8579V30.3926C3.57617 30.7209 3.84161 30.9863 4.16991 30.9863C4.49821 30.9863 4.76364 30.7209 4.76364 30.3926V20.8649C4.77063 20.5366 4.49821 20.2642 4.16991 20.2642Z" fill="white"/>
<path d="M8.33326 13.5932C8.27039 13.3068 7.99099 13.1182 7.71158 13.1182C4.58224 13.1182 2.18635 13.7887 0.963948 15.0041C0.321316 15.6468 0 16.4151 0 17.2883V29.2119C0 29.5402 0.265435 29.8056 0.593736 29.8056C0.922037 29.8056 1.18747 29.5402 1.18747 29.2119V17.2883C1.18747 16.7365 1.39004 16.2685 1.79518 15.8563C2.7242 14.9273 4.70099 14.3755 7.25755 14.3196L10.1354 28.1362C10.2053 28.4575 10.5196 28.6671 10.8409 28.5972C11.1622 28.5274 11.3718 28.213 11.3019 27.8917L8.33326 13.5932Z" fill="white"/>
</svg>
