<svg width="31" height="31" viewBox="0 0 31 31" fill="none" xmlns="http://www.w3.org/2000/svg">
<path d="M25.5 2.50049H24.5V3.50049H25.5V2.50049Z" fill="white"/>
<path d="M29.9875 11.7817C29.5 11.2942 28.8937 10.9692 28.2188 10.838L27.8813 10.7692C28.5688 10.0505 29 9.07549 29 8.00049V5.11924L29.3062 4.50674C29.4312 4.25049 29.5 3.96924 29.5 3.68799C29.5 3.10049 29.2125 2.53799 28.7313 2.19424L26.1938 0.381738C25.4937 -0.118262 24.5 -0.118262 23.8 0.381738L21.2625 2.19424C20.7875 2.53799 20.5 3.09424 20.5 3.68799C20.5 3.96924 20.5688 4.25049 20.6938 4.50674L21 5.11924V8.00049C21 9.05049 21.4062 10.0005 22.0688 10.713C21.0063 10.988 19.9813 11.363 19 11.8505V7.00049V6.00049V2.50049C19 1.11924 17.8813 0.000488281 16.5 0.000488281H2.5C1.11875 0.000488281 0 1.11924 0 2.50049V6.00049V7.00049V31.0005H3V7.00049H16V13.5442L14.85 14.213C14.7188 14.288 14.6 14.388 14.5 14.4942H8.5C7.675 14.4942 7 15.1692 7 15.9942C7 16.8192 7.675 17.4942 8.5 17.4942H15.5C15.575 17.4942 15.6437 17.4817 15.7125 17.4755V17.4942C15.8062 17.4942 15.9062 17.4755 16 17.463V31.0005H19V16.0567L20.1187 15.5005H21V17.5005V18.0005V20.0005V20.5005V31.0005H25H25.5H29V21.9067C29.1562 21.963 29.325 22.0005 29.5 22.0005C30.325 22.0005 31 21.3255 31 20.5005V14.2255C31 13.3005 30.6375 12.4317 29.9875 11.7817ZM15.5 16.5005H8.5C8.225 16.5005 8 16.2755 8 16.0005C8 15.7255 8.225 15.5005 8.5 15.5005H15.5C15.775 15.5005 16 15.7255 16 16.0005C16 16.2755 15.775 16.5005 15.5 16.5005ZM28 6.00049H22V5.50049H28V6.00049ZM21.5875 4.05674C21.5312 3.94424 21.5 3.81299 21.5 3.68174C21.5 3.41299 21.6313 3.16299 21.85 3.00674L24.3875 1.19424C24.75 0.937988 25.2563 0.937988 25.6187 1.19424L28.1562 3.00674C28.375 3.16299 28.5063 3.41299 28.5063 3.68174C28.5063 3.80674 28.475 3.93799 28.4188 4.05674L28.2 4.50049H21.8062L21.5875 4.05674ZM22 8.00049V7.00049H28V8.00049C28 9.05674 27.45 9.98174 26.6313 10.5192L26.6 10.513L26.5938 10.538C26.1313 10.8317 25.5875 11.0005 25 11.0005C23.3438 11.0005 22 9.65674 22 8.00049ZM26.8438 11.5817L26.3563 12.3067L25.7812 11.9192C26.1375 11.8505 26.475 11.7255 26.7938 11.5692L26.8438 11.5817ZM24.2188 11.9255L23.6437 12.313L23.125 11.538C23.4625 11.713 23.825 11.8442 24.2188 11.9255ZM2 30.0005H1V29.0005H2V30.0005ZM2 28.0005H1V7.00049H2V28.0005ZM4.5 6.00049H3H1V2.50049C1 1.67549 1.675 1.00049 2.5 1.00049H4.5V6.00049ZM13.5 6.00049H5.5V1.00049H13.5V6.00049ZM14.5 6.00049V1.00049H16.5C17.325 1.00049 18 1.67549 18 2.50049V6.00049H16H14.5ZM18 7.00049V12.3817L17 12.963V7.00049H18ZM18 30.0005H17V29.0005H18V30.0005ZM18 28.0005H17V17.0567L18 16.5567V28.0005ZM16.9937 15.9442C16.9688 15.363 16.6187 14.863 16.1187 14.638L18.55 13.2192C18.6062 13.188 18.6625 13.163 18.7125 13.1317L19.3625 14.763L16.9937 15.9442ZM20.3375 14.5005L19.6 12.663C20.425 12.263 21.2875 11.9567 22.175 11.7192L22.0812 11.7817L23.3563 13.7005L24.4937 12.938V17.5005H21.9937V14.5005H20.3375ZM23.5 18.5005V19.5005H22V18.5005H23.5ZM24.5 30.0005H22V20.5005H24.5V30.0005ZM24.5 19.5005V18.5005H25.5V19.5005H24.5ZM28 30.0005H25.5V20.5005H28V30.0005ZM28 19.5005H26.5V18.5005H28V19.5005ZM30 20.5005C30 20.7755 29.775 21.0005 29.5 21.0005C29.225 21.0005 29 20.7755 29 20.5005V20.0005V17.5005H30V20.5005ZM30 16.5005H29V14.5005H28V17.5005H25.5V12.9317L26.6375 13.688L27.9062 11.788L28.025 11.813C28.5 11.9067 28.9375 12.1442 29.2812 12.488C29.7437 12.9505 30 13.5692 30 14.2255V16.5005Z" fill="white"/>
<path d="M27 7.50049H26V8.50049H27V7.50049Z" fill="white"/>
<path d="M24 7.50049H23V8.50049H24V7.50049Z" fill="white"/>
<path d="M7.5 2.00049H6.5V3.00049H7.5V2.00049Z" fill="white"/>
<path d="M12.5 2.00049H8.5V3.00049H12.5V2.00049Z" fill="white"/>
<path d="M12.5 4.00049H6.5V5.00049H12.5V4.00049Z" fill="white"/>
</svg>
