<svg width="33" height="31" viewBox="0 0 33 31" fill="none" xmlns="http://www.w3.org/2000/svg">
<path d="M14.5508 27.4994C14.472 27.4206 14.3735 27.3746 14.2619 27.3549L13.0865 27.1776L12.5546 26.0482C12.4299 25.7856 12.1213 25.674 11.8586 25.7921C11.747 25.8447 11.6551 25.9366 11.6025 26.0482L11.0707 27.1776L9.89532 27.3549C9.60641 27.4009 9.40942 27.6701 9.45539 27.9524C9.47508 28.0575 9.52105 28.1626 9.59984 28.2413L10.4666 29.1278L10.263 30.3885C10.2171 30.6774 10.4075 30.9466 10.6964 30.9926C10.8146 31.0123 10.9328 30.9926 11.0378 30.9335L12.0819 30.3557L13.1259 30.9335C13.382 31.0714 13.6972 30.9795 13.8416 30.7299C13.9007 30.6249 13.9204 30.5067 13.9007 30.3885L13.6972 29.1278L14.5639 28.2413C14.7609 28.0312 14.7543 27.7029 14.5508 27.4994ZM12.7582 28.5894C12.64 28.7075 12.5875 28.8783 12.6137 29.0424L12.686 29.4955L12.3314 29.2985C12.1738 29.2132 11.9834 29.2132 11.8258 29.2985L11.4712 29.4955L11.5434 29.0424C11.5697 28.8783 11.5172 28.7141 11.399 28.5894L11.0575 28.2413L11.5041 28.1757C11.6748 28.1494 11.8258 28.0378 11.898 27.8802L12.0687 27.5125L12.2395 27.8802C12.3117 28.0378 12.4627 28.1494 12.6334 28.1757L13.0799 28.2413L12.7582 28.5894Z" fill="white"/>
<path d="M21.3798 25.1485C21.301 25.0697 21.2025 25.0238 21.0909 25.0041L19.1933 24.7151L18.3397 22.8963C18.2149 22.6336 17.9063 22.522 17.6437 22.6468C17.532 22.6993 17.4467 22.7847 17.3941 22.8963L16.5405 24.7151L14.6429 25.0041C14.354 25.05 14.157 25.3192 14.2029 25.6016C14.2226 25.7066 14.2686 25.8117 14.3474 25.8905L15.7394 27.3154L15.4111 29.3378C15.3652 29.6267 15.5556 29.8959 15.8445 29.9419C15.9627 29.9616 16.0809 29.9419 16.1859 29.8828L17.88 28.9438L19.5741 29.8828C19.8302 30.0272 20.1454 29.9353 20.2898 29.6792C20.3489 29.5742 20.3686 29.456 20.3489 29.3378L20.0141 27.3219L21.4061 25.8971C21.59 25.6804 21.5834 25.3521 21.3798 25.1485ZM19.062 26.7704C18.9438 26.8886 18.8912 27.0593 18.9175 27.2234L19.1145 28.4382L18.1164 27.8866C17.9588 27.8013 17.7684 27.8013 17.6108 27.8866L16.6128 28.4382L16.8097 27.2234C16.836 27.0593 16.7835 26.8886 16.6653 26.7704L15.8051 25.8839L16.9739 25.7066C17.1446 25.6804 17.2956 25.5688 17.3679 25.4112L17.8669 24.3474L18.3659 25.4112C18.4382 25.5688 18.5892 25.6804 18.7599 25.7066L19.9287 25.8839L19.062 26.7704Z" fill="white"/>
<path d="M31.5179 2.62649H29.1081L30.684 1.0506H31.5179C31.8068 1.0506 32.0432 0.814213 32.0432 0.525298C32.0432 0.236384 31.8068 0 31.5179 0H0.525298C0.236384 0 0 0.236384 0 0.525298C0 0.814213 0.236384 1.0506 0.525298 1.0506H2.93511L1.35921 2.62649H0.525298C0.236384 2.62649 0 2.86288 0 3.15179C0 3.44071 0.236384 3.67709 0.525298 3.67709H2.12089L2.10119 5.67979L1.14252 6.68442C0.269215 7.59713 0.302047 9.04827 1.21475 9.92158L3.35534 11.9702C3.45384 12.0622 3.58516 12.1147 3.71649 12.1147H3.72962C3.79528 12.1147 3.85438 12.095 3.91347 12.0753L9.77712 20.4866L6.85514 29.246C6.76322 29.5218 6.91424 29.8173 7.19002 29.9092C7.4658 30.0011 7.76128 29.8501 7.85321 29.5743L10.5257 21.5569L12.1738 23.9273C12.3379 24.1637 12.6663 24.2228 12.9026 24.0587C13.139 23.8945 13.1981 23.5662 13.034 23.3298L10.9328 20.3159L14.1502 10.6636C14.1634 10.611 14.1765 10.5519 14.1699 10.4994H17.3349C17.3349 10.5585 17.3414 10.6176 17.3611 10.6767L19.6462 17.0065L17.4268 20.178C17.2561 20.4078 17.302 20.7427 17.5318 20.9134C17.7617 21.0842 18.0965 21.0382 18.2673 20.8084C18.2738 20.8018 18.2804 20.7887 18.287 20.7821L20.0861 18.2147L24.1966 29.5874C24.2688 29.7976 24.4723 29.9354 24.689 29.9354C24.7481 29.9354 24.8072 29.9223 24.8663 29.9026C25.1421 29.8041 25.28 29.5021 25.1815 29.2329L20.8215 17.1641L25.4835 10.506L28.8258 11.6485L25.2275 26.1336C25.1552 26.4159 25.326 26.6983 25.6083 26.7705C25.6477 26.7837 25.6937 26.7837 25.7396 26.7837C25.9826 26.7837 26.1927 26.6195 26.2518 26.3831L29.8304 11.9768C29.8632 11.9899 29.9026 11.9899 29.942 11.9965C30.1653 11.9965 30.3688 11.852 30.441 11.6419L31.3997 8.83815C31.8068 7.64309 31.1699 6.34298 29.9748 5.93587L29.9486 5.92274V3.67709H31.5245C31.8134 3.67709 32.0498 3.44071 32.0498 3.15179C32.0498 2.86288 31.8068 2.62649 31.5179 2.62649ZM29.2 1.0506L27.8408 2.40981L26.4816 1.0506H29.2ZM26.5735 2.62649H23.8551L25.2143 1.26728L26.5735 2.62649ZM23.947 1.0506L22.5878 2.40981L21.2286 1.0506H23.947ZM21.3206 2.62649H18.6021L19.9613 1.26728L21.3206 2.62649ZM18.6941 1.0506L17.3349 2.40981L15.9756 1.0506H18.6941ZM16.0676 2.62649H13.3491L14.7084 1.26728L16.0676 2.62649ZM13.4411 1.0506L12.0819 2.40981L10.7227 1.0506H13.4411ZM10.8146 2.62649H8.09616L9.45537 1.26728L10.8146 2.62649ZM8.18809 1.0506L6.82888 2.40981L5.46967 1.0506H8.18809ZM4.20239 1.26728L5.5616 2.62649H2.84318L4.20239 1.26728ZM3.70992 10.8474L1.9436 9.15989C1.45114 8.68712 1.43144 7.90574 1.90421 7.40671L3.09926 6.15912C3.32251 5.92274 3.63769 5.78485 3.966 5.77828H3.99227C4.31401 5.77828 4.61606 5.90304 4.84588 6.11973L6.61219 7.80068L3.70992 10.8474ZM10.1908 19.2456L4.68829 11.3399L6.86828 9.05483L12.3248 12.5284C12.3511 12.5481 12.3839 12.5612 12.4167 12.5678L10.1908 19.2456ZM13.1062 10.4994L12.7582 11.55L7.61683 8.28002L7.74159 8.14869C7.94514 7.93857 7.93201 7.6037 7.72189 7.40671L5.57473 5.35804C5.13479 4.93781 4.5504 4.70799 3.93974 4.72769C3.67052 4.73425 3.40787 4.79335 3.15836 4.89184L3.17149 3.67709H15.2337V4.72769H14.8988C13.6381 4.72769 12.6137 5.75202 12.6072 7.0193V9.98067C12.6072 10.2565 12.8304 10.4863 13.1062 10.4994ZM17.8601 9.45537H13.6578V7.0193C13.6578 6.33641 14.2093 5.78485 14.8988 5.77828H16.6257C17.3086 5.77828 17.8601 6.32985 17.8667 7.0193V9.45537H17.8601ZM25.431 6.80262L24.4723 9.6064C24.4264 9.73772 24.4395 9.88218 24.4986 10.0069C24.5052 10.0201 24.5183 10.0332 24.5314 10.0463L20.3947 15.9559L18.4248 10.4928C18.7006 10.4797 18.9173 10.2499 18.9173 9.9741V7.01273C18.9173 5.75202 17.893 4.72769 16.6257 4.72112H16.2843V3.67709H28.8914V5.56816L28.3333 5.37774C27.1382 4.97064 25.8381 5.60756 25.431 6.80262ZM30.4016 8.50327L29.6137 10.808L25.6346 9.44881L26.4225 7.14406C26.6458 6.494 27.3484 6.14599 27.9918 6.36924C27.9918 6.36924 27.9918 6.36924 27.9984 6.36924L29.6334 6.92737C30.2769 7.15063 30.6249 7.85321 30.4016 8.50327Z" fill="white"/>
</svg>
