<svg width="31" height="31" viewBox="0 0 31 31" fill="none" xmlns="http://www.w3.org/2000/svg">
<path d="M14 6C15.6562 6 17 4.65625 17 3C17 1.34375 15.6562 0 14 0C12.3438 0 11 1.34375 11 3C11 4.65625 12.3438 6 14 6ZM14 1C15.1 1 16 1.9 16 3C16 4.1 15.1 5 14 5C12.9 5 12 4.1 12 3C12 1.9 12.9 1 14 1Z" fill="white"/>
<path d="M30.1313 15.1562C29.9813 15.3125 29.7563 15.5 29.4938 15.5C29.2313 15.5 29.0063 15.3125 28.8563 15.1562C28.4501 14.7312 27.9813 14.5 27.4938 14.5C27.0063 14.5 26.5376 14.725 26.1313 15.1562C25.9813 15.3125 25.7563 15.5 25.4938 15.5C25.2376 15.5 25.0063 15.3125 24.8563 15.1562C24.4501 14.725 23.9813 14.5 23.4938 14.5C23.0063 14.5 22.5376 14.725 22.1313 15.1562C21.9813 15.3125 21.7563 15.5 21.4938 15.5C21.2376 15.5 21.0063 15.3125 20.8563 15.1562L20.1313 15.8438C20.5376 16.275 21.0063 16.5 21.4938 16.5C21.9813 16.5 22.4501 16.275 22.8563 15.8438C23.0063 15.6875 23.2376 15.5 23.4938 15.5C23.7501 15.5 23.9813 15.6875 24.1313 15.8438C24.5376 16.275 25.0063 16.5 25.4938 16.5C25.9813 16.5 26.4501 16.275 26.8563 15.8438C27.0063 15.6875 27.2313 15.5 27.4938 15.5C27.7563 15.5 27.9813 15.6875 28.1313 15.8438C28.5376 16.2687 29.0063 16.5 29.4938 16.5C29.9813 16.5 30.4501 16.275 30.8563 15.8438L30.1313 15.1562Z" fill="white"/>
<path d="M22.3627 19.8438L21.6377 19.1562C21.4877 19.3125 21.2627 19.5 21.0002 19.5C20.7439 19.5 20.5127 19.3125 20.3627 19.1562C19.9564 18.7312 19.4877 18.5 19.0002 18.5C18.5127 18.5 18.0439 18.725 17.6377 19.1562C17.4877 19.3125 17.2627 19.5 17.0002 19.5C16.7439 19.5 16.5127 19.3125 16.3627 19.1562C15.5502 18.3 14.4502 18.3 13.6377 19.1562L13.6252 19.1688C13.4752 19.325 13.2502 19.5 13.0002 19.5C12.7439 19.5 12.5127 19.3125 12.3627 19.1562L11.6377 19.8438C12.0439 20.2687 12.5127 20.5 13.0002 20.5C13.4877 20.5 13.9564 20.275 14.3627 19.8438L14.3752 19.8312C14.5252 19.675 14.7502 19.5 15.0002 19.5C15.2564 19.5 15.4877 19.6875 15.6377 19.8438C16.0439 20.2687 16.5127 20.5 17.0002 20.5C17.4877 20.5 17.9564 20.275 18.3627 19.8438C18.5127 19.6875 18.7377 19.5 19.0002 19.5C19.2564 19.5 19.4877 19.6875 19.6377 19.8438C20.0439 20.2687 20.5127 20.5 21.0002 20.5C21.4877 20.5 21.9564 20.275 22.3627 19.8438Z" fill="white"/>
<path d="M21.5002 24C21.9877 24 22.4564 23.775 22.8627 23.3438L22.8752 23.3312C23.0252 23.175 23.2502 23 23.5002 23C23.7564 23 23.9877 23.1875 24.1377 23.3438C24.5439 23.7687 25.0127 24 25.5002 24C25.9877 24 26.4564 23.775 26.8627 23.3438C27.0127 23.1875 27.2377 23 27.5002 23C27.7627 23 27.9877 23.1875 28.1377 23.3438C28.5439 23.7687 29.0127 24 29.5002 24C29.9877 24 30.4564 23.775 30.8627 23.3438L30.1377 22.6562C29.9877 22.8125 29.7627 23 29.5002 23C29.2377 23 29.0127 22.8125 28.8627 22.6562C28.4564 22.2312 27.9877 22 27.5002 22C27.0127 22 26.5439 22.225 26.1377 22.6562C25.9877 22.8125 25.7627 23 25.5002 23C25.2377 23 25.0127 22.8125 24.8627 22.6562C24.0502 21.8 22.9502 21.8 22.1377 22.6562L22.1252 22.6688C21.9752 22.825 21.7502 23 21.5002 23C21.2439 23 21.0127 22.8125 20.8627 22.6562L20.1377 23.3438C20.5439 23.7687 21.0127 24 21.5002 24Z" fill="white"/>
<path d="M20.5 28H21.5V29H20.5V28Z" fill="white"/>
<path d="M17 28H18V29H17V28Z" fill="white"/>
<path d="M13.5 28H14.5V29H13.5V28Z" fill="white"/>
<path d="M10 28H11V29H10V28Z" fill="white"/>
<path d="M31 11H29.6812L24.4688 6.5875C23.6375 5.8875 22.5875 5.5 21.5 5.5C20.4125 5.5 19.3625 5.8875 18.5312 6.5875L13.3188 11H12.2C10.4937 10.0938 8.46875 9.775 6.48125 10.1938C6.4875 10.1313 6.5 10.0687 6.5 10C6.5 9.175 5.825 8.5 5 8.5C4.175 8.5 3.5 9.175 3.5 10C3.5 10.45 3.70625 10.85 4.01875 11.125C3.81875 11.2438 3.61875 11.3688 3.43125 11.5H0V12.5H2.25C1.63125 13.1375 1.1125 13.8687 0.73125 14.6875C-0.15625 16.5875 -0.2375 18.7187 0.5 20.675L0.675 21.1313L7.1 18.875L8.80625 23.9937H6.84375L5.46875 20.3188L4.53125 20.6688L5.975 24.5125L5.0375 27.8C2.04375 28.6 0.3875 29.4875 0.2625 29.5562L0 29.7V31H31V29.7L30.7375 29.5562C30.5312 29.4438 26.1125 27.0875 18.375 26.5875L17.3375 24H11.525L9.53125 18.025L16.1437 15.7063L15.9625 15.225C15.4812 13.9375 14.6875 12.85 13.6875 12H31V11ZM5.6125 12.2375L5.8 11.8313L6.20625 12.0188C8.21875 12.9563 9.78125 14.5562 10.6812 16.5625L5.0875 18.525C4.50625 16.4312 4.6875 14.225 5.6125 12.2375ZM5 9.5C5.275 9.5 5.5 9.725 5.5 10C5.5 10.275 5.275 10.5 5 10.5C4.725 10.5 4.5 10.275 4.5 10C4.5 9.725 4.725 9.5 5 9.5ZM1.6375 15.1125C2.275 13.7375 3.3375 12.6375 4.66875 11.9125C3.66875 14.1125 3.49375 16.55 4.14375 18.8563L1.28125 19.8625C0.8125 18.2875 0.93125 16.6188 1.6375 15.1125ZM14.8938 26.5063C12.525 26.5375 10.4125 26.75 8.5875 27.05L8.93125 25H14.6L14.8938 26.5063ZM6.88125 25H7.9125L7.5375 27.2313C7.05625 27.325 6.59375 27.425 6.15625 27.525L6.88125 25ZM26.5 30V29.5H25.5V30H23V29.5H22V30H19.5V29.5H18.5V30H16V29.5H15V30H12.5V29.5H11.5V30H9V29.5H8V30H5.5V29.5H4.5V30H1.6875C3.625 29.1812 8.45625 27.5 15.5 27.5C22.525 27.5 27.3625 29.1812 29.3062 30H26.5ZM17.275 26.5312C16.8312 26.5125 16.375 26.5063 15.9125 26.5L15.6125 24.9937H16.6625L17.275 26.5312ZM10.475 24H9.8625L8.04375 18.55L8.59375 18.3563L10.475 24ZM14.8375 15.1062L11.6313 16.2313C10.6562 14.0063 8.9375 12.2188 6.73125 11.1625C10.0312 10.4813 13.4375 12.1062 14.8375 15.1062ZM19.1812 7.35C19.8312 6.8 20.6562 6.5 21.5063 6.5C22.3563 6.5 23.1812 6.8 23.8312 7.35L28.1437 11H14.8687L19.1812 7.35Z" fill="white"/>
</svg>
