<svg width="29" height="31" viewBox="0 0 29 31" fill="none" xmlns="http://www.w3.org/2000/svg">
<path d="M27.3503 12.8921C27.1418 12.8921 26.9382 12.9309 26.7491 13.0133C26.6085 11.8061 26.2933 10.6279 25.8085 9.51273C26.0121 9.49333 26.2158 9.4303 26.3952 9.32848C26.943 9.01333 27.2436 8.40242 27.1612 7.78182C27.0788 7.15636 26.6279 6.64727 26.017 6.48727C25.4061 6.32727 24.7661 6.55515 24.3879 7.05939C23.6655 6.0897 22.8024 5.22667 21.8327 4.50424C22.3952 4.08242 22.5988 3.33091 22.3321 2.68121C22.0655 2.03152 21.3915 1.64848 20.6933 1.74061C19.9952 1.83273 19.4473 2.38545 19.36 3.08364C18.2497 2.60364 17.0764 2.28848 15.8739 2.14788C16.1455 1.49818 15.9467 0.751515 15.3939 0.32C14.8364 -0.106667 14.0606 -0.106667 13.503 0.32C12.9455 0.746667 12.7467 1.49818 13.023 2.14788C11.8206 2.28364 10.6473 2.59879 9.53697 3.08364C9.4497 2.38545 8.90182 1.83273 8.20364 1.74061C7.50546 1.64848 6.83636 2.03636 6.56485 2.68606C6.29818 3.33576 6.50182 4.08727 7.06424 4.50909C6.09455 5.23151 5.23152 6.09454 4.50909 7.06424C4.13091 6.56 3.48606 6.33697 2.88 6.49212C2.26909 6.65212 1.81818 7.16121 1.73576 7.78667C1.65333 8.41212 1.95394 9.02303 2.50182 9.33333C2.68121 9.43515 2.88485 9.49818 3.08848 9.51758C2.60364 10.6327 2.28848 11.8109 2.14788 13.0182C1.49818 12.7467 0.751515 12.9455 0.32 13.503C-0.106667 14.0606 -0.106667 14.8364 0.32 15.3939C0.746667 15.9515 1.50303 16.1455 2.14788 15.8739C2.28364 17.0764 2.59394 18.2497 3.07394 19.3648C2.8703 19.3891 2.67636 19.457 2.50182 19.5588C1.95879 19.8739 1.65818 20.4848 1.74061 21.1055C1.82303 21.7261 2.27394 22.24 2.88 22.3952C3.48606 22.5503 4.13091 22.3321 4.50909 21.8327C5.23152 22.8024 6.09455 23.6606 7.06424 24.383C6.64727 24.6982 6.41939 25.1976 6.45333 25.7164C6.48727 26.2352 6.77818 26.7055 7.22909 26.9624C7.29697 26.9964 7.36485 27.0206 7.43273 27.0448L6.64727 28.8339C6.49697 29.1782 6.47758 29.5661 6.59394 29.9248H3.61697C3.33091 29.9248 3.10303 30.1576 3.10303 30.4388C3.10303 30.7248 3.33576 30.9527 3.61697 30.9527H7.70909C7.94667 31.0158 8.19394 31.0158 8.43152 30.9527H20.2812C20.5188 31.0158 20.7661 31.0158 21.0036 30.9527H25.2848C25.5709 30.9527 25.7988 30.72 25.7988 30.4388C25.7988 30.1527 25.5661 29.9248 25.2848 29.9248H22.1091C22.2255 29.5661 22.2061 29.1782 22.0558 28.8339L21.2994 27.1079C21.4303 27.0739 21.5564 27.0206 21.6727 26.9527C22.0315 26.7491 22.2885 26.4097 22.3952 26.0121C22.5018 25.6145 22.4436 25.1927 22.24 24.8388C22.1333 24.6594 21.9976 24.4994 21.8279 24.3733C22.8024 23.6509 23.6606 22.7927 24.3879 21.8182C24.5139 21.9879 24.6691 22.1285 24.8533 22.2303C25.3964 22.5455 26.0752 22.497 26.5697 22.1139C27.0642 21.7309 27.2824 21.0861 27.1176 20.48C26.9527 19.8739 26.4388 19.4279 25.8182 19.3503C26.2982 18.24 26.6133 17.0667 26.7491 15.8642C27.3261 16.1067 27.9952 15.9758 28.4412 15.5345C28.8873 15.0933 29.023 14.4291 28.7806 13.8473C28.5382 13.2752 27.9758 12.897 27.3503 12.8921ZM25.1248 7.85939C25.183 7.63152 25.3915 7.47636 25.6242 7.47636C25.857 7.47636 26.0606 7.63152 26.1236 7.85939C26.1818 8.08727 26.0848 8.32485 25.8812 8.44121C25.7018 8.54303 25.4739 8.52848 25.3091 8.40242C25.1394 8.27636 25.0667 8.06303 25.1248 7.85939ZM20.4509 3.01576C20.5673 2.81212 20.8048 2.71515 21.0327 2.77333C21.2606 2.83152 21.4158 3.04 21.4158 3.27273C21.4158 3.50545 21.2606 3.70909 21.0327 3.77212C20.8291 3.82545 20.6158 3.75273 20.4897 3.58788C20.3636 3.41818 20.3491 3.19515 20.4509 3.01576ZM7.74303 2.82667C7.9903 2.68606 8.30546 2.77333 8.44606 3.01576C8.58667 3.26303 8.50424 3.57333 8.26182 3.71879C8.01455 3.85939 7.69939 3.77697 7.55879 3.5297C7.41333 3.28242 7.49576 2.96727 7.74303 2.82667ZM2.83152 7.73333C2.92364 7.57333 3.09333 7.47636 3.27758 7.47636C3.46182 7.47636 3.63152 7.57333 3.72364 7.73333C3.81576 7.89333 3.81576 8.08727 3.72364 8.24727C3.63152 8.40727 3.46182 8.50909 3.27758 8.50909C3.09333 8.50909 2.92364 8.41212 2.83152 8.25212C2.73939 8.09212 2.73939 7.89333 2.83152 7.73333ZM3.77697 21.023C3.74303 21.1539 3.65576 21.2703 3.53455 21.3382C3.35515 21.4448 3.12727 21.4255 2.96242 21.2994C2.79758 21.1733 2.72485 20.96 2.77818 20.7564C2.83152 20.5527 3.00121 20.4073 3.2097 20.3782C3.41818 20.3491 3.62182 20.4509 3.72364 20.6303C3.79636 20.7515 3.81576 20.8921 3.77697 21.023ZM13.9345 1.54182C13.9345 1.25576 14.1673 1.02788 14.4485 1.02788C14.7345 1.02788 14.9624 1.26061 14.9624 1.54182C14.9624 1.82303 14.7297 2.05576 14.4485 2.05576C14.1673 2.06061 13.9345 1.82788 13.9345 1.54182ZM1.55152 14.9576C1.26545 14.9576 1.03758 14.7248 1.03758 14.4436C1.03758 14.1624 1.2703 13.9297 1.55152 13.9297C1.83758 13.9297 2.06545 14.1624 2.06545 14.4436C2.06545 14.7248 1.83758 14.9576 1.55152 14.9576ZM18.6376 6.15758L15.0012 12.4558C14.9915 12.4509 14.977 12.4509 14.9673 12.4461V5.17333C16.2473 5.24121 17.4982 5.58061 18.6376 6.15758ZM17.9879 19.5539C17.983 19.5345 17.9733 19.52 17.9685 19.5006L16.5382 16.2424L22.2158 19.5248C21.4497 20.6933 20.4267 21.6727 19.2339 22.3952L17.9879 19.5539ZM22.7345 18.6327L16.4412 14.9964C16.4461 14.9867 16.4509 14.9721 16.4509 14.9624H23.7236C23.6509 16.2376 23.3164 17.4885 22.7345 18.6327ZM16.4461 13.9248C16.4461 13.9152 16.4412 13.9006 16.4364 13.8909L22.7297 10.2545C23.3067 11.3988 23.6461 12.6497 23.7188 13.9248H16.4461ZM15.9273 12.9988L15.8982 12.9697L19.5345 6.67636C20.6061 7.37939 21.5176 8.29091 22.2206 9.36242L15.9273 12.9988ZM13.9345 12.4461C13.9248 12.4461 13.9103 12.4509 13.9006 12.4558L10.2642 6.15758C11.4085 5.58061 12.6594 5.24121 13.9345 5.17333V12.4461ZM9.37212 6.67636L13.0085 12.9697L12.9939 12.9794C12.9891 12.9842 12.9842 12.9891 12.9794 12.9939L6.68606 9.35758C7.38424 8.29091 8.30061 7.37939 9.37212 6.67636ZM6.16727 10.2545L12.4655 13.8909C12.4606 13.9006 12.4606 13.9152 12.4558 13.9248H5.18303C5.25091 12.6448 5.5903 11.3988 6.16727 10.2545ZM12.4558 14.9576L12.4655 14.9915L6.16727 18.6279C5.5903 17.4836 5.25576 16.2327 5.18303 14.9576H12.4558ZM12.1018 16.3927L9.51758 22.2982C8.38788 21.5855 7.42303 20.64 6.68606 19.5248L12.1018 16.3927ZM7.74303 26.0558C7.49576 25.9103 7.41333 25.5952 7.55879 25.3527C7.62667 25.2364 7.73818 25.1491 7.86909 25.1152C8 25.0812 8.14061 25.1006 8.26182 25.1685L7.85455 26.0994C7.81576 26.0848 7.77697 26.0703 7.74303 26.0558ZM14.9673 20.1309L16.3733 23.5248C15.9127 23.6218 15.4424 23.6848 14.9673 23.7091V20.1309ZM13.9345 19.937V23.7091C13.4109 23.68 12.8873 23.6073 12.3733 23.4909L13.9345 19.937ZM11.9515 24.4461C13.5321 24.8485 15.1903 24.863 16.7758 24.4848L17.1976 25.4448C15.3358 25.9055 13.3867 25.8909 11.5345 25.4012L11.9515 24.4461ZM14.9673 27.3406C14.9673 27.6267 14.7345 27.8545 14.4533 27.8545C14.1673 27.8545 13.9394 27.6218 13.9394 27.3406C13.9394 27.0545 14.1721 26.8267 14.4533 26.8267C14.7345 26.8267 14.9673 27.0545 14.9673 27.3406ZM11.1127 26.3612C11.7382 26.5358 12.3782 26.6618 13.023 26.7394C12.9406 26.9285 12.897 27.137 12.897 27.3455C12.897 27.9758 13.2752 28.5382 13.857 28.7758C14.4388 29.0133 15.103 28.8776 15.5442 28.4315C15.9855 27.9855 16.1115 27.3164 15.8642 26.7394C16.4509 26.6715 17.0376 26.56 17.6097 26.4097L19.1515 29.9248H9.55152L11.1127 26.3612ZM20.4364 29.92C20.32 29.8667 20.223 29.7745 20.1745 29.6582L17.5564 23.6897L14.9285 17.343C14.9188 17.3285 14.9091 17.3091 14.8945 17.2945C14.88 17.2655 14.8606 17.2412 14.8412 17.2121C14.8315 17.2024 14.8267 17.183 14.817 17.1733C14.8024 17.1588 14.783 17.1491 14.7636 17.1394C14.7491 17.1297 14.7394 17.1103 14.7248 17.1006C14.7103 17.0909 14.7006 17.0958 14.6861 17.0861C14.6764 17.0812 14.6618 17.0667 14.6521 17.0618C14.6327 17.057 14.6085 17.0521 14.5891 17.0473C14.56 17.0376 14.5261 17.0327 14.4921 17.0279C14.4776 17.0279 14.4679 17.023 14.4533 17.023C14.4339 17.0279 14.4194 17.0279 14.4 17.0327C14.3661 17.0376 14.3273 17.0424 14.2933 17.0521C14.2788 17.057 14.2691 17.0521 14.2545 17.0618C14.2352 17.0667 14.2255 17.0812 14.2061 17.0909C14.177 17.1055 14.1479 17.1248 14.1236 17.1491C14.1139 17.1588 14.0994 17.1636 14.0848 17.1733C14.0655 17.2073 14.0412 17.2364 14.0121 17.2655L13.92 17.4158C13.9055 17.4352 13.8958 17.4594 13.8861 17.4788L8.53818 29.6582C8.48485 29.7745 8.39273 29.8667 8.27636 29.92H7.85455C7.72849 29.8667 7.63152 29.7648 7.58303 29.6339C7.53455 29.5079 7.53939 29.3673 7.59273 29.2412L13.6194 15.4861C13.6339 15.4473 13.6436 15.4036 13.6485 15.36C13.6485 15.3503 13.6533 15.3455 13.6533 15.3358C13.6582 15.2824 13.6582 15.2339 13.6436 15.1806C13.6388 15.1612 13.6388 15.1418 13.6339 15.1224C13.6242 15.0885 13.6048 15.0545 13.5903 15.0255C13.5806 15.0012 13.5709 14.977 13.5564 14.9527C13.3721 14.6327 13.3721 14.2352 13.5564 13.9152C13.6436 13.76 13.7745 13.6291 13.9297 13.5418C14.2497 13.3576 14.6473 13.3576 14.9673 13.5418C15.1224 13.6291 15.2533 13.76 15.3406 13.9152C15.5248 14.2352 15.5248 14.6327 15.3406 14.9527C15.3164 15.0012 15.2824 15.0448 15.2485 15.0836C15.1612 15.1806 15.1079 15.3067 15.1079 15.4327V15.4376C15.1079 15.5055 15.1224 15.5782 15.1515 15.6412V15.6461L17.0085 19.8836C17.0133 19.8982 17.0182 19.9079 17.023 19.9224L18.5261 23.3406V23.3455L19.3552 25.2364L19.457 25.4691L19.4618 25.4788L20 26.7103C20.0048 26.7248 20.0097 26.7394 20.0194 26.7539L21.1055 29.2315C21.2218 29.4933 21.1006 29.7939 20.8436 29.9103H20.4364V29.92ZM21.1588 26.0558C21.0715 26.1042 20.9697 26.1236 20.8679 26.1139L20.5042 25.2848C20.543 25.2364 20.5867 25.1976 20.64 25.1636C20.7612 25.0958 20.9018 25.0764 21.0327 25.1103C21.1636 25.1442 21.2752 25.2315 21.343 25.3479C21.4885 25.6 21.4061 25.9152 21.1588 26.0558ZM20.0679 24.2958L19.6558 23.3503C21.2024 22.4436 22.4873 21.1491 23.3842 19.5976C26.2255 14.6909 24.5721 8.40727 19.6848 5.52727C14.7927 2.65212 8.49939 4.26182 5.58545 9.13455C2.67636 14.0073 4.24242 20.3103 9.09091 23.2582L8.67394 24.2085C3.30667 21.023 1.51758 14.0994 4.67394 8.71273C7.8303 3.32606 14.7442 1.50303 20.1455 4.63515C25.5467 7.76242 27.4036 14.6715 24.3006 20.0873C24.2909 20.097 24.2861 20.1115 24.2764 20.1212C23.2679 21.8618 21.8182 23.3018 20.0679 24.2958ZM25.4885 20.3976C25.7261 20.3345 25.9733 20.4461 26.0849 20.6691C26.1915 20.8921 26.1333 21.1588 25.9345 21.3042C25.7406 21.4545 25.4642 21.4448 25.28 21.2848C25.0958 21.1248 25.0521 20.8533 25.1733 20.64C25.2412 20.5188 25.3527 20.4267 25.4885 20.3976ZM27.3503 14.9576C27.0642 14.9576 26.8364 14.7248 26.8364 14.4436C26.8364 14.1624 27.0691 13.9297 27.3503 13.9297C27.6364 13.9297 27.8642 14.1624 27.8642 14.4436C27.8642 14.7248 27.6315 14.9576 27.3503 14.9576Z" fill="white"/>
</svg>
