<svg width="41" height="15" viewBox="0 0 41 15" fill="none" xmlns="http://www.w3.org/2000/svg">
<path d="M39.5379 10.0549C37.8059 10.0549 36.9282 10.3919 36.0818 10.7211C35.3608 11.0032 34.6711 11.2697 33.3702 11.301C35.4156 10.4781 37.0301 9.44365 38.19 8.21323C39.5301 6.79472 39.9611 5.42324 40.0944 4.52982C40.1414 4.17715 40.0395 3.82448 39.8122 3.55802C39.5849 3.29156 39.248 3.13482 38.8953 3.13482H27.1632L23.4093 0.462386C22.9861 0.156741 22.4923 0 21.9751 0H16.928C16.254 0 15.7133 0.548594 15.7133 1.21474V3.14266H14.9374C14.7572 3.14266 14.5926 3.07212 14.4672 2.94673L14.0283 2.50786C13.613 2.09249 13.0252 1.89657 12.4452 1.99061L5.85428 3.00159C5.14111 3.11131 4.44361 3.37777 3.84799 3.77746L2.0298 4.9922C1.59876 5.27434 1.30879 5.73672 1.23042 6.24613C1.15205 6.75554 1.29311 7.28062 1.61443 7.68031L4.04392 10.7211C3.19752 10.3919 2.31977 10.0549 0.587779 10.0549C0.26646 10.0549 0 10.3214 0 10.6427C0 10.964 0.26646 11.2305 0.587779 11.2305C2.10033 11.2305 2.83701 11.5126 3.62072 11.8183C4.46712 12.1474 5.34487 12.4844 7.07686 12.4844C8.80885 12.4844 9.6866 12.1474 10.533 11.8183C11.3167 11.5126 12.0534 11.2305 13.5659 11.2305C15.0785 11.2305 15.8152 11.5126 16.5989 11.8183C17.4453 12.1474 18.323 12.4844 20.055 12.4844C21.787 12.4844 22.6648 12.1474 23.5112 11.8183C24.2949 11.5126 25.0315 11.2305 26.5441 11.2305C28.0566 11.2305 28.7933 11.5126 29.577 11.8183C30.4234 12.1474 31.3012 12.4844 33.0332 12.4844C34.7652 12.4844 35.6429 12.1474 36.4893 11.8183C37.273 11.5126 38.0097 11.2305 39.5223 11.2305C39.8436 11.2305 40.11 10.964 40.11 10.6427C40.11 10.3214 39.8592 10.0549 39.5379 10.0549ZM19.3967 1.17556H21.9751C22.2494 1.17556 22.508 1.26177 22.7275 1.41851L25.1413 3.14266H19.3967V1.17556ZM16.881 1.21474C16.881 1.19123 16.8967 1.17556 16.9202 1.17556H18.2133V3.14266H16.8732L16.881 1.21474ZM30.6977 10.9719C30.4548 10.8935 30.2353 10.8073 30.0081 10.7211C29.1617 10.3919 28.2839 10.0549 26.5519 10.0549C24.8199 10.0549 23.9422 10.3919 23.0958 10.7211C22.3121 11.0267 21.5754 11.3089 20.0629 11.3089C18.5503 11.3089 17.8136 11.0267 17.0299 10.7211C16.1835 10.3919 15.3058 10.0549 13.5738 10.0549C11.8418 10.0549 10.964 10.3919 10.1176 10.7211C9.33393 11.0267 8.59725 11.3089 7.08469 11.3089C6.66149 11.3089 6.30099 11.2854 5.97967 11.2462L2.53137 6.94363C2.50002 6.90444 2.47651 6.86526 2.453 6.82607H4.98436C5.30568 6.82607 5.57214 6.55961 5.57214 6.23829C5.57214 5.91697 5.30568 5.65051 4.98436 5.65051H3.15833L4.5063 4.75709C4.96869 4.45145 5.49377 4.24768 6.04237 4.16147L12.6177 3.15049C12.8293 3.11915 13.0409 3.18968 13.1898 3.33858L13.6286 3.77746C13.9735 4.12229 14.4437 4.31821 14.9296 4.31821H38.8796C38.8875 4.31821 38.8953 4.31821 38.911 4.33389C38.9266 4.34956 38.9188 4.3574 38.9188 4.36524C38.8718 4.69439 38.7621 5.14111 38.5269 5.65835H7.49222C7.1709 5.65835 6.90444 5.92481 6.90444 6.24613C6.90444 6.56745 7.1709 6.83391 7.49222 6.83391H37.8138C36.7479 8.2289 34.679 9.82766 30.6977 10.9719Z" fill="white"/>
<path d="M36.9442 13.5266C36.8266 13.2209 36.4896 13.072 36.184 13.1896L36.0743 13.2288C35.7216 13.362 35.3846 13.4952 34.9849 13.5971C34.6714 13.6755 34.4833 13.9968 34.5617 14.3103C34.6322 14.5767 34.8674 14.7491 35.1338 14.7491C35.1808 14.7491 35.2357 14.7413 35.2827 14.7335C35.7451 14.6159 36.1291 14.467 36.4975 14.3259L36.5993 14.2868C36.9128 14.1692 37.0617 13.8322 36.9442 13.5266Z" fill="white"/>
<path d="M32.6496 13.8164C31.3957 13.7694 30.7217 13.5108 30.0085 13.2365C29.1621 12.9073 28.2844 12.5703 26.5524 12.5703C24.8204 12.5703 23.9427 12.9073 23.0963 13.2365C22.3126 13.5421 21.5759 13.8242 20.0633 13.8242C18.5508 13.8242 17.8141 13.5421 17.0304 13.2365C16.184 12.9073 15.3062 12.5703 13.5743 12.5703C11.8423 12.5703 10.9645 12.9073 10.1181 13.2365C9.40494 13.5108 8.73096 13.7694 7.48487 13.8164C7.16355 13.8321 6.90492 14.0985 6.9206 14.4277C6.93627 14.749 7.20273 15.0076 7.53189 14.992C8.98174 14.9371 9.77329 14.6315 10.5492 14.3336C11.3329 14.028 12.0695 13.7459 13.5821 13.7459C15.0946 13.7459 15.8313 14.028 16.615 14.3336C17.4614 14.6628 18.3392 14.9998 20.0712 14.9998C21.8032 14.9998 22.6809 14.6628 23.5273 14.3336C24.311 14.028 25.0477 13.7459 26.5602 13.7459C28.0728 13.7459 28.8095 14.028 29.5932 14.3336C30.3691 14.6315 31.1606 14.9449 32.6183 14.992C32.9396 15.0076 33.2139 14.749 33.2296 14.4277C33.2296 14.0985 32.971 13.8242 32.6496 13.8164Z" fill="white"/>
<path d="M5.13336 13.6043C4.73367 13.5024 4.39668 13.3692 4.04401 13.236C3.73836 13.1184 3.40137 13.2673 3.28382 13.573C3.16626 13.8786 3.31516 14.2156 3.62081 14.3331C3.98915 14.4742 4.37317 14.6231 4.84339 14.7485C4.89041 14.7642 4.94527 14.7642 4.99229 14.7642C5.25091 14.7642 5.49386 14.5918 5.5644 14.3253C5.63493 14.004 5.44684 13.6827 5.13336 13.6043Z" fill="white"/>
</svg>
