<svg width="76" height="16" viewBox="0 0 76 16" fill="none" xmlns="http://www.w3.org/2000/svg">
<path d="M65.9334 11.9083C66.1186 12.4639 66.489 12.9269 66.8594 13.2972C67.2297 13.6676 67.6927 14.038 68.2482 14.2232C68.8038 14.5009 69.3594 14.5935 69.9149 14.5935C70.4705 14.5935 71.1186 14.5009 71.5816 14.2232C72.0445 14.038 72.5075 13.6676 72.9705 13.2972C73.3408 12.9269 73.7112 12.4639 73.8964 11.9083C74.0816 11.3528 74.2668 10.7972 74.2668 10.2417C74.2668 9.13057 73.8038 8.01946 72.9705 7.18613C72.6001 6.81575 72.1371 6.44538 71.5816 6.2602C71.026 6.07501 70.4705 5.88983 69.9149 5.88983C69.3594 5.88983 68.8038 5.98242 68.2482 6.2602C67.6927 6.44538 67.2297 6.81575 66.8594 7.18613C66.489 7.5565 66.1186 8.01946 65.9334 8.57502C65.7482 9.13057 65.5631 9.68613 65.5631 10.2417C65.5631 10.8898 65.7482 11.4454 65.9334 11.9083ZM75.2853 15.0565C75.2853 15.2417 75.1927 15.3343 75.1001 15.4269C75.0075 15.5195 74.8223 15.6121 74.7297 15.6121C74.452 15.6121 74.1742 15.3343 74.1742 15.0565V13.575C73.7112 14.2232 73.0631 14.7787 72.3223 15.1491C70.9334 15.8898 69.2668 15.8898 67.7853 15.3343C67.1371 15.0565 66.5816 14.6861 66.026 14.1306C65.5631 13.6676 65.1001 13.0195 64.8223 12.3713C64.5445 11.7232 64.3594 10.9824 64.3594 10.2417C64.3594 9.50094 64.452 8.7602 64.8223 8.11205C65.1001 7.4639 65.4705 6.90835 66.026 6.35279C66.489 5.88983 67.1371 5.42687 67.7853 5.24168C68.4334 4.9639 69.1742 4.77872 69.9149 4.77872C70.7482 4.77872 71.5816 4.9639 72.4149 5.33427C73.1556 5.70464 73.8038 6.2602 74.2668 6.90835V1.53798C74.2668 1.2602 74.452 0.982422 74.8223 0.982422C75.0075 0.982422 75.1001 1.07501 75.1927 1.16761C75.2853 1.2602 75.3779 1.44538 75.3779 1.53798V15.0565H75.2853ZM54.1742 12.0009C54.3594 12.5565 54.7297 13.0195 55.1001 13.3898C55.4705 13.7602 55.9334 14.1306 56.489 14.3158C57.0445 14.5935 57.6001 14.6861 58.1557 14.6861C58.7112 14.6861 59.3594 14.5935 59.8223 14.3158C60.3779 14.1306 60.8408 13.7602 61.2112 13.3898C61.5816 13.0195 61.952 12.5565 62.1371 12.0009C62.3223 11.4454 62.5075 10.8898 62.5075 10.3343C62.5075 9.77872 62.4149 9.13057 62.1371 8.66761C61.952 8.11205 61.5816 7.64909 61.2112 7.27872C60.8408 6.90835 60.3779 6.53798 59.8223 6.35279C59.2668 6.16761 58.7112 5.98242 58.1557 5.98242C57.6001 5.98242 57.0445 6.07501 56.489 6.35279C55.9334 6.53798 55.4705 6.90835 55.1001 7.27872C54.7297 7.64909 54.3594 8.11205 54.1742 8.66761C53.989 9.22316 53.8038 9.77872 53.8038 10.3343C53.8038 10.8898 53.8964 11.4454 54.1742 12.0009ZM53.1557 8.20464C53.7112 6.90835 54.7297 5.88983 56.026 5.33427C56.6742 5.0565 57.4149 4.87131 58.1557 4.87131C58.8964 4.87131 59.6371 4.9639 60.2853 5.33427C60.9334 5.61205 61.489 5.98242 61.952 6.53798C62.4149 7.00094 62.8779 7.64909 63.1557 8.29724C63.7112 9.68613 63.7112 11.1676 63.1557 12.5565C62.8779 13.2046 62.5075 13.7602 61.952 14.3158C61.489 14.7787 60.8408 15.2417 60.2853 15.5195C59.6371 15.7972 58.8964 15.9824 58.1557 15.9824C57.4149 15.9824 56.6742 15.7972 56.026 15.5195C55.3779 15.2417 54.8223 14.8713 54.2668 14.3158C53.2482 13.2972 52.6927 11.9083 52.6927 10.5195C52.6927 9.59353 52.8779 8.85279 53.1557 8.20464ZM48.1557 9.13057L51.8594 14.7787C51.952 14.8713 51.952 15.0565 51.952 15.1491C51.952 15.3343 51.8594 15.4269 51.6742 15.5195C51.5816 15.6121 51.3964 15.6121 51.3038 15.6121C51.1186 15.6121 51.026 15.5195 50.9334 15.3343L47.3223 9.87131L45.3779 11.7232V14.9639C45.3779 15.1491 45.2853 15.2417 45.1927 15.3343C45.1001 15.4269 44.9149 15.5195 44.8223 15.5195C44.6371 15.5195 44.5445 15.4269 44.452 15.3343C44.3594 15.2417 44.2668 15.0565 44.2668 14.9639V1.53798C44.2668 1.35279 44.3594 1.2602 44.452 1.16761C44.5445 1.07501 44.7297 0.982422 44.8223 0.982422C45.0075 0.982422 45.1001 1.07501 45.1927 1.16761C45.2853 1.2602 45.3779 1.44538 45.3779 1.53798V10.3343L50.9334 5.0565C51.026 4.9639 51.2112 4.87131 51.3038 4.87131C51.3964 4.87131 51.5816 4.9639 51.6742 5.0565C51.6742 5.0565 51.6742 5.0565 51.6742 5.14909C51.7668 5.24168 51.7668 5.33427 51.7668 5.51946C51.7668 5.70464 51.6742 5.79724 51.5816 5.88983L48.1557 9.13057ZM26.6742 7.18613C26.9519 6.81575 27.2297 6.53798 27.5075 6.2602C27.7853 5.98242 28.1557 5.70464 28.526 5.51946C28.8964 5.33427 29.3594 5.14909 29.7297 5.0565C30.1927 4.9639 30.6557 4.87131 31.026 4.87131H31.1186C31.3038 4.87131 31.3964 4.87131 31.5816 5.0565C31.6742 5.14909 31.7668 5.33427 31.7668 5.42687C31.7668 5.61205 31.6742 5.70464 31.5816 5.79724C31.489 5.88983 31.3038 5.98242 31.2112 5.98242H31.1186C30.5631 5.98242 29.9149 6.07501 29.3594 6.35279C28.8038 6.63057 28.3408 6.90835 27.9705 7.37131C27.6001 7.83427 27.2297 8.29724 26.9519 8.85279C26.6742 9.40835 26.5816 10.0565 26.5816 10.6121V15.1491C26.5816 15.3343 26.489 15.4269 26.3964 15.5195C26.3038 15.6121 26.1186 15.7046 26.026 15.7046C25.8408 15.7046 25.7482 15.6121 25.6557 15.5195C25.5631 15.4269 25.4705 15.2417 25.4705 15.1491V5.42687C25.4705 5.24168 25.5631 5.14909 25.6557 5.0565C25.9334 4.77872 26.2112 4.77872 26.489 4.9639C26.5816 5.0565 26.6742 5.24168 26.6742 5.33427V7.18613ZM22.8779 9.87131C22.8779 9.31576 22.6927 8.7602 22.5075 8.29724C22.3223 7.83427 21.9519 7.37131 21.5816 7.00094C21.2112 6.63057 20.7482 6.35279 20.2853 6.16761C19.2668 5.79724 18.0631 5.79724 17.0445 6.16761C16.5816 6.35279 16.1186 6.63057 15.7482 7.00094C15.3779 7.37131 15.1001 7.83427 14.8223 8.29724C14.5445 8.7602 14.4519 9.31576 14.4519 9.87131H22.8779ZM14.2668 10.7972C14.2668 11.3528 14.4519 11.8158 14.7297 12.2787C15.1927 13.2046 16.026 13.9454 16.9519 14.3158C17.4149 14.5009 17.9705 14.5935 18.526 14.5935C19.1742 14.5935 19.8223 14.5009 20.3779 14.2232C20.9334 13.9454 21.3964 13.575 21.7668 13.1121C21.9519 12.9269 22.1371 12.9269 22.3223 13.0195C22.4149 13.0195 22.5075 13.1121 22.6001 13.2046C22.6927 13.2972 22.6927 13.3898 22.6927 13.575C22.6927 13.7602 22.6001 13.8528 22.5075 13.9454C22.0445 14.5009 21.489 14.8713 20.8408 15.1491C19.4519 15.8898 17.7853 15.8898 16.3964 15.3343C15.7482 15.0565 15.1927 14.6861 14.6371 14.1306C13.6186 13.1121 13.0631 11.7232 13.0631 10.2417C13.0631 9.50094 13.1557 8.7602 13.526 8.11205C13.8038 7.4639 14.1742 6.90835 14.7297 6.35279C15.1927 5.88983 15.8408 5.42687 16.489 5.14909C17.1371 4.87131 17.8779 4.68613 18.6186 4.68613C19.3594 4.68613 20.1001 4.87131 20.7482 5.14909C22.0445 5.70464 23.0631 6.72316 23.6186 8.01946C23.8964 8.66761 24.0816 9.40835 24.0816 10.1491C24.0816 10.3343 23.989 10.4269 23.8964 10.5195C23.8038 10.6121 23.6186 10.7046 23.526 10.7046L14.2668 10.7972ZM3.34084 9.68613H9.26676L6.39639 2.74168L3.34084 9.68613ZM9.82232 10.7972H2.87788L1.02602 15.2417C0.933431 15.5195 0.655653 15.6121 0.377875 15.5195C0.285283 15.4269 0.100098 15.3343 0.100098 15.2417C0.100098 15.0565 0.100098 14.9639 0.100098 14.7787L5.84084 1.35279C5.93343 1.16761 6.11862 0.982422 6.3038 0.982422C6.48899 0.982422 6.76676 1.07501 6.76676 1.35279L12.5075 14.8713C12.6001 14.9639 12.6001 15.1491 12.5075 15.2417C12.5075 15.3343 12.3223 15.5195 12.2297 15.5195C12.1371 15.6121 11.9519 15.6121 11.7668 15.5195C11.6742 15.4269 11.489 15.3343 11.489 15.2417L9.82232 10.7972ZM36.8594 10.7972C36.6742 10.6121 36.3038 10.5195 36.026 10.7972L32.2297 14.5935C31.952 14.7787 31.952 15.1491 32.2297 15.4269C32.5075 15.6121 32.8779 15.6121 33.0631 15.4269L36.8594 11.6306C37.0445 11.4454 37.0445 11.075 36.8594 10.7972ZM42.1371 9.68613C41.7668 9.68613 41.5816 9.9639 41.5816 10.2417C41.5816 12.5565 39.6371 14.5009 37.3223 14.5009C37.1371 14.5009 36.952 14.5009 36.7668 14.4083L38.2482 12.9269C38.526 12.7417 38.526 12.3713 38.2482 12.0935C38.0631 11.8158 37.6001 11.8158 37.4149 12.0935L35.2853 14.3158C35.0075 14.5009 35.0075 14.8713 35.2853 15.1491L35.3779 15.2417C35.4705 15.3343 35.4705 15.3343 35.5631 15.3343C36.1186 15.5195 36.6742 15.6121 37.3223 15.6121C40.3779 15.6121 42.7853 13.2046 42.7853 10.1491C42.7853 9.9639 42.5075 9.68613 42.1371 9.68613ZM32.3223 12.3713L32.4149 12.4639C32.5075 12.5565 32.6927 12.6491 32.8779 12.6491C33.0631 12.6491 33.1557 12.5565 33.2482 12.4639L35.5631 10.2417C35.8408 10.0565 35.8408 9.59353 35.5631 9.40835C35.3779 9.22316 35.0075 9.13057 34.7297 9.40835L33.1557 10.8898C33.1557 10.7046 33.0631 10.4269 33.0631 10.2417C33.0631 7.92687 35.0075 5.98242 37.3223 5.98242C37.6927 5.98242 37.8779 5.70464 37.8779 5.33427C37.8779 5.0565 37.6001 4.77872 37.3223 4.77872C34.2668 4.77872 31.8594 7.18613 31.8594 10.2417C31.8594 10.8898 31.952 11.4454 32.1371 12.0935C32.2297 12.2787 32.2297 12.2787 32.3223 12.3713Z" fill="#5B5B5B"/>
<path d="M40.1929 8.40658C39.6374 8.40658 39.1744 7.94361 39.1744 7.38806C39.1744 6.8325 39.6374 6.36954 40.1929 6.36954C40.7485 6.36954 41.2114 6.8325 41.2114 7.38806C41.2114 7.94361 40.7485 8.40658 40.1929 8.40658ZM41.5818 5.07324C40.2855 5.07324 39.1744 5.72139 38.1559 6.55472C37.8781 6.73991 37.6929 7.01769 37.4151 7.01769C36.3966 7.01769 35.8411 7.57324 35.2855 8.31398C35.1003 8.40658 35.1929 8.49917 35.3781 8.59176C35.9337 8.77695 36.3966 8.96213 36.8596 9.23991C36.767 9.42509 36.8596 9.61028 36.9522 9.70287L37.7855 10.5362C37.8781 10.6288 38.0633 10.7214 38.2485 10.6288C38.5263 11.0918 38.7114 11.5547 38.8966 12.1103C38.9892 12.3881 39.0818 12.4806 39.3596 12.2955C39.9151 11.8325 40.5633 11.2769 40.6559 10.4436C40.6559 9.98065 40.9337 9.70287 41.1188 9.3325C41.8596 8.40658 42.5077 7.29546 42.6003 5.99917C42.6003 5.07324 42.4151 5.07324 41.5818 5.07324Z" fill="#00BBB2"/>
</svg>
