<svg width="26" height="32" viewBox="0 0 26 32" fill="none" xmlns="http://www.w3.org/2000/svg">
<path d="M23.7646 0.00109863C23.1713 0.00109863 22.6687 0.382544 22.4811 0.909302H18.7695V0.4552C18.7695 0.206958 18.5637 0.00109863 18.3154 0.00109863C18.0672 0.00109863 17.8613 0.206958 17.8613 0.4552V0.909302H7.26562V0.4552C7.26562 0.206958 7.05977 0.00109863 6.81152 0.00109863C6.56328 0.00109863 6.35742 0.206958 6.35742 0.4552V0.909302H2.6459C2.4582 0.382544 1.95566 0.00109863 1.3623 0.00109863C0.611523 0.00109863 0 0.612622 0 1.3634V30.547C0 30.7952 0.205859 31.0011 0.454102 31.0011H2.27051C2.51875 31.0011 2.72461 30.7952 2.72461 30.547V4.54211H6.35742V14.2296H5.90332C5.15254 14.2296 4.54102 14.8411 4.54102 15.5919C4.54102 16.3427 5.15254 16.9542 5.90332 16.9542H6.35742V24.9767C6.35742 25.2249 6.56328 25.4308 6.81152 25.4308H10.293V27.8345L9.49375 29.4329C9.37871 29.657 9.46953 29.9294 9.69961 30.0445C9.76621 30.0747 9.83281 30.0929 9.89941 30.0929C10.0689 30.0929 10.2264 30.0021 10.3051 29.8447L11.1527 28.1493C11.183 28.0888 11.2012 28.0161 11.2012 27.9435V25.4308H13.9258V27.9435C13.9258 28.0161 13.9439 28.0827 13.9742 28.1493L14.8219 29.8447C14.9006 30.0021 15.0641 30.0929 15.2275 30.0929C15.2941 30.0929 15.3668 30.0747 15.4273 30.0445C15.6514 29.9294 15.7422 29.657 15.6332 29.4329L14.834 27.8345V25.4308H18.3154C18.4365 25.4308 18.5516 25.3823 18.6363 25.2976C18.7211 25.2128 18.7695 25.0978 18.7695 24.9767V16.9542H19.2236C19.9744 16.9542 20.5859 16.3427 20.5859 15.5919C20.5859 14.8411 19.9744 14.2296 19.2236 14.2296H18.7695V4.54211H22.4023V30.547C22.4023 30.7952 22.6082 31.0011 22.8564 31.0011H24.6729C24.9211 31.0011 25.127 30.7952 25.127 30.547V1.3634C25.127 0.612622 24.5154 0.00109863 23.7646 0.00109863ZM1.81641 30.0929H0.908203V1.3634C0.908203 1.11516 1.11406 0.909302 1.3623 0.909302C1.61055 0.909302 1.81641 1.11516 1.81641 1.3634V30.0929ZM6.35742 16.046H5.90332C5.65508 16.046 5.44922 15.8402 5.44922 15.5919C5.44922 15.3437 5.65508 15.1378 5.90332 15.1378H6.35742V16.046ZM6.35742 3.63391H2.72461V1.8175H6.35742V3.63391ZM7.26562 16.9542H9.38477V20.248C8.71875 20.9019 8.30098 21.7738 8.19805 22.7062H7.26562V16.9542ZM10.293 24.5226H7.26562V23.6144H10.293V24.5226ZM13.9258 24.5226H11.2012V23.6144H13.9258V24.5226ZM14.3799 21.798C14.1316 21.798 13.9258 22.0038 13.9258 22.2521V22.7062H11.2012V22.2521C11.2012 22.0038 10.9953 21.798 10.7471 21.798C10.4988 21.798 10.293 22.0038 10.293 22.2521V22.7062H9.1123C9.20918 22.0159 9.53008 21.3741 10.0205 20.8898H15.1004C15.5969 21.3741 15.9117 22.0159 16.0086 22.7062H14.834V22.2521C14.834 22.0038 14.6281 21.798 14.3799 21.798ZM10.293 19.9816V16.5001C10.293 16.0823 10.632 15.7433 11.0498 15.7433H14.0771C14.4949 15.7433 14.834 16.0823 14.834 16.5001V19.9816H10.293ZM17.8613 24.5226H14.834V23.6144H17.8613V24.5226ZM17.8613 22.7062H16.9289C16.826 21.7738 16.4082 20.9019 15.7422 20.248V16.9542H17.8613V22.7062ZM17.8613 16.046H15.6816C15.4818 15.3497 14.84 14.8351 14.0771 14.8351H11.0498C10.2869 14.8351 9.64512 15.3497 9.44531 16.046H7.26562V4.54211H17.8613V16.046ZM17.8613 3.63391H7.26562V1.8175H17.8613V3.63391ZM19.2236 15.1378C19.4719 15.1378 19.6777 15.3437 19.6777 15.5919C19.6777 15.8402 19.4719 16.046 19.2236 16.046H18.7695V15.1378H19.2236ZM22.4023 3.63391H18.7695V1.8175H22.4023V3.63391ZM24.2188 30.0929H23.3105V1.3634C23.3105 1.11516 23.5164 0.909302 23.7646 0.909302C24.0129 0.909302 24.2188 1.11516 24.2188 1.3634V30.0929Z" fill="white"/>
<path d="M12.5635 7.56946C10.8137 7.56946 9.38477 8.99836 9.38477 10.7482C9.38477 12.498 10.8137 13.9269 12.5635 13.9269C14.3133 13.9269 15.7422 12.498 15.7422 10.7482C15.7422 8.99836 14.3133 7.56946 12.5635 7.56946ZM12.5635 8.47766C13.6533 8.47766 14.5615 9.24661 14.7855 10.2698C13.5625 10.1488 12.4484 9.59172 11.6189 8.68958C11.9035 8.55032 12.2244 8.47766 12.5635 8.47766ZM12.5635 13.0187C11.3102 13.0187 10.293 12.0015 10.293 10.7482C10.293 10.1609 10.517 9.62805 10.8803 9.22844C11.8914 10.3667 13.2779 11.057 14.7916 11.1841C14.5918 12.2255 13.6654 13.0187 12.5635 13.0187Z" fill="white"/>
</svg>
