<svg width="38" height="21" viewBox="0 0 38 21" fill="none" xmlns="http://www.w3.org/2000/svg">
<path d="M0.626066 17.4983H3.81509C4.15421 19.1874 5.79763 20.2765 7.48018 19.9374C8.2432 19.7874 8.91492 19.357 9.37794 18.7309C10.3953 20.1135 12.3452 20.4135 13.7343 19.3961C14.3604 18.9396 14.7908 18.2614 14.9408 17.4983H27.5665C27.9121 19.1874 29.562 20.283 31.2511 19.9374C32.4837 19.6896 33.4423 18.7244 33.6902 17.4983H36.8792C37.2248 17.4983 37.5053 17.2179 37.5053 16.8723V12.1246C37.5053 11.492 37.4335 10.8594 37.2835 10.2464L35.9205 4.50747C35.6858 3.34012 34.6619 2.49884 33.4684 2.49884H14.7647L13.6887 0.346739C13.5843 0.131529 13.3626 0.00109863 13.1278 0.00109863H4.37594C4.14116 0.00109863 3.91943 0.138051 3.81509 0.346739L2.73904 2.49232H0.626066C0.280425 2.49232 0 2.77274 0 3.11839V16.8657C0 17.2179 0.280425 17.4983 0.626066 17.4983ZM6.87368 18.7439C5.83676 18.7439 4.99548 17.9027 4.99548 16.8657C4.99548 15.8288 5.83676 14.9941 6.87368 14.9941C7.9106 14.9941 8.74536 15.8354 8.74536 16.8657C8.74536 17.8962 7.9106 18.7439 6.87368 18.7439ZM11.8757 18.7439C10.8388 18.7439 10.004 17.9027 10.004 16.8657C10.004 15.8288 10.8453 14.9941 11.8757 14.9941C12.9061 14.9941 13.7539 15.8354 13.7539 16.8657C13.7539 17.8962 12.9126 18.7439 11.8757 18.7439ZM30.6251 18.7439C29.5881 18.7439 28.7469 17.9027 28.7469 16.8657C28.7469 15.8288 29.5881 14.9941 30.6251 14.9941C31.662 14.9941 32.4967 15.8354 32.4967 16.8657C32.4967 17.8962 31.662 18.7439 30.6251 18.7439ZM36.064 10.5334C36.0705 10.5594 36.0705 10.592 36.077 10.6181H31.2511V6.24219H35.0466L36.064 10.5334ZM4.76071 1.24671H12.7365L13.3626 2.49884H4.13464L4.76071 1.24671ZM1.25213 3.74445H33.4684C34.0684 3.75097 34.5901 4.18139 34.701 4.76833L34.7597 4.99006H1.25213V3.74445ZM29.999 6.24219V10.6181H26.2491V6.24219H29.999ZM25.0035 6.24219V10.6181H21.2536V6.24219H25.0035ZM20.0015 6.24219V10.6181H16.2516V6.24219H20.0015ZM14.9995 6.24219V10.6181H11.2496V6.24219H14.9995ZM9.99749 6.24219V10.6181H6.24762V6.24219H9.99749ZM1.25213 6.24219H5.00201V10.6181H1.25213V6.24219ZM1.25213 14.368H2.50426V13.1159H1.25213V11.8637H36.2401C36.2401 11.9485 36.2531 12.0333 36.2531 12.1181V13.1159H35.001V14.368H36.2531V16.2462H33.6902C33.6902 16.2332 33.6836 16.2266 33.6771 16.2136C33.638 16.0375 33.5858 15.8614 33.5141 15.6919C33.488 15.6267 33.4554 15.5745 33.4293 15.5158C33.3771 15.4049 33.3184 15.2941 33.2467 15.1832C33.2076 15.118 33.1619 15.0658 33.1163 15.0071C33.0445 14.9158 32.9728 14.8245 32.8945 14.7397C32.8424 14.681 32.7902 14.6354 32.7315 14.5832C32.6467 14.505 32.5619 14.4332 32.4706 14.368C32.4054 14.3224 32.3467 14.2767 32.2815 14.2376C32.1772 14.1789 32.0728 14.1202 31.9685 14.068C31.9033 14.0354 31.8381 14.0028 31.7663 13.9767C31.6424 13.9311 31.5185 13.8919 31.3881 13.8593C31.3229 13.8463 31.2642 13.8202 31.2055 13.8072C30.8142 13.7289 30.4098 13.7289 30.0186 13.8072C29.9533 13.8202 29.8946 13.8398 29.836 13.8593C29.7055 13.8919 29.5816 13.9311 29.4577 13.9767C29.386 14.0028 29.3273 14.0419 29.2555 14.068C29.1512 14.1202 29.0468 14.1724 28.9425 14.2376C28.8773 14.2767 28.8186 14.3224 28.7534 14.368C28.6621 14.4332 28.5708 14.505 28.4925 14.5832C28.4338 14.6354 28.3817 14.6876 28.3295 14.7397C28.2512 14.8245 28.1795 14.9158 28.1077 15.0071C28.0621 15.0658 28.0164 15.1245 27.9773 15.1832C27.9121 15.2875 27.8534 15.3984 27.7947 15.5158C27.7686 15.5745 27.7295 15.6267 27.7099 15.6919C27.6382 15.8614 27.586 16.0375 27.5469 16.2136C27.5469 16.2266 27.5404 16.2332 27.5339 16.2462H14.9408C14.9408 16.2332 14.9343 16.2266 14.9278 16.2136C14.8886 16.0375 14.8365 15.8614 14.7647 15.6919C14.7386 15.6267 14.706 15.5745 14.6799 15.5158C14.6278 15.4049 14.5691 15.2941 14.4973 15.1832C14.4582 15.118 14.4126 15.0658 14.3669 15.0071C14.2952 14.9158 14.2234 14.8245 14.1452 14.7397C14.093 14.681 14.0408 14.6354 13.9821 14.5832C13.8974 14.505 13.8126 14.4332 13.7213 14.368C13.6561 14.3224 13.5974 14.2767 13.5322 14.2376C13.4343 14.1789 13.33 14.1202 13.2191 14.068C13.1539 14.0354 13.0887 14.0028 13.017 13.9767C12.893 13.9311 12.7691 13.8919 12.6452 13.8593C12.58 13.8463 12.5213 13.8202 12.4561 13.8072C12.0713 13.7289 11.6735 13.7289 11.2953 13.8072C11.2627 13.8137 11.2301 13.8202 11.1974 13.8267C11.0214 13.8659 10.8518 13.918 10.6888 13.9832L10.5975 14.0224C10.4344 14.0941 10.2779 14.1789 10.1279 14.2767L10.1018 14.2963C9.95836 14.3941 9.82141 14.505 9.6975 14.6289C9.67793 14.6484 9.65837 14.668 9.63228 14.6876C9.53446 14.7854 9.44968 14.8832 9.3649 14.9941C9.28012 14.8832 9.18882 14.7789 9.091 14.681C9.07143 14.6615 9.05187 14.6419 9.02578 14.6223C8.90187 14.4984 8.76492 14.3876 8.62145 14.2897L8.59536 14.2702C8.44537 14.1724 8.28885 14.0876 8.12581 14.0158L8.03451 13.9767C7.87147 13.9115 7.70191 13.8593 7.52583 13.8202C7.49323 13.8137 7.46062 13.8072 7.42801 13.8006C7.04324 13.7224 6.65195 13.7224 6.26718 13.8006C6.20196 13.8137 6.14327 13.8332 6.08458 13.8528C5.95415 13.8854 5.83024 13.9245 5.70633 13.9702C5.63459 13.9963 5.5759 14.0354 5.50416 14.0615C5.39982 14.1137 5.29547 14.1658 5.19765 14.2311C5.13244 14.2702 5.07374 14.3158 5.00853 14.3615C4.91723 14.4267 4.82592 14.4984 4.74767 14.5767C4.68897 14.6289 4.6368 14.681 4.58463 14.7332C4.50637 14.818 4.43463 14.9093 4.3629 15.0006C4.31725 15.0593 4.2716 15.118 4.23247 15.1767C4.16725 15.281 4.10856 15.3919 4.04986 15.5093C4.02378 15.568 3.98465 15.6201 3.96508 15.6854C3.89335 15.8549 3.84117 16.031 3.80205 16.2071C3.80205 16.2201 3.79552 16.2266 3.789 16.2397H1.25213V14.368Z" fill="white"/>
<path d="M14.9995 13.1221H27.5013V14.3742H14.9995V13.1221Z" fill="white"/>
</svg>
