<svg width="29" height="30" viewBox="0 0 29 30" fill="none" xmlns="http://www.w3.org/2000/svg">
<path d="M11.4471 5.59712C11.3395 5.4895 11.1979 5.43286 11.0449 5.43286C10.8977 5.43286 10.7504 5.49517 10.6428 5.59712C10.5352 5.70474 10.4785 5.84634 10.4785 5.99927C10.4785 6.1522 10.5408 6.2938 10.6428 6.40142C10.7504 6.50903 10.892 6.56567 11.0449 6.56567C11.1922 6.56567 11.3395 6.50337 11.4471 6.40142C11.5547 6.29946 11.6113 6.1522 11.6113 5.99927C11.6113 5.84634 11.5547 5.70474 11.4471 5.59712Z" fill="white"/>
<path d="M28.9547 11.5671L26.5418 5.77844C26.3605 5.34231 26.0207 5.02512 25.6016 4.87219V3.99426L28.6545 2.6179C28.8584 2.52727 28.9887 2.32336 28.9887 2.10247C28.9887 1.88157 28.8584 1.67766 28.6545 1.58704L25.2674 0.0577393C25.0918 -0.0215576 24.8879 -0.00456542 24.7293 0.0973877C24.565 0.199341 24.4688 0.380591 24.4688 0.573169V3.63176V4.87219C24.0496 5.02512 23.7098 5.34231 23.5285 5.77844L21.5291 10.5759L14.9758 0.261645C14.8738 0.0973877 14.6926 0.00109863 14.5 0.00109863C14.3074 0.00109863 14.1262 0.103052 14.0242 0.261645L11.8379 3.69973C11.668 3.96594 11.7473 4.31145 12.0135 4.48137C12.2797 4.65129 12.6252 4.572 12.7951 4.30579L14.5 1.62102L20.5945 11.2159H8.40547L10.2689 8.28196C10.4389 8.01575 10.3596 7.67024 10.0934 7.50032C9.82715 7.3304 9.48164 7.40969 9.31172 7.6759L7.4709 10.5759L5.47148 5.77844C5.29023 5.34231 4.95039 5.02512 4.53125 4.87219V3.99426L7.58418 2.6179C7.78809 2.52727 7.91836 2.32336 7.91836 2.10247C7.91836 1.88157 7.78809 1.67766 7.58418 1.58704L4.19707 0.0577393C4.02148 -0.0215576 3.81758 -0.00456542 3.65898 0.0973877C3.49473 0.193677 3.39844 0.374927 3.39844 0.567505V3.6261V4.86653C2.9793 5.01946 2.63945 5.33665 2.4582 5.77278L0.0453125 11.5671C0.0169922 11.6351 0 11.7087 0 11.7823V26.1691C0 27.7323 1.26875 29.0011 2.83203 29.0011H26.168C27.7313 29.0011 29 27.7323 29 26.1691V23.9034V11.7823C29 11.7087 28.983 11.6351 28.9547 11.5671ZM25.6016 1.44543L27.0459 2.0968L25.6016 2.74817V1.44543ZM4.53125 1.44543L5.97559 2.0968L4.53125 2.74817V1.44543ZM24.5707 6.20891C24.6896 5.92004 24.9559 5.90305 25.0352 5.90305C25.1145 5.90305 25.3807 5.92571 25.4996 6.20891L27.584 11.2159H22.4863L24.5707 6.20891ZM7.92969 12.3657H21.0703V16.4269H17.0715C16.4711 15.6679 15.5422 15.1808 14.5 15.1808C13.4578 15.1808 12.5289 15.6679 11.9285 16.4269H7.92969V12.3657ZM17.6549 17.5597H21.0703V21.0714H17.7852V18.4659C17.7852 18.1544 17.7398 17.8486 17.6549 17.5597ZM16.6523 18.4659V21.0714H12.3477V18.4659C12.3477 17.2765 13.3105 16.3136 14.5 16.3136C15.6895 16.3136 16.6523 17.2765 16.6523 18.4659ZM7.92969 17.5597H11.3451C11.2602 17.8486 11.2148 18.1544 11.2148 18.4659V21.0714H7.92969V17.5597ZM3.50039 6.20891C3.61934 5.92004 3.88555 5.90305 3.96484 5.90305C4.04414 5.90305 4.31035 5.92571 4.4293 6.20891L6.51367 11.2159H1.41602L3.50039 6.20891ZM1.13281 12.3488H6.79688V21.0714H2.83203C2.19766 21.0714 1.60859 21.281 1.13281 21.6378V12.3488ZM27.8672 26.1691C27.8672 27.1036 27.1025 27.8683 26.168 27.8683H2.83203C1.89746 27.8683 1.13281 27.1036 1.13281 26.1691V24.4132V23.9034C1.13281 22.9689 1.89746 22.2042 2.83203 22.2042H26.168C26.9043 22.2042 27.5387 22.68 27.7709 23.337H21.6934C21.3818 23.337 21.127 23.5919 21.127 23.9034C21.127 24.215 21.3818 24.4698 21.6934 24.4698H27.8672V26.1691ZM27.8672 21.6378C27.3914 21.281 26.8023 21.0714 26.168 21.0714H22.2031V12.3488H27.8672V21.6378Z" fill="white"/>
<path d="M20.1243 23.5013C20.0167 23.3937 19.8751 23.337 19.7222 23.337C19.5692 23.337 19.4276 23.3993 19.32 23.5013C19.2124 23.6089 19.1558 23.7505 19.1558 23.9034C19.1558 24.0564 19.2181 24.198 19.32 24.3056C19.4276 24.4132 19.5692 24.4698 19.7222 24.4698C19.8751 24.4698 20.0167 24.4075 20.1243 24.3056C20.2319 24.198 20.2886 24.0564 20.2886 23.9034C20.2886 23.7505 20.2319 23.6089 20.1243 23.5013Z" fill="white"/>
</svg>
