<svg width="29" height="32" viewBox="0 0 29 32" fill="none" xmlns="http://www.w3.org/2000/svg">
<path d="M27.6847 5.35233H25.7382V3.70844C26.3435 3.46083 26.763 2.8693 26.763 2.18148V1.64499C26.763 0.737065 26.0271 0.00109863 25.1191 0.00109863C24.2112 0.00109863 23.4753 0.737065 23.4753 1.64499V2.18148C23.4753 2.8693 23.9017 3.46083 24.5001 3.70844V5.34545H18.6537V3.70844C19.2589 3.46083 19.6785 2.8693 19.6785 2.18148V1.64499C19.6785 0.737065 18.9425 0.00109863 18.0346 0.00109863C17.1267 0.00109863 16.3907 0.737065 16.3907 1.64499V2.18148C16.3907 2.8693 16.8172 3.46083 17.4156 3.70844V5.34545H11.5691V3.70844C12.1744 3.46083 12.594 2.8693 12.594 2.18148V1.64499C12.594 0.737065 11.858 0.00109863 10.9501 0.00109863C10.0422 0.00109863 9.30619 0.737065 9.30619 1.64499V2.18148C9.30619 2.8693 9.73264 3.46083 10.331 3.70844V5.34545H4.48458V3.70844C5.08986 3.46083 5.50943 2.8693 5.50943 2.18148V1.64499C5.50943 0.737065 4.77346 0.00109863 3.86554 0.00109863C2.95762 0.00109863 2.21478 0.737065 2.21478 1.64499V2.18148C2.21478 2.8693 2.64122 3.46083 3.23963 3.70844V5.34545H1.2931C0.584646 5.35233 0 5.9301 0 6.64543V24.3636C0 25.079 0.584646 25.6567 1.2931 25.6567H3.23963V27.2938C2.63435 27.5414 2.21478 28.1329 2.21478 28.8207V29.3572C2.21478 30.2651 2.95074 31.0011 3.85866 31.0011C4.76658 31.0011 5.50255 30.2651 5.50255 29.3572V28.8207C5.50255 28.1329 5.0761 27.5414 4.4777 27.2938V25.6499H10.3242V27.2869C9.71888 27.5345 9.29931 28.126 9.29931 28.8138V29.3503C9.29931 30.2583 10.0353 30.9942 10.9432 30.9942C11.8511 30.9942 12.5871 30.2583 12.5871 29.3503V28.8138C12.5871 28.126 12.1606 27.5345 11.5622 27.2869V25.643H17.4087V27.28C16.8034 27.5276 16.3838 28.1191 16.3838 28.807V29.3435C16.3838 30.2514 17.1198 30.9873 18.0277 30.9873C18.9357 30.9873 19.6716 30.2514 19.6716 29.3435V28.807C19.6716 28.1191 19.2452 27.5276 18.6468 27.28V25.6361H24.4932V27.2731C23.888 27.5207 23.4684 28.1123 23.4684 28.8001V29.3366C23.4684 30.2445 24.2043 30.9805 25.1123 30.9805C26.0202 30.9805 26.7562 30.2445 26.7562 29.3366V28.8001C26.7562 28.1123 26.3297 27.5207 25.7313 27.2731V25.6292H27.6778C28.3932 25.6292 28.9709 25.0446 28.9709 24.3361V6.64543C28.9778 5.9301 28.4 5.35233 27.6847 5.35233ZM24.7065 1.64499C24.7065 1.42488 24.8922 1.23917 25.1123 1.23917C25.3324 1.23917 25.5181 1.42488 25.5181 1.64499V2.18148C25.5181 2.40159 25.3324 2.5873 25.1123 2.5873C24.8922 2.5873 24.7065 2.40159 24.7065 2.18148V1.64499ZM17.6219 1.64499C17.6219 1.42488 17.8076 1.23917 18.0277 1.23917C18.2478 1.23917 18.4335 1.42488 18.4335 1.64499V2.18148C18.4335 2.40159 18.2478 2.5873 18.0277 2.5873C17.8076 2.5873 17.6219 2.40159 17.6219 2.18148V1.64499ZM15.1114 13.1728C16.1431 13.448 16.9066 14.3903 16.9066 15.5045C16.9066 16.6188 16.1431 17.5611 15.1114 17.8362V13.1728ZM10.5374 1.64499C10.5374 1.42488 10.7231 1.23917 10.9432 1.23917C11.1633 1.23917 11.349 1.42488 11.349 1.64499V2.18148C11.349 2.40159 11.1633 2.5873 10.9432 2.5873C10.7231 2.5873 10.5374 2.40159 10.5374 2.18148V1.64499ZM3.45285 1.64499C3.45285 1.42488 3.63856 1.23917 3.85866 1.23917C4.07877 1.23917 4.26448 1.42488 4.26448 1.64499V2.18148C4.26448 2.40846 4.07877 2.5873 3.85866 2.5873C3.63856 2.5873 3.45285 2.40159 3.45285 2.18148V1.64499ZM1.23807 10.5522H6.93321V20.4637H1.23807V10.5522ZM4.27136 29.3641C4.27136 29.5842 4.08564 29.7699 3.86554 29.7699C3.64544 29.7699 3.45973 29.5842 3.45973 29.3641V28.8276C3.45973 28.6075 3.64544 28.4218 3.86554 28.4218C4.09252 28.4218 4.27136 28.6075 4.27136 28.8276V29.3641ZM11.3559 29.3641C11.3559 29.5842 11.1702 29.7699 10.9501 29.7699C10.73 29.7699 10.5443 29.5842 10.5443 29.3641V28.8276C10.5443 28.6075 10.73 28.4218 10.9501 28.4218C11.1702 28.4218 11.3559 28.6075 11.3559 28.8276V29.3641ZM13.8733 17.8362C13.4262 17.7193 13.0135 17.4717 12.6971 17.1209C12.2982 16.6807 12.0781 16.1029 12.0781 15.5045C12.0781 14.3903 12.8416 13.448 13.8733 13.1728V17.8362ZM13.8733 11.9072C12.1538 12.203 10.84 13.7025 10.84 15.5045C10.84 16.4056 11.1702 17.2722 11.7755 17.9463C12.3257 18.5585 13.0686 18.9643 13.8664 19.1018V24.4255H10.9432H1.2931C1.26559 24.4255 1.23807 24.398 1.23807 24.3705V21.7018H7.16019C7.71733 21.7018 8.17817 21.2478 8.17817 20.6838V10.3253C8.17817 9.76813 7.72421 9.30729 7.16019 9.30729H1.23807V6.64543C1.23807 6.61792 1.26559 6.5904 1.2931 6.5904H13.8664L13.8733 11.9072ZM18.4404 29.3641C18.4404 29.5842 18.2547 29.7699 18.0346 29.7699C17.8145 29.7699 17.6288 29.5842 17.6288 29.3641V28.8276C17.6288 28.6075 17.8145 28.4218 18.0346 28.4218C18.2547 28.4218 18.4404 28.6075 18.4404 28.8276V29.3641ZM25.525 29.3641C25.525 29.5842 25.3392 29.7699 25.1191 29.7699C24.899 29.7699 24.7133 29.5842 24.7133 29.3641V28.8276C24.7133 28.6075 24.899 28.4218 25.1191 28.4218C25.3392 28.4218 25.525 28.6075 25.525 28.8276V29.3641ZM27.7397 20.4637H22.0446V10.5522H27.7397V20.4637ZM27.7397 9.31417H21.8176C21.2605 9.31417 20.7996 9.76813 20.7996 10.3321V20.6907C20.7996 21.2478 21.2536 21.7087 21.8176 21.7087H27.7397V24.3774C27.7397 24.4049 27.7122 24.4324 27.6847 24.4324H25.1191H15.1114V19.1156C16.8309 18.8198 18.1447 17.3204 18.1447 15.5183C18.1447 13.7162 16.8309 12.2168 15.1114 11.921V6.5904H27.6847C27.7122 6.5904 27.7397 6.61792 27.7397 6.64543V9.31417Z" fill="white"/>
</svg>
