<svg width="35" height="28" viewBox="0 0 35 28" fill="none" xmlns="http://www.w3.org/2000/svg">
<path d="M13.2061 14.011H12.1973V13.0022H13.2061V14.011ZM11.523 14.011H10.5142V13.0022H11.523V14.011Z" fill="white"/>
<path d="M6.61379 15.8775H15.968L16.8366 15.0089V14.0109H17.5594C17.8022 15.6563 19.2264 16.924 20.9419 16.924C22.83 16.924 24.362 15.3919 24.362 13.5038C24.362 11.6211 22.83 10.0837 20.9419 10.0837C19.2264 10.0837 17.8022 11.3514 17.5594 12.9967H16.8366V11.9987L15.968 11.1356H6.61379L5.77223 11.9772H4.74186V10.6879L3.27453 9.22052H0V17.7925H3.26913L4.73646 16.3252V15.0359H5.77223L6.61379 15.8775ZM20.9365 11.0978C22.2635 11.0978 23.3479 12.1768 23.3479 13.5092C23.3479 14.8363 22.2689 15.9206 20.9365 15.9206C19.782 15.9206 18.811 15.1006 18.579 14.0163H20.9095V13.0021H18.579C18.8164 11.9124 19.782 11.0978 20.9365 11.0978ZM15.8278 12.4195V14.5882L15.5526 14.8633H9.58621V12.139H15.5473L15.8278 12.4195ZM8.57742 12.1444V14.8687H7.03456L6.75944 14.5935V12.4249L7.03456 12.1498H8.57742V12.1444ZM1.00879 10.2293H2.85375L3.73307 11.1086V11.9772H1.00879V10.2293ZM3.72767 15.9044L2.84835 16.7838H1.00879V15.0359H3.72767V15.9044ZM1.00879 14.0271V12.986H5.74525V14.0271H1.00879Z" fill="white"/>
<path d="M20.9363 0.00109863C17.9693 0.00109863 15.1533 0.945155 12.7958 2.73077C10.5139 4.45704 8.80921 6.91159 7.99463 9.64126L8.96026 9.92717C10.5247 4.67283 15.45 1.0045 20.9363 1.0045C27.8252 1.0045 33.4302 6.60949 33.4302 13.4984C33.4302 20.3873 27.8252 25.9977 20.9363 25.9977C15.45 25.9977 10.5247 22.3294 8.96026 17.075L7.99463 17.3609C8.80921 20.0906 10.5139 22.5452 12.7958 24.2714C15.1533 26.057 17.9693 27.0011 20.9363 27.0011C28.3808 27.0011 34.439 20.943 34.439 13.4984C34.439 6.05924 28.3808 0.00109863 20.9363 0.00109863Z" fill="white"/>
<path d="M20.9364 19.2814C19.1131 19.2814 17.3706 18.3967 16.2809 16.924L15.4663 17.5228C16.7448 19.2598 18.7894 20.2956 20.931 20.2956C24.6749 20.2956 27.7175 17.253 27.7175 13.5092C27.7175 9.76534 24.6749 6.72278 20.931 6.72278C18.784 6.72278 16.7448 7.75854 15.4663 9.49561L16.2809 10.0944C17.3706 8.61629 19.1077 7.73696 20.9364 7.73696C24.1193 7.73696 26.7141 10.3264 26.7141 13.5146C26.7141 16.692 24.1246 19.2814 20.9364 19.2814Z" fill="white"/>
<path d="M12.4992 17.0264L11.5659 17.4148C13.1519 21.2072 16.8311 23.6564 20.9363 23.6564C26.5359 23.6564 31.089 19.1033 31.089 13.5037C31.089 7.90412 26.5359 3.35107 20.9363 3.35107C16.8364 3.35107 13.1573 5.80023 11.5659 9.59263L12.4992 9.98104C13.9288 6.56626 17.241 4.35987 20.9363 4.35987C25.9803 4.35987 30.0802 8.45977 30.0802 13.5037C30.0802 18.5477 25.9803 22.6476 20.9363 22.6476C17.241 22.6476 13.9288 20.4412 12.4992 17.0264Z" fill="white"/>
</svg>
