<svg width="23" height="32" viewBox="0 0 23 32" fill="none" xmlns="http://www.w3.org/2000/svg">
<path d="M8.78786 7.23854C9.0726 7.23854 9.30556 7.00557 9.30556 6.72083C9.30556 6.43609 9.0726 6.20312 8.78786 6.20312H8.78139C8.49665 6.20312 8.26368 6.43609 8.27015 6.72083C8.27015 7.01204 8.49665 7.23854 8.78786 7.23854Z" fill="white"/>
<path d="M13.9588 7.23854C14.2435 7.23854 14.4765 7.00557 14.4765 6.72083C14.4765 6.43609 14.2435 6.20312 13.9588 6.20312H13.9523C13.6675 6.20312 13.4346 6.43609 13.441 6.72083C13.441 7.01204 13.674 7.23854 13.9588 7.23854Z" fill="white"/>
<path d="M11.3699 7.23853C9.37027 7.23853 7.75244 8.85636 7.75244 10.856C7.75244 12.8556 9.37027 14.4735 11.3699 14.4735C13.3696 14.4735 14.9874 12.8556 14.9874 10.856C14.9874 8.85636 13.3631 7.23853 11.3699 7.23853ZM11.8876 8.79164C11.8876 9.07638 11.6547 9.30935 11.3699 9.30935C11.0852 9.30935 10.8522 9.07638 10.8522 8.79164C10.8522 8.50691 11.0852 8.27394 11.3699 8.27394C11.6547 8.27394 11.8876 8.50043 11.8876 8.79164ZM11.3699 13.4381C10.2568 13.4445 9.26673 12.7327 8.91728 11.6779C8.56783 10.623 8.93022 9.46466 9.81679 8.79811C9.82327 9.4323 10.218 10.0018 10.8069 10.2283C10.7293 10.6877 10.4963 11.3672 9.81679 11.3672C9.53206 11.3672 9.29909 11.6002 9.29909 11.8849C9.29909 12.1697 9.53206 12.4026 9.81679 12.4026C10.438 12.4221 11.0269 12.1179 11.3699 11.5937C11.7129 12.1114 12.3018 12.4156 12.923 12.4026C13.2078 12.4026 13.4407 12.1697 13.4407 11.8849C13.4407 11.6002 13.2078 11.3672 12.923 11.3672C12.2371 11.3672 12.0041 10.6877 11.9329 10.2283C12.5283 10.0018 12.9166 9.4323 12.923 8.79811C13.8161 9.46466 14.1785 10.623 13.8225 11.6779C13.4666 12.7327 12.483 13.4445 11.3699 13.4381Z" fill="white"/>
<path d="M6.71719 24.8081C5.57823 24.8081 4.65283 25.7335 4.65283 26.8725C4.65283 28.0114 5.57823 28.9368 6.71719 28.9368C7.85614 28.9368 8.78154 28.0114 8.78154 26.8725C8.78801 25.7335 7.86261 24.8081 6.71719 24.8081ZM6.71719 27.9079C6.14771 27.9079 5.68177 27.4419 5.68177 26.8725C5.68177 26.303 6.14771 25.837 6.71719 25.837C7.28666 25.837 7.7526 26.303 7.7526 26.8725C7.7526 27.4484 7.28666 27.9079 6.71719 27.9079Z" fill="white"/>
<path d="M16.0228 24.8081C14.8839 24.8081 13.9585 25.7335 13.9585 26.8725C13.9585 28.0114 14.8839 28.9368 16.0228 28.9368C17.1618 28.9368 18.0872 28.0114 18.0872 26.8725C18.0872 25.7335 17.1618 24.8081 16.0228 24.8081ZM16.0228 27.9079C15.4534 27.9079 14.9874 27.4419 14.9874 26.8725C14.9874 26.303 15.4534 25.837 16.0228 25.837C16.5923 25.837 17.0583 26.303 17.0583 26.8725C17.0518 27.4484 16.5923 27.9079 16.0228 27.9079Z" fill="white"/>
<path d="M22.7402 4.13872C22.7402 2.46265 21.7307 0.95483 20.1841 0.314169C18.6374 -0.326492 16.8578 0.0359018 15.6736 1.22015C13.0333 -0.404148 9.70699 -0.404148 7.06669 1.22015C5.88891 0.0359018 4.10929 -0.320021 2.55617 0.314169C1.00953 0.95483 0 2.46265 0 4.13872C0.00647133 6.02188 1.28132 7.6656 3.10624 8.14447C3.10624 8.18977 3.09977 8.2286 3.09977 8.2739C3.09977 10.6812 4.15459 12.9721 5.98598 14.5381C5.16412 14.8358 4.51051 15.47 4.18048 16.2725L3.00917 19.1457C2.31026 20.8477 2.47852 22.7826 3.45569 24.3422C2.11612 26.0765 2.36203 28.555 4.01222 29.9917C5.66888 31.4283 8.15387 31.3183 9.6811 29.7458C10.7812 30.0499 11.9461 30.0499 13.0462 29.7458C14.5734 31.3118 17.0584 31.4154 18.7086 29.9852C20.3588 28.5486 20.6112 26.0765 19.2716 24.3487C20.2488 22.7891 20.417 20.8542 19.7181 19.1522L18.5468 16.2789C18.2168 15.47 17.5632 14.8423 16.7413 14.5381C18.5727 12.9721 19.6275 10.6812 19.6275 8.2739C19.6275 8.2286 19.6211 8.18977 19.6211 8.14447C21.4524 7.6656 22.7338 6.02188 22.7402 4.13872ZM1.03541 4.13872C1.02894 2.91564 1.74726 1.80257 2.8668 1.30428C3.98634 0.80599 5.29355 1.01307 6.19953 1.82846C5.92773 2.04848 5.67535 2.28145 5.42944 2.53383C4.79525 2.01613 3.91515 1.92553 3.19036 2.30087C2.46558 2.6762 2.02553 3.43982 2.07082 4.25521C2.11612 5.07059 2.6403 5.78244 3.41039 6.06718C3.31979 6.40369 3.24861 6.74667 3.19684 7.08965C1.91551 6.67548 1.04188 5.48476 1.03541 4.13872ZM3.74043 5.09001C3.35862 4.94117 3.09977 4.58524 3.08035 4.17755C3.06094 3.76986 3.28096 3.38805 3.64336 3.20038C4.00575 3.01271 4.4458 3.05801 4.7629 3.31686C4.34873 3.86693 4.00575 4.46229 3.74043 5.09001ZM3.96692 19.534L5.13823 16.6607C5.46827 15.8518 6.27719 15.3341 7.15082 15.3729L7.16376 15.3794L5.35826 22.4332C5.30649 22.6273 5.27413 22.8214 5.24177 23.0156C4.87291 23.158 4.52346 23.3521 4.20636 23.598C3.51393 22.349 3.42333 20.8542 3.96692 19.534ZM6.71724 29.9787C5.00234 29.9787 3.61747 28.5874 3.61747 26.879C3.61747 25.1705 5.00881 23.7792 6.71724 23.7792C8.43214 23.7792 9.817 25.1705 9.817 26.879C9.817 28.5874 8.43214 29.9723 6.71724 29.9787ZM10.3541 28.8398C11.0466 27.5585 11.0142 26.0118 10.27 24.7564C9.52579 23.5074 8.17976 22.7373 6.72371 22.7373C6.60075 22.7373 6.4778 22.7438 6.35484 22.7567C6.36131 22.7308 6.36131 22.7114 6.36778 22.6855L8.11504 15.8648C8.43214 16.0007 8.7557 16.1171 9.09221 16.2077C8.46449 18.4533 7.75912 21.1065 7.75912 21.7019C7.75912 21.9866 7.99209 22.2196 8.27683 22.2196C8.56156 22.2196 8.79453 21.9866 8.79453 21.7019C8.79453 21.4236 9.13751 19.8705 10.1017 16.4278C11.6484 16.6866 13.2403 16.4795 14.677 15.8454L16.3466 22.5238C16.3725 22.6014 16.3854 22.6791 16.4048 22.7567C16.2819 22.7438 16.1589 22.7373 16.0295 22.7373C14.5734 22.7373 13.2274 23.5074 12.4767 24.7564C11.7325 26.0053 11.7002 27.5585 12.3926 28.8398C11.7131 28.9692 11.0271 28.9692 10.3541 28.8398ZM16.023 29.9787C14.3081 29.9787 12.9232 28.5874 12.9232 26.879C12.9232 25.1705 14.3146 23.7792 16.023 23.7792C17.7379 23.7792 19.1228 25.1705 19.1228 26.879C19.1163 28.5874 17.7314 29.9723 16.023 29.9787ZM17.602 16.6607L18.7733 19.534C19.3169 20.8542 19.2263 22.349 18.5339 23.598C18.2168 23.3586 17.8738 23.1644 17.4985 23.0221C17.4596 22.7632 17.4079 22.5108 17.3367 22.2649L15.6153 15.3794C16.4825 15.3471 17.272 15.8583 17.602 16.6607ZM11.3701 15.5088C7.37731 15.5088 4.13518 12.2667 4.13518 8.2739C4.13518 4.28109 7.37084 1.03896 11.3701 1.03896C15.3694 1.03896 18.6051 4.27462 18.6051 8.2739C18.5986 12.2667 15.3629 15.5024 11.3701 15.5088ZM17.9773 3.32334C18.2944 3.07743 18.728 3.0386 19.0839 3.21979C19.4399 3.40746 19.6599 3.77633 19.6405 4.17755C19.6211 4.57877 19.3752 4.9347 18.9998 5.08354C18.7345 4.46229 18.3915 3.86693 17.9773 3.32334ZM19.5434 7.08965C19.4916 6.74667 19.4205 6.40369 19.3299 6.06718C20.0935 5.78244 20.6176 5.07059 20.6694 4.25521C20.7147 3.43982 20.2811 2.66973 19.5499 2.30087C18.8251 1.92553 17.945 2.0226 17.3108 2.53383C17.0714 2.28145 16.8125 2.04848 16.5407 1.82846C17.4532 1.01307 18.7539 0.80599 19.8734 1.30428C20.993 1.80257 21.7113 2.91564 21.7048 4.13872C21.6984 5.48476 20.8247 6.67548 19.5434 7.08965Z" fill="white"/>
</svg>
