<svg width="32" height="29" viewBox="0 0 32 29" fill="none" xmlns="http://www.w3.org/2000/svg">
<path d="M8.13176 18.6423C7.69066 18.2875 7.12491 18.0957 6.55915 18.0957C5.78244 18.0957 5.06326 18.4409 4.58381 19.0354C4.16189 19.5628 3.97011 20.2149 4.04683 20.8765C4.12354 21.5478 4.45915 22.1423 4.98655 22.5642C5.42765 22.919 5.9934 23.1108 6.55915 23.1108C7.33587 23.1108 8.05504 22.7656 8.5345 22.171C8.95641 21.6436 9.14819 20.9916 9.07148 20.33C8.99477 19.6587 8.65915 19.0642 8.13176 18.6423ZM7.63313 21.4519C7.37422 21.7779 6.98107 21.9697 6.55915 21.9697C6.24272 21.9697 5.94546 21.8642 5.69614 21.6724C5.40847 21.4423 5.22628 21.1258 5.18792 20.7615C5.14956 20.4067 5.25504 20.0519 5.47559 19.7642C5.7345 19.4382 6.12765 19.256 6.54957 19.256C6.866 19.256 7.16326 19.3615 7.41258 19.5532C7.70025 19.7834 7.88244 20.0998 7.9208 20.4642C7.96874 20.819 7.86326 21.1738 7.63313 21.4519Z" fill="white"/>
<path d="M18.2478 12.7543C18.6314 12.7543 18.9958 12.668 19.341 12.505C19.9547 12.2173 20.4053 11.6995 20.6355 11.0667C20.856 10.4338 20.8177 9.75296 20.5204 9.15844C20.0985 8.29542 19.2067 7.73926 18.2478 7.73926C17.8643 7.73926 17.4999 7.82556 17.1547 7.98857C16.541 8.27624 16.0903 8.79405 15.8601 9.42693C15.6396 10.0598 15.678 10.7406 15.9752 11.3447C16.3875 12.1982 17.2889 12.7543 18.2478 12.7543ZM16.9437 9.8009C17.0684 9.4557 17.3081 9.17761 17.6437 9.02419C17.8355 8.93789 18.0369 8.88994 18.2382 8.88994C18.7656 8.88994 19.2547 9.19679 19.4752 9.65707C19.6286 9.98309 19.6574 10.3475 19.5327 10.6831C19.4081 11.0283 19.1684 11.3064 18.8327 11.4598C18.641 11.5461 18.4396 11.5941 18.2382 11.5941C17.7108 11.5941 17.2218 11.2872 16.9917 10.8173C16.8478 10.5009 16.8286 10.1365 16.9437 9.8009Z" fill="white"/>
<path d="M11.9866 8.68867C12.1687 8.72702 12.3605 8.75579 12.5523 8.75579C13.7413 8.75579 14.7482 7.95031 15.0167 6.80922C15.1701 6.15716 15.055 5.48593 14.6907 4.92017C14.3359 4.34483 13.7701 3.95168 13.1085 3.80785C12.9263 3.76949 12.7345 3.74072 12.5427 3.74072C11.3633 3.74072 10.3468 4.5462 10.0879 5.6873C9.9345 6.33935 10.0496 7.01059 10.4044 7.57634C10.7687 8.14209 11.3249 8.53524 11.9866 8.68867ZM11.2098 5.93661C11.3537 5.31333 11.9003 4.88182 12.5427 4.88182C12.6482 4.88182 12.7537 4.89141 12.8496 4.92017C13.214 4.99689 13.5112 5.21743 13.7126 5.52428C13.9044 5.83113 13.9619 6.19552 13.8852 6.54072C13.7413 7.15442 13.1852 7.59552 12.5427 7.59552C12.4372 7.59552 12.3318 7.58593 12.2359 7.55716C11.8715 7.48045 11.5742 7.2599 11.3729 6.95305C11.1907 6.65579 11.1331 6.29141 11.2098 5.93661Z" fill="white"/>
<path d="M7.4218 10.1179C7.94919 9.69599 8.28481 9.10147 8.36152 8.43024C8.43823 7.76859 8.24645 7.10695 7.82453 6.58914C7.34508 5.99462 6.62591 5.64941 5.84919 5.64941C5.28344 5.64941 4.72728 5.84119 4.27659 6.19599C3.74919 6.61791 3.41358 7.21243 3.33686 7.87407C3.26015 8.5453 3.45193 9.19736 3.87385 9.72476C4.3533 10.3193 5.07248 10.6645 5.84919 10.6645C6.41495 10.6645 6.97111 10.4727 7.4218 10.1179ZM4.76563 9.00558C4.53549 8.71791 4.43002 8.3727 4.47796 8.00832C4.51632 7.64393 4.69851 7.3275 4.98618 7.09736C5.23549 6.90558 5.53275 6.8001 5.8396 6.8001C6.26152 6.8001 6.65467 6.98229 6.91358 7.30832C7.14371 7.5864 7.2396 7.94119 7.20125 8.30558C7.16289 8.66996 6.9807 8.9864 6.69303 9.21654C6.44371 9.40832 6.15604 9.5138 5.8396 9.5138C5.42728 9.5138 5.03412 9.33161 4.76563 9.00558Z" fill="white"/>
<path d="M30.9438 4.48877C30.8479 4.39288 30.6658 4.26822 30.3877 4.26822C30.0616 4.26822 29.189 4.26822 23.8959 8.77507C23.7904 8.86137 23.6849 8.95726 23.5699 9.05315C22.6206 6.58877 20.9616 4.38329 18.8233 2.79151C16.3685 0.969592 13.4438 0.00109863 10.3658 0.00109863C8.28493 0.00109863 5.76301 0.729866 3.77808 1.89014C1.34247 3.3285 0 5.2463 0 7.28877C0 9.75315 1.39041 10.7888 2.51233 11.623C3.42329 12.3038 4.14247 12.8312 4.14247 14.0011C4.14247 15.171 3.42329 15.7079 2.51233 16.3792C1.4 17.2134 0 18.2395 0 20.7134C0 22.7559 1.34247 24.6737 3.77808 26.1025C5.76301 27.2723 8.29452 28.0011 10.3658 28.0011C14.1342 28.0011 17.6822 26.5436 20.3384 23.9066C22.9658 21.2984 24.4329 17.8463 24.4712 14.1545C25.363 13.1381 26.226 12.1312 27.0219 11.1723C28.374 9.54219 29.4096 8.19973 30.1096 7.1737C31.0493 5.83124 31.4521 4.99699 30.9438 4.48877ZM19.5425 23.0915C17.0973 25.5175 13.837 26.8504 10.3753 26.8504C6.66438 26.8504 1.15069 24.271 1.15069 20.7134C1.15069 18.8244 2.14795 18.086 3.19315 17.3093C4.18082 16.5806 5.29315 15.7559 5.29315 14.0011C5.29315 12.2463 4.18082 11.4216 3.19315 10.6929C2.14795 9.91617 1.15069 9.17781 1.15069 7.28877C1.15069 5.10247 3.16438 3.59699 4.36301 2.8874C6.15617 1.83261 8.50548 1.15178 10.3658 1.15178C13.1945 1.15178 15.8795 2.04356 18.1329 3.71206C20.2137 5.25589 21.8055 7.43261 22.6397 9.84904C20.1466 12.0258 17.4425 14.5381 15.4288 16.5614C12.0822 16.9929 11.6315 19.2175 11.2959 20.8573C11.0082 22.2477 10.826 22.9285 9.75206 23.0148C9.48356 23.034 9.2726 23.2353 9.23425 23.4942C9.19589 23.7532 9.33973 24.0121 9.57945 24.1175C9.64658 24.1463 11.2959 24.8175 13.2137 24.8175C14.5562 24.8175 15.6973 24.4915 16.6274 23.849C17.7685 23.0627 18.5452 21.8066 18.9288 20.1285C20.2425 18.7956 21.7479 17.1943 23.2342 15.5449C22.8986 18.4025 21.6233 21.0299 19.5425 23.0915ZM17.7877 20.0326C17.174 22.449 15.6397 23.6764 13.2233 23.6764C12.5808 23.6764 11.9767 23.5901 11.4589 23.4847C12.0726 22.8614 12.2644 21.9216 12.4274 21.097C12.7438 19.5436 13.0411 18.0764 15.4863 17.7216L17.7877 20.0326ZM25.7274 10.9422C23.4452 13.6559 20.6836 16.7148 18.411 19.0353L18.0562 18.6806L16.5027 17.1175C18.5644 15.0655 21.211 12.6203 23.6753 10.4819C23.963 10.2326 24.2507 9.98329 24.5288 9.74356C27.3863 7.29836 28.8918 6.24356 29.6589 5.7737C29.2082 6.55041 28.1534 8.05589 25.7274 10.9422Z" fill="white"/>
</svg>
