<svg width="29" height="30" viewBox="0 0 29 30" fill="none" xmlns="http://www.w3.org/2000/svg">
<path d="M19.4066 3.18997L19.4916 3.03704C19.6105 2.83313 19.5369 2.57258 19.3387 2.4593C19.1348 2.34036 18.8742 2.41399 18.7609 2.61223L18.676 2.7595C18.4607 2.67454 18.2342 2.61223 17.9963 2.57825V2.40833C17.9963 2.1761 17.8037 1.98352 17.5715 1.98352C17.3393 1.98352 17.1467 2.1761 17.1467 2.40833V2.57825C16.9088 2.61223 16.6822 2.67454 16.467 2.7595L16.382 2.61223C16.2631 2.40833 16.0025 2.34036 15.8043 2.4593C15.6004 2.57825 15.5324 2.83879 15.6514 3.03704L15.7363 3.18997C15.0453 3.73372 14.6035 4.57766 14.6035 5.52356C14.6035 7.16047 15.9402 8.49719 17.5771 8.49719C19.2141 8.49719 20.5508 7.16047 20.5508 5.52356C20.5395 4.57766 20.0977 3.73372 19.4066 3.18997ZM17.5658 7.64758C16.3934 7.64758 15.4418 6.69602 15.4418 5.52356C15.4418 4.3511 16.399 3.39954 17.5658 3.39954C18.7383 3.39954 19.6898 4.3511 19.6898 5.52356C19.6898 6.69602 18.7383 7.64758 17.5658 7.64758Z" fill="white"/>
<path d="M26.1071 3.11633C26.4526 2.85579 26.6735 2.44797 26.6735 1.98352C26.6735 1.28684 26.1694 0.709106 25.5124 0.590161C25.2519 0.227661 24.8214 0.00109863 24.3626 0.00109863C23.9038 0.00109863 23.479 0.227661 23.2128 0.590161C22.5501 0.709106 22.0517 1.28684 22.0517 1.98352C22.0517 2.44797 22.2726 2.85579 22.6181 3.11633C22.6124 3.11633 22.6124 3.122 22.6067 3.122C22.5954 3.12766 22.5841 3.13333 22.5728 3.14465C22.5614 3.15598 22.5501 3.16165 22.5388 3.17297C21.8364 3.71672 21.3833 4.56633 21.3833 5.52356C21.3833 7.16047 22.72 8.49719 24.3569 8.49719C25.9938 8.49719 27.3306 7.16047 27.3306 5.52356C27.3362 4.53235 26.8548 3.66008 26.1071 3.11633ZM26.4413 5.0761C25.2972 4.96282 24.255 4.44172 23.479 3.59778C23.7509 3.47317 24.0511 3.4052 24.3626 3.4052C25.3821 3.39954 26.2317 4.11887 26.4413 5.0761ZM23.4677 1.41711C23.6319 1.41711 23.7792 1.32083 23.8528 1.17356C23.9491 0.975317 24.1417 0.850708 24.3626 0.850708C24.5835 0.850708 24.7761 0.975317 24.8724 1.17356C24.9403 1.32083 25.0933 1.41711 25.2575 1.41711C25.569 1.41711 25.8239 1.672 25.8239 1.98352C25.8239 2.29504 25.569 2.54993 25.2575 2.54993H23.4677C23.1562 2.54993 22.9013 2.29504 22.9013 1.98352C22.9013 1.672 23.1562 1.41711 23.4677 1.41711ZM24.3626 7.64758C23.1901 7.64758 22.2386 6.69602 22.2386 5.52356C22.2386 4.97415 22.4481 4.47571 22.788 4.10188C23.7339 5.16672 25.031 5.81243 26.447 5.93137C26.2601 6.90559 25.3991 7.64758 24.3626 7.64758Z" fill="white"/>
<path d="M27.6136 21.2413C27.8459 21.2413 28.0384 21.0488 28.0384 20.8165V17.1179C28.0384 16.24 27.7382 15.396 27.1888 14.7163V10.9044C27.1888 10.0435 26.4922 9.3468 25.6312 9.3468H22.7992C22.0855 9.3468 21.4851 9.82825 21.2982 10.4796H20.392V9.77161C20.392 9.75461 20.392 9.74329 20.392 9.73196C20.392 9.72063 20.392 9.7093 20.3863 9.70364C20.3863 9.69797 20.3863 9.69797 20.3863 9.69231C20.3863 9.68098 20.3806 9.66965 20.375 9.65833V9.65266C20.3693 9.64133 20.3693 9.63 20.3636 9.61868C20.3636 9.61868 20.3636 9.61868 20.3636 9.61301C20.358 9.60168 20.3523 9.59036 20.3466 9.57903V9.57336C20.341 9.56204 20.3353 9.55637 20.3297 9.54504C20.3297 9.54504 20.3297 9.53938 20.324 9.53938C20.3183 9.52805 20.3127 9.52239 20.307 9.51106L20.3013 9.5054C20.2843 9.48274 20.2617 9.46575 20.2447 9.44876C20.2447 9.44876 20.239 9.44309 20.2334 9.44309C20.2277 9.43743 20.2164 9.43176 20.2107 9.4261L20.205 9.42043C20.1937 9.41477 20.1881 9.40911 20.1767 9.40344C20.1767 9.40344 20.1711 9.40344 20.1711 9.39778C20.1597 9.39211 20.1484 9.38645 20.1371 9.38079H20.1314C20.1201 9.37512 20.1088 9.36946 20.0974 9.36946H20.0918C20.0804 9.36379 20.0691 9.36379 20.0578 9.35813C20.0521 9.35813 20.0521 9.35813 20.0464 9.35813C20.0351 9.35813 20.0238 9.35247 20.0181 9.35247C20.0068 9.35247 19.9898 9.35247 19.9785 9.35247H14.8808C14.6486 9.35247 14.456 9.54504 14.456 9.77727V10.4796H13.5384C13.3515 9.82825 12.7511 9.3468 12.0375 9.3468H9.20543C8.49176 9.3468 7.89137 9.82825 7.70446 10.4796H6.74157C6.60563 10.0038 6.25446 9.62434 5.79567 9.44876C6.41305 8.905 6.79821 8.10637 6.79821 7.22278V5.52356C6.79821 3.88098 5.46715 2.54993 3.82457 2.54993C2.18199 2.54993 0.850941 3.88098 0.850941 5.52356V7.22278C0.850941 8.10637 1.24176 8.905 1.85348 9.44876C1.26442 9.66965 0.850941 10.2417 0.850941 10.9044V16.5685C0.850941 17.3784 1.17379 18.1091 1.70055 18.6472V27.704L0.290198 28.1741C0.0692999 28.2478 -0.0553094 28.4913 0.0239874 28.7122C0.0806281 28.8878 0.25055 29.0011 0.426136 29.0011C0.471448 29.0011 0.516761 28.9954 0.562073 28.9784L2.26129 28.412C2.43688 28.3554 2.55016 28.1911 2.55016 28.0099V19.2532C2.93532 19.4402 3.37145 19.5421 3.82457 19.5421C4.2777 19.5421 4.71383 19.4402 5.09899 19.2532V28.0099C5.09899 28.1911 5.21793 28.3554 5.38785 28.412L7.08707 28.9784C7.13239 28.9954 7.1777 29.0011 7.22301 29.0011C7.26832 29.0011 7.31364 28.9954 7.35895 28.9784L9.05817 28.412C9.23375 28.3554 9.34703 28.1911 9.34703 28.0099V21.2413H11.8959V28.0099C11.8959 28.1911 12.0148 28.3554 12.1847 28.412L13.8839 28.9784C13.9293 28.9954 13.9746 29.0011 14.0199 29.0011C14.0652 29.0011 14.1105 28.9954 14.1558 28.9784L15.855 28.412C16.0306 28.3554 16.1439 28.1911 16.1439 28.0099V19.2532C16.5291 19.4402 16.9652 19.5421 17.4183 19.5421C17.8714 19.5421 18.3076 19.4402 18.6927 19.2532V28.0099C18.6927 28.1911 18.8117 28.3554 18.9816 28.412L20.6808 28.9784C20.7261 28.9954 20.7714 29.0011 20.8168 29.0011C20.8621 29.0011 20.9074 28.9954 20.9527 28.9784L22.6519 28.412C22.8275 28.3554 22.9408 28.1911 22.9408 28.0099V21.2413H25.4896V28.0099C25.4896 28.1911 25.6086 28.3554 25.7785 28.412L27.4777 28.9784C27.523 28.9954 27.5683 29.0011 27.6136 29.0011C27.7892 29.0011 27.9591 28.8878 28.0158 28.7122C28.0894 28.4913 27.9705 28.2478 27.7496 28.1741L26.3392 27.704V21.2413H27.6136ZM22.0912 10.9044C22.0912 10.5136 22.4084 10.1964 22.7992 10.1964H25.6312C26.022 10.1964 26.3392 10.5136 26.3392 10.9044V14.4445H22.0912V10.9044ZM22.0912 15.2941H26.5658C26.9679 15.8152 27.1888 16.4552 27.1888 17.1179V18.4546C27.0416 18.6075 26.8377 18.6925 26.6281 18.6925C26.3732 18.6925 26.1297 18.5679 25.9824 18.3583C25.9031 18.245 25.7728 18.1771 25.6369 18.1771C25.5009 18.1771 25.3707 18.245 25.2914 18.3583C25.1441 18.5679 24.9006 18.6925 24.6457 18.6925C24.3908 18.6925 24.1472 18.5679 24 18.3583C23.9207 18.245 23.7904 18.1771 23.6545 18.1771C23.5185 18.1771 23.3882 18.245 23.3089 18.3583C23.1617 18.5679 22.9181 18.6925 22.6632 18.6925C22.448 18.6925 22.2441 18.6019 22.0968 18.449L22.0912 15.2941ZM19.514 10.1964C19.3554 11.3859 18.5455 12.3827 17.4183 12.7282C16.2912 12.3827 15.4812 11.3859 15.3226 10.1964H19.514ZM11.8959 10.1964H12.0375C12.4283 10.1964 12.7455 10.5136 12.7455 10.9044V13.5212C12.2527 13.3456 11.8959 12.8755 11.8959 12.3204V10.1964ZM10.1966 10.1964H11.0463V11.8956H10.1966V10.1964ZM8.49743 10.9044C8.49743 10.5136 8.81461 10.1964 9.20543 10.1964H9.34703V12.3204C9.34703 12.8755 8.9902 13.3456 8.49743 13.5212V10.9044ZM8.49743 14.3991C9.33004 14.2292 9.98707 13.5722 10.1513 12.7452H11.0859C11.2558 13.5779 11.9129 14.2349 12.7398 14.3991V18.6925H8.49176V14.3991H8.49743ZM1.70055 5.52356C1.70055 4.3511 2.65211 3.39954 3.82457 3.39954C4.99703 3.39954 5.9486 4.3511 5.9486 5.52356V5.66516H5.09332C4.77047 5.30833 4.31735 5.09875 3.82457 5.09875C3.3318 5.09875 2.87867 5.30833 2.55582 5.66516H1.70055V5.52356ZM1.70055 7.22278V6.51477H2.76539C2.907 6.51477 3.03727 6.4468 3.11657 6.32786C3.27516 6.08997 3.54137 5.94836 3.82457 5.94836C4.10778 5.94836 4.37399 6.08997 4.53258 6.32786C4.61188 6.4468 4.74215 6.51477 4.88375 6.51477H5.9486V7.22278C5.9486 8.39524 4.99703 9.3468 3.82457 9.3468C2.65211 9.3468 1.70055 8.39524 1.70055 7.22278ZM3.82457 18.6925C2.79938 18.6925 1.93844 17.9618 1.74586 16.9933H5.90895C5.71071 17.9618 4.84977 18.6925 3.82457 18.6925ZM5.9486 16.1437H4.24938V15.7189C4.24938 15.4866 4.0568 15.2941 3.82457 15.2941C3.59235 15.2941 3.39977 15.4866 3.39977 15.7189V16.1437H1.70055V10.9044C1.70055 10.5136 2.01774 10.1964 2.40856 10.1964H3.39977V14.0197C3.39977 14.2519 3.59235 14.4445 3.82457 14.4445C4.0568 14.4445 4.24938 14.2519 4.24938 14.0197V10.1964H5.24059C5.63141 10.1964 5.9486 10.5136 5.9486 10.9044V16.1437ZM8.49743 27.704L7.22301 28.1288L5.9486 27.704V18.6472C6.47535 18.1091 6.79821 17.3784 6.79821 16.5685V11.3292H7.64782V20.8165C7.64782 21.0488 7.84039 21.2413 8.07262 21.2413H8.49743V27.704ZM8.49743 20.3917V19.5421H12.7455V20.3917H8.49743ZM15.2943 27.704L14.0199 28.1288L12.7455 27.704V21.2413H13.1703C13.4025 21.2413 13.5951 21.0488 13.5951 20.8165V11.3292H14.4447V16.5685C14.4447 17.3784 14.7675 18.1091 15.2943 18.6472V27.704ZM15.2943 12.2468C15.7984 12.8868 16.4951 13.3683 17.3107 13.5835C17.3447 13.5948 17.3843 13.5948 17.4183 13.5948C17.4523 13.5948 17.492 13.5892 17.5259 13.5835C18.3416 13.3683 19.0382 12.8868 19.5423 12.2468V16.1437H15.2943V12.2468ZM17.4183 18.6925C16.3931 18.6925 15.5322 17.9618 15.3396 16.9933H19.5027C19.3045 17.9618 18.4435 18.6925 17.4183 18.6925ZM22.0912 27.704L20.8168 28.1288L19.5423 27.704V18.6472C20.0691 18.1091 20.392 17.3784 20.392 16.5685V11.3292H21.2416V20.8165C21.2416 21.0488 21.4341 21.2413 21.6664 21.2413H22.0912V27.704ZM22.0912 20.3917V19.4402C22.2724 19.5081 22.465 19.5421 22.6576 19.5421C23.0201 19.5421 23.3656 19.4232 23.6488 19.2079C23.932 19.4232 24.2775 19.5421 24.64 19.5421C25.0025 19.5421 25.348 19.4232 25.6312 19.2079C25.9144 19.4232 26.2599 19.5421 26.6224 19.5421C26.815 19.5421 27.0076 19.5081 27.1832 19.4402V20.3917H22.0912Z" fill="white"/>
<path d="M11.8847 2.83313C12.1565 2.53293 12.3208 2.13645 12.3208 1.70032C12.3208 0.765747 11.5562 0.00109863 10.6216 0.00109863C9.68701 0.00109863 8.92236 0.765747 8.92236 1.70032C8.92236 2.13645 9.08662 2.53293 9.3585 2.83313C8.35029 3.30891 7.64795 4.33411 7.64795 5.52356C7.64795 7.16047 8.98467 8.49719 10.6216 8.49719C12.2585 8.49719 13.5952 7.16047 13.5952 5.52356C13.5952 4.33411 12.8929 3.30891 11.8847 2.83313ZM10.6216 0.850708C11.0917 0.850708 11.4712 1.2302 11.4712 1.70032C11.4712 2.17043 11.0917 2.54993 10.6216 2.54993C10.1515 2.54993 9.77197 2.17043 9.77197 1.70032C9.77197 1.2302 10.1515 0.850708 10.6216 0.850708ZM10.6216 3.39954C11.1144 3.39954 11.5675 3.56946 11.9243 3.847C11.5448 4.10754 11.0917 4.24915 10.6216 4.24915C10.1515 4.24915 9.69834 4.10754 9.31885 3.847C9.67568 3.56946 10.1288 3.39954 10.6216 3.39954ZM10.6216 7.64758C9.44912 7.64758 8.49756 6.69602 8.49756 5.52356C8.49756 5.14973 8.59385 4.80422 8.76377 4.49836C9.30186 4.88918 9.94756 5.09875 10.6216 5.09875C11.2956 5.09875 11.9413 4.88918 12.4794 4.49836C12.6493 4.80422 12.7456 5.14973 12.7456 5.52356C12.7456 6.69602 11.794 7.64758 10.6216 7.64758Z" fill="white"/>
</svg>
