<svg width="28" height="28" viewBox="0 0 28 28" fill="none" xmlns="http://www.w3.org/2000/svg">
<path d="M4.45858 4.96875C4.54334 5.05351 4.65636 5.09871 4.77503 5.09871C4.83719 5.09871 4.89369 5.08741 4.9502 5.06481C5.05757 5.01395 5.14798 4.92919 5.19319 4.82182C5.21579 4.76532 5.22709 4.70316 5.22709 4.64665C5.22709 4.52798 5.18189 4.41497 5.09712 4.3302C5.05757 4.29065 5.00671 4.25674 4.9502 4.22849C4.86544 4.19459 4.77503 4.18893 4.69027 4.20024C4.66201 4.21154 4.63376 4.21719 4.6055 4.22849C4.57725 4.23979 4.54899 4.25674 4.52639 4.26805C4.48119 4.30195 4.43598 4.34716 4.40207 4.39236C4.39077 4.41497 4.37382 4.44322 4.36252 4.47147C4.35122 4.49973 4.34557 4.52798 4.33426 4.55624C4.32861 4.58449 4.32861 4.61274 4.32861 4.641C4.32861 4.70316 4.33991 4.75967 4.36252 4.81617C4.37947 4.87833 4.41338 4.92919 4.45858 4.96875Z" fill="white"/>
<path d="M3.49799 5.29084C3.36237 5.41516 3.32282 5.61294 3.39628 5.78246C3.41888 5.83897 3.45279 5.88417 3.49799 5.92938C3.58276 6.01414 3.69577 6.065 3.82009 6.065C3.8766 6.065 3.93876 6.0537 3.98961 6.0311C4.04612 6.00849 4.09133 5.97459 4.13654 5.92938C4.17609 5.88983 4.21 5.83897 4.23825 5.78246C4.30606 5.61294 4.2665 5.42081 4.13654 5.29084C3.95571 5.12132 3.67882 5.12132 3.49799 5.29084Z" fill="white"/>
<path d="M3.17574 6.25146C3.09097 6.1667 2.97796 6.11584 2.85929 6.11584C2.74062 6.11584 2.62196 6.1667 2.54285 6.25146C2.49764 6.29102 2.46373 6.34188 2.44113 6.39839C2.41853 6.45489 2.40723 6.5114 2.40723 6.56791C2.40723 6.68658 2.45808 6.80524 2.54285 6.89001C2.62761 6.97477 2.74062 7.01997 2.85929 7.01997C2.97796 7.01997 3.09663 6.97477 3.18139 6.89001C3.26615 6.80524 3.31136 6.68658 3.31136 6.56791C3.31136 6.5114 3.30005 6.44924 3.27745 6.39839C3.25485 6.34188 3.22094 6.29102 3.17574 6.25146Z" fill="white"/>
<path d="M4.77482 7.02547C4.83698 7.02547 4.89349 7.01417 4.94999 6.99156C5.0065 6.96896 5.05171 6.93505 5.09691 6.8955C5.18168 6.81074 5.22688 6.69207 5.22688 6.5734C5.22688 6.51689 5.21558 6.45474 5.19298 6.40388C5.17038 6.34737 5.13647 6.29651 5.09126 6.25696C5.0065 6.17219 4.89349 6.12134 4.77482 6.12134C4.65615 6.12134 4.53748 6.17219 4.45837 6.25696C4.41317 6.30216 4.37926 6.34737 4.35666 6.40388C4.33406 6.46039 4.32275 6.51689 4.32275 6.5734C4.32275 6.82204 4.52618 7.01982 4.77482 7.02547Z" fill="white"/>
<path d="M4.13647 7.20624C3.95564 7.03672 3.67875 7.03672 3.49792 7.20624C3.45272 7.2458 3.41881 7.29666 3.39621 7.35317C3.37361 7.40967 3.3623 7.46618 3.3623 7.52269C3.3623 7.70352 3.46967 7.87304 3.63919 7.94085C3.80872 8.00866 4.0065 7.97475 4.13081 7.83914C4.21558 7.75437 4.26078 7.63571 4.26078 7.51704C4.26078 7.46053 4.24948 7.39837 4.22688 7.34751C4.21558 7.30231 4.18167 7.25145 4.13647 7.20624Z" fill="white"/>
<path d="M5.73569 4.14366C5.7922 4.14366 5.85436 4.13236 5.90522 4.10975C5.96173 4.08715 6.00693 4.05325 6.05214 4.00804C6.09735 3.96848 6.13125 3.91763 6.15385 3.86112C6.17646 3.80461 6.18776 3.7481 6.18776 3.69159C6.18776 3.57293 6.1369 3.45426 6.05214 3.3695C6.01258 3.32429 5.96173 3.29039 5.90522 3.26778C5.73569 3.19997 5.54357 3.23953 5.4136 3.3695C5.32884 3.45426 5.27798 3.57293 5.28363 3.69159C5.28363 3.81026 5.32884 3.92328 5.4136 4.00804C5.50401 4.09845 5.61703 4.14366 5.73569 4.14366Z" fill="white"/>
<path d="M6.52082 3.15486C6.57733 3.17747 6.63384 3.18877 6.69035 3.18877C6.80901 3.18877 6.92768 3.14356 7.01244 3.0588C7.0972 2.97404 7.14241 2.85537 7.14241 2.7367C7.14241 2.61804 7.09155 2.50502 7.01244 2.42026C6.88247 2.29594 6.69035 2.25638 6.52082 2.31854C6.46431 2.34115 6.41346 2.37505 6.3739 2.42026C6.33435 2.45981 6.30044 2.51067 6.27219 2.56718C6.24958 2.62369 6.23828 2.6802 6.23828 2.7367C6.23828 2.85537 6.28349 2.97404 6.36825 3.0588C6.41346 3.09835 6.46431 3.13226 6.52082 3.15486Z" fill="white"/>
<path d="M3.17574 2.41446C3.04577 2.29014 2.85364 2.25058 2.68412 2.31839C2.5711 2.35795 2.48069 2.44836 2.44113 2.56138C2.41853 2.61789 2.40723 2.67439 2.40723 2.7309C2.40723 2.84957 2.45243 2.96824 2.5372 3.053C2.5824 3.09255 2.63326 3.12646 2.68412 3.15471C2.74062 3.17732 2.79713 3.18862 2.85364 3.18862C2.88189 3.18862 2.9158 3.18862 2.94405 3.17732C2.97231 3.17166 3.00056 3.16601 3.02316 3.15471C3.05142 3.14341 3.07967 3.12646 3.10228 3.10951C3.12488 3.09255 3.14748 3.0756 3.17009 3.053C3.18704 3.03039 3.20964 3.00779 3.22659 2.98519C3.24355 2.95693 3.2605 2.93433 3.2718 2.90608C3.2831 2.87782 3.28875 2.85522 3.2944 2.82697C3.30005 2.79871 3.30571 2.76481 3.30571 2.73655C3.30571 2.68004 3.2944 2.61789 3.2718 2.56703C3.2492 2.50487 3.21529 2.45966 3.17574 2.41446Z" fill="white"/>
<path d="M4.13647 1.45389L4.06866 1.39738C4.0178 1.36347 3.96129 1.34087 3.90478 1.32957C3.81437 1.31261 3.72396 1.31827 3.64485 1.35782C3.58834 1.38042 3.54313 1.41433 3.49792 1.45389C3.41316 1.53865 3.3623 1.65731 3.3623 1.77598C3.3623 1.80424 3.36796 1.83814 3.37361 1.86639L3.40186 1.94551C3.41316 1.97376 3.42446 2.00201 3.44142 2.02462C3.45837 2.04722 3.48097 2.06982 3.49792 2.09243C3.53748 2.13198 3.58834 2.16589 3.64485 2.18849C3.6957 2.21109 3.75786 2.22805 3.81437 2.2224C3.84262 2.2224 3.87653 2.21674 3.90478 2.21109C3.96129 2.19979 4.0178 2.17719 4.06866 2.14328C4.09126 2.12633 4.11386 2.10938 4.13647 2.08678C4.15907 2.06417 4.17602 2.04157 4.19297 2.01897C4.20993 1.99071 4.22688 1.96811 4.23818 1.93985C4.24948 1.9116 4.25513 1.889 4.26078 1.86074C4.26643 1.83249 4.27208 1.79858 4.27208 1.77033C4.27208 1.71382 4.26078 1.65166 4.23818 1.60081C4.20993 1.54995 4.17602 1.49909 4.13647 1.45389Z" fill="white"/>
<path d="M2.22087 3.37515C2.19826 3.35255 2.17566 3.33559 2.15306 3.31864C2.1248 3.30169 2.1022 3.29039 2.07395 3.27909L1.99483 3.25083C1.90442 3.23388 1.81401 3.23953 1.7349 3.27909C1.67839 3.30169 1.62753 3.33559 1.58798 3.3808C1.50321 3.46556 1.45801 3.57858 1.45801 3.69725C1.45801 3.7255 1.46366 3.7594 1.46931 3.78766C1.48061 3.84417 1.50321 3.90067 1.53712 3.95153L1.59363 4.01934C1.63883 4.0589 1.68969 4.0928 1.74055 4.12106C1.79706 4.14366 1.85356 4.15496 1.91007 4.15496C1.93833 4.15496 1.97223 4.15496 2.00049 4.14366C2.02874 4.13801 2.05699 4.13236 2.0796 4.12106C2.10785 4.10975 2.13611 4.0928 2.15871 4.07585C2.18131 4.0589 2.20391 4.04195 2.22652 4.01934C2.24347 3.99674 2.26607 3.97414 2.28303 3.95153C2.31693 3.90067 2.33953 3.84417 2.35084 3.78766C2.35649 3.7594 2.35649 3.7255 2.36214 3.69725C2.36214 3.63509 2.35084 3.57858 2.32823 3.52772C2.29433 3.46556 2.26042 3.41471 2.22087 3.37515Z" fill="white"/>
<path d="M4.13619 3.37515C4.11358 3.35255 4.09098 3.33559 4.06838 3.31864C4.04577 3.30169 4.01752 3.29039 3.98926 3.27909C3.96101 3.26778 3.93276 3.26213 3.9045 3.25083C3.81409 3.23388 3.72368 3.23953 3.64457 3.27909C3.5372 3.32994 3.44679 3.41471 3.40158 3.52207C3.37898 3.57858 3.36768 3.63509 3.36768 3.6916C3.36768 3.71985 3.37333 3.75375 3.37898 3.78201C3.39028 3.81026 3.39593 3.83852 3.40723 3.86677C3.41853 3.89502 3.42983 3.91763 3.44679 3.94588C3.46374 3.96848 3.48634 3.99109 3.5033 4.01369C3.54285 4.05325 3.59371 4.08715 3.65022 4.11541C3.70672 4.13801 3.76323 4.14931 3.81974 4.14931C3.84799 4.14931 3.8819 4.14931 3.91015 4.13801C3.93841 4.13236 3.96666 4.12671 3.99492 4.11541C4.02317 4.1041 4.04577 4.08715 4.07403 4.0702C4.12488 4.03629 4.16444 3.99674 4.19834 3.94588C4.2153 3.92328 4.23225 3.89502 4.24355 3.86677C4.25485 3.83852 4.2605 3.81026 4.26615 3.78201C4.27181 3.75375 4.27746 3.71985 4.27746 3.6916C4.27746 3.63509 4.26615 3.57293 4.24355 3.52207C4.20965 3.46556 4.17574 3.41471 4.13619 3.37515Z" fill="white"/>
<path d="M4.35694 2.91153C4.36824 2.93979 4.38519 2.96239 4.39649 2.99064C4.41345 3.01325 4.43605 3.03585 4.453 3.05845C4.46995 3.08106 4.49821 3.09801 4.52081 3.11496C4.54342 3.13191 4.57167 3.14887 4.59992 3.16017C4.62818 3.17147 4.65643 3.17712 4.68469 3.18277C4.71294 3.18842 4.74119 3.19407 4.76945 3.19407C4.88811 3.19407 5.00678 3.14887 5.09154 3.0641C5.17631 2.97934 5.22716 2.86068 5.22151 2.74201C5.22151 2.71375 5.22151 2.6855 5.21021 2.65725C5.20456 2.62899 5.19891 2.60074 5.18761 2.57248C5.165 2.51598 5.1311 2.46512 5.08589 2.42556C5.04634 2.38601 4.99548 2.3521 4.93897 2.3295C4.85421 2.29559 4.7638 2.28429 4.67903 2.30125C4.65078 2.3069 4.62253 2.31255 4.59427 2.3295C4.56602 2.3408 4.53776 2.3521 4.51516 2.36906C4.49256 2.38601 4.4643 2.40296 4.44735 2.42556C4.36259 2.51033 4.31738 2.62899 4.31738 2.74766C4.31738 2.77591 4.31738 2.80982 4.32303 2.83807C4.33999 2.84937 4.35129 2.88328 4.35694 2.91153Z" fill="white"/>
<path d="M5.41366 2.098C5.43061 2.12061 5.45887 2.13756 5.48147 2.15451C5.50407 2.17147 5.53233 2.18842 5.56058 2.19972C5.58884 2.21102 5.61709 2.21667 5.64534 2.22232C5.6736 2.22797 5.7075 2.23362 5.73576 2.23362C5.85442 2.23362 5.96744 2.18842 6.0522 2.10366C6.09741 2.0641 6.13131 2.01324 6.15392 1.95673C6.17652 1.90023 6.18782 1.84372 6.18782 1.78721C6.18782 1.66854 6.13696 1.54988 6.0522 1.46511C6.01265 1.42556 5.96179 1.39165 5.90528 1.36905C5.82052 1.33515 5.73011 1.32384 5.64534 1.3408C5.58884 1.3521 5.53233 1.3747 5.48147 1.40861C5.45887 1.42556 5.43061 1.44251 5.41366 1.46511C5.3289 1.54988 5.28369 1.66854 5.28369 1.78721C5.28369 1.84372 5.29499 1.90588 5.3176 1.95673C5.3402 2.00194 5.3741 2.0528 5.41366 2.098Z" fill="white"/>
<path d="M3.27752 4.4771C3.26622 4.44884 3.24927 4.42624 3.23232 4.39798C3.22101 4.36973 3.19841 4.34713 3.17581 4.33017C3.1532 4.30757 3.1306 4.29062 3.108 4.27367C3.07974 4.26237 3.05714 4.24541 3.02889 4.23411C3.00063 4.22281 2.97238 4.21716 2.94412 4.20586C2.7972 4.1776 2.64463 4.22846 2.53162 4.33017C2.51466 4.34713 2.49771 4.37538 2.47511 4.39798C2.45815 4.42059 2.4412 4.44884 2.43555 4.4771C2.42425 4.50535 2.41295 4.5336 2.4073 4.56186C2.40165 4.59011 2.40165 4.61837 2.396 4.64662C2.396 4.70878 2.4073 4.76529 2.4299 4.8218C2.4525 4.8783 2.48641 4.92351 2.52596 4.96872C2.57117 5.00827 2.62203 5.04218 2.67289 5.07043C2.70114 5.08173 2.72939 5.08738 2.75765 5.09303C2.7859 5.09869 2.81416 5.10434 2.84241 5.10434C2.96108 5.10434 3.07974 5.05913 3.16451 4.97437C3.24927 4.88961 3.29447 4.77094 3.29447 4.65227C3.29447 4.62402 3.29447 4.59576 3.28317 4.56751C3.29447 4.5336 3.28882 4.50535 3.27752 4.4771Z" fill="white"/>
<path d="M2.31679 5.43768C2.30549 5.40943 2.28854 5.38683 2.27159 5.35857C2.26029 5.33032 2.23768 5.30771 2.21508 5.29076C2.16987 5.24556 2.12467 5.21165 2.06816 5.18905C1.89863 5.12124 1.70651 5.16079 1.57654 5.29076C1.55958 5.30771 1.54263 5.33597 1.52003 5.35857C1.48612 5.40943 1.46352 5.46594 1.45222 5.52244C1.44657 5.5507 1.44657 5.5846 1.44092 5.61286C1.44092 5.73152 1.49178 5.84454 1.57089 5.9293C1.65565 6.01407 1.76866 6.06492 1.89298 6.06492C1.94949 6.06492 2.01165 6.05362 2.06251 6.03102C2.11902 6.00841 2.16987 5.97451 2.20943 5.9293C2.29419 5.84454 2.3394 5.73152 2.3394 5.61286C2.3394 5.5846 2.3394 5.5507 2.3281 5.52244C2.33375 5.49419 2.32809 5.46594 2.31679 5.43768Z" fill="white"/>
<path d="M5.73555 6.065C5.79206 6.065 5.85421 6.0537 5.90507 6.0311C6.01244 5.98024 6.10285 5.89548 6.14806 5.78811C6.17066 5.7316 6.18196 5.67509 6.18196 5.61859C6.18196 5.49992 6.1311 5.38125 6.04634 5.29649C5.93898 5.18913 5.7864 5.14392 5.63948 5.17217C5.61123 5.17782 5.58298 5.18347 5.55472 5.19478C5.52647 5.20608 5.50386 5.22303 5.47561 5.23433C5.4304 5.26824 5.3852 5.31344 5.35129 5.35865C5.33999 5.3869 5.32304 5.40951 5.31174 5.43776C5.30044 5.46601 5.29478 5.49427 5.28913 5.52252C5.28348 5.55078 5.27783 5.58468 5.27783 5.61294C5.27783 5.7316 5.32304 5.84462 5.4078 5.92938C5.49821 6.01414 5.61688 6.065 5.73555 6.065Z" fill="white"/>
<path d="M6.37411 4.96868C6.41367 5.01388 6.46452 5.04779 6.52103 5.07039C6.57754 5.09299 6.63405 5.1043 6.69055 5.1043C6.80922 5.1043 6.92789 5.05909 7.01265 4.97433C7.05221 4.93477 7.08611 4.88391 7.10871 4.82741C7.13132 4.7709 7.14262 4.71439 7.14262 4.65223C7.14262 4.53356 7.09741 4.42055 7.01265 4.33579C6.88268 4.21147 6.69055 4.17191 6.52103 4.23407C6.46452 4.25667 6.41367 4.29058 6.37411 4.33579C6.28935 4.42055 6.24414 4.53356 6.24414 4.65223C6.24414 4.71439 6.25544 4.7709 6.27805 4.82741C6.30065 4.87826 6.33455 4.92912 6.37411 4.96868Z" fill="white"/>
<path d="M7.48171 4.1097C7.53821 4.1323 7.59472 4.1436 7.65123 4.1436C7.83206 4.1436 7.99593 4.03059 8.06374 3.86671C8.13155 3.69719 8.09765 3.50506 7.96768 3.37509C7.83771 3.25077 7.64558 3.21122 7.47606 3.27338C7.41955 3.29598 7.36869 3.32989 7.32914 3.37509C7.15396 3.55027 7.15396 3.83846 7.32914 4.01363C7.37434 4.05884 7.4252 4.08709 7.48171 4.1097Z" fill="white"/>
<path d="M26.8353 26.1083L24.7615 25.0855C23.9873 24.7069 23.5014 23.9214 23.5014 23.0625V22.7065C23.5014 21.5707 22.8911 20.5196 21.9078 19.9545L19.4667 18.5588C19.6532 18.0615 19.5345 17.5021 19.1615 17.1235L18.8338 16.7957C19.252 16.2815 19.235 15.5356 18.7886 15.0383L11.1543 6.58473L11.8098 5.92923C11.8946 5.84447 11.9398 5.73145 11.9398 5.60714C11.9398 5.48847 11.8946 5.3698 11.8098 5.28504L10.5271 4.01361C10.4423 3.92885 10.3293 3.88364 10.205 3.88364C10.1203 3.88364 10.0298 3.91189 9.96203 3.96275C9.45911 1.52725 7.23834 -0.156689 4.75763 0.0128352C2.27693 0.182359 0.304796 2.15449 0.135272 4.6352C-0.0342526 7.1159 1.64969 9.33667 4.08519 9.84524C4.03433 9.9187 4.00608 10.0035 4.00608 10.0882C4.00608 10.2069 4.05128 10.3256 4.13604 10.4103L5.41313 11.6874C5.49789 11.7722 5.61091 11.8174 5.73522 11.8174C5.85954 11.8174 5.97256 11.7722 6.05732 11.6874L6.71281 11.0319L15.1608 18.6662C15.6524 19.1182 16.4039 19.1352 16.9182 18.7114L17.2459 19.0391C17.6754 19.4742 18.3422 19.559 18.8734 19.2538L21.4671 20.7344C22.1678 21.1356 22.6029 21.8871 22.6085 22.6952V23.0512C22.6029 24.2548 23.2866 25.3567 24.3716 25.8879L26.4454 26.9107C26.5076 26.9389 26.5754 26.9559 26.6432 26.9559C26.8523 26.9559 27.0388 26.8146 27.0896 26.6055C27.1292 26.4078 27.0275 26.193 26.8353 26.1083ZM2.22042 2.09233C3.35058 0.962171 5.04582 0.600519 6.54894 1.17125C8.0464 1.74198 9.0692 3.14338 9.15961 4.74821L8.93358 4.97425C9.08615 4.82167 9.10876 4.58434 8.99009 4.40351C8.87142 4.22269 8.63974 4.15488 8.44196 4.23399C8.38545 4.25659 8.33459 4.2905 8.29504 4.3357C8.21028 4.42047 8.16507 4.53348 8.16507 4.65215C8.16507 4.6804 8.17072 4.71431 8.17637 4.74256C8.18202 4.77082 8.18767 4.79907 8.20463 4.82732C8.21593 4.85558 8.22723 4.88383 8.24418 4.90644C8.26113 4.92904 8.27809 4.95164 8.30069 4.97425C8.38545 5.05901 8.50412 5.10987 8.62279 5.10987C8.74145 5.10987 8.86012 5.05901 8.94488 4.97425L7.9899 5.92923C8.07466 5.84447 8.11986 5.73145 8.11986 5.61279C8.11986 5.55063 8.10856 5.49412 8.08596 5.43761C8.06336 5.3811 8.02945 5.3359 7.9899 5.29069C7.85993 5.16637 7.6678 5.12682 7.49827 5.18898C7.44177 5.21158 7.39091 5.24548 7.35135 5.29069C7.3118 5.33025 7.27789 5.3811 7.25529 5.43761C7.23269 5.49412 7.22139 5.55063 7.22139 5.61279C7.22139 5.73145 7.26659 5.84447 7.35135 5.92923C7.39091 5.97444 7.44177 6.00834 7.49827 6.03095C7.55478 6.05355 7.61129 6.06485 7.6678 6.06485C7.78647 6.06485 7.90513 6.01399 7.9899 5.92923L7.04056 6.87857C7.11402 6.79381 7.15923 6.68644 7.16488 6.57343C7.16488 6.51692 7.15358 6.45476 7.13097 6.4039C7.10837 6.34739 7.08012 6.29654 7.03491 6.25698C6.9897 6.21742 6.93885 6.18352 6.88799 6.15527C6.78062 6.11006 6.6563 6.11006 6.54329 6.15527C6.43027 6.20047 6.33986 6.29088 6.29465 6.4039C6.2551 6.51692 6.2551 6.63558 6.29465 6.7486C6.32291 6.80511 6.35681 6.85031 6.39637 6.89552C6.44157 6.93508 6.48678 6.96898 6.54329 6.99158C6.5998 7.01419 6.6563 7.02549 6.71281 7.02549C6.82583 7.02549 6.93319 6.98028 7.01796 6.90117L6.06862 7.85051C6.15338 7.76575 6.20424 7.65273 6.20424 7.52841C6.20424 7.4719 6.19294 7.40974 6.17033 7.35889C6.14773 7.30238 6.11383 7.25152 6.06862 7.21197C5.89345 7.03679 5.61091 7.03679 5.43008 7.21197C5.38487 7.25152 5.35097 7.30238 5.32836 7.35889C5.30576 7.41539 5.29446 7.4719 5.29446 7.52841C5.29446 7.64708 5.33967 7.76575 5.42443 7.85051C5.46398 7.89006 5.51484 7.92397 5.57135 7.94657C5.62786 7.96917 5.69002 7.98048 5.74652 7.98048C5.86519 7.98048 5.97821 7.93527 6.06297 7.85051L5.10798 8.80549C5.19275 8.72073 5.2436 8.60772 5.2436 8.4834C5.2436 8.36473 5.19275 8.24606 5.10798 8.1613C5.08538 8.1387 5.06278 8.12175 5.04017 8.10479C5.01757 8.08784 4.98932 8.07089 4.96106 8.06524C4.93281 8.05394 4.90455 8.04263 4.8763 8.03698C4.72938 8.00873 4.57681 8.05394 4.46944 8.1613C4.42989 8.20651 4.39598 8.25737 4.36773 8.30822C4.34512 8.36473 4.33382 8.42124 4.33382 8.47775C4.33382 8.65857 4.44119 8.8281 4.61071 8.89591C4.78024 8.96372 4.97236 8.92981 5.10233 8.79984L4.8763 9.02588C3.27147 8.93546 1.87572 7.91267 1.29934 6.4152C0.722956 4.91774 1.08461 3.22815 2.22042 2.09233ZM5.73522 10.7268L5.09668 10.0882L10.2107 4.97425L10.8492 5.61279L10.2107 6.25133L5.73522 10.7268ZM15.7598 17.9937L7.35135 10.3877L10.5158 7.22327L18.1161 15.6373C18.28 15.8181 18.2687 16.0894 18.0992 16.2589L16.3813 17.9768C16.2118 18.1463 15.9406 18.1519 15.7598 17.9937ZM17.8788 18.4006L17.5567 18.0785L18.1953 17.4399L18.5117 17.762C18.6869 17.9372 18.6869 18.2254 18.5117 18.4006C18.3422 18.5757 18.0596 18.5757 17.8788 18.4006Z" fill="white"/>
<path d="M26.9373 1.77028C26.8187 1.68552 26.6661 1.66291 26.5305 1.70812L21.1057 3.51638C20.9192 3.57854 20.7949 3.74806 20.7949 3.94584V7.81099C20.5237 7.64712 20.2072 7.56236 19.8908 7.56236C18.8906 7.56236 18.0825 8.37042 18.0825 9.37062C18.0825 10.3708 18.8906 11.1789 19.8908 11.1789C20.891 11.1789 21.699 10.3708 21.699 9.37062V4.27359L26.2197 2.76482V6.00839C25.9484 5.84451 25.632 5.75975 25.3156 5.75975C24.3154 5.75975 23.5073 6.56781 23.5073 7.56801C23.5073 8.5682 24.3154 9.37627 25.3156 9.37627C26.3157 9.37627 27.1238 8.5682 27.1238 7.56801V2.14323C27.1238 1.99066 27.056 1.85504 26.9373 1.77028ZM19.8908 10.2747C19.3935 10.2747 18.9866 9.86789 18.9866 9.37062C18.9866 8.87335 19.3935 8.46649 19.8908 8.46649C20.388 8.46649 20.7949 8.87335 20.7949 9.37062C20.7949 9.86789 20.388 10.2747 19.8908 10.2747ZM25.3156 8.46649C24.8183 8.46649 24.4114 8.05963 24.4114 7.56236C24.4114 7.06509 24.8183 6.65823 25.3156 6.65823C25.8128 6.65823 26.2197 7.06509 26.2197 7.56236C26.2197 8.05963 25.8128 8.46649 25.3156 8.46649Z" fill="white"/>
<path d="M9.36904 16.6206L3.04014 18.4289C2.84801 18.4854 2.71239 18.6606 2.71239 18.864V23.6333C2.44115 23.4694 2.1247 23.3846 1.80826 23.3846C0.808066 23.3846 0 24.1927 0 25.1929C0 26.1931 0.808066 27.0012 1.80826 27.0012C2.80845 27.0012 3.61652 26.1931 3.61652 25.1929V21.0113L9.04129 19.4743V21.825C8.77006 21.6611 8.45361 21.5764 8.13717 21.5764C7.13697 21.5764 6.32891 22.3844 6.32891 23.3846C6.32891 24.3848 7.13697 25.1929 8.13717 25.1929C9.13736 25.1929 9.94542 24.3848 9.94542 23.3846V17.0557C9.94542 16.9145 9.87761 16.7788 9.7646 16.6941C9.65158 16.6093 9.50466 16.5811 9.36904 16.6206ZM1.80826 26.097C1.31099 26.097 0.904129 25.6902 0.904129 25.1929C0.904129 24.6956 1.31099 24.2888 1.80826 24.2888C2.30553 24.2888 2.71239 24.6956 2.71239 25.1929C2.71239 25.6902 2.30553 26.097 1.80826 26.097ZM3.61652 20.0733V19.203L9.04129 17.6547V18.5362L3.61652 20.0733ZM8.13717 24.2888C7.63989 24.2888 7.23304 23.8819 7.23304 23.3846C7.23304 22.8874 7.63989 22.4805 8.13717 22.4805C8.63444 22.4805 9.04129 22.8874 9.04129 23.3846C9.04129 23.8819 8.63444 24.2888 8.13717 24.2888Z" fill="white"/>
</svg>
