<svg width="31" height="32" viewBox="0 0 31 32" fill="none" xmlns="http://www.w3.org/2000/svg">
<path d="M31 14.6837C31 12.8976 29.6498 11.4263 27.9182 11.2265C27.7305 10.5181 27.0887 9.99739 26.3197 9.99133C26.3137 9.99133 26.3137 9.99133 26.3076 9.99133H23.2803C23.2742 9.99133 23.2742 9.99133 23.2682 9.99133C22.5113 9.99739 21.8756 10.506 21.6758 11.2023H20.2529C18.5031 11.2023 17.0742 9.77336 17.0742 8.02356C17.0742 7.77532 16.8684 7.56946 16.6201 7.56946C16.3719 7.56946 16.166 7.77532 16.166 8.02356C16.166 10.2759 18.0006 12.1105 20.2529 12.1105H21.6152V15.7312C21.0279 16.4577 20.707 17.3599 20.707 18.2984V21.3439C20.707 21.5921 20.9129 21.798 21.1611 21.798H22.5234V29.6146L21.0158 30.1171C20.7797 30.1958 20.6465 30.4562 20.7312 30.6923C20.7918 30.88 20.9734 31.0011 21.1611 31.0011C21.2096 31.0011 21.258 30.995 21.3064 30.9769L23.1229 30.3714C23.3105 30.3109 23.4316 30.1353 23.4316 29.9415V21.798H26.1562V29.6146L24.6486 30.1171C24.4125 30.1958 24.2793 30.4562 24.3641 30.6923C24.4246 30.88 24.6062 31.0011 24.7939 31.0011C24.8424 31.0011 24.8908 30.995 24.9393 30.9769L26.7557 30.3714C26.9434 30.3109 27.0645 30.1353 27.0645 29.9415V21.798H28.4268C28.675 21.798 28.8809 21.5921 28.8809 21.3439V18.2984C28.8809 18.1652 28.8748 18.032 28.8627 17.8988C30.1402 17.3599 31 16.0945 31 14.6837ZM25.5387 10.8995L24.7939 12.2316L24.0492 10.8995H25.5387ZM22.5234 11.6564C22.5234 11.3234 22.7354 11.0448 23.0381 10.9419L24.4004 13.3941C24.4791 13.5394 24.6305 13.6302 24.8 13.6302C24.9695 13.6302 25.1148 13.5394 25.1996 13.3941L26.5619 10.9419C26.8586 11.0448 27.0766 11.3234 27.0766 11.6564V15.4406H25.2602V14.9865C25.2602 14.7382 25.0543 14.5323 24.8061 14.5323C24.5578 14.5323 24.352 14.7382 24.352 14.9865V15.4406H22.5355V11.6564H22.5234ZM21.6152 20.8898V18.2984C21.6152 17.59 21.8514 16.9058 22.2812 16.3488H27.3066C27.7365 16.9058 27.9727 17.59 27.9727 18.2984V20.8898H21.6152ZM28.6629 16.9906C28.5115 16.5365 28.2754 16.1126 27.9727 15.7312V12.1529C29.1775 12.3708 30.0918 13.4183 30.0918 14.6837C30.0918 15.6646 29.5227 16.5607 28.6629 16.9906Z" fill="white"/>
<path d="M26.1441 3.02844C26.4348 2.70754 26.6104 2.28372 26.6104 1.8175C26.6104 0.818481 25.793 0.00109863 24.7939 0.00109863C23.7949 0.00109863 22.9775 0.818481 22.9775 1.8175C22.9775 2.28372 23.1531 2.70754 23.4438 3.02844C22.366 3.53704 21.6152 4.63293 21.6152 5.90442C21.6152 7.65422 23.0441 9.08313 24.7939 9.08313C26.5437 9.08313 27.9727 7.65422 27.9727 5.90442C27.9727 4.63293 27.2219 3.53704 26.1441 3.02844ZM24.7939 0.909302C25.2965 0.909302 25.7021 1.31497 25.7021 1.8175C25.7021 2.32004 25.2965 2.72571 24.7939 2.72571C24.2914 2.72571 23.8857 2.32004 23.8857 1.8175C23.8857 1.31497 24.2914 0.909302 24.7939 0.909302ZM24.7939 3.63391C25.8838 3.63391 26.792 4.40286 27.016 5.4261C25.793 5.305 24.6789 4.74797 23.8494 3.84583C24.134 3.70657 24.4549 3.63391 24.7939 3.63391ZM24.7939 8.17493C23.5406 8.17493 22.5234 7.15774 22.5234 5.90442C22.5234 5.31711 22.7475 4.7843 23.1107 4.38469C24.1219 5.52297 25.5084 6.21321 27.0221 6.34036C26.8223 7.38176 25.8959 8.17493 24.7939 8.17493Z" fill="white"/>
<path d="M2.27051 15.4406C1.01719 15.4406 0 16.4577 0 17.7111C0 18.9644 1.01719 19.9816 2.27051 19.9816C3.52383 19.9816 4.54102 18.9644 4.54102 17.7111C4.54102 16.4577 3.52383 15.4406 2.27051 15.4406ZM2.27051 19.0734C1.51973 19.0734 0.908203 18.4618 0.908203 17.7111C0.908203 16.9603 1.51973 16.3488 2.27051 16.3488C3.02129 16.3488 3.63281 16.9603 3.63281 17.7111C3.63281 18.4618 3.02129 19.0734 2.27051 19.0734Z" fill="white"/>
<path d="M2.87598 20.8898H1.66504C0.744727 20.8898 0 21.6345 0 22.5548V30.547C0 30.7952 0.205859 31.0011 0.454102 31.0011C0.702344 31.0011 0.908203 30.7952 0.908203 30.547V27.0958C1.28965 27.3804 1.76191 27.5499 2.27051 27.5499C2.7791 27.5499 3.25137 27.3804 3.63281 27.0958V30.547C3.63281 30.7952 3.83867 31.0011 4.08691 31.0011C4.33516 31.0011 4.54102 30.7952 4.54102 30.547V22.5548C4.54102 21.6345 3.79629 20.8898 2.87598 20.8898ZM2.27051 26.6417C1.56816 26.6417 0.992969 26.1089 0.914258 25.4308H3.6207C3.54805 26.1089 2.97285 26.6417 2.27051 26.6417ZM3.63281 24.5226H0.908203V22.5548C0.908203 22.137 1.24727 21.798 1.66504 21.798H2.87598C3.29375 21.798 3.63281 22.137 3.63281 22.5548V24.5226Z" fill="white"/>
<path d="M7.71973 15.4406C6.46641 15.4406 5.44922 16.4577 5.44922 17.7111C5.44922 18.9644 6.46641 19.9816 7.71973 19.9816C8.97305 19.9816 9.99023 18.9644 9.99023 17.7111C9.99023 16.4577 8.97305 15.4406 7.71973 15.4406ZM7.71973 19.0734C6.96895 19.0734 6.35742 18.4618 6.35742 17.7111C6.35742 16.9603 6.96895 16.3488 7.71973 16.3488C8.47051 16.3488 9.08203 16.9603 9.08203 17.7111C9.08203 18.4618 8.47051 19.0734 7.71973 19.0734Z" fill="white"/>
<path d="M8.3252 20.8898H7.11426C6.19395 20.8898 5.44922 21.6345 5.44922 22.5548V30.547C5.44922 30.7952 5.65508 31.0011 5.90332 31.0011C6.15156 31.0011 6.35742 30.7952 6.35742 30.547V27.0958C6.73887 27.3804 7.21113 27.5499 7.71973 27.5499C8.22832 27.5499 8.70059 27.3804 9.08203 27.0958V30.547C9.08203 30.7952 9.28789 31.0011 9.53613 31.0011C9.78438 31.0011 9.99023 30.7952 9.99023 30.547V22.5548C9.99023 21.6345 9.24551 20.8898 8.3252 20.8898ZM7.71973 26.6417C7.01738 26.6417 6.44219 26.1089 6.36348 25.4308H9.06992C8.99727 26.1089 8.42207 26.6417 7.71973 26.6417ZM9.08203 24.5226H6.35742V22.5548C6.35742 22.137 6.69648 21.798 7.11426 21.798H8.3252C8.74297 21.798 9.08203 22.137 9.08203 22.5548V24.5226Z" fill="white"/>
<path d="M16.8018 17.257C16.5535 17.257 16.3477 17.4628 16.3477 17.7111V20.7384C16.3477 21.362 15.9299 21.8827 15.3607 22.0462C15.1428 21.3741 14.5191 20.8898 13.7744 20.8898H12.5635C11.6432 20.8898 10.8984 21.6345 10.8984 22.5548V30.547C10.8984 30.7952 11.1043 31.0011 11.3525 31.0011C11.6008 31.0011 11.8066 30.7952 11.8066 30.547V27.0958C12.1881 27.3804 12.6604 27.5499 13.1689 27.5499C13.6775 27.5499 14.1498 27.3804 14.5312 27.0958V30.547C14.5312 30.7952 14.7371 31.0011 14.9854 31.0011C15.2336 31.0011 15.4395 30.7952 15.4395 30.547V22.9605C16.4748 22.7486 17.2559 21.8343 17.2559 20.7384V17.7111C17.2559 17.4628 17.05 17.257 16.8018 17.257ZM13.1689 26.6417C12.4666 26.6417 11.8914 26.1089 11.8127 25.4308H14.5191C14.4465 26.1089 13.8713 26.6417 13.1689 26.6417ZM14.5312 24.5226H11.8066V22.5548C11.8066 22.137 12.1457 21.798 12.5635 21.798H13.7744C14.1922 21.798 14.5312 22.137 14.5312 22.5548V24.5226Z" fill="white"/>
<path d="M13.1689 15.4406C11.9156 15.4406 10.8984 16.4577 10.8984 17.7111C10.8984 18.9644 11.9156 19.9816 13.1689 19.9816C14.4223 19.9816 15.4395 18.9644 15.4395 17.7111C15.4395 16.4577 14.4223 15.4406 13.1689 15.4406ZM13.1689 19.0734C12.4182 19.0734 11.8066 18.4618 11.8066 17.7111C11.8066 16.9603 12.4182 16.3488 13.1689 16.3488C13.9197 16.3488 14.5312 16.9603 14.5312 17.7111C14.5312 18.4618 13.9197 19.0734 13.1689 19.0734Z" fill="white"/>
<path d="M20.4588 1.86563L16.826 0.0492226C16.6867 -0.0234337 16.5172 -0.0113243 16.384 0.0673867C16.2508 0.152152 16.166 0.297465 16.166 0.454887V4.07559C16.166 4.08165 16.166 4.0877 16.166 4.09375V6.20079C16.166 6.44903 16.3719 6.65489 16.6201 6.65489C16.8684 6.65489 17.0742 6.44903 17.0742 6.20079V4.36622L20.4588 2.67696C20.6102 2.59825 20.707 2.44082 20.707 2.27129C20.707 2.10176 20.6102 1.94434 20.4588 1.86563ZM17.0742 3.35508V1.1875L19.2357 2.27129L17.0742 3.35508Z" fill="white"/>
</svg>
