<svg width="155" height="117" viewBox="0 0 155 117" fill="none" xmlns="http://www.w3.org/2000/svg">
<path d="M13.5938 114.274L13.9562 113.549C14.4093 114.002 15.3156 114.365 16.1311 114.365C17.3092 114.365 17.7623 113.912 17.7623 113.277C17.7623 111.555 13.6844 112.643 13.6844 110.105C13.6844 109.018 14.5 108.112 16.2218 108.112C17.0374 108.112 17.8529 108.293 18.3967 108.746L18.1248 109.562C17.5811 109.199 16.8561 109.018 16.3124 109.018C15.1343 109.018 14.6812 109.471 14.6812 110.105C14.6812 111.827 18.7592 110.74 18.7592 113.277C18.7592 114.365 17.9436 115.271 16.1311 115.271C15.1343 115.09 14.1375 114.727 13.5938 114.274Z" fill="white"/>
<path d="M25.2829 112.376C25.2829 114.007 24.1954 115.094 22.7455 115.094C22.0205 115.094 21.3862 114.823 20.9331 114.279V116.998H20.0269V109.748H20.9331V110.563C21.3862 110.02 22.0205 109.657 22.7455 109.657C24.1954 109.748 25.2829 110.835 25.2829 112.376ZM24.286 112.376C24.286 111.288 23.5611 110.563 22.5642 110.563C21.5674 110.563 20.8424 111.288 20.8424 112.376C20.8424 113.463 21.5674 114.188 22.5642 114.188C23.5611 114.279 24.286 113.554 24.286 112.376Z" fill="white"/>
<path d="M26.1001 112.378C26.1001 110.837 27.1876 109.75 28.7281 109.75C30.2687 109.75 31.3561 110.837 31.3561 112.378C31.3561 113.918 30.2687 115.096 28.7281 115.096C27.1876 115.096 26.1001 114.009 26.1001 112.378ZM30.4499 112.378C30.4499 111.29 29.7249 110.565 28.7281 110.565C27.7313 110.565 27.0063 111.29 27.0063 112.378C27.0063 113.465 27.7313 114.19 28.7281 114.19C29.7249 114.281 30.4499 113.556 30.4499 112.378Z" fill="white"/>
<path d="M35.3422 109.75V110.656C35.2515 110.656 35.1609 110.656 35.1609 110.656C34.1641 110.656 33.5297 111.29 33.5297 112.378V115.006H32.6235V109.75H33.5297V110.656C33.8016 110.021 34.436 109.75 35.3422 109.75Z" fill="white"/>
<path d="M39.5106 114.73C39.2387 115.002 38.7856 115.093 38.4231 115.093C37.4263 115.093 36.792 114.549 36.792 113.461V110.562H35.8857V109.746H36.792V108.568H37.6982V109.746H39.1481V110.562H37.6982V113.371C37.6982 113.915 37.97 114.277 38.5138 114.277C38.7856 114.277 39.0575 114.186 39.2387 114.005L39.5106 114.73Z" fill="white"/>
<path d="M49.5712 115.006V109.931L47.1244 114.1H46.6713L44.2246 109.931V114.916H43.3184V108.028H44.134L46.9432 112.922L49.6618 108.028H50.4774V114.916H49.5712V115.006Z" fill="white"/>
<path d="M56.3667 111.832V115.004H55.4605V114.279C55.1886 114.732 54.5543 115.004 53.8293 115.004C52.6512 115.004 51.9263 114.37 51.9263 113.463C51.9263 112.648 52.47 111.923 54.0106 111.923H55.4605V111.742C55.4605 110.926 55.0074 110.473 54.1012 110.473C53.4668 110.473 52.9231 110.654 52.47 111.017L52.1075 110.292C52.6512 109.838 53.3762 109.657 54.1918 109.657C55.6417 109.748 56.3667 110.473 56.3667 111.832ZM55.4605 113.463V112.738H54.0106C53.1043 112.738 52.8325 113.101 52.8325 113.554C52.8325 114.098 53.2856 114.37 53.9199 114.37C54.7355 114.37 55.2793 114.007 55.4605 113.463Z" fill="white"/>
<path d="M62.8918 112.015V115.006H61.9856V112.106C61.9856 111.109 61.5325 110.565 60.6263 110.565C59.6294 110.565 58.9951 111.199 58.9951 112.287V115.006H58.0889V109.75H58.9951V110.565C59.3576 110.021 59.9919 109.75 60.8075 109.75C62.0762 109.75 62.8918 110.474 62.8918 112.015Z" fill="white"/>
<path d="M68.6001 111.832V115.004H67.6939V114.279C67.422 114.732 66.7877 115.004 66.0627 115.004C64.8846 115.004 64.1597 114.37 64.1597 113.463C64.1597 112.648 64.7034 111.923 66.2439 111.923H67.6939V111.742C67.6939 110.926 67.2408 110.473 66.3346 110.473C65.7002 110.473 65.1565 110.654 64.7034 111.017L64.3409 110.292C64.8846 109.838 65.6096 109.657 66.4252 109.657C67.8751 109.748 68.6001 110.473 68.6001 111.832ZM67.6939 113.463V112.738H66.2439C65.3377 112.738 65.0659 113.101 65.0659 113.554C65.0659 114.098 65.519 114.37 66.1533 114.37C66.9689 114.37 67.5126 114.007 67.6939 113.463Z" fill="white"/>
<path d="M75.216 109.75V114.281C75.216 116.093 74.3098 116.999 72.588 116.999C71.6818 116.999 70.6849 116.727 70.1412 116.184L70.5943 115.459C71.0474 115.912 71.7724 116.184 72.588 116.184C73.766 116.184 74.3098 115.64 74.3098 114.462V114.009C73.8567 114.552 73.2223 114.824 72.4974 114.824C71.0474 114.824 69.96 113.827 69.96 112.287C69.96 110.746 71.0474 109.75 72.4974 109.75C73.2223 109.75 73.9473 110.021 74.4004 110.565V109.75H75.216ZM74.3098 112.287C74.3098 111.29 73.5848 110.565 72.588 110.565C71.5911 110.565 70.8662 111.29 70.8662 112.287C70.8662 113.284 71.5911 114.009 72.588 114.009C73.5848 114.009 74.3098 113.284 74.3098 112.287Z" fill="white"/>
<path d="M81.5598 112.74H77.4819C77.5725 113.646 78.2975 114.281 79.2943 114.281C79.9287 114.281 80.3818 114.099 80.7442 113.646L81.288 114.281C80.8349 114.824 80.1099 115.096 79.2943 115.096C77.6631 115.096 76.5757 114.009 76.5757 112.378C76.5757 110.837 77.6631 109.75 79.1131 109.75C80.563 109.75 81.6505 110.837 81.6505 112.468C81.5598 112.559 81.5598 112.649 81.5598 112.74ZM77.3913 112.015H80.6536C80.563 111.109 79.9287 110.474 79.0224 110.474C78.2069 110.565 77.5725 111.199 77.3913 112.015Z" fill="white"/>
<path d="M91.2561 112.015V115.006H90.3499V112.106C90.3499 111.109 89.8968 110.565 89.0812 110.565C88.175 110.565 87.5406 111.199 87.5406 112.287V115.006H86.6344V112.106C86.6344 111.109 86.1813 110.565 85.3657 110.565C84.4595 110.565 83.8252 111.199 83.8252 112.287V115.006H82.9189V109.75H83.8252V110.565C84.1876 110.021 84.822 109.75 85.547 109.75C86.3626 109.75 86.9969 110.021 87.2688 110.746C87.6312 110.112 88.3562 109.75 89.2624 109.75C90.4405 109.75 91.2561 110.474 91.2561 112.015Z" fill="white"/>
<path d="M97.5994 112.74H93.5214C93.6121 113.646 94.337 114.281 95.3339 114.281C95.9682 114.281 96.4213 114.099 96.7838 113.646L97.3275 114.281C96.8744 114.824 96.1495 115.096 95.3339 115.096C93.7027 115.096 92.6152 114.009 92.6152 112.378C92.6152 110.837 93.7027 109.75 95.1526 109.75C96.6026 109.75 97.69 110.837 97.69 112.468C97.5994 112.559 97.5994 112.649 97.5994 112.74ZM93.4308 112.015H96.6932C96.6026 111.109 95.9682 110.474 95.062 110.474C94.1558 110.565 93.5214 111.199 93.4308 112.015Z" fill="white"/>
<path d="M103.672 112.015V115.006H102.766V112.106C102.766 111.109 102.313 110.565 101.407 110.565C100.41 110.565 99.7754 111.199 99.7754 112.287V115.006H98.8691V109.75H99.7754V110.565C100.138 110.021 100.772 109.75 101.588 109.75C102.766 109.75 103.672 110.474 103.672 112.015Z" fill="white"/>
<path d="M108.201 114.73C107.929 115.002 107.476 115.093 107.113 115.093C106.116 115.093 105.482 114.549 105.482 113.461V110.562H104.576V109.746H105.482V108.568H106.388V109.746H107.838V110.562H106.388V113.371C106.388 113.915 106.66 114.277 107.204 114.277C107.476 114.277 107.747 114.186 107.929 114.005L108.201 114.73Z" fill="white"/>
<path d="M116.722 111.563H117.628V114.281C116.993 114.825 115.997 115.188 115.09 115.188C113.006 115.188 111.556 113.738 111.556 111.653C111.556 109.569 113.097 108.119 115.181 108.119C116.268 108.119 117.175 108.482 117.718 109.207L117.084 109.841C116.54 109.297 115.906 109.025 115.181 109.025C113.64 109.025 112.553 110.113 112.553 111.653C112.553 113.194 113.64 114.281 115.181 114.281C115.725 114.281 116.268 114.191 116.722 113.828V111.563Z" fill="white"/>
<path d="M122.066 109.75V110.656C121.976 110.656 121.885 110.656 121.885 110.656C120.888 110.656 120.254 111.29 120.254 112.378V115.006H119.348V109.75H120.254V110.656C120.526 110.021 121.16 109.75 122.066 109.75Z" fill="white"/>
<path d="M122.702 112.378C122.702 110.837 123.789 109.75 125.33 109.75C126.87 109.75 127.958 110.837 127.958 112.378C127.958 113.918 126.87 115.096 125.33 115.096C123.789 115.096 122.702 114.009 122.702 112.378ZM127.051 112.378C127.051 111.29 126.327 110.565 125.33 110.565C124.333 110.565 123.608 111.29 123.608 112.378C123.608 113.465 124.333 114.19 125.33 114.19C126.236 114.281 127.051 113.556 127.051 112.378Z" fill="white"/>
<path d="M133.938 109.75V115.006H133.031V114.281C132.669 114.824 132.035 115.096 131.31 115.096C130.041 115.096 129.135 114.371 129.135 112.831V109.75H130.041V112.649C130.041 113.646 130.494 114.19 131.4 114.19C132.397 114.19 132.941 113.556 132.941 112.468V109.75H133.938Z" fill="white"/>
<path d="M140.916 112.376C140.916 114.007 139.828 115.094 138.378 115.094C137.653 115.094 137.019 114.823 136.566 114.279V116.998H135.66V109.748H136.566V110.563C137.019 110.02 137.653 109.657 138.378 109.657C139.828 109.748 140.916 110.835 140.916 112.376ZM140.009 112.376C140.009 111.288 139.285 110.563 138.288 110.563C137.291 110.563 136.566 111.288 136.566 112.376C136.566 113.463 137.291 114.188 138.288 114.188C139.285 114.279 140.009 113.554 140.009 112.376Z" fill="white"/>
<path d="M15.6775 101.14V89.4495L9.4246 100.233L3.08112 89.6307V101.14H0V83.5591H2.62801L9.4246 95.2492L16.0399 83.5591H18.668V101.14H15.6775Z" fill="white"/>
<path d="M33.8928 93.2575V101.142H30.993V99.5104C30.268 100.688 28.8181 101.323 26.915 101.323C23.9245 101.323 22.0215 99.601 22.0215 97.3355C22.0215 95.0699 23.4714 93.3481 27.4588 93.3481H30.8117V93.1669C30.8117 91.3545 29.7243 90.267 27.5494 90.267C26.0994 90.267 24.5589 90.8107 23.562 91.6263L22.384 89.3608C23.7433 88.2733 25.8276 87.7296 27.9119 87.7296C31.7179 87.5484 33.8928 89.4514 33.8928 93.2575ZM30.8117 96.973V95.4324H27.64C25.5557 95.4324 25.012 96.248 25.012 97.2448C25.012 98.3323 25.9182 99.1479 27.4588 99.1479C28.9993 99.0573 30.268 98.3323 30.8117 96.973Z" fill="white"/>
<path d="M36.7915 94.4394C36.7915 90.4521 39.6914 87.5522 43.8599 87.5522C46.3973 87.5522 48.391 88.6397 49.3878 90.6334L47.0317 92.0833C46.2161 90.8146 45.038 90.1803 43.7693 90.1803C41.5038 90.1803 39.782 91.8114 39.782 94.3488C39.782 96.9768 41.5038 98.5174 43.7693 98.5174C45.038 98.5174 46.2161 97.9737 47.0317 96.6144L49.3878 98.0643C48.391 100.058 46.3973 101.236 43.8599 101.236C39.782 101.327 36.7915 98.5174 36.7915 94.4394Z" fill="white"/>
<path d="M50.7476 94.4394C50.7476 90.4521 53.6474 87.5522 57.6348 87.5522C61.7127 87.5522 64.6126 90.3615 64.6126 94.4394C64.6126 98.4268 61.7127 101.327 57.6348 101.327C53.7381 101.327 50.7476 98.5174 50.7476 94.4394ZM61.5315 94.4394C61.5315 91.9021 59.9003 90.2709 57.6348 90.2709C55.4599 90.2709 53.8287 91.9021 53.8287 94.4394C53.8287 96.9768 55.4599 98.608 57.6348 98.608C59.9003 98.608 61.5315 96.9768 61.5315 94.4394Z" fill="white"/>
<path d="M80.3804 93.4426V101.145H77.2993V93.8957C77.2993 91.5396 76.1212 90.3615 74.2182 90.3615C72.0433 90.3615 70.5933 91.7208 70.5933 94.4395V101.236H67.5122V87.7335H70.4121V89.4553C71.4089 88.1866 73.0401 87.5522 74.8525 87.5522C78.0243 87.5522 80.3804 89.4553 80.3804 93.4426Z" fill="white"/>
<path d="M106.389 83.5591V101.14H103.217V93.618H94.4271V101.14H91.2554V83.5591H94.4271V90.8088H103.217V83.5591H106.389Z" fill="white"/>
<path d="M109.652 94.4394C109.652 90.4521 112.552 87.5522 116.539 87.5522C120.617 87.5522 123.517 90.3615 123.517 94.4394C123.517 98.4268 120.617 101.327 116.539 101.327C112.552 101.327 109.652 98.5174 109.652 94.4394ZM120.436 94.4394C120.436 91.9021 118.805 90.2709 116.539 90.2709C114.364 90.2709 112.733 91.9021 112.733 94.4394C112.733 96.9768 114.364 98.608 116.539 98.608C118.805 98.608 120.436 96.9768 120.436 94.4394Z" fill="white"/>
<path d="M134.211 100.41C133.486 101.045 132.398 101.317 131.311 101.317C128.501 101.317 126.87 99.776 126.87 96.7855V90.3514H124.695V87.814H126.87V84.7329H129.951V87.814H133.395V90.3514H129.951V96.6949C129.951 97.9636 130.586 98.6886 131.764 98.6886C132.398 98.6886 133.032 98.5073 133.486 98.1448L134.211 100.41Z" fill="white"/>
<path d="M148.528 95.4273H138.287C138.65 97.421 140.281 98.599 142.547 98.599C143.996 98.599 145.175 98.1459 146.081 97.1491L147.712 99.0521C146.534 100.502 144.721 101.227 142.456 101.227C138.106 101.227 135.297 98.3272 135.297 94.3398C135.297 90.3525 138.106 87.4526 142.003 87.4526C145.809 87.4526 148.618 90.1713 148.618 94.4305C148.528 94.7929 148.528 95.1554 148.528 95.4273ZM138.287 93.343H145.628C145.356 91.44 143.906 90.0807 141.912 90.0807C140.009 90.0807 138.559 91.44 138.287 93.343Z" fill="white"/>
<path d="M151.52 82.4697H154.601V101.138H151.52V82.4697Z" fill="white"/>
<path d="M115.996 4.97944C115.996 7.69808 113.821 9.87298 111.102 9.87298C111.012 9.87298 110.83 9.87298 110.74 9.87298C110.74 9.87298 110.74 9.87298 110.649 9.87298L110.558 9.9636C110.468 9.9636 110.468 10.0542 110.377 10.0542C110.287 10.1448 110.196 10.1448 110.105 10.2355C110.015 10.3261 109.924 10.4167 109.833 10.5073C109.743 10.598 109.652 10.6886 109.562 10.7792C109.471 10.8698 109.38 10.9604 109.29 11.0511C109.199 11.1417 109.108 11.2323 109.018 11.4135L108.927 11.5042C108.837 11.5948 108.746 11.776 108.655 11.8666C108.565 11.9573 108.474 12.1385 108.384 12.2291C108.293 12.4104 108.202 12.501 108.112 12.5916C108.112 12.6822 108.021 12.7729 108.021 12.7729V12.8635C107.93 12.9541 107.84 13.1353 107.749 13.226C107.749 13.3166 107.659 13.4072 107.659 13.4072C107.568 13.4978 107.568 13.5885 107.477 13.6791C107.387 13.7697 107.387 13.8603 107.296 14.0416C107.296 14.1322 107.205 14.1322 107.205 14.2228C107.115 14.404 107.115 14.4947 107.024 14.6759C106.934 14.7665 106.934 14.9478 106.843 15.0384C106.752 15.2196 106.662 15.4009 106.571 15.5821C106.48 15.7634 106.39 15.9446 106.299 16.1258C106.209 16.3071 106.118 16.4883 106.027 16.6696C105.937 16.8508 105.846 17.0321 105.756 17.2133C105.665 17.3945 105.574 17.5758 105.484 17.757C105.393 17.9383 105.393 18.1195 105.302 18.2101C105.212 18.3914 105.121 18.5726 105.031 18.8445C104.94 19.0257 104.849 19.2976 104.759 19.4788C104.668 19.6601 104.577 19.9319 104.487 20.1132C104.396 20.2944 104.306 20.5663 104.215 20.7475C104.124 20.9288 104.034 21.2006 103.943 21.3819C103.852 21.5631 103.852 21.7444 103.762 22.0162C103.671 22.2881 103.581 22.4693 103.49 22.6506C103.399 22.9224 103.309 23.1037 103.218 23.2849C103.128 23.5568 103.037 23.738 102.946 23.9193C102.856 24.1911 102.765 24.3724 102.674 24.6442C102.584 24.9161 102.493 25.0973 102.403 25.3692C102.312 25.6411 102.221 25.8223 102.131 26.0942C102.04 26.366 101.949 26.5473 101.859 26.8191C101.768 27.091 101.768 27.2722 101.587 27.5441C101.496 27.7253 101.496 27.9972 101.406 28.1785C101.315 28.4503 101.224 28.6316 101.134 28.9034C101.043 29.1753 100.953 29.3565 100.862 29.6284C100.771 29.9003 100.681 30.0815 100.59 30.3534C100.499 30.6252 100.409 30.8065 100.318 31.0783C100.228 31.2596 100.228 31.5314 100.137 31.7127C100.046 31.9845 99.9558 32.2564 99.8651 32.5283C99.7745 32.8001 99.6839 33.072 99.5933 33.2532C99.5027 33.5251 99.412 33.797 99.3214 33.9782C99.2308 34.2501 99.1402 34.5219 99.0496 34.7938C98.9589 35.0657 98.8683 35.3375 98.7777 35.6094C98.6871 35.8813 98.5964 36.1531 98.5058 36.425C98.4152 36.6968 98.3246 36.8781 98.234 37.15C98.1433 37.4218 98.0527 37.6031 97.9621 37.8749C97.8715 38.1468 97.7809 38.4186 97.6902 38.6905C97.5996 38.9624 97.509 39.2342 97.4184 39.5061C97.3278 39.778 97.2371 40.0498 97.1465 40.3217C97.0559 40.5936 96.9653 40.8654 96.8746 41.1373C96.784 41.4091 96.6934 41.681 96.6028 41.9529C96.5122 42.2247 96.4215 42.4966 96.3309 42.7685C96.2403 43.0403 96.1497 43.3122 96.0591 43.5841C95.9684 43.8559 95.8778 44.1278 95.7872 44.309C95.6966 44.5809 95.606 44.8527 95.5153 45.034C95.4247 45.3059 95.3341 45.5777 95.2435 45.759C95.1528 46.0308 95.0622 46.2121 94.9716 46.4839C94.881 46.7558 94.7904 47.0277 94.6997 47.2089C94.6091 47.4808 94.5185 47.662 94.4279 47.9339C94.3373 48.2057 94.2466 48.387 94.156 48.6588C94.0654 48.9307 93.9748 49.1119 93.7935 49.3838C93.7029 49.6557 93.6123 49.8369 93.431 50.1088C93.3404 50.3806 93.2498 50.5619 93.0686 50.8337C92.9779 51.1056 92.8873 51.2869 92.7061 51.5587C92.6155 51.8306 92.5248 52.0118 92.3436 52.2837C92.253 52.5555 92.0717 52.7368 91.9811 53.0087C91.8905 53.2805 91.7092 53.4618 91.6186 53.7336C91.528 54.0055 91.3468 54.1867 91.2561 54.4586C91.1655 54.7305 90.9843 54.9117 90.8937 55.1836C90.803 55.4554 90.6218 55.6367 90.5312 55.9085C90.4406 56.1804 90.2593 56.3616 90.1687 56.6335C90.0781 56.9054 89.8968 57.0866 89.7156 57.2678C89.625 57.5397 89.4437 57.721 89.2625 57.9022C89.0812 58.1741 88.9906 58.3553 88.8094 58.5365C88.7188 58.8084 88.5375 58.9896 88.3563 59.1709C88.175 59.3521 88.0844 59.624 87.9032 59.8052C87.7219 59.9865 87.6313 60.2583 87.4501 60.4396C87.2688 60.6208 87.1782 60.8927 86.997 61.0739C86.8157 61.2552 86.6345 61.527 86.5438 61.7083L86.4532 61.7989C86.272 61.9801 86.0907 62.252 85.9095 62.4333C85.7283 62.6145 85.547 62.7957 85.3658 63.0676C85.1845 63.2488 85.0033 63.4301 84.822 63.6113C84.6408 63.7926 84.4596 63.9738 84.2783 64.1551C84.0065 64.4269 83.8252 64.6082 83.5533 64.7894C83.4627 64.88 83.2815 65.0613 83.1002 65.1519C83.0096 65.2425 83.0096 65.2425 82.919 65.3331C82.1034 66.0581 81.2878 66.6018 80.291 66.9643C80.2004 67.0549 80.0191 67.0549 79.9285 67.0549C79.7473 67.0549 79.3848 67.1456 79.0223 67.1456C78.8411 67.1456 78.7504 67.2362 78.5692 67.2362C78.3879 67.2362 78.2973 67.3268 78.1161 67.3268C77.8442 67.3268 77.4817 67.4174 77.2099 67.4174C76.938 67.4174 76.5755 67.4174 76.3037 67.3268C76.1224 67.3268 76.0318 67.3268 75.8506 67.2362C75.6693 67.2362 75.5787 67.2362 75.3975 67.1456C75.1256 67.0549 74.8537 67.0549 74.5819 66.9643C74.4006 66.8737 74.2194 66.8737 74.0381 66.7831C72.9507 66.33 72.0445 65.7862 71.2289 64.9706C69.5977 63.3395 68.5103 61.1646 68.5103 58.6272C68.5103 55.2742 70.4133 52.3743 73.2226 50.9244C73.4944 50.7431 73.7663 50.6525 74.0381 50.5619C74.1288 50.4713 74.2194 50.4713 74.4006 50.3806C74.4006 50.3806 74.4912 50.3806 74.4912 50.29C74.5819 50.1994 74.7631 50.1994 74.8537 50.1088C74.9443 50.0182 75.1256 49.9275 75.2162 49.9275C75.3068 49.8369 75.4881 49.7463 75.5787 49.6557C75.6693 49.6557 75.6693 49.565 75.7599 49.565C75.8506 49.4744 76.0318 49.3838 76.1224 49.2932C76.213 49.2026 76.3943 49.1119 76.4849 49.0213C76.5755 48.9307 76.7568 48.8401 76.8474 48.7495C76.938 48.6588 77.1193 48.5682 77.2099 48.4776C77.2099 48.4776 77.2099 48.4776 77.3005 48.4776C77.3911 48.387 77.4817 48.387 77.4817 48.2964C77.5724 48.2057 77.7536 48.0245 77.8442 47.9339C77.9348 47.8432 78.1161 47.662 78.2067 47.5714C78.2973 47.4808 78.4786 47.2995 78.5692 47.2089C78.6598 47.1183 78.8411 46.937 78.9317 46.8464C79.0223 46.6652 79.2035 46.5746 79.2942 46.3933C79.3848 46.2121 79.566 46.1214 79.6566 45.9402C79.7473 45.759 79.9285 45.6683 80.0191 45.4871C80.1098 45.3059 80.291 45.2152 80.3816 45.034C80.4722 44.8527 80.6535 44.6715 80.7441 44.5809C80.8347 44.3996 81.016 44.2184 81.1066 44.1278C81.1066 44.0372 81.1972 44.0372 81.1972 43.9465C81.2878 43.8559 81.2878 43.7653 81.3784 43.7653C81.4691 43.6747 81.5597 43.4934 81.6503 43.4028C81.7409 43.3122 81.7409 43.2216 81.8316 43.1309C81.9222 42.9497 82.1034 42.7685 82.194 42.5872C82.2847 42.406 82.4659 42.2247 82.5565 42.0435C82.6471 41.8623 82.8284 41.681 82.919 41.4998C83.0096 41.3185 83.1909 41.1373 83.2815 40.956C83.3721 40.7748 83.5534 40.5936 83.644 40.4123C83.7346 40.2311 83.9158 40.0498 84.0065 39.778C84.0971 39.5967 84.2783 39.3249 84.3689 39.1436C84.4596 38.9624 84.6408 38.6905 84.7314 38.5093C84.822 38.328 85.0033 38.0562 85.0939 37.8749C85.1845 37.6937 85.3658 37.4218 85.4564 37.2406C85.547 36.9687 85.7283 36.7875 85.8189 36.6062C85.9095 36.425 86.0907 36.1531 86.1814 35.9719C86.272 35.7906 86.4532 35.5188 86.5438 35.3375C86.6345 35.1563 86.8157 34.8844 86.9063 34.7032C86.997 34.4313 87.1782 34.2501 87.2688 34.0688C87.3594 33.8876 87.5407 33.6157 87.6313 33.4345C87.7219 33.1626 87.8125 32.9814 87.9938 32.8001C88.0844 32.5283 88.175 32.347 88.3563 32.1658C88.4469 31.8939 88.6281 31.7127 88.7188 31.4408C88.8094 31.169 88.9906 30.9877 89.0812 30.7158C89.1719 30.444 89.3531 30.2627 89.4437 29.9909C89.5343 29.719 89.625 29.5378 89.8062 29.2659C89.8968 28.994 89.9874 28.8128 90.1687 28.6316C90.2593 28.3597 90.4406 28.0878 90.5312 27.816C90.6218 27.6347 90.7124 27.3629 90.803 27.1816C90.8937 26.9098 90.9843 26.7285 91.1655 26.5473C91.2561 26.2754 91.3468 26.0942 91.528 25.9129C91.6186 25.6411 91.7092 25.4598 91.8905 25.2786C91.9811 25.0067 92.0717 24.8255 92.253 24.6442C92.3436 24.3724 92.4342 24.1911 92.6155 24.0099C92.7061 23.738 92.7967 23.5568 92.8873 23.3755C92.9779 23.1037 93.0686 22.9224 93.2498 22.7412C93.3404 22.4693 93.431 22.2881 93.5217 22.1068C93.6123 21.835 93.7935 21.5631 93.9748 21.2912C94.0654 21.11 94.156 20.8381 94.2466 20.6569C94.3373 20.4757 94.4279 20.2038 94.5185 20.0226C94.6091 19.8413 94.6997 19.5694 94.7904 19.3882C94.881 19.207 94.9716 18.9351 95.0622 18.7539C95.1528 18.5726 95.2435 18.3008 95.3341 18.1195C95.4247 17.9383 95.5153 17.6664 95.606 17.4852C95.6966 17.3039 95.7872 17.0321 95.8778 16.8508C95.9684 16.6696 96.0591 16.3977 96.1497 16.2165C96.2403 15.9446 96.4215 15.6727 96.5122 15.4009C96.6028 15.2196 96.6934 15.0384 96.784 14.8571C96.8746 14.6759 96.9653 14.4947 97.0559 14.3134C97.1465 14.1322 97.2371 13.9509 97.3278 13.7697C97.4184 13.5885 97.509 13.4072 97.5996 13.226C97.6902 13.0447 97.7809 12.8635 97.8715 12.6822C97.9621 12.501 98.0527 12.3198 98.1433 12.1385C98.234 11.8666 98.4152 11.6854 98.5058 11.4135C98.5964 11.2323 98.6871 11.0511 98.7777 10.8698C98.7777 10.8698 98.7777 10.8698 98.8683 10.7792C98.9589 10.6886 98.9589 10.5073 99.0496 10.4167C99.0496 10.3261 99.1402 10.3261 99.1402 10.3261C99.2308 10.2355 99.2308 10.1448 99.3214 10.0542C99.3214 9.9636 99.412 9.9636 99.412 9.87298C99.412 9.78236 99.5027 9.69174 99.5027 9.69174C99.5933 9.60112 99.5933 9.5105 99.6839 9.41988C99.6839 9.32926 99.6839 9.32926 99.7745 9.23864C99.8651 9.14801 99.8651 9.05739 99.9558 8.96677C99.9558 8.96677 99.9558 8.96677 99.9558 8.87615C100.046 8.69491 100.137 8.51367 100.318 8.33242C100.409 8.15118 100.59 7.87932 100.681 7.69807C100.771 7.51683 100.862 7.42621 100.953 7.24497C101.043 7.06373 101.134 6.97311 101.224 6.88248C101.315 6.79186 101.406 6.61062 101.496 6.52C101.587 6.33876 101.678 6.15752 101.859 6.06689C101.949 5.88565 102.131 5.61379 102.312 5.43255C102.403 5.34193 102.493 5.16068 102.584 5.07006C102.674 4.97944 102.765 4.88882 102.856 4.70758C102.946 4.61696 103.037 4.43571 103.218 4.34509C103.399 4.16385 103.581 3.89199 103.762 3.71074C103.852 3.62012 103.943 3.5295 104.034 3.43888C104.124 3.34826 104.215 3.25764 104.306 3.16702C104.487 2.98578 104.759 2.71391 105.031 2.53267C105.121 2.44205 105.212 2.35143 105.302 2.26081C105.393 2.17018 105.484 2.07956 105.574 2.07956C105.846 1.89832 106.118 1.71708 106.39 1.62646C106.48 1.53584 106.571 1.53584 106.662 1.44522C106.934 1.26397 107.205 1.17335 107.568 1.08273C107.659 0.99211 107.749 0.99211 107.93 0.99211C108.202 0.901489 108.474 0.810867 108.746 0.720246C108.927 0.720246 109.108 0.629625 109.29 0.629625C109.652 0.539004 110.015 0.539004 110.377 0.539004C113.821 0.0858983 115.996 2.26081 115.996 4.97944Z" fill="url(#paint0_linear)"/>
<path d="M46.1268 8.97217C47.3955 8.06596 48.2111 6.61602 48.2111 4.98485C48.2111 2.26621 46.0362 0.0913086 43.3175 0.0913086C41.5957 0.0913086 40.1458 0.997519 39.2396 2.26621C39.149 2.35683 39.0583 2.53808 38.9677 2.6287C38.9677 2.80994 38.7865 2.90056 38.6959 3.0818C38.6052 3.26305 38.5146 3.35367 38.424 3.53491C38.3334 3.71615 38.2428 3.80677 38.1521 3.98801C38.0615 4.16926 37.9709 4.25988 37.8803 4.44112C37.7896 4.62236 37.699 4.71298 37.6084 4.89422C37.5178 5.07547 37.4272 5.16609 37.3365 5.34733C37.2459 5.52857 37.1553 5.61919 37.0647 5.80043C36.9741 5.98168 36.8834 6.0723 36.7928 6.25354C36.7022 6.34416 36.7022 6.43478 36.6116 6.5254C36.6116 6.5254 36.6116 6.61602 36.521 6.61602L36.4303 6.70665C36.3397 6.79727 36.3397 6.88789 36.2491 6.97851C36.1585 7.15975 36.0678 7.34099 35.8866 7.52223C35.796 7.70348 35.7054 7.88472 35.5241 8.06596C35.4335 8.2472 35.3429 8.42844 35.1616 8.60969C35.071 8.79093 34.9804 8.97217 34.7992 9.15341C34.7085 9.33465 34.6179 9.5159 34.4367 9.69714C34.346 9.87838 34.2554 10.0596 34.0742 10.2409C33.9836 10.4221 33.8929 10.6033 33.7117 10.7846C33.6211 10.9658 33.5305 11.1471 33.4398 11.3283C33.3492 11.5096 33.2586 11.6908 33.168 11.872C33.0773 12.0533 32.9867 12.2345 32.8961 12.4158C32.8055 12.597 32.7149 12.7783 32.6242 12.9595C32.5336 13.1407 32.443 13.322 32.3524 13.5032C32.2618 13.6845 32.1711 13.8657 32.0805 14.0469C31.9899 14.2282 31.8993 14.4094 31.8087 14.6813C31.718 14.8625 31.6274 15.0438 31.5368 15.3156C31.4462 15.4969 31.3555 15.6781 31.2649 15.95C31.1743 16.1312 31.0837 16.3125 30.9931 16.5843C30.9024 16.7656 30.8118 16.9468 30.7212 17.2187C30.6306 17.3999 30.54 17.5812 30.4493 17.853C30.3587 18.0343 30.1775 18.3061 30.1775 18.4874C30.0869 18.6686 29.9056 18.9405 29.9056 19.1217C29.815 19.303 29.7244 19.5748 29.6337 19.7561C29.5431 19.9373 29.4525 20.2092 29.3619 20.3904C29.2713 20.5717 29.1806 20.8435 29.09 21.0248C28.9994 21.206 28.9088 21.4779 28.8182 21.6591C28.7275 21.8404 28.6369 22.1122 28.5463 22.2935C28.4557 22.4747 28.3651 22.7466 28.2744 22.9278C28.1838 23.1091 28.0932 23.3809 28.0026 23.5622C27.9119 23.7434 27.8213 24.0153 27.7307 24.1965C27.6401 24.3777 27.5495 24.6496 27.4588 24.8309C27.3682 25.0121 27.2776 25.284 27.187 25.4652C27.0964 25.6464 26.9151 25.9183 26.9151 26.1902C26.8245 26.3714 26.6432 26.6433 26.6432 26.9151C26.5526 27.0964 26.3714 27.3682 26.3714 27.6401C26.2808 27.8213 26.0995 28.0932 26.0995 28.3651C26.0089 28.5463 25.9183 28.8182 25.8277 28.9994C25.737 29.1807 25.6464 29.4525 25.5558 29.6338C25.4652 29.815 25.3746 30.0869 25.2839 30.2681C25.1933 30.4494 25.1027 30.7212 25.0121 30.9025C24.9214 31.0837 24.8308 31.3556 24.7402 31.5368C24.6496 31.7181 24.559 31.9899 24.4683 32.1712C24.3777 32.3524 24.2871 32.6243 24.1965 32.8055C24.1059 32.9867 24.0152 33.2586 23.9246 33.5305C23.834 33.8023 23.7434 33.9836 23.6528 34.2554C23.5621 34.5273 23.4715 34.7085 23.3809 34.9804C23.2903 35.2523 23.1996 35.4335 23.109 35.7054C23.0184 35.9772 22.9278 36.1585 22.8372 36.4303C22.7465 36.6116 22.6559 36.8835 22.5653 37.1553C22.4747 37.3366 22.3841 37.6084 22.2934 37.8803C22.2028 38.0615 22.1122 38.3334 22.0216 38.6053C21.931 38.7865 21.8403 39.0584 21.7497 39.3302C21.6591 39.5115 21.5685 39.7833 21.4778 40.0552C21.3872 40.2364 21.2966 40.5083 21.206 40.7802C21.1154 40.9614 21.0247 41.2333 20.9341 41.5051C20.8435 41.6864 20.7529 41.9582 20.6623 42.2301C20.5716 42.4113 20.481 42.6832 20.3904 42.9551C20.2998 43.1363 20.2092 43.4082 20.1185 43.68C20.0279 43.9519 19.9373 44.1331 19.8467 44.405C19.756 44.6769 19.6654 44.8581 19.5748 45.13C19.4842 45.3112 19.3936 45.5831 19.3936 45.7643C19.3936 45.7643 19.3936 45.7643 19.3936 45.8549C19.3029 46.0362 19.3029 46.2174 19.2123 46.4893C19.2123 46.4893 19.2123 46.5799 19.1217 46.5799C19.0311 46.7611 19.0311 46.9424 18.9405 47.1236C18.9405 47.2143 18.8498 47.2142 18.8498 47.3049C18.7592 47.4861 18.7592 47.6674 18.7592 47.8486C18.7592 47.9392 18.6686 47.9392 18.6686 48.0298C18.578 48.2111 18.578 48.3923 18.578 48.4829C18.578 48.5736 18.4873 48.6642 18.4873 48.7548C18.3967 48.9361 18.3967 49.0267 18.3967 49.2079C18.3967 49.2985 18.3061 49.3892 18.3061 49.4798C18.3061 49.5704 18.2155 49.7516 18.2155 49.8423C18.2155 49.9329 18.1249 50.0235 18.1249 50.1141C18.1249 50.2047 18.0342 50.386 18.0342 50.4766C18.0342 50.5672 17.9436 50.6578 17.9436 50.8391C17.9436 50.9297 17.9436 51.0203 17.853 51.2016C17.7624 51.2922 17.7624 51.4734 17.6718 51.5641C17.6718 51.6547 17.6718 51.7453 17.5811 51.8359C17.4905 51.9265 17.4905 52.1078 17.3999 52.1984C17.3999 52.289 17.3999 52.3797 17.3999 52.4703C17.3093 52.6515 17.3093 52.7421 17.2187 52.9234C17.2187 53.014 17.2187 53.1046 17.2187 53.1952C17.128 53.3765 17.128 53.4671 17.0374 53.6483C17.0374 53.739 17.0374 53.8296 17.0374 53.8296C16.9468 54.0108 16.9468 54.1014 16.8562 54.2827C16.8562 54.3733 16.8562 54.3733 16.8562 54.4639C16.7655 54.6452 16.7655 54.8264 16.6749 54.917C16.6749 55.0077 16.6749 55.0077 16.6749 55.0983C16.5843 55.2795 16.5843 55.4608 16.4937 55.642C16.4937 55.7326 16.4937 55.7326 16.4937 55.8232C16.4031 56.0045 16.4031 56.1857 16.3124 56.367V56.4576C16.2218 56.6388 16.2218 56.8201 16.1312 57.0013V57.0919C16.0406 57.2732 16.0406 57.4544 16.0406 57.6357V57.7263C15.95 57.9075 15.95 58.0888 15.95 58.27V58.3606C15.8593 58.5419 15.8593 58.7231 15.8593 58.9044C15.8593 58.9044 15.8593 58.9044 15.8593 58.995C15.7687 59.1762 15.7687 59.3575 15.7687 59.5387C15.7687 59.5387 15.7687 59.5387 15.7687 59.6293C15.7687 59.8106 15.6781 59.9918 15.6781 60.2637C15.6781 60.4449 15.5875 60.6262 15.5875 60.898C15.5875 61.0793 15.4969 61.2605 15.4969 61.5324C15.4969 61.7136 15.4062 61.8949 15.4062 62.1667C15.4062 62.348 15.3156 62.5292 15.3156 62.7104C15.3156 62.8917 15.225 63.0729 15.225 63.2542C15.225 63.4354 15.1344 63.6167 15.1344 63.7979C15.1344 63.9791 15.0437 64.1604 15.0437 64.3416C15.0437 64.5229 14.9531 64.7041 14.9531 64.8854C14.9531 67.604 17.128 69.7789 19.8467 69.7789C22.5653 69.7789 24.7402 67.604 24.7402 64.8854C24.7402 64.7041 24.7402 64.6135 24.6496 64.4323C24.6496 64.251 24.6496 64.1604 24.6496 63.9791C24.6496 63.7979 24.6496 63.7073 24.6496 63.526C24.6496 63.526 24.6496 63.526 24.6496 63.4354C24.6496 63.2542 24.6496 63.1636 24.6496 62.9823C24.6496 62.9823 24.6496 62.9823 24.6496 62.8917C24.6496 62.7105 24.6496 62.6198 24.6496 62.4386V62.348C24.6496 62.1667 24.6496 62.0761 24.6496 61.8949V61.8042C24.6496 61.623 24.6496 61.5324 24.6496 61.3511V61.2605C24.6496 61.0793 24.6496 60.9886 24.6496 60.8074V60.7168C24.6496 60.5355 24.6496 60.4449 24.6496 60.2637V60.1731C24.6496 59.9918 24.6496 59.9012 24.6496 59.72V59.6293C24.6496 59.4481 24.6496 59.3575 24.6496 59.1762V59.0856C24.6496 58.9044 24.6496 58.8137 24.6496 58.6325V58.5419C24.6496 58.3606 24.6496 58.27 24.6496 58.0888V57.9982C24.6496 57.8169 24.6496 57.7263 24.6496 57.5451V57.4544C24.6496 57.2732 24.6496 57.0919 24.6496 57.0013V56.9107C24.6496 56.7295 24.6496 56.5482 24.6496 56.4576V56.367C24.6496 56.1857 24.6496 56.0045 24.6496 55.8232V55.7326C24.6496 55.5514 24.6496 55.3701 24.7402 55.1889V55.0983C24.7402 54.917 24.8308 54.7358 24.8308 54.5546C24.8308 54.5546 24.8308 54.5546 24.8308 54.4639C24.8308 54.2827 24.9214 54.1015 24.9214 53.9202C24.9214 53.9202 24.9214 53.9202 24.9214 53.8296C25.0121 53.6483 25.0121 53.4671 25.0121 53.2859C25.1027 53.1046 25.1027 52.9234 25.1027 52.6515C25.1933 52.4703 25.1933 52.1984 25.1933 52.0172C25.2839 51.7453 25.2839 51.4734 25.3746 51.2922C25.4652 51.111 25.4652 50.8391 25.4652 50.6578C25.5558 50.4766 25.5558 50.2047 25.5558 50.0235C25.6464 49.8423 25.6464 49.5704 25.6464 49.3892C25.737 49.2079 25.737 48.9361 25.8277 48.7548C25.9183 48.5736 25.9183 48.3017 26.0089 48.1205C26.0995 47.9392 26.0995 47.6674 26.1901 47.4861C26.2808 47.3049 26.2808 47.033 26.3714 46.8518C26.462 46.6705 26.462 46.3987 26.5526 46.2174C26.6432 46.0362 26.7339 45.7643 26.7339 45.5831C26.8245 45.4018 26.9151 45.13 26.9151 44.9487C27.0057 44.7675 27.0964 44.4956 27.0964 44.3144C27.187 44.1331 27.2776 43.8613 27.2776 43.68C27.3682 43.4988 27.4588 43.2269 27.4588 43.0457C27.5495 42.8644 27.6401 42.5926 27.6401 42.4113C27.7307 42.2301 27.8213 41.9582 27.8213 41.777C27.9119 41.5957 28.0026 41.3239 28.0026 41.1426C28.0932 40.9614 28.1838 40.6895 28.1838 40.5083C28.2744 40.327 28.365 40.0552 28.4557 39.8739C28.5463 39.6927 28.6369 39.4208 28.7275 39.2396C28.8182 39.0584 28.9088 38.7865 28.9994 38.5146C29.09 38.3334 29.1806 38.0615 29.2713 37.8803C29.3619 37.699 29.4525 37.4272 29.5431 37.2459C29.6337 37.0647 29.7244 36.7928 29.815 36.6116C29.9056 36.4303 29.9962 36.1585 30.0869 35.9772C30.1775 35.796 30.2681 35.5241 30.3587 35.3429C30.4493 35.1617 30.54 34.8898 30.6306 34.7085C30.7212 34.5273 30.8118 34.2554 30.9024 34.0742C30.9931 33.893 31.0837 33.6211 31.1743 33.4398C31.2649 33.2586 31.3555 32.9867 31.4462 32.8055C31.5368 32.6243 31.6274 32.3524 31.718 32.1712C31.8087 31.9899 31.8993 31.7181 31.9899 31.5368C32.0805 31.3556 32.1711 31.0837 32.2618 30.9025C32.3524 30.7212 32.443 30.4494 32.5336 30.2681C32.6242 30.0869 32.7149 29.815 32.8055 29.6338C32.8961 29.4525 32.9867 29.1807 33.0773 28.9994C33.168 28.8182 33.2586 28.5463 33.3492 28.3651C33.4398 28.1838 33.5305 28.0026 33.6211 27.7307C33.7117 27.5495 33.8023 27.3682 33.8929 27.0964C33.9836 26.9151 34.1648 26.7339 34.1648 26.462C34.2554 26.2808 34.4367 26.0995 34.4367 25.8277C34.5273 25.6464 34.7085 25.4652 34.7085 25.1933C34.7991 25.0121 34.9804 24.8309 35.071 24.559C35.1616 24.3777 35.3429 24.1965 35.4335 24.0153C35.5241 23.834 35.7054 23.6528 35.796 23.4715C35.8866 23.2903 36.0678 23.1091 36.1585 22.9278C36.2491 22.7466 36.4303 22.5653 36.521 22.3841C36.6116 22.2028 36.7928 22.0216 36.8834 21.8404C36.9741 21.6591 37.1553 21.4779 37.2459 21.2966C37.3365 21.1154 37.5178 20.9341 37.6084 20.7529C37.699 20.5717 37.8803 20.3904 37.9709 20.2092C38.0615 20.0279 38.2428 19.8467 38.3334 19.6655C38.424 19.4842 38.6052 19.303 38.6959 19.1217C38.7865 18.9405 38.9677 18.7592 39.0583 18.578C39.149 18.3968 39.3302 18.2155 39.4208 18.0343C39.6021 17.853 39.6927 17.6718 39.7833 17.3999C39.8739 17.2187 40.0552 17.0374 40.1458 16.8562C40.2364 16.675 40.4177 16.5843 40.5083 16.4031C40.5989 16.2219 40.7801 16.1312 40.8708 15.95C40.9614 15.7687 41.1426 15.6781 41.2332 15.4969C41.3239 15.3156 41.5051 15.225 41.5957 15.0438C41.6864 14.8625 41.8676 14.7719 41.9582 14.5907C42.0488 14.4094 42.2301 14.3188 42.3207 14.1376C42.4113 13.9563 42.5926 13.8657 42.6832 13.6845C42.7738 13.5938 42.955 13.4126 43.0457 13.2314C43.1363 13.1407 43.3175 12.9595 43.4082 12.8689C43.4988 12.7783 43.68 12.597 43.7706 12.5064C43.8613 12.4158 44.0425 12.2345 44.1331 12.1439C44.2237 12.0533 44.405 11.872 44.4956 11.7814C44.5862 11.6908 44.7675 11.5096 44.8581 11.4189C44.9487 11.3283 45.13 11.2377 45.2206 11.0565C45.3112 10.9658 45.4924 10.8752 45.5831 10.694C45.6737 10.6033 45.7643 10.5127 45.9455 10.3315C46.0362 10.2409 46.1268 10.1502 46.308 10.0596C46.3986 9.969 46.4893 9.87838 46.6705 9.78776C46.7611 9.69714 46.8518 9.60652 47.033 9.5159C45.9455 9.06279 46.0362 9.06279 46.1268 8.97217Z" fill="url(#paint1_linear)"/>
<path d="M140.1 64.4323C140.1 64.1604 140.1 63.9792 140.01 63.7979C140.01 63.6167 140.01 63.4354 139.919 63.2542C139.919 63.073 139.829 62.8917 139.829 62.7105C139.829 62.5292 139.738 62.348 139.738 62.1668C139.738 61.9855 139.647 61.8043 139.647 61.5324C139.647 61.3512 139.557 61.1699 139.557 60.8981C139.557 60.7168 139.466 60.5356 139.466 60.2637C139.466 60.0825 139.375 59.9012 139.375 59.6294C139.375 59.6294 139.375 59.6294 139.375 59.5387C139.375 59.3575 139.285 59.1763 139.285 58.995C139.285 58.995 139.285 58.995 139.285 58.9044C139.285 58.7232 139.194 58.5419 139.194 58.3607V58.27C139.194 58.0888 139.104 57.9076 139.104 57.7263V57.6357C139.104 57.4545 139.013 57.2732 139.013 57.092V57.0014C139.013 56.8201 138.922 56.6389 138.832 56.4576V56.367C138.832 56.1858 138.741 56.0045 138.65 55.8233C138.65 55.7327 138.65 55.7327 138.65 55.642C138.65 55.4608 138.56 55.2795 138.469 55.0983C138.469 55.0077 138.469 55.0077 138.469 54.9171C138.469 54.7358 138.379 54.5546 138.288 54.464C138.288 54.3733 138.288 54.3733 138.288 54.2827C138.288 54.1015 138.197 53.9202 138.107 53.8296C138.107 53.739 138.107 53.6484 138.107 53.6484C138.107 53.4671 138.016 53.3765 137.925 53.1953C137.925 53.1046 137.925 53.014 137.925 52.9234C137.925 52.7422 137.835 52.6515 137.744 52.4703C137.744 52.3797 137.744 52.2891 137.744 52.1984C137.744 52.0172 137.654 51.9266 137.563 51.8359C137.563 51.7453 137.563 51.6547 137.472 51.5641C137.472 51.4735 137.382 51.2922 137.291 51.2016C137.291 51.111 137.291 51.0204 137.201 50.8391C137.201 50.7485 137.11 50.6579 137.11 50.4766C137.11 50.386 137.11 50.2048 137.019 50.1141C137.019 50.0235 136.929 49.9329 136.929 49.8423C136.929 49.7517 136.929 49.5704 136.838 49.4798C136.838 49.3892 136.747 49.2986 136.747 49.2079C136.747 49.0267 136.657 48.9361 136.657 48.7548C136.657 48.6642 136.566 48.5736 136.566 48.483C136.566 48.3017 136.476 48.1205 136.476 48.0299C136.476 47.9392 136.385 47.9392 136.385 47.8486C136.385 47.6674 136.294 47.4861 136.294 47.3049C136.294 47.2143 136.204 47.2143 136.204 47.1237C136.204 46.9424 136.113 46.7612 136.022 46.5799C136.022 46.5799 136.022 46.4893 135.932 46.4893C135.932 46.3081 135.841 46.0362 135.751 45.855V45.7643C135.66 45.5831 135.66 45.3112 135.569 45.13C135.479 44.8581 135.479 44.6769 135.297 44.405C135.207 44.1332 135.207 43.9519 135.026 43.68C134.935 43.4082 134.935 43.2269 134.754 42.9551C134.663 42.6832 134.663 42.502 134.482 42.2301C134.391 41.9582 134.301 41.777 134.21 41.5051C134.119 41.2333 134.029 41.052 133.938 40.7802C133.848 40.5083 133.757 40.3271 133.666 40.0552C133.576 39.7833 133.485 39.6021 133.394 39.3302C133.304 39.0584 133.213 38.8771 133.123 38.6053C133.032 38.3334 132.941 38.1522 132.851 37.8803C132.76 37.6084 132.669 37.4272 132.579 37.1553C132.488 36.8835 132.398 36.7022 132.307 36.4304C132.216 36.1585 132.126 35.9773 132.035 35.7054C131.945 35.4335 131.854 35.2523 131.763 34.9804C131.673 34.7086 131.582 34.5273 131.491 34.2555C131.401 33.9836 131.31 33.8024 131.22 33.5305C131.129 33.2586 131.038 33.0774 130.948 32.8055C130.857 32.5337 130.766 32.3524 130.676 32.1712C130.585 31.8993 130.495 31.7181 130.404 31.5368C130.313 31.265 130.223 31.0837 130.132 30.9025C130.041 30.6306 129.951 30.4494 129.86 30.2681C129.77 29.9963 129.679 29.815 129.588 29.6338C129.498 29.3619 129.407 29.1807 129.316 28.9994C129.226 28.7276 129.135 28.5463 129.045 28.3651C128.954 28.0932 128.863 27.912 128.773 27.6401C128.682 27.3683 128.592 27.187 128.501 26.9151C128.41 26.6433 128.32 26.462 128.229 26.1902C128.138 25.9183 128.048 25.7371 127.957 25.4652C127.867 25.1933 127.776 25.0121 127.685 24.8309C127.595 24.6496 127.504 24.3778 127.413 24.1965C127.323 24.0153 127.232 23.7434 127.142 23.5622C127.051 23.3809 126.96 23.1091 126.87 22.9278C126.779 22.7466 126.688 22.4747 126.598 22.2935C126.507 22.1122 126.417 21.8404 126.326 21.6591C126.235 21.4779 126.145 21.206 126.054 21.0248C125.964 20.8435 125.873 20.5717 125.782 20.3904C125.692 20.2092 125.601 19.9373 125.51 19.7561C125.42 19.5748 125.329 19.303 125.239 19.1217C125.148 18.9405 125.057 18.6686 124.967 18.4874C124.876 18.3061 124.785 18.0343 124.695 17.853C124.604 17.6718 124.514 17.3999 124.423 17.2187C124.332 17.0375 124.242 16.7656 124.151 16.5843C124.06 16.4031 123.97 16.1312 123.879 15.95C123.789 15.7688 123.698 15.4969 123.607 15.3156C123.517 15.1344 123.426 14.9532 123.336 14.6813C123.245 14.5001 123.154 14.3188 123.064 14.047C122.973 13.8657 122.882 13.6845 122.792 13.5032C122.701 13.322 122.611 13.1407 122.52 12.9595C122.429 12.7783 122.339 12.597 122.248 12.4158C122.157 12.2345 122.067 12.0533 121.976 11.872C121.886 11.6908 121.795 11.5096 121.704 11.3283C121.614 11.1471 121.523 10.9658 121.432 10.7846C121.342 10.6034 121.251 10.4221 121.07 10.2409C120.979 10.0596 120.889 9.87839 120.708 9.69714C120.617 9.5159 120.526 9.33466 120.345 9.15342C120.254 8.97217 120.164 8.79093 119.983 8.60969C119.892 8.42845 119.801 8.24721 119.62 8.06596C119.529 7.88472 119.439 7.70348 119.258 7.52224C119.167 7.341 119.076 7.15975 118.895 6.97851C118.804 6.88789 118.804 6.79727 118.714 6.70665L118.623 6.61603C118.623 6.61603 118.623 6.52541 118.533 6.52541C118.442 6.43478 118.442 6.34416 118.351 6.25354C118.261 6.0723 118.17 5.89106 118.079 5.80044C117.989 5.61919 117.898 5.52857 117.808 5.34733C117.717 5.16609 117.626 5.07547 117.536 4.89423C117.445 4.71298 117.355 4.62236 117.264 4.44112C117.173 4.25988 117.083 4.16926 116.992 3.98802C116.901 3.80677 116.811 3.71615 116.72 3.53491C116.63 3.35367 116.539 3.26305 116.448 3.0818C116.358 2.90056 116.267 2.80994 116.176 2.6287C116.086 2.44746 115.995 2.35684 115.905 2.26621C114.998 0.99752 113.548 0.0913086 111.827 0.0913086C109.108 0.0913086 106.933 2.26621 106.933 4.98485C106.933 6.61603 107.749 8.06596 109.017 8.97217C109.108 9.0628 109.199 9.15342 109.289 9.24404C109.38 9.33466 109.47 9.42528 109.652 9.5159C109.742 9.60652 109.833 9.69714 110.014 9.78776C110.105 9.87839 110.195 9.96901 110.377 10.0596C110.467 10.1502 110.558 10.2409 110.739 10.4221C110.83 10.5127 110.92 10.6034 111.102 10.7846C111.192 10.8752 111.283 11.0565 111.464 11.1471C111.555 11.2377 111.645 11.4189 111.827 11.5096C111.917 11.6002 112.008 11.7814 112.189 11.872C112.28 11.9627 112.37 12.1439 112.552 12.2345C112.642 12.4158 112.733 12.5064 112.914 12.597C113.005 12.7783 113.095 12.8689 113.277 12.9595C113.367 13.1407 113.458 13.2314 113.639 13.4126C113.73 13.5939 113.82 13.6845 114.002 13.8657C114.092 14.047 114.183 14.1376 114.364 14.3188C114.455 14.5001 114.545 14.5907 114.727 14.7719C114.817 14.9532 114.908 15.0438 115.089 15.225C115.18 15.4063 115.27 15.4969 115.451 15.6781C115.542 15.8594 115.633 16.0406 115.814 16.1312C115.905 16.3125 115.995 16.4937 116.176 16.5843C116.267 16.7656 116.448 16.9468 116.539 17.1281C116.63 17.3093 116.811 17.5812 116.901 17.7624C116.992 17.9437 117.083 18.1249 117.264 18.3061C117.355 18.4874 117.445 18.6686 117.626 18.8499C117.717 19.0311 117.808 19.2124 117.989 19.3936C118.079 19.5748 118.17 19.7561 118.351 19.9373C118.442 20.1186 118.533 20.2998 118.714 20.4811C118.804 20.6623 118.895 20.8435 119.076 21.0248C119.167 21.206 119.258 21.3873 119.439 21.5685C119.529 21.7497 119.62 21.931 119.801 22.1122C119.892 22.2935 119.983 22.4747 120.164 22.656C120.254 22.8372 120.345 23.0184 120.526 23.1997C120.617 23.3809 120.707 23.5622 120.889 23.7434C120.979 23.9247 121.07 24.1059 121.251 24.2871C121.342 24.4684 121.432 24.6496 121.614 24.9215C121.704 25.1027 121.795 25.3746 121.886 25.5558C121.976 25.7371 122.067 26.0089 122.157 26.1902C122.248 26.3714 122.339 26.6433 122.429 26.8245C122.52 27.0058 122.611 27.2776 122.701 27.4589C122.792 27.6401 122.882 27.912 122.973 28.0932C123.064 28.2745 123.154 28.5463 123.245 28.7276C123.336 28.9088 123.426 29.1807 123.517 29.3619C123.607 29.5432 123.698 29.815 123.789 29.9963C123.879 30.1775 123.97 30.4494 124.06 30.6306C124.151 30.8119 124.242 31.0837 124.332 31.265C124.423 31.4462 124.514 31.7181 124.604 31.8993C124.695 32.0805 124.785 32.3524 124.876 32.5337C124.967 32.7149 125.057 32.9868 125.148 33.168C125.239 33.3492 125.329 33.6211 125.42 33.8024C125.51 33.9836 125.601 34.2555 125.692 34.4367C125.782 34.7086 125.873 34.8898 125.964 35.071C126.054 35.3429 126.145 35.5242 126.235 35.7054C126.326 35.9773 126.417 36.1585 126.507 36.3397C126.598 36.6116 126.688 36.7928 126.779 36.9741C126.87 37.246 126.87 37.4272 127.051 37.6084C127.142 37.8803 127.142 38.0615 127.323 38.2428C127.413 38.5146 127.413 38.6959 127.595 38.9678C127.685 39.2396 127.685 39.4209 127.867 39.6021C127.957 39.874 127.957 40.0552 128.138 40.2364C128.229 40.5083 128.229 40.6896 128.32 40.8708C128.41 41.1427 128.41 41.3239 128.501 41.5051C128.592 41.6864 128.592 41.9583 128.682 42.1395C128.682 42.3207 128.773 42.5926 128.863 42.7738C128.863 42.9551 128.954 43.2269 129.045 43.4082C129.045 43.5894 129.135 43.8613 129.226 44.0425C129.226 44.2238 129.317 44.4956 129.407 44.6769C129.407 44.8581 129.498 45.13 129.588 45.3112C129.588 45.4925 129.679 45.7643 129.77 45.9456C129.77 46.1268 129.86 46.3987 129.951 46.5799C129.951 46.7612 130.041 47.033 130.132 47.2143C130.132 47.3955 130.223 47.6674 130.313 47.8486C130.313 48.0299 130.404 48.3017 130.495 48.483C130.495 48.6642 130.585 48.9361 130.676 49.1173C130.676 49.2986 130.766 49.5704 130.766 49.7517C130.766 49.9329 130.857 50.2048 130.857 50.386C130.857 50.5673 130.948 50.8391 130.948 51.0204C130.948 51.2922 131.038 51.5641 131.129 51.7453C131.129 51.9266 131.22 52.1984 131.22 52.3797C131.22 52.5609 131.22 52.7422 131.31 53.014C131.31 53.1953 131.31 53.3765 131.401 53.5577C131.401 53.5577 131.401 53.5577 131.401 53.6484C131.401 53.8296 131.401 54.0109 131.491 54.1921C131.491 54.1921 131.491 54.1921 131.491 54.2827C131.491 54.464 131.491 54.6452 131.582 54.8264V54.9171C131.582 55.0983 131.582 55.2795 131.673 55.4608V55.5514C131.673 55.7327 131.673 55.9139 131.673 56.0951V56.1858C131.673 56.367 131.673 56.5482 131.673 56.6389V56.7295C131.673 56.9107 131.673 57.0014 131.673 57.1826V57.2732C131.673 57.4545 131.673 57.5451 131.673 57.7263V57.8169C131.673 57.9982 131.673 58.0888 131.673 58.27V58.3607C131.673 58.5419 131.673 58.6325 131.673 58.8138V58.9044C131.673 59.0856 131.673 59.1763 131.673 59.3575V59.4481C131.673 59.6294 131.673 59.72 131.673 59.9012V59.9918C131.673 60.1731 131.673 60.2637 131.673 60.445V60.5356C131.673 60.7168 131.673 60.8074 131.673 60.9887V61.0793C131.673 61.2605 131.673 61.3512 131.673 61.5324V61.623C131.673 61.8043 131.673 61.8949 131.673 62.0761V62.1668C131.673 62.348 131.673 62.4386 131.673 62.6199C131.673 62.6199 131.673 62.6199 131.673 62.7105C131.673 62.8917 131.673 62.9823 131.673 63.1636C131.673 63.1636 131.673 63.1636 131.673 63.2542C131.673 63.4354 131.673 63.5261 131.673 63.7073C131.673 63.8885 131.673 63.9792 131.673 64.1604C131.673 64.3417 131.582 64.4323 131.582 64.6135C131.582 67.3322 133.757 69.5071 136.476 69.5071C139.194 69.5071 141.369 67.3322 141.369 64.6135C140.191 64.7948 140.1 64.6135 140.1 64.4323Z" fill="url(#paint2_linear)"/>
<path d="M75.6683 24.6441C76.212 24.5535 76.7557 24.4628 77.2995 24.4628C77.8432 24.4628 78.3869 24.5535 78.9306 24.6441C83.0086 23.9191 86.0897 20.3849 86.0897 16.1257C86.0897 12.1384 83.3711 8.69477 79.6556 7.69793C79.565 7.69793 79.4744 7.69793 79.3837 7.60731C79.2025 7.60731 79.0212 7.51669 78.9306 7.51669C78.7494 7.51669 78.6588 7.42607 78.4775 7.42607C78.2963 7.42607 78.115 7.33545 77.9338 7.33545C77.7526 7.33545 77.5713 7.33545 77.3901 7.33545C77.2088 7.33545 77.0276 7.33545 76.8463 7.33545C76.6651 7.33545 76.4839 7.33545 76.3026 7.42607C76.1214 7.42607 76.0308 7.42607 75.8495 7.51669C75.6683 7.51669 75.487 7.60731 75.3964 7.60731C75.3058 7.60731 75.2152 7.60731 75.1245 7.69793C74.8527 7.78855 74.5808 7.78855 74.309 7.87918C74.0371 7.9698 73.8558 7.9698 73.584 8.06042C73.3121 8.15104 73.1309 8.24166 72.859 8.33228C72.7684 8.33228 72.7684 8.33228 72.6778 8.4229H72.5872C72.3153 8.51352 72.134 8.60414 71.9528 8.69477C71.6809 8.78539 71.4997 8.87601 71.3185 8.96663C71.0466 9.05725 70.6841 9.23849 70.4122 9.41973C70.231 9.51036 69.9591 9.6916 69.7779 9.78222C69.506 9.87284 69.3248 10.0541 69.1436 10.1447C68.9623 10.2353 68.6904 10.4166 68.5092 10.5978C68.328 10.6884 68.0561 10.8697 67.8749 11.0509H67.7842C67.603 11.1415 67.3311 11.3228 67.1499 11.504C66.9686 11.6853 66.6968 11.7759 66.5155 11.9571C66.3343 12.1384 66.0624 12.229 65.8812 12.4102C65.6999 12.5915 65.4281 12.7727 65.2468 12.8633C65.0656 13.0446 64.7937 13.2258 64.6125 13.4071C64.4313 13.5883 64.1594 13.7695 63.9781 13.9508C63.7969 14.132 63.525 14.3133 63.3438 14.4945C63.1626 14.6758 62.9813 14.857 62.7094 15.0382C62.5282 15.2195 62.347 15.4007 62.1657 15.582C61.9845 15.7632 61.8032 15.9445 61.622 16.1257C61.4408 16.3069 61.2595 16.4882 61.0783 16.6694C60.897 16.8507 60.7158 17.0319 60.5345 17.3038C60.3533 17.485 60.1721 17.6663 59.9908 17.9381C59.8096 18.1194 59.6283 18.3006 59.4471 18.5725C59.2659 18.7537 59.0846 19.0256 58.9034 19.2068C58.7221 19.3881 58.5409 19.6599 58.3596 19.8412C58.1784 20.0224 57.9972 20.2943 57.8159 20.4755C57.6347 20.6567 57.3628 20.9286 57.1816 21.1099C57.0003 21.2911 56.8191 21.563 56.6378 21.7442C56.4566 21.9254 56.1847 22.1973 56.0035 22.4692C55.8222 22.6504 55.5504 22.9223 55.3691 23.1941C55.1879 23.3754 54.916 23.6472 54.8254 23.9191C54.6442 24.191 54.3723 24.3722 54.1911 24.6441C54.0098 24.8253 53.738 25.0972 53.6473 25.369C53.4661 25.5503 53.2849 25.8221 53.1036 26.0034C52.9224 26.2753 52.6505 26.4565 52.5599 26.7284C52.3786 27.0002 52.1068 27.1815 51.9255 27.4533C51.7443 27.7252 51.4724 27.9064 51.2912 28.1783C51.11 28.4502 50.8381 28.6314 50.6568 28.9033C50.4756 29.1751 50.2037 29.3564 50.0225 29.6282C49.8413 29.9001 49.5694 30.0813 49.3881 30.3532C49.2069 30.6251 48.935 30.8063 48.7538 31.0782C48.5726 31.35 48.3007 31.5313 48.1195 31.8031C47.9382 32.075 47.6664 32.2562 47.4851 32.5281C47.2132 32.8 47.032 32.9812 46.8508 33.2531C46.6695 33.5249 46.3977 33.7062 46.2164 33.978C45.9445 34.2499 45.7633 34.5218 45.5821 34.7936C45.4008 34.9749 45.2196 35.2467 45.0383 35.5186C44.7665 35.7905 44.5852 35.9717 44.404 36.2436C44.1321 36.5154 43.9509 36.6967 43.7696 36.9685C43.5884 37.2404 43.3165 37.4216 43.1353 37.6935C42.9541 37.9654 42.6822 38.1466 42.5009 38.4185C42.2291 38.6903 42.0478 38.8716 41.8666 39.1434C41.5947 39.4153 41.4135 39.5966 41.2323 39.8684C40.9604 40.1403 40.7791 40.3215 40.5979 40.684C40.326 40.9559 40.1448 41.1371 39.9636 41.409C39.7823 41.6808 39.5104 41.8621 39.4198 42.1339C39.2386 42.3152 38.9667 42.587 38.8761 42.8589C38.6949 43.0402 38.423 43.312 38.3324 43.5839C38.1511 43.7651 37.8793 44.037 37.7886 44.3088C37.6074 44.4901 37.3355 44.762 37.2449 45.0338C37.0637 45.2151 36.7918 45.4869 36.7012 45.6682C36.4293 45.8494 36.2481 46.1213 36.0668 46.3931C36.0668 46.3931 36.0668 46.3931 35.9762 46.3931C35.795 46.5744 35.5231 46.8462 35.4325 47.0275L35.3419 47.1181C35.1606 47.2993 34.9794 47.4806 34.8888 47.6618C34.7982 47.7524 34.7982 47.7524 34.7075 47.8431C34.5263 48.0243 34.4357 48.1149 34.345 48.2962C34.2544 48.3868 34.1638 48.4774 34.0732 48.568C33.9826 48.6587 33.8919 48.8399 33.8013 48.9305C33.7107 49.0211 33.5295 49.2024 33.4388 49.293C33.3482 49.3836 33.3482 49.4743 33.2576 49.5649C33.0764 49.7461 32.8951 49.8367 32.8045 50.018L32.7139 50.1086C32.5326 50.2898 32.3514 50.4711 32.1701 50.6523C31.9889 50.8336 31.8077 51.0148 31.6264 51.2867C31.4452 51.4679 31.2639 51.6492 31.0827 51.8304C30.9014 52.0116 30.7202 52.1929 30.539 52.3741C30.3577 52.5554 30.1765 52.7366 29.9952 52.9179C29.814 53.0991 29.6327 53.1897 29.4515 53.4616C29.2703 53.6428 29.089 53.8241 28.9078 54.0053C28.7265 54.1865 28.5453 54.2772 28.3641 54.4584C28.1828 54.6397 28.0016 54.7303 27.8203 54.9115C27.6391 55.0021 27.4578 55.1834 27.2766 55.3646C27.0954 55.4552 26.9141 55.6365 26.7329 55.8177C26.5516 55.9083 26.3704 56.0896 26.1891 56.1802C26.0079 56.2708 25.8267 56.4521 25.736 56.5427C25.5548 56.6333 25.3736 56.8146 25.2829 56.9052C25.1017 56.9958 24.9205 57.0864 24.8298 57.2677C24.6486 57.3583 24.4673 57.4489 24.3767 57.5395C24.2861 57.6301 24.1049 57.7208 24.0142 57.8114C23.833 57.902 23.7424 57.9926 23.5611 58.0833C23.3799 58.1739 23.2893 58.2645 23.108 58.3551C22.9268 58.4457 22.8362 58.5364 22.6549 58.627C22.5643 58.7176 22.4737 58.7176 22.3831 58.7176C22.2018 58.8082 22.1112 58.8082 21.93 58.8988C21.7487 58.9895 21.6581 58.9895 21.4768 59.0801C21.3862 59.0801 21.3862 59.0801 21.3862 59.1707C21.2956 59.1707 21.1144 59.2613 21.0237 59.2613C20.9331 59.2613 20.7519 59.3519 20.6613 59.3519C20.5706 59.3519 20.3894 59.3519 20.2988 59.4426C20.2082 59.4426 20.1175 59.4426 20.1175 59.4426C20.0269 59.4426 20.0269 59.4426 19.9363 59.4426H19.8457C19.6644 59.4426 19.5738 59.4426 19.3926 59.4426C16.6739 59.4426 14.499 61.6175 14.499 64.3361C14.499 67.0547 16.6739 69.139 19.3926 69.139C19.755 69.139 20.1175 69.139 20.48 69.0484C20.6613 69.0484 20.7519 68.9578 20.9331 68.9578C21.205 68.9578 21.4768 68.8672 21.7487 68.7765C22.0206 68.6859 22.2018 68.6859 22.3831 68.5953C22.5643 68.5047 22.7455 68.5047 22.8362 68.4141C23.108 68.3234 23.2893 68.2328 23.5611 68.1422C23.833 68.0516 24.0142 67.961 24.2861 67.8703C24.4673 67.7797 24.6486 67.6891 24.7392 67.5985C24.9205 67.5078 25.1017 67.4172 25.1923 67.3266C25.4642 67.236 25.736 67.0547 26.0079 66.8735C26.1891 66.7829 26.3704 66.6923 26.461 66.6016C26.6423 66.511 26.8235 66.4204 27.0047 66.3298C27.186 66.2391 27.3672 66.1485 27.5485 65.9673C27.8203 65.8767 28.0016 65.6954 28.2734 65.5142C28.4547 65.4236 28.6359 65.2423 28.8172 65.0611C28.9984 64.9705 29.1796 64.7892 29.3609 64.6986C29.5421 64.608 29.7234 64.4267 29.9046 64.2455C30.0859 64.1549 30.2671 63.9736 30.4483 63.7924C30.6296 63.7018 30.8108 63.5205 30.9921 63.3393C31.2639 63.158 31.4452 62.9768 31.6264 62.7955C31.8077 62.6143 31.9889 62.5237 32.1701 62.3424C32.3514 62.1612 32.5326 62.0706 32.7139 61.8893C32.8951 61.7081 33.0764 61.5269 33.2576 61.3456C33.4388 61.1644 33.6201 60.9831 33.8013 60.8019C33.9826 60.6206 34.2544 60.4394 34.4357 60.2582C34.7075 60.0769 34.8888 59.8957 35.07 59.6238C35.2513 59.4426 35.5231 59.2613 35.7044 59.0801C35.8856 58.8988 36.1575 58.7176 36.3387 58.5364C36.52 58.3551 36.7918 58.1739 36.9731 57.9926C37.1543 57.8114 37.4262 57.6301 37.6074 57.4489C37.7886 57.2677 38.0605 57.0864 38.2418 56.8146C38.423 56.6333 38.6949 56.4521 38.8761 56.1802C39.148 55.999 39.3292 55.8177 39.5104 55.5459C39.5104 55.5459 39.5104 55.5459 39.5104 55.4552C39.6917 55.274 39.8729 55.1834 40.0542 55.0021C40.0542 54.9115 40.1448 54.9115 40.1448 54.8209C40.326 54.7303 40.5073 54.549 40.5979 54.3678C40.6885 54.2772 40.6885 54.1865 40.7791 54.1865C40.8698 54.0959 41.051 54.0053 41.1416 53.8241C41.2323 53.7334 41.3229 53.6428 41.4135 53.5522C41.5041 53.4616 41.6854 53.371 41.776 53.2803C41.8666 53.1897 41.9572 53.0085 42.0478 52.9179C42.1385 52.8272 42.2291 52.8272 42.3197 52.7366C42.5009 52.646 42.5916 52.4647 42.6822 52.2835C42.7728 52.1929 42.7728 52.1929 42.8634 52.1023C43.0447 51.921 43.1353 51.7398 43.3165 51.6492L43.4072 51.5585C43.5884 51.3773 43.7696 51.1961 43.9509 51.0148C43.9509 51.0148 44.0415 51.0148 44.0415 50.9242C44.3134 50.7429 44.4946 50.4711 44.6759 50.2898C44.9477 50.1086 45.129 49.8367 45.3102 49.6555C45.5821 49.4743 45.7633 49.2024 45.9445 49.0211C46.2164 48.8399 46.3977 48.568 46.5789 48.3868C46.8508 48.2056 47.032 47.9337 47.2132 47.7524C47.4851 47.5712 47.6663 47.2993 47.8476 47.0275C48.1195 46.8462 48.3007 46.5744 48.4819 46.3931C48.7538 46.2119 48.935 45.94 49.1163 45.7588C49.3881 45.5775 49.5694 45.3057 49.7506 45.1244C50.0225 44.9432 50.2037 44.6713 50.385 44.4901C50.6568 44.3088 50.8381 44.037 51.0193 43.8557C51.2912 43.6745 51.4724 43.4026 51.6537 43.2214C51.9255 43.0402 52.1974 42.7683 52.3786 42.4964C52.6505 42.3152 52.8318 42.0433 53.013 41.8621C53.2849 41.6808 53.4661 41.409 53.738 41.2277C54.0098 41.0465 54.1911 40.7746 54.3723 40.5934C54.6442 40.4121 54.8254 40.1403 55.0067 39.959C55.2785 39.7778 55.4598 39.5059 55.641 39.3247C55.9129 39.1434 56.0941 38.8716 56.2754 38.6903C56.5472 38.5091 56.7285 38.2372 56.9097 38.056C57.1816 37.8748 57.3628 37.6029 57.6347 37.4216C57.9065 37.2404 58.0878 36.9685 58.3596 36.7873C58.6315 36.6061 58.8127 36.4248 58.994 36.153C59.2659 35.9717 59.4471 35.7905 59.6283 35.5186C59.9002 35.3374 60.0814 35.1561 60.2627 34.8843C60.5345 34.703 60.7158 34.5218 60.897 34.3405C61.0783 34.1593 61.3501 33.978 61.5314 33.7968C61.8032 33.6156 61.9845 33.4343 62.1657 33.2531C62.347 33.0718 62.6188 32.8906 62.8001 32.7094C62.9813 32.5281 63.2532 32.3469 63.4344 32.1656C63.6157 31.9844 63.8875 31.8031 64.0688 31.6219C64.25 31.4407 64.5219 31.2594 64.7031 31.0782C64.8844 30.8969 65.1562 30.7157 65.3375 30.6251C65.5187 30.4438 65.7906 30.3532 65.9718 30.172C66.1531 29.9907 66.4249 29.9001 66.6062 29.7189C66.7874 29.5376 66.9686 29.447 67.2405 29.2658C67.4217 29.1751 67.603 28.9939 67.7842 28.8126C67.9655 28.722 68.1467 28.5408 68.328 28.3595C68.5092 28.2689 68.6904 28.0877 68.8717 27.9971C69.0529 27.9064 69.2342 27.7252 69.4154 27.6346C69.5967 27.5439 69.7779 27.3627 69.9591 27.2721C70.1404 27.1815 70.3216 27.0908 70.5029 26.9096C70.6841 26.819 70.8654 26.7284 71.0466 26.6377C71.2278 26.5471 71.4091 26.4565 71.4997 26.3659C71.6809 26.2753 71.8622 26.1846 71.9528 26.094C72.134 26.0034 72.2247 25.9128 72.4059 25.8221C72.5872 25.7315 72.6778 25.6409 72.859 25.6409C72.9496 25.5503 73.0403 25.5503 73.1309 25.4597C73.3121 25.369 73.4027 25.369 73.584 25.2784C73.7652 25.1878 73.8558 25.1878 73.9465 25.0972C74.0371 25.0972 74.2183 25.0066 74.309 25.0066C74.3996 25.0066 74.3996 25.0066 74.3996 24.9159C74.4902 24.9159 74.4902 24.9159 74.5808 24.8253C74.6714 24.8253 74.6714 24.8253 74.7621 24.7347L75.6683 24.6441Z" fill="url(#paint3_linear)"/>
<path d="M79.2033 24.7359C79.2939 24.7359 79.2939 24.7359 79.2939 24.7359C79.3845 24.7359 79.3845 24.7359 79.4751 24.8265C79.5657 24.8265 79.5657 24.8265 79.6564 24.9171C79.747 24.9171 79.747 24.9171 79.747 25.0077C79.8376 25.0984 80.0188 25.0984 80.1095 25.0984C80.2001 25.189 80.3813 25.189 80.472 25.2796C80.5626 25.3702 80.7438 25.3702 80.8344 25.4609C80.925 25.5515 81.0157 25.5515 81.1063 25.6421C81.2875 25.7327 81.3782 25.8233 81.5594 25.8233C81.7406 25.914 81.8313 26.0046 82.0125 26.0952C82.1937 26.1858 82.2844 26.2764 82.4656 26.3671C82.6469 26.4577 82.8281 26.5483 82.9187 26.6389C83.1 26.7295 83.2812 26.8202 83.3718 26.9108C83.5531 27.0014 83.7343 27.1827 83.9155 27.2733C84.0968 27.3639 84.278 27.5451 84.4593 27.6358C84.6405 27.7264 84.8218 27.9076 85.003 27.9982C85.1842 28.1795 85.3655 28.2701 85.5467 28.3607C85.728 28.542 85.9092 28.6326 86.0905 28.8138C86.2717 28.9951 86.4529 29.0857 86.7248 29.2669C86.906 29.4482 87.0873 29.5388 87.3591 29.72C87.5404 29.9013 87.7216 30.0825 87.9935 30.1732C88.1747 30.3544 88.356 30.5356 88.6278 30.6263C88.8091 30.8075 88.9903 30.9887 89.2622 31.0794C89.4434 31.2606 89.6247 31.4418 89.8965 31.6231C90.0778 31.8043 90.259 31.9856 90.5309 32.1668C90.7121 32.3481 90.8934 32.5293 91.1652 32.7105C91.3465 32.8918 91.5277 33.073 91.7996 33.2543C91.9808 33.4355 92.2527 33.6168 92.4339 33.798C92.6152 33.9792 92.887 34.1605 93.0683 34.3417C93.2495 34.523 93.5214 34.7042 93.7026 34.8855C93.8839 35.0667 94.1557 35.3386 94.337 35.5198C94.5182 35.701 94.7901 35.9729 94.9713 36.1542C95.1526 36.3354 95.4244 36.6073 95.6057 36.7885C95.7869 37.0604 96.0588 37.2416 96.24 37.4228C96.4213 37.6947 96.6931 37.876 96.965 38.0572C97.1462 38.3291 97.4181 38.5103 97.5993 38.6915C97.7806 38.9634 98.0524 39.1446 98.2337 39.3259C98.4149 39.5978 98.6868 39.779 98.868 39.9602C99.0493 40.2321 99.3211 40.4133 99.5024 40.5946C99.6836 40.8664 99.9555 41.0477 100.137 41.2289C100.318 41.5008 100.59 41.682 100.771 41.8633C100.952 42.1351 101.224 42.3164 101.405 42.4976C101.587 42.7695 101.859 43.0414 102.13 43.2226C102.312 43.4945 102.583 43.6757 102.765 43.8569C102.946 44.1288 103.218 44.3101 103.399 44.4913C103.58 44.7632 103.852 44.9444 104.033 45.1256C104.215 45.3975 104.487 45.5788 104.668 45.76C104.849 46.0319 105.121 46.2131 105.302 46.3943C105.483 46.6662 105.755 46.8474 105.936 47.0287C106.118 47.3005 106.39 47.4818 106.571 47.7537C106.752 48.0255 107.024 48.2068 107.205 48.388C107.386 48.6599 107.658 48.8411 107.84 49.0224C108.021 49.2942 108.293 49.4755 108.474 49.6567C108.655 49.9286 108.836 50.1098 109.108 50.2911C109.289 50.5629 109.471 50.7442 109.743 50.9254C109.743 50.9254 109.743 50.9254 109.833 51.016C110.014 51.1973 110.196 51.3785 110.377 51.5597L110.468 51.6504C110.558 51.8316 110.739 52.0129 110.921 52.1035C111.011 52.1941 111.102 52.1941 111.102 52.2847C111.192 52.466 111.374 52.5566 111.464 52.7378C111.555 52.8284 111.646 52.9191 111.736 52.9191C111.827 53.0097 111.917 53.1909 112.008 53.2815C112.099 53.3722 112.28 53.4628 112.371 53.5534C112.461 53.644 112.552 53.7346 112.642 53.8253C112.733 53.9159 112.914 54.0971 113.096 54.1878C113.186 54.2784 113.186 54.369 113.277 54.369C113.458 54.5502 113.549 54.6409 113.73 54.8221C113.73 54.9127 113.82 54.9127 113.82 55.0033C114.002 55.1846 114.183 55.3658 114.364 55.4565C114.364 55.4565 114.364 55.4565 114.364 55.5471C114.545 55.8189 114.817 56.0002 114.999 56.1814C115.18 56.3627 115.361 56.6345 115.633 56.8158C115.814 56.997 115.995 57.2689 116.267 57.4501C116.449 57.6314 116.63 57.9032 116.902 57.9939C117.083 58.1751 117.264 58.447 117.536 58.5376C117.717 58.7188 117.898 58.9001 118.17 59.0813C118.352 59.2625 118.533 59.4438 118.714 59.625C118.895 59.8969 119.167 60.0781 119.348 60.2594C119.53 60.4406 119.711 60.6219 119.983 60.8031C120.164 60.9843 120.345 61.1656 120.526 61.3468C120.708 61.5281 120.889 61.7093 121.07 61.8906C121.251 62.0718 121.433 62.253 121.614 62.3437C121.795 62.5249 121.976 62.7061 122.158 62.7968C122.339 62.978 122.611 63.1593 122.792 63.3405C122.973 63.5217 123.154 63.703 123.336 63.7936C123.517 63.9748 123.698 64.0655 123.879 64.2467C124.061 64.428 124.242 64.5186 124.423 64.6998C124.604 64.8811 124.786 64.9717 124.967 65.0623C125.148 65.2435 125.329 65.3342 125.511 65.5154C125.692 65.6966 125.964 65.8779 126.236 65.9685C126.417 66.0591 126.598 66.2404 126.779 66.331C126.961 66.4216 127.142 66.5122 127.323 66.6029C127.504 66.6935 127.686 66.7841 127.776 66.8747C128.048 67.056 128.32 67.2372 128.592 67.3278C128.773 67.4184 128.954 67.5091 129.045 67.5997C129.226 67.6903 129.317 67.7809 129.498 67.8716C129.679 67.9622 129.951 68.0528 130.223 68.1434C130.404 68.234 130.676 68.3247 130.948 68.4153C131.129 68.5059 131.22 68.5059 131.401 68.5965C131.582 68.6871 131.854 68.7778 132.035 68.7778C132.307 68.8684 132.579 68.959 132.851 68.959C133.032 68.959 133.123 69.0496 133.304 69.0496C133.667 69.1402 134.029 69.1402 134.391 69.1402C137.11 69.1402 139.285 66.9653 139.285 64.3373C139.285 61.6187 137.11 59.4438 134.391 59.4438C134.21 59.4438 134.12 59.4438 133.938 59.4438H133.848C133.757 59.4438 133.757 59.4438 133.667 59.4438C133.576 59.4438 133.576 59.4438 133.485 59.4438C133.395 59.4438 133.213 59.3532 133.123 59.3532C133.032 59.3532 132.851 59.2625 132.76 59.2625C132.67 59.1719 132.488 59.1719 132.398 59.1719C132.398 59.1719 132.307 59.1719 132.307 59.0813C132.217 58.9907 132.035 58.9907 131.854 58.9001C131.673 58.8094 131.582 58.8094 131.401 58.7188C131.31 58.6282 131.22 58.6282 131.129 58.6282C130.948 58.5376 130.857 58.447 130.676 58.3563C130.495 58.2657 130.404 58.1751 130.223 58.0845C130.042 57.9939 129.951 57.9032 129.77 57.8126C129.679 57.722 129.498 57.6314 129.407 57.5407C129.226 57.4501 129.135 57.3595 128.954 57.2689C128.773 57.1783 128.682 56.997 128.501 56.9064C128.32 56.8158 128.229 56.6345 128.048 56.5439C127.867 56.4533 127.776 56.272 127.595 56.1814C127.414 56.0002 127.232 55.9096 127.051 55.8189C126.87 55.6377 126.689 55.5471 126.507 55.3658C126.326 55.1846 126.145 55.094 125.964 54.9127C125.782 54.7315 125.601 54.5502 125.42 54.4596C125.239 54.2784 125.058 54.0971 124.876 54.0065C124.695 53.8253 124.514 53.644 124.333 53.4628C124.151 53.2816 123.97 53.1003 123.789 52.9191C123.608 52.7378 123.426 52.5566 123.245 52.3753C123.064 52.1941 122.883 52.0129 122.701 51.8316C122.52 51.6504 122.339 51.4691 122.158 51.2879C121.976 51.1066 121.795 50.8348 121.614 50.6535C121.433 50.4723 121.251 50.2004 121.07 50.1098L120.98 50.0192C120.798 49.8379 120.617 49.6567 120.526 49.5661C120.436 49.4755 120.436 49.3848 120.345 49.2942C120.255 49.113 120.073 49.0224 119.983 48.9317C119.892 48.8411 119.801 48.6599 119.711 48.5692C119.62 48.4786 119.53 48.388 119.439 48.2974C119.348 48.1161 119.167 47.9349 119.077 47.8443C118.986 47.7537 118.986 47.7537 118.895 47.663C118.714 47.4818 118.623 47.3006 118.442 47.1193L118.352 47.0287C118.17 46.7568 117.989 46.5756 117.808 46.3943C117.627 46.1225 117.445 45.9412 117.173 45.6694C116.992 45.3975 116.811 45.2163 116.63 45.035C116.449 44.7632 116.267 44.5819 116.086 44.3101C115.905 44.0382 115.724 43.8569 115.542 43.5851C115.361 43.3132 115.18 43.132 114.999 42.8601C114.817 42.5882 114.636 42.407 114.455 42.1352C114.274 41.8633 114.092 41.682 113.911 41.4102C113.73 41.1383 113.549 40.8664 113.277 40.6852C113.096 40.4133 112.914 40.1415 112.642 39.8696C112.461 39.5978 112.28 39.3259 112.008 39.1446C111.827 38.8728 111.646 38.6009 111.374 38.4197C111.192 38.1478 111.011 37.876 110.739 37.6947C110.558 37.4228 110.377 37.151 110.105 36.9697C109.924 36.6979 109.743 36.426 109.471 36.2448C109.289 35.9729 109.108 35.701 108.836 35.5198C108.655 35.2479 108.474 35.0667 108.293 34.7948C108.111 34.523 107.93 34.2511 107.658 33.9792C107.477 33.7074 107.296 33.4355 107.024 33.2543C106.843 32.9824 106.661 32.7105 106.39 32.5293C106.208 32.2574 106.027 31.9856 105.755 31.8043C105.574 31.5325 105.393 31.2606 105.121 31.0794C104.94 30.8075 104.758 30.5356 104.487 30.3544C104.305 30.0825 104.124 29.8107 103.852 29.6294C103.671 29.3576 103.49 29.0857 103.218 28.9045C103.037 28.6326 102.855 28.3607 102.583 28.1795C102.402 27.9076 102.221 27.6358 101.949 27.4545C101.768 27.1827 101.587 26.9108 101.315 26.7295C101.134 26.4577 100.952 26.2764 100.68 26.0046C100.499 25.7327 100.318 25.5515 100.137 25.3702C99.9555 25.0984 99.7742 24.9171 99.593 24.6453C99.4118 24.3734 99.2305 24.1922 98.9586 23.9203C98.7774 23.6484 98.5962 23.4672 98.3243 23.1953C98.1431 22.9235 97.9618 22.7422 97.69 22.4704C97.5087 22.1985 97.3275 22.0173 97.1462 21.7454C96.965 21.4735 96.7837 21.2923 96.5119 21.111C96.3306 20.8392 96.1494 20.6579 95.9682 20.4767C95.7869 20.2048 95.6057 20.0236 95.3338 19.8423C95.1526 19.5705 94.9713 19.3892 94.7901 19.208C94.6088 19.0268 94.4276 18.7549 94.2463 18.5736C94.0651 18.3924 93.8839 18.1205 93.7026 17.9393C93.5214 17.7581 93.3401 17.4862 93.1589 17.305C92.9777 17.1237 92.7964 16.8518 92.6152 16.6706C92.4339 16.4894 92.2527 16.3081 92.0714 16.1269C91.8902 15.9456 91.709 15.7644 91.5277 15.5831C91.3465 15.4019 91.1652 15.2207 90.984 15.0394C90.8027 14.8582 90.6215 14.6769 90.3496 14.4957C90.1684 14.3145 89.9872 14.1332 89.7153 13.952C89.5341 13.7707 89.3528 13.5895 89.081 13.4082C88.8997 13.227 88.7185 13.0458 88.4466 12.8645C88.2654 12.6833 88.0841 12.502 87.8123 12.4114C87.631 12.2302 87.4498 12.0489 87.1779 11.9583C86.9967 11.7771 86.8154 11.5958 86.5436 11.5052C86.3623 11.324 86.1811 11.2333 85.9092 11.0521C85.9092 11.0521 85.9092 11.0521 85.8186 11.0521C85.6373 10.8708 85.3655 10.7802 85.1842 10.599C85.003 10.4177 84.7311 10.3271 84.5499 10.1459C84.3687 9.96464 84.0968 9.87402 83.9155 9.7834C83.7343 9.69277 83.4624 9.51153 83.2812 9.42091C83.0093 9.23967 82.7375 9.14905 82.375 8.96781C82.1937 8.87718 81.9219 8.78656 81.7406 8.69594C81.5594 8.60532 81.2875 8.5147 81.1063 8.42408H81.0157C80.9251 8.42408 80.925 8.33346 80.8344 8.33346C81.5594 8.33346 81.3782 8.24284 81.1063 8.15221C80.8344 8.06159 80.6532 7.97097 80.3813 7.97097C80.1095 7.88035 79.8376 7.78973 79.5657 7.78973C79.4751 7.78973 79.3845 7.78973 79.2939 7.69911C79.1126 7.69911 78.9314 7.60849 78.8408 7.60849C78.6595 7.60849 78.5689 7.51787 78.3877 7.51787C78.2064 7.51787 78.0252 7.42725 77.8439 7.42725C77.6627 7.42725 77.4815 7.42725 77.3002 7.42725C77.119 7.42725 76.9377 7.42725 76.7565 7.42725C76.5752 7.42725 76.394 7.42725 76.2128 7.51787C76.0315 7.51787 75.9409 7.51787 75.7597 7.60849C75.5784 7.60849 75.3972 7.69911 75.3065 7.69911C75.2159 7.69911 75.1253 7.69911 75.0347 7.78973C71.3192 8.78656 68.6006 12.2302 68.6006 16.2175C68.6006 20.4767 71.6817 24.0109 75.7597 24.7359C76.3034 24.6453 76.8471 24.5546 77.3908 24.5546C77.9346 24.5546 78.4783 24.6453 79.022 24.7359H79.2033Z" fill="url(#paint4_linear)"/>
<path d="M77.4808 48.2099C77.3902 48.3005 77.2995 48.3005 77.2995 48.3911C77.2089 48.3005 77.1183 48.3005 77.1183 48.2099C77.0277 48.1193 76.8464 47.938 76.7558 47.8474C76.6652 47.7568 76.484 47.5755 76.3933 47.4849C76.3027 47.3943 76.1215 47.213 76.0308 47.1224C75.9402 47.0318 75.759 46.8506 75.6684 46.7599C75.5777 46.5787 75.3965 46.4881 75.3059 46.3068C75.2153 46.1256 75.034 46.035 74.9434 45.8537C74.8528 45.6725 74.6715 45.5819 74.5809 45.4006C74.4903 45.2194 74.309 45.1288 74.2184 44.9475C74.1278 44.7663 73.9466 44.585 73.8559 44.4944C73.7653 44.3132 73.5841 44.1319 73.4935 44.0413C73.4935 43.9507 73.4028 43.9507 73.4028 43.9507C74.3997 45.1288 75.9402 45.8537 77.5714 45.8537C79.2026 45.8537 80.7431 45.1288 81.74 43.9507C81.6494 44.0413 81.6494 44.0413 81.6494 44.1319C81.5587 44.3132 81.3775 44.4944 81.2869 44.585C81.1962 44.7663 81.015 44.8569 80.9244 45.0381C80.8338 45.2194 80.6525 45.31 80.5619 45.4912C80.4713 45.5819 80.29 45.7631 80.1994 45.9443C80.1088 46.035 79.9276 46.2162 79.8369 46.3975C79.7463 46.4881 79.5651 46.6693 79.4744 46.8506C79.3838 46.9412 79.2026 47.1224 79.112 47.213C79.0213 47.3037 78.8401 47.4849 78.7495 47.5755C78.6589 47.6661 78.4776 47.8474 78.387 47.938C77.7526 48.0286 77.5714 48.1193 77.4808 48.2099Z" fill="#E69E44"/>
<path d="M85.9983 58.6319C85.9983 61.0787 85.0014 63.3442 83.2796 64.9754C82.4641 65.791 81.4672 66.3347 80.4704 66.7878C80.3798 66.8784 80.1985 66.8784 80.1079 66.8784C79.7454 67.0597 79.3829 67.1503 79.0204 67.1503C78.8392 67.1503 78.7486 67.2409 78.5673 67.2409C78.3861 67.2409 78.2955 67.3315 78.1142 67.3315C77.8424 67.3315 77.4799 67.4221 77.208 67.4221C76.9362 67.4221 76.5737 67.4221 76.3018 67.3315C76.1206 67.3315 76.0299 67.3315 75.8487 67.2409C75.6675 67.2409 75.5768 67.2409 75.3956 67.1503C75.1237 67.0597 74.8519 67.0597 74.58 66.969C74.3988 66.8784 74.2175 66.8784 74.0363 66.7878C73.0394 66.4253 72.1332 65.791 71.4083 65.1566C71.3176 65.066 71.3176 65.066 71.227 64.9754C71.0458 64.8848 70.9552 64.7035 70.7739 64.6129C70.5021 64.4316 70.3208 64.1598 70.049 63.9785C69.8677 63.7973 69.6865 63.6161 69.5052 63.4348C69.324 63.2536 69.1427 63.0723 68.9615 62.8911C68.7803 62.7099 68.599 62.5286 68.4178 62.2567C68.2365 62.0755 68.0553 61.8943 67.874 61.6224L67.7834 61.5318C67.6022 61.3505 67.4209 61.1693 67.3303 60.8974C67.1491 60.7162 66.9678 60.4443 66.8772 60.2631C66.696 60.0818 66.5147 59.81 66.4241 59.6287C66.2429 59.4475 66.0616 59.1756 65.971 58.9944C65.7898 58.8131 65.6991 58.5413 65.5179 58.36C65.3367 58.1788 65.246 57.9069 65.0648 57.7257C64.8835 57.5444 64.7929 57.2726 64.6117 57.0913C64.4304 56.9101 64.3398 56.6382 64.1586 56.457C63.9773 56.2757 63.8867 56.0039 63.7961 55.732C63.6148 55.5508 63.5242 55.2789 63.4336 55.007C63.2524 54.8258 63.1617 54.5539 63.0711 54.2821C62.8899 54.0102 62.7993 53.829 62.7086 53.5571C62.618 53.3759 62.4368 53.104 62.3462 52.8321C62.2555 52.5603 62.0743 52.379 61.9837 52.1072C61.893 51.8353 61.7118 51.6541 61.6212 51.3822C61.5306 51.1103 61.3493 50.9291 61.2587 50.6572C61.1681 50.3854 60.9868 50.2041 60.8962 49.9323C60.8056 49.6604 60.6244 49.4792 60.5337 49.2073C60.4431 48.9354 60.2619 48.7542 60.1712 48.4823C60.0806 48.2105 59.8994 48.0292 59.8088 47.7574C59.7181 47.4855 59.6275 47.3042 59.5369 47.0324C59.4463 46.7605 59.3557 46.5793 59.265 46.3074C59.1744 46.0356 59.0838 45.8543 58.9932 45.5824C58.9025 45.3106 58.8119 45.1293 58.7213 44.8575C58.6307 44.5856 58.5401 44.4044 58.4494 44.1325C58.3588 43.8606 58.2682 43.5888 58.1776 43.4075C58.087 43.1357 57.9963 42.8638 57.9057 42.5919C57.8151 42.3201 57.7245 42.0482 57.6339 41.7764C57.5432 41.5045 57.4526 41.2326 57.362 40.9608C57.2714 40.6889 57.1807 40.417 57.0901 40.1452C56.9995 39.8733 56.9089 39.6014 56.8183 39.3296C56.7276 39.0577 56.637 38.7859 56.5464 38.514C56.4558 38.2421 56.3652 37.9703 56.2745 37.6984C56.1839 37.4265 56.0933 37.2453 56.0027 36.9734C55.912 36.7016 55.8214 36.5203 55.7308 36.2485C55.6402 35.9766 55.5496 35.7047 55.4589 35.4329C55.3683 35.161 55.2777 34.8891 55.1871 34.6173C55.0965 34.3454 55.0058 34.0736 54.9152 33.8017C54.8246 33.5298 54.734 33.3486 54.6434 33.0767C54.5527 32.8049 54.4621 32.6236 54.3715 32.3518C54.2809 32.0799 54.1902 31.808 54.0996 31.5362C54.009 31.3549 53.9184 31.0831 53.9184 30.9018C53.8278 30.63 53.7371 30.4487 53.6465 30.1768C53.5559 29.905 53.4653 29.7237 53.3747 29.4519C53.284 29.18 53.1934 28.9988 53.1028 28.7269C53.0122 28.455 52.9215 28.2738 52.8309 28.0019C52.7403 27.8207 52.6497 27.5488 52.6497 27.3676C52.5591 27.0957 52.4684 26.9145 52.3778 26.6426C52.2872 26.3708 52.1966 26.1895 52.106 25.9177C52.0153 25.6458 51.9247 25.4646 51.8341 25.1927C51.7435 25.0114 51.6529 24.8302 51.6529 24.5583C51.5622 24.3771 51.4716 24.1052 51.381 23.8334C51.2904 23.6521 51.1997 23.3803 51.1091 23.199C51.0185 23.0178 50.9279 22.7459 50.8373 22.5647C50.7466 22.3834 50.656 22.1116 50.5654 21.9303C50.4748 21.7491 50.3842 21.5678 50.3842 21.296C50.2935 21.1147 50.2029 20.8429 50.1123 20.6616C50.0217 20.4804 49.9311 20.2085 49.8404 20.0273C49.7498 19.846 49.6592 19.5742 49.5686 19.3929C49.4779 19.2117 49.3873 19.0304 49.2967 18.7586C49.2061 18.5773 49.1155 18.3961 49.0248 18.1242C48.9342 17.943 48.8436 17.7617 48.8436 17.6711C48.753 17.4899 48.6624 17.3086 48.5717 17.1274C48.4811 16.9462 48.3905 16.7649 48.2999 16.5837C48.2092 16.4024 48.1186 16.2212 48.028 16.0399C47.9374 15.8587 47.8468 15.6775 47.7561 15.4962C47.6655 15.315 47.5749 15.1337 47.4843 14.9525C47.3937 14.8619 47.3937 14.6806 47.303 14.59C47.2124 14.4088 47.1218 14.3181 47.1218 14.1369C47.1218 14.0463 47.0312 14.0463 47.0312 13.9557C46.9406 13.865 46.9406 13.7744 46.8499 13.5932C46.7593 13.5026 46.7593 13.4119 46.6687 13.3213C46.6687 13.2307 46.5781 13.1401 46.5781 13.1401C46.4874 13.0494 46.3968 12.8682 46.3062 12.7776V12.687C46.3062 12.5963 46.2156 12.5963 46.2156 12.5057C46.125 12.4151 46.0343 12.2339 45.9437 12.1432C45.8531 12.0526 45.7625 11.8714 45.6719 11.7808C45.5812 11.6901 45.4906 11.5089 45.4 11.4183L45.3094 11.3276C45.2188 11.237 45.1281 11.1464 45.0375 10.9652C44.9469 10.8745 44.8563 10.7839 44.7656 10.6933C44.675 10.6027 44.5844 10.5121 44.4938 10.4214C44.4032 10.3308 44.3125 10.2402 44.2219 10.1496C44.1313 10.059 44.0407 10.0589 43.9501 9.96833C43.8594 9.96833 43.8594 9.87771 43.7688 9.87771C43.7688 9.87771 43.6782 9.87771 43.6782 9.78709C43.6782 9.78709 43.6782 9.78709 43.5876 9.78709C43.4969 9.78709 43.3157 9.78709 43.2251 9.78709C40.5065 9.78709 38.3315 7.61218 38.3315 4.89354C38.3315 2.17491 40.5065 0 43.2251 0C43.5876 0 43.9501 0.0906212 44.3125 0.0906212C44.4938 0.0906212 44.675 0.181242 44.7656 0.181242C45.0375 0.271864 45.3094 0.271863 45.5812 0.453106C45.6719 0.453106 45.8531 0.543727 45.9437 0.543727C46.2156 0.634348 46.5781 0.815591 46.8499 0.906212C46.9406 0.996833 47.0312 0.996833 47.1218 1.08745C47.3937 1.2687 47.6655 1.35932 47.9374 1.54056C48.2093 1.90304 48.2999 1.90304 48.3905 1.99367C48.4811 2.08429 48.5717 2.17491 48.6624 2.26553C48.9342 2.44677 49.2061 2.62801 49.3873 2.80926C49.4779 2.89988 49.5686 2.9905 49.6592 3.08112C49.7498 3.17174 49.8404 3.26236 49.9311 3.35298C50.1123 3.53423 50.2935 3.71547 50.4748 3.98733C50.5654 4.07795 50.7466 4.25919 50.8373 4.34982C50.9279 4.44044 51.0185 4.53106 51.1091 4.7123C51.1997 4.80292 51.2904 4.98416 51.381 5.07479C51.5622 5.25603 51.6529 5.43727 51.8341 5.70913C51.9247 5.89038 52.106 5.981 52.1966 6.16224C52.2872 6.25286 52.3778 6.4341 52.4684 6.52472C52.5591 6.61535 52.6497 6.79659 52.7403 6.88721C52.8309 6.97783 52.9216 7.15907 53.0122 7.34031C53.1934 7.52156 53.284 7.7028 53.3747 7.97466C53.4653 8.06528 53.6465 8.24653 53.7371 8.42777C53.7371 8.42777 53.7371 8.42777 53.7371 8.51839C53.8278 8.60901 53.9184 8.69963 53.9184 8.79025C53.9184 8.88087 53.9184 8.88087 54.009 8.9715C54.0996 9.06212 54.0996 9.15274 54.1902 9.24336C54.2809 9.33398 54.2809 9.4246 54.2809 9.4246C54.2809 9.4246 54.3715 9.51522 54.3715 9.60584C54.4621 9.69647 54.4621 9.78709 54.4621 9.87771C54.4621 9.96833 54.5527 9.96833 54.5527 9.96833C54.6434 10.0589 54.6434 10.2402 54.734 10.3308C54.734 10.3308 54.734 10.3308 54.8246 10.4214C54.9152 10.6027 55.0058 10.7839 55.0965 10.9652C55.2777 11.237 55.3683 11.4183 55.4589 11.6901C55.5496 11.8714 55.6402 12.0526 55.7308 12.2339C55.8214 12.4151 55.912 12.5963 56.0027 12.7776C56.0933 12.9588 56.1839 13.1401 56.2745 13.3213C56.3652 13.5026 56.4558 13.6838 56.5464 13.865C56.637 14.0463 56.7276 14.2275 56.8183 14.4088C56.9089 14.59 56.9995 14.7713 57.0901 14.9525C57.2714 15.2244 57.362 15.4962 57.4526 15.7681C57.5432 15.9493 57.6339 16.1306 57.7245 16.4024C57.8151 16.5837 57.9057 16.7649 57.9963 17.0368C58.087 17.218 58.1776 17.3993 58.2682 17.6711C58.3588 17.8524 58.4494 18.1242 58.5401 18.3055C58.6307 18.4867 58.7213 18.7586 58.8119 18.9398C58.9025 19.1211 58.9932 19.3929 59.0838 19.5742C59.1744 19.7554 59.3557 20.0273 59.3557 20.2085C59.4463 20.3898 59.5369 20.6616 59.6275 20.8429C59.8088 21.1147 59.8994 21.3866 60.0806 21.6585C60.1712 21.8397 60.3525 22.1116 60.3525 22.2928C60.4431 22.4741 60.6244 22.7459 60.6244 22.9272C60.715 23.1084 60.8962 23.3803 60.9868 23.5615C61.0775 23.7427 61.2587 24.0146 61.3493 24.1959C61.4399 24.3771 61.6212 24.649 61.7118 24.8302C61.8024 25.0114 61.9837 25.2833 62.0743 25.4645C62.1649 25.6458 62.3462 25.9177 62.4368 26.0989C62.5274 26.2801 62.7086 26.552 62.7993 26.7332C62.8899 26.9145 63.0711 27.1864 63.1617 27.3676C63.343 27.6395 63.4336 27.9113 63.5242 28.1832C63.6148 28.3644 63.7961 28.6363 63.8867 28.8175C63.9773 28.9988 64.1586 29.2706 64.2492 29.5425C64.4304 29.7237 64.5211 29.9956 64.6117 30.2675C64.7929 30.5393 64.8835 30.7206 64.9742 30.9924C65.0648 31.2643 65.246 31.4455 65.3366 31.7174C65.4273 31.8987 65.6085 32.1705 65.6991 32.3518C65.7898 32.533 65.971 32.8049 66.0616 32.9861C66.1522 33.1673 66.3335 33.4392 66.4241 33.6205C66.5147 33.8017 66.696 34.0736 66.7866 34.2548C66.8772 34.436 67.0585 34.7079 67.1491 34.8891C67.2397 35.0704 67.4209 35.3423 67.5116 35.5235C67.6928 35.7047 67.7834 35.9766 67.874 36.1578C68.0553 36.3391 68.1459 36.611 68.2365 36.7922C68.4178 36.9734 68.5084 37.2453 68.599 37.4265C68.7803 37.6078 68.8709 37.8796 68.9615 38.0609C69.1427 38.2421 69.2334 38.4234 69.324 38.6952C69.5052 38.8765 69.5958 39.0577 69.6865 39.3296C69.8677 39.5108 69.9583 39.6921 70.049 39.9639C70.1396 40.1452 70.3208 40.3264 70.4114 40.5077C70.5927 40.6889 70.6833 40.8701 70.7739 41.0514C70.9552 41.2326 71.0458 41.4139 71.1364 41.5951C71.227 41.7764 71.4083 41.9576 71.4989 42.1388C71.6801 42.3201 71.7708 42.5013 71.8614 42.6826C71.952 42.7732 71.952 42.8638 72.0426 42.9544C72.1332 43.0451 72.2239 43.2263 72.3145 43.3169C72.4051 43.4075 72.4957 43.4982 72.4957 43.5888C72.4957 43.6794 72.5863 43.6794 72.5863 43.6794C72.7676 43.8606 72.8582 44.0419 72.9488 44.1325C73.1301 44.3137 73.2207 44.4044 73.3113 44.5856C73.4019 44.7669 73.5832 44.8575 73.6738 45.0387C73.7644 45.1293 73.9457 45.3106 74.0363 45.4918C74.1269 45.5824 74.3081 45.7637 74.3988 45.9449C74.4894 46.0355 74.6706 46.2168 74.7612 46.398C74.8519 46.4887 75.0331 46.6699 75.1237 46.7605C75.2144 46.8511 75.3956 47.0324 75.4862 47.123C75.5768 47.2136 75.7581 47.3949 75.8487 47.4855C75.9393 47.5761 76.1206 47.6667 76.2112 47.848C76.3018 47.9386 76.3924 47.9386 76.3924 48.0292C76.3924 48.0292 76.3924 48.0292 76.4831 48.0292C76.5737 48.1198 76.7549 48.2105 76.8455 48.3011C76.9362 48.3917 77.1174 48.4823 77.208 48.5729C77.2986 48.6636 77.4799 48.7542 77.5705 48.8448C77.6611 48.9354 77.8424 49.0261 77.933 49.1167C78.0236 49.1167 78.0236 49.2073 78.1142 49.2073C78.2049 49.2979 78.3861 49.3885 78.4767 49.4792C78.5673 49.5698 78.7486 49.5698 78.8392 49.6604C78.9298 49.751 79.1111 49.751 79.2017 49.8416C79.2017 49.8416 79.2923 49.8416 79.2923 49.9323C79.3829 50.0229 79.4736 50.0229 79.6548 50.1135C79.9267 50.2041 80.1985 50.3854 80.4704 50.476C84.0952 52.379 85.9983 55.2789 85.9983 58.6319Z" fill="url(#paint5_linear)"/>
<defs>
<linearGradient id="paint0_linear" x1="77.5989" y1="59.5545" x2="110.086" y2="2.86066" gradientUnits="userSpaceOnUse">
<stop offset="0.2076" stop-color="#E69E44"/>
<stop offset="0.8846" stop-color="#D65A97"/>
</linearGradient>
<linearGradient id="paint1_linear" x1="18.0488" y1="63.4351" x2="42.116" y2="3.61537" gradientUnits="userSpaceOnUse">
<stop offset="0.0940493" stop-color="#89BE5C"/>
<stop offset="0.9379" stop-color="#DFE24B"/>
</linearGradient>
<linearGradient id="paint2_linear" x1="110.613" y1="4.39835" x2="137.368" y2="63.6413" gradientUnits="userSpaceOnUse">
<stop offset="0.0975787" stop-color="#D7569C"/>
<stop offset="0.8825" stop-color="#505AA2"/>
</linearGradient>
<linearGradient id="paint3_linear" x1="20.7939" y1="63.7982" x2="78.7619" y2="13.7929" gradientUnits="userSpaceOnUse">
<stop offset="0.0771813" stop-color="#89BE5C"/>
<stop offset="0.8607" stop-color="#6CA2DA"/>
</linearGradient>
<linearGradient id="paint4_linear" x1="77.4965" y1="15.3592" x2="136.422" y2="65.0478" gradientUnits="userSpaceOnUse">
<stop offset="0.1043" stop-color="#6CA2DA"/>
<stop offset="0.8934" stop-color="#505AA2"/>
</linearGradient>
<linearGradient id="paint5_linear" x1="43.9104" y1="4.119" x2="77.1155" y2="59.6999" gradientUnits="userSpaceOnUse">
<stop offset="0.0788176" stop-color="#DFE24B"/>
<stop offset="0.8168" stop-color="#E69E44"/>
</linearGradient>
</defs>
</svg>
