<svg width="133" height="100" viewBox="0 0 133 100" fill="none" xmlns="http://www.w3.org/2000/svg">
<path d="M11.6177 97.683L11.9275 97.0633C12.3148 97.4506 13.0893 97.7604 13.7864 97.7604C14.7933 97.7604 15.1806 97.3732 15.1806 96.831C15.1806 95.3593 11.6951 96.2888 11.6951 94.12C11.6951 93.1906 12.3922 92.416 13.8639 92.416C14.561 92.416 15.2581 92.5709 15.7228 92.9582L15.4904 93.6553C15.0257 93.3455 14.4061 93.1906 13.9413 93.1906C12.9344 93.1906 12.5471 93.5779 12.5471 94.12C12.5471 95.5917 16.0326 94.6622 16.0326 96.831C16.0326 97.7604 15.3355 98.535 13.7864 98.535C12.9344 98.3801 12.0824 98.0703 11.6177 97.683Z" fill="#4C4C4C"/>
<path d="M21.6096 96.0502C21.6096 97.4444 20.6801 98.3739 19.4409 98.3739C18.8212 98.3739 18.279 98.1415 17.8917 97.6768V100H17.1172V93.804H17.8917V94.5011C18.279 94.0364 18.8212 93.7266 19.4409 93.7266C20.6801 93.804 21.6096 94.7335 21.6096 96.0502ZM20.7576 96.0502C20.7576 95.1208 20.1379 94.5011 19.2859 94.5011C18.4339 94.5011 17.8143 95.1208 17.8143 96.0502C17.8143 96.9797 18.4339 97.5993 19.2859 97.5993C20.1379 97.6768 20.7576 97.0571 20.7576 96.0502Z" fill="#4C4C4C"/>
<path d="M22.3062 96.048C22.3062 94.7312 23.2356 93.8018 24.5524 93.8018C25.8691 93.8018 26.7986 94.7312 26.7986 96.048C26.7986 97.3647 25.8691 98.3716 24.5524 98.3716C23.2356 98.3716 22.3062 97.4422 22.3062 96.048ZM26.024 96.048C26.024 95.1185 25.4044 94.4989 24.5524 94.4989C23.7004 94.4989 23.0807 95.1185 23.0807 96.048C23.0807 96.9774 23.7004 97.5971 24.5524 97.5971C25.4044 97.6745 26.024 97.0549 26.024 96.048Z" fill="#4C4C4C"/>
<path d="M30.2075 93.8018V94.5763C30.13 94.5763 30.0525 94.5763 30.0525 94.5763C29.2005 94.5763 28.6583 95.1185 28.6583 96.048V98.2942H27.8838V93.8018H28.6583V94.5763C28.8907 94.0341 29.4329 93.8018 30.2075 93.8018Z" fill="#4C4C4C"/>
<path d="M33.7711 98.059C33.5387 98.2913 33.1514 98.3688 32.8416 98.3688C31.9896 98.3688 31.4474 97.9041 31.4474 96.9746V94.496H30.6729V93.7989H31.4474V92.792H32.222V93.7989H33.4612V94.496H32.222V96.8971C32.222 97.3619 32.4543 97.6717 32.9191 97.6717C33.1514 97.6717 33.3838 97.5942 33.5387 97.4393L33.7711 98.059Z" fill="#4C4C4C"/>
<path d="M42.3684 98.2951V93.9576L40.2771 97.5206H39.8898L37.7985 93.9576V98.2177H37.0239V92.3311H37.721L40.1221 96.5136L42.4458 92.3311H43.1429V98.2177H42.3684V98.2951Z" fill="#4C4C4C"/>
<path d="M48.1762 95.5855V98.2964H47.4016V97.6768C47.1693 98.0641 46.6271 98.2964 46.0074 98.2964C45.0005 98.2964 44.3809 97.7542 44.3809 96.9797C44.3809 96.2826 44.8456 95.6629 46.1623 95.6629H47.4016V95.508C47.4016 94.8109 47.0143 94.4237 46.2398 94.4237C45.6976 94.4237 45.2329 94.5786 44.8456 94.8884L44.5358 94.2687C45.0005 93.8815 45.6201 93.7266 46.3172 93.7266C47.5565 93.804 48.1762 94.4237 48.1762 95.5855ZM47.4016 96.9797V96.36H46.1623C45.3878 96.36 45.1554 96.6699 45.1554 97.0571C45.1554 97.5219 45.5427 97.7542 46.0849 97.7542C46.782 97.7542 47.2467 97.4444 47.4016 96.9797Z" fill="#4C4C4C"/>
<path d="M53.7536 95.7381V98.2942H52.979V95.8156C52.979 94.9636 52.5917 94.4989 51.8172 94.4989C50.9652 94.4989 50.423 95.041 50.423 95.9705V98.2942H49.6484V93.8018H50.423V94.4989C50.7328 94.0341 51.275 93.8018 51.9721 93.8018C53.0565 93.8018 53.7536 94.4214 53.7536 95.7381Z" fill="#4C4C4C"/>
<path d="M58.6337 95.5855V98.2964H57.8591V97.6768C57.6268 98.0641 57.0846 98.2964 56.4649 98.2964C55.458 98.2964 54.8384 97.7542 54.8384 96.9797C54.8384 96.2826 55.3031 95.6629 56.6198 95.6629H57.8591V95.508C57.8591 94.8109 57.4719 94.4237 56.6973 94.4237C56.1551 94.4237 55.6904 94.5786 55.3031 94.8884L54.9933 94.2687C55.458 93.8815 56.0777 93.7266 56.7748 93.7266C58.014 93.804 58.6337 94.4237 58.6337 95.5855ZM57.8591 96.9797V96.36H56.6198C55.8453 96.36 55.6129 96.6699 55.6129 97.0571C55.6129 97.5219 56.0002 97.7542 56.5424 97.7542C57.2395 97.7542 57.7042 97.4444 57.8591 96.9797Z" fill="#4C4C4C"/>
<path d="M64.2883 93.8018V97.6745C64.2883 99.2236 63.5138 99.9982 62.0421 99.9982C61.2676 99.9982 60.4155 99.7658 59.9508 99.3011L60.3381 98.6814C60.7254 99.0687 61.345 99.3011 62.0421 99.3011C63.049 99.3011 63.5138 98.8364 63.5138 97.8294V97.4422C63.1265 97.9069 62.5843 98.1393 61.9647 98.1393C60.7254 98.1393 59.7959 97.2873 59.7959 95.9705C59.7959 94.6538 60.7254 93.8018 61.9647 93.8018C62.5843 93.8018 63.2039 94.0341 63.5912 94.4989V93.8018H64.2883ZM63.5138 95.9705C63.5138 95.1185 62.8941 94.4989 62.0421 94.4989C61.1901 94.4989 60.5705 95.1185 60.5705 95.9705C60.5705 96.8225 61.1901 97.4422 62.0421 97.4422C62.8941 97.4422 63.5138 96.8225 63.5138 95.9705Z" fill="#4C4C4C"/>
<path d="M69.7093 96.3578H66.2238C66.3012 97.1323 66.9209 97.6745 67.7729 97.6745C68.3151 97.6745 68.7023 97.5196 69.0122 97.1323L69.4769 97.6745C69.0896 98.1393 68.47 98.3716 67.7729 98.3716C66.3787 98.3716 65.4492 97.4422 65.4492 96.048C65.4492 94.7312 66.3787 93.8018 67.618 93.8018C68.8573 93.8018 69.7867 94.7312 69.7867 96.1254C69.7093 96.2029 69.7093 96.2803 69.7093 96.3578ZM66.1463 95.7381H68.9347C68.8573 94.9636 68.3151 94.4214 67.5405 94.4214C66.8434 94.4989 66.3012 95.041 66.1463 95.7381Z" fill="#4C4C4C"/>
<path d="M77.9975 95.7381V98.2942H77.2229V95.8156C77.2229 94.9636 76.8357 94.4989 76.1386 94.4989C75.364 94.4989 74.8218 95.041 74.8218 95.9705V98.2942H74.0473V95.8156C74.0473 94.9636 73.66 94.4989 72.9629 94.4989C72.1883 94.4989 71.6461 95.041 71.6461 95.9705V98.2942H70.8716V93.8018H71.6461V94.4989C71.956 94.0341 72.4981 93.8018 73.1178 93.8018C73.8149 93.8018 74.3571 94.0341 74.5894 94.6538C74.8993 94.1116 75.5189 93.8018 76.2935 93.8018C77.3004 93.8018 77.9975 94.4214 77.9975 95.7381Z" fill="#4C4C4C"/>
<path d="M83.4192 96.3578H79.9337C80.0112 97.1323 80.6308 97.6745 81.4828 97.6745C82.025 97.6745 82.4123 97.5196 82.7221 97.1323L83.1869 97.6745C82.7996 98.1393 82.1799 98.3716 81.4828 98.3716C80.0886 98.3716 79.1592 97.4422 79.1592 96.048C79.1592 94.7312 80.0886 93.8018 81.3279 93.8018C82.5672 93.8018 83.4967 94.7312 83.4967 96.1254C83.4192 96.2029 83.4192 96.2803 83.4192 96.3578ZM79.8563 95.7381H82.6447C82.5672 94.9636 82.025 94.4214 81.2505 94.4214C80.4759 94.4989 79.9337 95.041 79.8563 95.7381Z" fill="#4C4C4C"/>
<path d="M88.6086 95.7381V98.2942H87.834V95.8156C87.834 94.9636 87.4467 94.4989 86.6722 94.4989C85.8202 94.4989 85.278 95.041 85.278 95.9705V98.2942H84.5034V93.8018H85.278V94.4989C85.5878 94.0341 86.13 93.8018 86.8271 93.8018C87.834 93.8018 88.6086 94.4214 88.6086 95.7381Z" fill="#4C4C4C"/>
<path d="M92.481 98.059C92.2487 98.2913 91.8614 98.3688 91.5516 98.3688C90.6996 98.3688 90.1574 97.9041 90.1574 96.9746V94.496H89.3828V93.7989H90.1574V92.792H90.9319V93.7989H92.1712V94.496H90.9319V96.8971C90.9319 97.3619 91.1643 97.6717 91.629 97.6717C91.8614 97.6717 92.0937 97.5942 92.2487 97.4393L92.481 98.059Z" fill="#4C4C4C"/>
<path d="M99.7626 95.3525H100.537V97.6762C99.995 98.1409 99.143 98.4507 98.3684 98.4507C96.5869 98.4507 95.3477 97.2114 95.3477 95.4299C95.3477 93.6485 96.6644 92.4092 98.4459 92.4092C99.3753 92.4092 100.15 92.719 100.615 93.3386L100.072 93.8808C99.6077 93.4161 99.0655 93.1837 98.4459 93.1837C97.1291 93.1837 96.1997 94.1132 96.1997 95.4299C96.1997 96.7467 97.1291 97.6762 98.4459 97.6762C98.9106 97.6762 99.3753 97.5987 99.7626 97.2889V95.3525Z" fill="#4C4C4C"/>
<path d="M104.331 93.8018V94.5763C104.254 94.5763 104.177 94.5763 104.177 94.5763C103.325 94.5763 102.782 95.1185 102.782 96.048V98.2942H102.008V93.8018H102.782V94.5763C103.015 94.0341 103.557 93.8018 104.331 93.8018Z" fill="#4C4C4C"/>
<path d="M104.875 96.048C104.875 94.7312 105.805 93.8018 107.122 93.8018C108.438 93.8018 109.368 94.7312 109.368 96.048C109.368 97.3647 108.438 98.3716 107.122 98.3716C105.805 98.3716 104.875 97.4422 104.875 96.048ZM108.593 96.048C108.593 95.1185 107.974 94.4989 107.122 94.4989C106.27 94.4989 105.65 95.1185 105.65 96.048C105.65 96.9774 106.27 97.5971 107.122 97.5971C107.896 97.6745 108.593 97.0549 108.593 96.048Z" fill="#4C4C4C"/>
<path d="M114.478 93.8018V98.2942H113.703V97.6745C113.393 98.1393 112.851 98.3716 112.231 98.3716C111.147 98.3716 110.373 97.752 110.373 96.4352V93.8018H111.147V96.2803C111.147 97.1323 111.534 97.5971 112.309 97.5971C113.161 97.5971 113.626 97.0549 113.626 96.1254V93.8018H114.478Z" fill="#4C4C4C"/>
<path d="M120.442 96.0502C120.442 97.4444 119.512 98.3739 118.273 98.3739C117.653 98.3739 117.111 98.1415 116.724 97.6768V100H115.949V93.804H116.724V94.5011C117.111 94.0364 117.653 93.7266 118.273 93.7266C119.512 93.804 120.442 94.7335 120.442 96.0502ZM119.667 96.0502C119.667 95.1208 119.047 94.5011 118.195 94.5011C117.343 94.5011 116.724 95.1208 116.724 96.0502C116.724 96.9797 117.343 97.5993 118.195 97.5993C119.047 97.6768 119.667 97.0571 119.667 96.0502Z" fill="#4C4C4C"/>
<path d="M13.3998 86.4433V76.4516L8.05536 85.6688L2.63348 76.6065V86.4433H0V71.417H2.24621L8.05536 81.4087L13.7096 71.417H15.9558V86.4433H13.3998Z" fill="#4C4C4C"/>
<path d="M28.9684 79.7076V86.4462H26.4899V85.052C25.8702 86.0589 24.6309 86.6011 23.0044 86.6011C20.4483 86.6011 18.8218 85.1294 18.8218 83.1931C18.8218 81.2567 20.0611 79.785 23.4691 79.785H26.335V79.6301C26.335 78.081 25.4055 77.1515 23.5466 77.1515C22.3073 77.1515 20.9905 77.6163 20.1385 78.3134L19.1316 76.377C20.2934 75.4475 22.0749 74.9828 23.8564 74.9828C27.1095 74.8279 28.9684 76.4544 28.9684 79.7076ZM26.335 82.8832V81.5665H23.624C21.8425 81.5665 21.3778 82.2636 21.3778 83.1156C21.3778 84.0451 22.1524 84.7422 23.4691 84.7422C24.7858 84.6647 25.8702 84.0451 26.335 82.8832Z" fill="#4C4C4C"/>
<path d="M31.4463 80.7147C31.4463 77.3067 33.9249 74.8281 37.4878 74.8281C39.6566 74.8281 41.3606 75.7576 42.2126 77.4616L40.1988 78.7009C39.5017 77.6165 38.4947 77.0743 37.4104 77.0743C35.474 77.0743 34.0023 78.4685 34.0023 80.6373C34.0023 82.8835 35.474 84.2002 37.4104 84.2002C38.4947 84.2002 39.5017 83.7355 40.1988 82.5737L42.2126 83.813C41.3606 85.517 39.6566 86.5239 37.4878 86.5239C34.0023 86.6013 31.4463 84.2002 31.4463 80.7147Z" fill="#4C4C4C"/>
<path d="M43.3745 80.7147C43.3745 77.3067 45.8531 74.8281 49.2611 74.8281C52.7466 74.8281 55.2252 77.2292 55.2252 80.7147C55.2252 84.1228 52.7466 86.6013 49.2611 86.6013C45.9305 86.6013 43.3745 84.2002 43.3745 80.7147ZM52.5917 80.7147C52.5917 78.546 51.1975 77.1518 49.2611 77.1518C47.4022 77.1518 46.008 78.546 46.008 80.7147C46.008 82.8835 47.4022 84.2777 49.2611 84.2777C51.1975 84.2777 52.5917 82.8835 52.5917 80.7147Z" fill="#4C4C4C"/>
<path d="M68.7023 79.8627V86.4464H66.0688V80.25C66.0688 78.2362 65.0619 77.2292 63.4353 77.2292C61.5764 77.2292 60.3371 78.3911 60.3371 80.7147V86.5239H57.7036V74.983H60.1822V76.4547C61.0342 75.3703 62.4284 74.8281 63.9775 74.8281C66.6884 74.8281 68.7023 76.4547 68.7023 79.8627Z" fill="#4C4C4C"/>
<path d="M90.9316 71.417V86.4433H88.2207V80.0145H80.7075V86.4433H77.9966V71.417H80.7075V77.6134H88.2207V71.417H90.9316Z" fill="#4C4C4C"/>
<path d="M93.7207 80.7147C93.7207 77.3067 96.1993 74.8281 99.6073 74.8281C103.093 74.8281 105.571 77.2292 105.571 80.7147C105.571 84.1228 103.093 86.6013 99.6073 86.6013C96.1993 86.6013 93.7207 84.2002 93.7207 80.7147ZM102.938 80.7147C102.938 78.546 101.544 77.1518 99.6073 77.1518C97.7484 77.1518 96.3542 78.546 96.3542 80.7147C96.3542 82.8835 97.7484 84.2777 99.6073 84.2777C101.544 84.2777 102.938 82.8835 102.938 80.7147Z" fill="#4C4C4C"/>
<path d="M114.711 85.8246C114.092 86.3668 113.162 86.5991 112.233 86.5991C109.832 86.5991 108.438 85.2824 108.438 82.7264V77.227H106.579V75.0583H108.438V72.4248H111.071V75.0583H114.014V77.227H111.071V82.6489C111.071 83.7333 111.613 84.3529 112.62 84.3529C113.162 84.3529 113.705 84.198 114.092 83.8882L114.711 85.8246Z" fill="#4C4C4C"/>
<path d="M126.95 81.5602H118.198C118.507 83.2642 119.902 84.2712 121.838 84.2712C123.077 84.2712 124.084 83.8839 124.859 83.0319L126.253 84.6584C125.246 85.8977 123.697 86.5174 121.761 86.5174C118.043 86.5174 115.642 84.0388 115.642 80.6308C115.642 77.2227 118.043 74.7441 121.373 74.7441C124.626 74.7441 127.028 77.0678 127.028 80.7082C126.95 81.018 126.95 81.3278 126.95 81.5602ZM118.198 79.7787H124.472C124.239 78.1522 123 76.9903 121.296 76.9903C119.669 76.9903 118.43 78.1522 118.198 79.7787Z" fill="#4C4C4C"/>
<path d="M129.506 70.4873H132.14V86.4431H129.506V70.4873Z" fill="#4C4C4C"/>
<path d="M99.1442 4.25675C99.1442 6.58042 97.2853 8.43935 94.9616 8.43935C94.8842 8.43935 94.7293 8.43935 94.6518 8.43935C94.6518 8.43935 94.6518 8.43935 94.5744 8.43935L94.4969 8.5168C94.4194 8.5168 94.4195 8.59426 94.342 8.59426C94.2645 8.67171 94.1871 8.67171 94.1096 8.74917C94.0322 8.82662 93.9547 8.90408 93.8773 8.98153C93.7998 9.05899 93.7224 9.13645 93.6449 9.2139C93.5674 9.29136 93.49 9.36881 93.4125 9.44627C93.3351 9.52372 93.2576 9.60118 93.1802 9.75609L93.1027 9.83354C93.0252 9.911 92.9478 10.0659 92.8703 10.1434C92.7929 10.2208 92.7154 10.3757 92.638 10.4532C92.5605 10.6081 92.4831 10.6856 92.4056 10.763C92.4056 10.8405 92.3282 10.9179 92.3282 10.9179V10.9954C92.2507 11.0728 92.1732 11.2277 92.0958 11.3052C92.0958 11.3827 92.0183 11.4601 92.0183 11.4601C91.9409 11.5376 91.9409 11.615 91.8634 11.6925C91.786 11.7699 91.786 11.8474 91.7085 12.0023C91.7085 12.0798 91.6311 12.0798 91.6311 12.1572C91.5536 12.3121 91.5536 12.3896 91.4761 12.5445C91.3987 12.6219 91.3987 12.7768 91.3212 12.8543C91.2438 13.0092 91.1663 13.1641 91.0889 13.319C91.0114 13.4739 90.934 13.6289 90.8565 13.7838C90.779 13.9387 90.7016 14.0936 90.6241 14.2485C90.5467 14.4034 90.4692 14.5583 90.3918 14.7132C90.3143 14.8681 90.2369 15.0231 90.1594 15.178C90.082 15.3329 90.0819 15.4878 90.0045 15.5652C89.927 15.7202 89.8496 15.8751 89.7721 16.1074C89.6947 16.2623 89.6172 16.4947 89.5398 16.6496C89.4623 16.8045 89.3849 17.0369 89.3074 17.1918C89.2299 17.3467 89.1525 17.5791 89.075 17.734C88.9976 17.8889 88.9201 18.1213 88.8427 18.2762C88.7652 18.4311 88.7652 18.586 88.6878 18.8184C88.6103 19.0507 88.5328 19.2056 88.4554 19.3606C88.3779 19.5929 88.3005 19.7478 88.223 19.9027C88.1456 20.1351 88.0681 20.29 87.9907 20.4449C87.9132 20.6773 87.8357 20.8322 87.7583 21.0646C87.6808 21.2969 87.6034 21.4519 87.5259 21.6842C87.4485 21.9166 87.371 22.0715 87.2936 22.3039C87.2161 22.5362 87.1386 22.6911 87.0612 22.9235C86.9837 23.1559 86.9837 23.3108 86.8288 23.5432C86.7514 23.6981 86.7514 23.9304 86.6739 24.0853C86.5965 24.3177 86.519 24.4726 86.4415 24.705C86.3641 24.9373 86.2866 25.0923 86.2092 25.3246C86.1317 25.557 86.0543 25.7119 85.9768 25.9443C85.8994 26.1766 85.8219 26.3315 85.7444 26.5639C85.667 26.7188 85.667 26.9512 85.5895 27.1061C85.5121 27.3385 85.4346 27.5708 85.3572 27.8032C85.2797 28.0356 85.2023 28.2679 85.1248 28.4228C85.0474 28.6552 84.9699 28.8876 84.8924 29.0425C84.815 29.2749 84.7375 29.5072 84.6601 29.7396C84.5826 29.972 84.5052 30.2043 84.4277 30.4367C84.3503 30.6691 84.2728 30.9014 84.1953 31.1338C84.1179 31.3661 84.0404 31.5211 83.963 31.7534C83.8855 31.9858 83.8081 32.1407 83.7306 32.3731C83.6532 32.6054 83.5757 32.8378 83.4982 33.0702C83.4208 33.3025 83.3433 33.5349 83.2659 33.7673C83.1884 33.9996 83.111 34.232 83.0335 34.4644C82.9561 34.6967 82.8786 34.9291 82.8011 35.1615C82.7237 35.3938 82.6462 35.6262 82.5688 35.8586C82.4913 36.0909 82.4139 36.3233 82.3364 36.5557C82.259 36.788 82.1815 37.0204 82.104 37.2528C82.0266 37.4851 81.9491 37.7175 81.8717 37.8724C81.7942 38.1048 81.7168 38.3371 81.6393 38.492C81.5619 38.7244 81.4844 38.9568 81.4069 39.1117C81.3295 39.3441 81.252 39.499 81.1746 39.7313C81.0971 39.9637 81.0197 40.1961 80.9422 40.351C80.8648 40.5833 80.7873 40.7383 80.7098 40.9706C80.6324 41.203 80.5549 41.3579 80.4775 41.5903C80.4 41.8226 80.3226 41.9775 80.1677 42.2099C80.0902 42.4423 80.0128 42.5972 79.8578 42.8296C79.7804 43.0619 79.7029 43.2168 79.548 43.4492C79.4706 43.6816 79.3931 43.8365 79.2382 44.0688C79.1607 44.3012 79.0833 44.4561 78.9284 44.6885C78.8509 44.9208 78.696 45.0758 78.6186 45.3081C78.5411 45.5405 78.3862 45.6954 78.3087 45.9278C78.2313 46.1601 78.0764 46.315 77.9989 46.5474C77.9215 46.7798 77.7666 46.9347 77.6891 47.1671C77.6116 47.3994 77.4567 47.5543 77.3793 47.7867C77.3018 48.0191 77.1469 48.174 77.0694 48.4063C76.992 48.6387 76.8371 48.7936 76.6822 48.9485C76.6047 49.1809 76.4498 49.3358 76.2949 49.4907C76.14 49.7231 76.0625 49.878 75.9076 50.0329C75.8302 50.2653 75.6753 50.4202 75.5203 50.5751C75.3654 50.73 75.288 50.9624 75.1331 51.1173C74.9782 51.2722 74.9007 51.5046 74.7458 51.6595C74.5909 51.8144 74.5134 52.0467 74.3585 52.2017C74.2036 52.3566 74.0487 52.5889 73.9712 52.7438L73.8938 52.8213C73.7389 52.9762 73.584 53.2086 73.429 53.3635C73.2741 53.5184 73.1192 53.6733 72.9643 53.9057C72.8094 54.0606 72.6545 54.2155 72.4996 54.3704C72.3447 54.5253 72.1898 54.6802 72.0349 54.8351C71.8025 55.0675 71.6476 55.2224 71.4152 55.3773C71.3378 55.4548 71.1828 55.6097 71.0279 55.6871C70.9505 55.7646 70.9505 55.7646 70.873 55.8421C70.1759 56.4617 69.4788 56.9264 68.6268 57.2363C68.5494 57.3137 68.3944 57.3137 68.317 57.3137C68.1621 57.3137 67.8523 57.3912 67.5424 57.3912C67.3875 57.3912 67.3101 57.4686 67.1552 57.4686C67.0002 57.4686 66.9228 57.5461 66.7679 57.5461C66.5355 57.5461 66.2257 57.6235 65.9933 57.6235C65.761 57.6235 65.4511 57.6235 65.2188 57.5461C65.0639 57.5461 64.9864 57.5461 64.8315 57.4686C64.6766 57.4686 64.5991 57.4686 64.4442 57.3912C64.2119 57.3137 63.9795 57.3137 63.7471 57.2363C63.5922 57.1588 63.4373 57.1588 63.2824 57.0813C62.3529 56.6941 61.5784 56.2293 60.8813 55.5322C59.4871 54.138 58.5576 52.2791 58.5576 50.1104C58.5576 47.2445 60.1842 44.7659 62.5853 43.5266C62.8177 43.3717 63.05 43.2943 63.2824 43.2168C63.3598 43.1394 63.4373 43.1394 63.5922 43.0619C63.5922 43.0619 63.6697 43.0619 63.6697 42.9845C63.7471 42.907 63.902 42.907 63.9795 42.8296C64.0569 42.7521 64.2119 42.6746 64.2893 42.6746C64.3668 42.5972 64.5217 42.5197 64.5991 42.4423C64.6766 42.4423 64.6766 42.3648 64.754 42.3648C64.8315 42.2874 64.9864 42.2099 65.0639 42.1325C65.1413 42.055 65.2962 41.9775 65.3737 41.9001C65.4511 41.8226 65.6061 41.7452 65.6835 41.6677C65.761 41.5903 65.9159 41.5128 65.9933 41.4354C65.9933 41.4354 65.9933 41.4354 66.0708 41.4354C66.1482 41.3579 66.2257 41.3579 66.2257 41.2804C66.3032 41.203 66.4581 41.0481 66.5355 40.9706C66.613 40.8932 66.7679 40.7383 66.8453 40.6608C66.9228 40.5833 67.0777 40.4284 67.1552 40.351C67.2326 40.2735 67.3875 40.1186 67.465 40.0412C67.5424 39.8862 67.6974 39.8088 67.7748 39.6539C67.8523 39.499 68.0072 39.4215 68.0846 39.2666C68.1621 39.1117 68.317 39.0342 68.3945 38.8793C68.4719 38.7244 68.6268 38.647 68.7043 38.492C68.7817 38.3371 68.9366 38.1822 69.0141 38.1048C69.0915 37.9499 69.2465 37.7949 69.3239 37.7175C69.3239 37.64 69.4014 37.64 69.4014 37.5626C69.4788 37.4851 69.4788 37.4077 69.5563 37.4077C69.6337 37.3302 69.7112 37.1753 69.7886 37.0979C69.8661 37.0204 69.8661 36.9429 69.9436 36.8655C70.021 36.7106 70.1759 36.5557 70.2534 36.4008C70.3308 36.2458 70.4857 36.0909 70.5632 35.936C70.6407 35.7811 70.7956 35.6262 70.873 35.4713C70.9505 35.3164 71.1054 35.1615 71.1828 35.0066C71.2603 34.8516 71.4152 34.6967 71.4927 34.5418C71.5701 34.3869 71.725 34.232 71.8025 33.9996C71.8799 33.8447 72.0349 33.6124 72.1123 33.4574C72.1898 33.3025 72.3447 33.0702 72.4221 32.9153C72.4996 32.7603 72.6545 32.528 72.732 32.3731C72.8094 32.2182 72.9643 31.9858 73.0418 31.8309C73.1192 31.5985 73.2741 31.4436 73.3516 31.2887C73.429 31.1338 73.584 30.9014 73.6614 30.7465C73.7389 30.5916 73.8938 30.3592 73.9712 30.2043C74.0487 30.0494 74.2036 29.817 74.2811 29.6621C74.3585 29.4298 74.5134 29.2749 74.5909 29.1199C74.6683 28.965 74.8232 28.7327 74.9007 28.5778C74.9782 28.3454 75.0556 28.1905 75.2105 28.0356C75.288 27.8032 75.3654 27.6483 75.5203 27.4934C75.5978 27.261 75.7527 27.1061 75.8302 26.8737C75.9076 26.6414 76.0625 26.4865 76.14 26.2541C76.2174 26.0217 76.3723 25.8668 76.4498 25.6345C76.5273 25.4021 76.6047 25.2472 76.7596 25.0148C76.8371 24.7824 76.9145 24.6275 77.0694 24.4726C77.1469 24.2403 77.3018 24.0079 77.3793 23.7755C77.4567 23.6206 77.5342 23.3882 77.6116 23.2333C77.6891 23.001 77.7665 22.8461 77.9215 22.6911C77.9989 22.4588 78.0764 22.3039 78.2313 22.149C78.3087 21.9166 78.3862 21.7617 78.5411 21.6068C78.6186 21.3744 78.696 21.2195 78.8509 21.0646C78.9284 20.8322 79.0058 20.6773 79.1607 20.5224C79.2382 20.29 79.3157 20.1351 79.3931 19.9802C79.4706 19.7478 79.548 19.5929 79.7029 19.438C79.7804 19.2056 79.8578 19.0507 79.9353 18.8958C80.0128 18.6635 80.1677 18.4311 80.3226 18.1987C80.4 18.0438 80.4775 17.8115 80.5549 17.6565C80.6324 17.5016 80.7099 17.2693 80.7873 17.1144C80.8648 16.9594 80.9422 16.7271 81.0197 16.5722C81.0971 16.4173 81.1746 16.1849 81.252 16.03C81.3295 15.8751 81.4069 15.6427 81.4844 15.4878C81.5619 15.3329 81.6393 15.1005 81.7168 14.9456C81.7942 14.7907 81.8717 14.5583 81.9491 14.4034C82.0266 14.2485 82.104 14.0161 82.1815 13.8612C82.259 13.6289 82.4139 13.3965 82.4913 13.1641C82.5688 13.0092 82.6462 12.8543 82.7237 12.6994C82.8011 12.5445 82.8786 12.3896 82.9561 12.2347C83.0335 12.0798 83.111 11.9248 83.1884 11.7699C83.2659 11.615 83.3433 11.4601 83.4208 11.3052C83.4982 11.1503 83.5757 10.9954 83.6532 10.8405C83.7306 10.6856 83.8081 10.5306 83.8855 10.3757C83.963 10.1434 84.1179 9.98845 84.1953 9.75609C84.2728 9.60118 84.3503 9.44627 84.4277 9.29136C84.4277 9.29136 84.4277 9.29136 84.5052 9.2139C84.5826 9.13645 84.5826 8.98153 84.6601 8.90408C84.6601 8.82662 84.7375 8.82662 84.7375 8.82662C84.815 8.74917 84.815 8.67171 84.8924 8.59426C84.8924 8.5168 84.9699 8.5168 84.9699 8.43935C84.9699 8.36189 85.0474 8.28444 85.0474 8.28444C85.1248 8.20698 85.1248 8.12953 85.2023 8.05207C85.2023 7.97461 85.2023 7.97461 85.2797 7.89716C85.3572 7.8197 85.3572 7.74225 85.4346 7.66479C85.4346 7.66479 85.4346 7.66479 85.4346 7.58734C85.5121 7.43243 85.5895 7.27752 85.7444 7.12261C85.8219 6.96769 85.9768 6.73533 86.0543 6.58042C86.1317 6.42551 86.2092 6.34805 86.2866 6.19314C86.3641 6.03823 86.4415 5.96077 86.519 5.88332C86.5965 5.80586 86.6739 5.65095 86.7514 5.5735C86.8288 5.41859 86.9063 5.26367 87.0612 5.18622C87.1386 5.03131 87.2936 4.79894 87.4485 4.64403C87.5259 4.56658 87.6034 4.41167 87.6808 4.33421C87.7583 4.25675 87.8357 4.1793 87.9132 4.02439C87.9907 3.94693 88.0681 3.79202 88.223 3.71457C88.3779 3.55966 88.5328 3.32729 88.6878 3.17238C88.7652 3.09492 88.8427 3.01747 88.9201 2.94001C88.9976 2.86256 89.075 2.7851 89.1525 2.70765C89.3074 2.55274 89.5398 2.32037 89.7721 2.16546C89.8496 2.088 89.927 2.01055 90.0045 1.93309C90.0819 1.85564 90.1594 1.77818 90.2369 1.77818C90.4692 1.62327 90.7016 1.46836 90.934 1.3909C91.0114 1.31345 91.0889 1.31345 91.1663 1.23599C91.3987 1.08108 91.6311 1.00363 91.9409 0.926172C92.0183 0.848716 92.0958 0.848716 92.2507 0.848716C92.4831 0.771261 92.7154 0.693806 92.9478 0.61635C93.1027 0.61635 93.2576 0.538895 93.4125 0.538895C93.7224 0.461439 94.0322 0.461439 94.342 0.461439C97.2853 0.0741623 99.1442 1.93309 99.1442 4.25675Z" fill="url(#paint0_linear)"/>
<path d="M39.4259 7.66973C40.5103 6.89518 41.2074 5.65589 41.2074 4.26169C41.2074 1.93803 39.3485 0.0791016 37.0248 0.0791016C35.5531 0.0791016 34.3139 0.853656 33.5393 1.93803C33.4618 2.01549 33.3844 2.1704 33.3069 2.24785C33.3069 2.40276 33.152 2.48022 33.0746 2.63513C32.9971 2.79004 32.9197 2.8675 32.8422 3.02241C32.7647 3.17732 32.6873 3.25477 32.6098 3.40968C32.5324 3.56459 32.4549 3.64205 32.3775 3.79696C32.3 3.95187 32.2226 4.02933 32.1451 4.18424C32.0676 4.33915 31.9902 4.4166 31.9127 4.57152C31.8353 4.72643 31.7578 4.80388 31.6804 4.95879C31.6029 5.1137 31.5255 5.19116 31.448 5.34607C31.3705 5.42352 31.3705 5.50098 31.2931 5.57844C31.2931 5.57844 31.2931 5.65589 31.2156 5.65589L31.1382 5.73335C31.0607 5.8108 31.0607 5.88826 30.9833 5.96571C30.9058 6.12062 30.8284 6.27553 30.6734 6.43044C30.596 6.58536 30.5185 6.74027 30.3636 6.89518C30.2862 7.05009 30.2087 7.205 30.0538 7.35991C29.9764 7.51482 29.8989 7.66973 29.744 7.82464C29.6665 7.97955 29.5891 8.13446 29.4342 8.28938C29.3567 8.44429 29.2793 8.5992 29.1243 8.75411C29.0469 8.90902 28.9694 9.06393 28.8145 9.21884C28.7371 9.37375 28.6596 9.52866 28.5822 9.68357C28.5047 9.83848 28.4272 9.99339 28.3498 10.1483C28.2723 10.3032 28.1949 10.4581 28.1174 10.613C28.04 10.7679 27.9625 10.9229 27.8851 11.0778C27.8076 11.2327 27.7301 11.3876 27.6527 11.5425C27.5752 11.6974 27.4978 11.8523 27.4203 12.0072C27.3429 12.1621 27.2654 12.3171 27.188 12.5494C27.1105 12.7043 27.033 12.8592 26.9556 13.0916C26.8781 13.2465 26.8007 13.4014 26.7232 13.6338C26.6458 13.7887 26.5683 13.9436 26.4909 14.176C26.4134 14.3309 26.3359 14.4858 26.2585 14.7182C26.181 14.8731 26.1036 15.028 26.0261 15.2604C25.9487 15.4153 25.7938 15.6476 25.7938 15.8025C25.7163 15.9575 25.5614 16.1898 25.5614 16.3447C25.4839 16.4996 25.4065 16.732 25.329 16.8869C25.2516 17.0418 25.1741 17.2742 25.0967 17.4291C25.0192 17.584 24.9417 17.8164 24.8643 17.9713C24.7868 18.1262 24.7094 18.3586 24.6319 18.5135C24.5545 18.6684 24.477 18.9008 24.3996 19.0557C24.3221 19.2106 24.2447 19.443 24.1672 19.5979C24.0897 19.7528 24.0123 19.9851 23.9348 20.1401C23.8574 20.295 23.7799 20.5273 23.7025 20.6822C23.625 20.8372 23.5476 21.0695 23.4701 21.2244C23.3926 21.3793 23.3152 21.6117 23.2377 21.7666C23.1603 21.9215 23.0054 22.1539 23.0054 22.3863C22.9279 22.5412 22.773 22.7735 22.773 23.0059C22.6955 23.1608 22.5406 23.3932 22.5406 23.6255C22.4632 23.7805 22.3083 24.0128 22.3083 24.2452C22.2308 24.4001 22.1534 24.6325 22.0759 24.7874C21.9984 24.9423 21.921 25.1747 21.8435 25.3296C21.7661 25.4845 21.6886 25.7168 21.6112 25.8718C21.5337 26.0267 21.4563 26.259 21.3788 26.4139C21.3013 26.5689 21.2239 26.8012 21.1464 26.9561C21.069 27.111 20.9915 27.3434 20.9141 27.4983C20.8366 27.6532 20.7592 27.8856 20.6817 28.0405C20.6042 28.1954 20.5268 28.4278 20.4493 28.6601C20.3719 28.8925 20.2944 29.0474 20.217 29.2798C20.1395 29.5122 20.0621 29.6671 19.9846 29.8994C19.9071 30.1318 19.8297 30.2867 19.7522 30.5191C19.6748 30.7514 19.5973 30.9064 19.5199 31.1387C19.4424 31.2936 19.365 31.526 19.2875 31.7584C19.21 31.9133 19.1326 32.1456 19.0551 32.378C18.9777 32.5329 18.9002 32.7653 18.8228 32.9977C18.7453 33.1526 18.6679 33.3849 18.5904 33.6173C18.5129 33.7722 18.4355 34.0046 18.358 34.2369C18.2806 34.3918 18.2031 34.6242 18.1257 34.8566C18.0482 35.0115 17.9708 35.2439 17.8933 35.4762C17.8159 35.6311 17.7384 35.8635 17.6609 36.0959C17.5835 36.2508 17.506 36.4831 17.4286 36.7155C17.3511 36.8704 17.2737 37.1028 17.1962 37.3352C17.1188 37.5675 17.0413 37.7224 16.9638 37.9548C16.8864 38.1872 16.8089 38.3421 16.7315 38.5744C16.654 38.7294 16.5766 38.9617 16.5766 39.1166C16.5766 39.1166 16.5766 39.1166 16.5766 39.1941C16.4991 39.349 16.4991 39.5039 16.4217 39.7363C16.4217 39.7363 16.4217 39.8137 16.3442 39.8137C16.2667 39.9686 16.2667 40.1235 16.1893 40.2785C16.1893 40.3559 16.1118 40.3559 16.1118 40.4334C16.0344 40.5883 16.0344 40.7432 16.0344 40.8981C16.0344 40.9756 15.9569 40.9756 15.9569 41.053C15.8795 41.2079 15.8795 41.3628 15.8795 41.4403C15.8795 41.5177 15.802 41.5952 15.802 41.6727C15.7246 41.8276 15.7246 41.905 15.7246 42.0599C15.7246 42.1374 15.6471 42.2148 15.6471 42.2923C15.6471 42.3698 15.5696 42.5247 15.5696 42.6021C15.5696 42.6796 15.4922 42.757 15.4922 42.8345C15.4922 42.9119 15.4147 43.0669 15.4147 43.1443C15.4147 43.2218 15.3373 43.2992 15.3373 43.4541C15.3373 43.5316 15.3373 43.609 15.2598 43.764C15.1824 43.8414 15.1824 43.9963 15.1049 44.0738C15.1049 44.1512 15.1049 44.2287 15.0275 44.3061C14.95 44.3836 14.95 44.5385 14.8725 44.616C14.8725 44.6934 14.8725 44.7709 14.8725 44.8483C14.7951 45.0032 14.7951 45.0807 14.7176 45.2356C14.7176 45.3131 14.7176 45.3905 14.7176 45.468C14.6402 45.6229 14.6402 45.7003 14.5627 45.8552C14.5627 45.9327 14.5627 46.0102 14.5627 46.0102C14.4853 46.1651 14.4853 46.2425 14.4078 46.3974C14.4078 46.4749 14.4078 46.4749 14.4078 46.5523C14.3304 46.7073 14.3304 46.8622 14.2529 46.9396C14.2529 47.0171 14.2529 47.0171 14.2529 47.0945C14.1754 47.2494 14.1754 47.4044 14.098 47.5593C14.098 47.6367 14.098 47.6367 14.098 47.7142C14.0205 47.8691 14.0205 48.024 13.9431 48.1789V48.2564C13.8656 48.4113 13.8656 48.5662 13.7882 48.7211V48.7986C13.7107 48.9535 13.7107 49.1084 13.7107 49.2633V49.3407C13.6333 49.4957 13.6333 49.6506 13.6333 49.8055V49.8829C13.5558 50.0378 13.5558 50.1928 13.5558 50.3477C13.5558 50.3477 13.5558 50.3477 13.5558 50.4251C13.4783 50.58 13.4783 50.7349 13.4783 50.8898C13.4783 50.8898 13.4783 50.8898 13.4783 50.9673C13.4783 51.1222 13.4009 51.2771 13.4009 51.5095C13.4009 51.6644 13.3234 51.8193 13.3234 52.0517C13.3234 52.2066 13.246 52.3615 13.246 52.5939C13.246 52.7488 13.1685 52.9037 13.1685 53.1361C13.1685 53.291 13.0911 53.4459 13.0911 53.6008C13.0911 53.7557 13.0136 53.9106 13.0136 54.0655C13.0136 54.2204 12.9362 54.3753 12.9362 54.5303C12.9362 54.6852 12.8587 54.8401 12.8587 54.995C12.8587 55.1499 12.7812 55.3048 12.7812 55.4597C12.7812 57.7834 14.6402 59.6423 16.9638 59.6423C19.2875 59.6423 21.1464 57.7834 21.1464 55.4597C21.1464 55.3048 21.1464 55.2274 21.069 55.0724C21.069 54.9175 21.069 54.8401 21.069 54.6852C21.069 54.5303 21.069 54.4528 21.069 54.2979C21.069 54.2979 21.069 54.2979 21.069 54.2204C21.069 54.0655 21.069 53.9881 21.069 53.8332C21.069 53.8332 21.069 53.8332 21.069 53.7557C21.069 53.6008 21.069 53.5233 21.069 53.3684V53.291C21.069 53.1361 21.069 53.0586 21.069 52.9037V52.8262C21.069 52.6713 21.069 52.5939 21.069 52.439V52.3615C21.069 52.2066 21.069 52.1291 21.069 51.9742V51.8968C21.069 51.7419 21.069 51.6644 21.069 51.5095V51.432C21.069 51.2771 21.069 51.1997 21.069 51.0448V50.9673C21.069 50.8124 21.069 50.7349 21.069 50.58V50.5026C21.069 50.3477 21.069 50.2702 21.069 50.1153V50.0378C21.069 49.8829 21.069 49.8055 21.069 49.6506V49.5731C21.069 49.4182 21.069 49.3407 21.069 49.1858V49.1084C21.069 48.9535 21.069 48.7986 21.069 48.7211V48.6436C21.069 48.4887 21.069 48.3338 21.069 48.2564V48.1789C21.069 48.024 21.069 47.8691 21.069 47.7142V47.6367C21.069 47.4818 21.069 47.3269 21.1464 47.172V47.0945C21.1464 46.9396 21.2239 46.7847 21.2239 46.6298C21.2239 46.6298 21.2239 46.6298 21.2239 46.5523C21.2239 46.3974 21.3013 46.2425 21.3013 46.0876C21.3013 46.0876 21.3013 46.0876 21.3013 46.0102C21.3788 45.8552 21.3788 45.7003 21.3788 45.5454C21.4563 45.3905 21.4563 45.2356 21.4563 45.0032C21.5337 44.8483 21.5337 44.616 21.5337 44.461C21.6112 44.2287 21.6112 43.9963 21.6886 43.8414C21.7661 43.6865 21.7661 43.4541 21.7661 43.2992C21.8435 43.1443 21.8435 42.9119 21.8435 42.757C21.921 42.6021 21.921 42.3698 21.921 42.2148C21.9984 42.0599 21.9984 41.8276 22.0759 41.6727C22.1534 41.5177 22.1534 41.2854 22.2308 41.1305C22.3083 40.9756 22.3083 40.7432 22.3857 40.5883C22.4632 40.4334 22.4632 40.201 22.5406 40.0461C22.6181 39.8912 22.6181 39.6588 22.6955 39.5039C22.773 39.349 22.8505 39.1166 22.8505 38.9617C22.9279 38.8068 23.0054 38.5744 23.0054 38.4195C23.0828 38.2646 23.1603 38.0322 23.1603 37.8773C23.2377 37.7224 23.3152 37.4901 23.3152 37.3352C23.3926 37.1802 23.4701 36.9479 23.4701 36.793C23.5476 36.6381 23.625 36.4057 23.625 36.2508C23.7025 36.0959 23.7799 35.8635 23.7799 35.7086C23.8574 35.5537 23.9348 35.3213 23.9348 35.1664C24.0123 35.0115 24.0897 34.7791 24.0897 34.6242C24.1672 34.4693 24.2446 34.2369 24.3221 34.082C24.3996 33.9271 24.477 33.6947 24.5545 33.5398C24.6319 33.3849 24.7094 33.1526 24.7868 32.9202C24.8643 32.7653 24.9417 32.5329 25.0192 32.378C25.0967 32.2231 25.1741 31.9907 25.2516 31.8358C25.329 31.6809 25.4065 31.4485 25.4839 31.2936C25.5614 31.1387 25.6388 30.9064 25.7163 30.7514C25.7938 30.5965 25.8712 30.3642 25.9487 30.2093C26.0261 30.0543 26.1036 29.822 26.181 29.6671C26.2585 29.5122 26.3359 29.2798 26.4134 29.1249C26.4909 28.97 26.5683 28.7376 26.6458 28.5827C26.7232 28.4278 26.8007 28.1954 26.8781 28.0405C26.9556 27.8856 27.033 27.6532 27.1105 27.4983C27.188 27.3434 27.2654 27.111 27.3429 26.9561C27.4203 26.8012 27.4978 26.5689 27.5752 26.4139C27.6527 26.259 27.7301 26.0267 27.8076 25.8718C27.8851 25.7168 27.9625 25.4845 28.04 25.3296C28.1174 25.1747 28.1949 24.9423 28.2723 24.7874C28.3498 24.6325 28.4272 24.4001 28.5047 24.2452C28.5822 24.0903 28.6596 23.9354 28.7371 23.703C28.8145 23.5481 28.892 23.3932 28.9694 23.1608C29.0469 23.0059 29.2018 22.851 29.2018 22.6186C29.2793 22.4637 29.4342 22.3088 29.4342 22.0764C29.5116 21.9215 29.6665 21.7666 29.6665 21.5343C29.744 21.3793 29.8989 21.2244 29.9764 20.9921C30.0538 20.8372 30.2087 20.6822 30.2862 20.5273C30.3636 20.3724 30.5185 20.2175 30.596 20.0626C30.6734 19.9077 30.8284 19.7528 30.9058 19.5979C30.9833 19.443 31.1382 19.288 31.2156 19.1331C31.2931 18.9782 31.448 18.8233 31.5255 18.6684C31.6029 18.5135 31.7578 18.3586 31.8353 18.2037C31.9127 18.0488 32.0676 17.8938 32.1451 17.7389C32.2226 17.584 32.3775 17.4291 32.4549 17.2742C32.5324 17.1193 32.6873 16.9644 32.7647 16.8095C32.8422 16.6546 32.9971 16.4996 33.0746 16.3447C33.152 16.1898 33.3069 16.0349 33.3844 15.88C33.4618 15.7251 33.6168 15.5702 33.6942 15.4153C33.8491 15.2604 33.9266 15.1055 34.004 14.8731C34.0815 14.7182 34.2364 14.5633 34.3139 14.4084C34.3913 14.2534 34.5462 14.176 34.6237 14.0211C34.7011 13.8662 34.856 13.7887 34.9335 13.6338C35.011 13.4789 35.1659 13.4014 35.2433 13.2465C35.3208 13.0916 35.4757 13.0142 35.5531 12.8592C35.6306 12.7043 35.7855 12.6269 35.863 12.472C35.9404 12.3171 36.0953 12.2396 36.1728 12.0847C36.2502 11.9298 36.4051 11.8523 36.4826 11.6974C36.5601 11.62 36.715 11.465 36.7924 11.3101C36.8699 11.2327 37.0248 11.0778 37.1022 11.0003C37.1797 10.9229 37.3346 10.7679 37.4121 10.6905C37.4895 10.613 37.6444 10.4581 37.7219 10.3807C37.7993 10.3032 37.9543 10.1483 38.0317 10.0708C38.1092 9.99339 38.2641 9.83848 38.3415 9.76103C38.419 9.68357 38.5739 9.60612 38.6514 9.45121C38.7288 9.37375 38.8837 9.2963 38.9612 9.14138C39.0386 9.06393 39.1161 8.98647 39.271 8.83156C39.3485 8.75411 39.4259 8.67665 39.5808 8.5992C39.6583 8.52174 39.7357 8.44429 39.8906 8.36683C39.9681 8.28937 40.0456 8.21192 40.2005 8.13446C39.271 7.74719 39.3485 7.74719 39.4259 7.66973Z" fill="url(#paint1_linear)"/>
<path d="M119.748 55.0725C119.748 54.8401 119.748 54.6852 119.67 54.5303C119.67 54.3754 119.67 54.2205 119.593 54.0656C119.593 53.9106 119.515 53.7557 119.515 53.6008C119.515 53.4459 119.438 53.291 119.438 53.1361C119.438 52.9812 119.36 52.8263 119.36 52.5939C119.36 52.439 119.283 52.2841 119.283 52.0517C119.283 51.8968 119.205 51.7419 119.205 51.5095C119.205 51.3546 119.128 51.1997 119.128 50.9673C119.128 50.9673 119.128 50.9673 119.128 50.8899C119.128 50.735 119.051 50.5801 119.051 50.4252C119.051 50.4252 119.051 50.4252 119.051 50.3477C119.051 50.1928 118.973 50.0379 118.973 49.883V49.8055C118.973 49.6506 118.896 49.4957 118.896 49.3408V49.2633C118.896 49.1084 118.818 48.9535 118.818 48.7986V48.7211C118.818 48.5662 118.741 48.4113 118.663 48.2564V48.1789C118.663 48.024 118.586 47.8691 118.508 47.7142C118.508 47.6368 118.508 47.6368 118.508 47.5593C118.508 47.4044 118.431 47.2495 118.353 47.0946C118.353 47.0171 118.353 47.0171 118.353 46.9397C118.353 46.7847 118.276 46.6298 118.199 46.5524C118.199 46.4749 118.199 46.4749 118.199 46.3975C118.199 46.2426 118.121 46.0876 118.044 46.0102C118.044 45.9327 118.044 45.8553 118.044 45.8553C118.044 45.7004 117.966 45.6229 117.889 45.468C117.889 45.3905 117.889 45.3131 117.889 45.2356C117.889 45.0807 117.811 45.0033 117.734 44.8484C117.734 44.7709 117.734 44.6935 117.734 44.616C117.734 44.4611 117.656 44.3836 117.579 44.3062C117.579 44.2287 117.579 44.1513 117.501 44.0738C117.501 43.9963 117.424 43.8414 117.346 43.764C117.346 43.6865 117.346 43.6091 117.269 43.4542C117.269 43.3767 117.192 43.2993 117.192 43.1443C117.192 43.0669 117.192 42.912 117.114 42.8345C117.114 42.7571 117.037 42.6796 117.037 42.6022C117.037 42.5247 117.037 42.3698 116.959 42.2923C116.959 42.2149 116.882 42.1374 116.882 42.06C116.882 41.9051 116.804 41.8276 116.804 41.6727C116.804 41.5952 116.727 41.5178 116.727 41.4403C116.727 41.2854 116.649 41.1305 116.649 41.053C116.649 40.9756 116.572 40.9756 116.572 40.8981C116.572 40.7432 116.494 40.5883 116.494 40.4334C116.494 40.3559 116.417 40.3559 116.417 40.2785C116.417 40.1236 116.34 39.9687 116.262 39.8138C116.262 39.8138 116.262 39.7363 116.185 39.7363C116.185 39.5814 116.107 39.349 116.03 39.1941V39.1167C115.952 38.9617 115.952 38.7294 115.875 38.5745C115.797 38.3421 115.797 38.1872 115.642 37.9548C115.565 37.7225 115.565 37.5675 115.41 37.3352C115.333 37.1028 115.333 36.9479 115.178 36.7155C115.1 36.4832 115.1 36.3283 114.945 36.0959C114.868 35.8635 114.79 35.7086 114.713 35.4762C114.636 35.2439 114.558 35.089 114.481 34.8566C114.403 34.6242 114.326 34.4693 114.248 34.237C114.171 34.0046 114.093 33.8497 114.016 33.6173C113.938 33.385 113.861 33.23 113.784 32.9977C113.706 32.7653 113.629 32.6104 113.551 32.378C113.474 32.1457 113.396 31.9908 113.319 31.7584C113.241 31.526 113.164 31.3711 113.086 31.1387C113.009 30.9064 112.932 30.7515 112.854 30.5191C112.777 30.2867 112.699 30.1318 112.622 29.8995C112.544 29.6671 112.467 29.5122 112.389 29.2798C112.312 29.0474 112.234 28.8925 112.157 28.6602C112.08 28.4278 112.002 28.2729 111.925 28.0405C111.847 27.8082 111.77 27.6532 111.692 27.4983C111.615 27.266 111.537 27.1111 111.46 26.9562C111.382 26.7238 111.305 26.5689 111.228 26.414C111.15 26.1816 111.073 26.0267 110.995 25.8718C110.918 25.6394 110.84 25.4845 110.763 25.3296C110.685 25.0972 110.608 24.9423 110.53 24.7874C110.453 24.555 110.375 24.4001 110.298 24.2452C110.221 24.0128 110.143 23.8579 110.066 23.6256C109.988 23.3932 109.911 23.2383 109.833 23.0059C109.756 22.7736 109.678 22.6186 109.601 22.3863C109.523 22.1539 109.446 21.999 109.369 21.7666C109.291 21.5343 109.214 21.3794 109.136 21.2244C109.059 21.0695 108.981 20.8372 108.904 20.6823C108.826 20.5273 108.749 20.295 108.671 20.1401C108.594 19.9852 108.517 19.7528 108.439 19.5979C108.362 19.443 108.284 19.2106 108.207 19.0557C108.129 18.9008 108.052 18.6684 107.974 18.5135C107.897 18.3586 107.819 18.1262 107.742 17.9713C107.665 17.8164 107.587 17.584 107.51 17.4291C107.432 17.2742 107.355 17.0418 107.277 16.8869C107.2 16.732 107.122 16.4997 107.045 16.3447C106.967 16.1898 106.89 15.9575 106.813 15.8026C106.735 15.6476 106.658 15.4153 106.58 15.2604C106.503 15.1055 106.425 14.8731 106.348 14.7182C106.27 14.5633 106.193 14.3309 106.115 14.176C106.038 14.0211 105.961 13.7887 105.883 13.6338C105.806 13.4789 105.728 13.2465 105.651 13.0916C105.573 12.9367 105.496 12.7818 105.418 12.5494C105.341 12.3945 105.263 12.2396 105.186 12.0072C105.109 11.8523 105.031 11.6974 104.954 11.5425C104.876 11.3876 104.799 11.2327 104.721 11.0778C104.644 10.9229 104.566 10.768 104.489 10.613C104.411 10.4581 104.334 10.3032 104.257 10.1483C104.179 9.9934 104.102 9.83849 104.024 9.68358C103.947 9.52867 103.869 9.37376 103.792 9.21885C103.714 9.06394 103.637 8.90902 103.482 8.75411C103.405 8.5992 103.327 8.44429 103.172 8.28938C103.095 8.13447 103.017 7.97956 102.862 7.82465C102.785 7.66974 102.707 7.51483 102.553 7.35992C102.475 7.205 102.398 7.05009 102.243 6.89518C102.165 6.74027 102.088 6.58536 101.933 6.43045C101.855 6.27554 101.778 6.12063 101.623 5.96572C101.546 5.88826 101.546 5.81081 101.468 5.73335L101.391 5.6559C101.391 5.6559 101.391 5.57844 101.313 5.57844C101.236 5.50098 101.236 5.42353 101.158 5.34607C101.081 5.19116 101.003 5.03625 100.926 4.9588C100.848 4.80388 100.771 4.72643 100.694 4.57152C100.616 4.41661 100.539 4.33915 100.461 4.18424C100.384 4.02933 100.306 3.95187 100.229 3.79696C100.151 3.64205 100.074 3.5646 99.9965 3.40969C99.919 3.25478 99.8416 3.17732 99.7641 3.02241C99.6867 2.8675 99.6092 2.79004 99.5317 2.63513C99.4543 2.48022 99.3768 2.40277 99.2994 2.24785C99.2219 2.09294 99.1445 2.01549 99.067 1.93803C98.2925 0.853656 97.0532 0.0791016 95.5815 0.0791016C93.2579 0.0791016 91.3989 1.93803 91.3989 4.2617C91.3989 5.6559 92.096 6.89518 93.1804 7.66974C93.2579 7.74719 93.3353 7.82465 93.4128 7.9021C93.4902 7.97956 93.5677 8.05701 93.7226 8.13447C93.8 8.21193 93.8775 8.28938 94.0324 8.36684C94.1099 8.44429 94.1873 8.52175 94.3422 8.5992C94.4197 8.67666 94.4971 8.75411 94.6521 8.90902C94.7295 8.98648 94.807 9.06394 94.9619 9.21885C95.0393 9.2963 95.1168 9.45121 95.2717 9.52867C95.3492 9.60612 95.4266 9.76103 95.5815 9.83849C95.659 9.91595 95.7364 10.0709 95.8913 10.1483C95.9688 10.2258 96.0462 10.3807 96.2012 10.4581C96.2786 10.613 96.3561 10.6905 96.511 10.768C96.5884 10.9229 96.6659 11.0003 96.8208 11.0778C96.8983 11.2327 96.9757 11.3101 97.1306 11.4651C97.2081 11.62 97.2855 11.6974 97.4405 11.8523C97.5179 12.0072 97.5954 12.0847 97.7503 12.2396C97.8277 12.3945 97.9052 12.472 98.0601 12.6269C98.1375 12.7818 98.215 12.8593 98.3699 13.0142C98.4474 13.1691 98.5248 13.2465 98.6797 13.4014C98.7572 13.5564 98.8346 13.7113 98.9896 13.7887C99.067 13.9436 99.1445 14.0985 99.2994 14.176C99.3768 14.3309 99.5317 14.4858 99.6092 14.6407C99.6867 14.7956 99.8416 15.028 99.919 15.1829C99.9965 15.3378 100.074 15.4927 100.229 15.6477C100.306 15.8026 100.384 15.9575 100.539 16.1124C100.616 16.2673 100.694 16.4222 100.848 16.5771C100.926 16.732 101.003 16.8869 101.158 17.0418C101.236 17.1968 101.313 17.3517 101.468 17.5066C101.546 17.6615 101.623 17.8164 101.778 17.9713C101.855 18.1262 101.933 18.2811 102.088 18.436C102.165 18.591 102.243 18.7459 102.398 18.9008C102.475 19.0557 102.553 19.2106 102.707 19.3655C102.785 19.5204 102.862 19.6753 103.017 19.8302C103.095 19.9852 103.172 20.1401 103.327 20.295C103.405 20.4499 103.482 20.6048 103.637 20.7597C103.714 20.9146 103.792 21.0695 103.947 21.3019C104.024 21.4568 104.102 21.6892 104.179 21.8441C104.257 21.999 104.334 22.2314 104.411 22.3863C104.489 22.5412 104.566 22.7736 104.644 22.9285C104.721 23.0834 104.799 23.3157 104.876 23.4707C104.954 23.6256 105.031 23.8579 105.109 24.0128C105.186 24.1678 105.263 24.4001 105.341 24.555C105.418 24.7099 105.496 24.9423 105.573 25.0972C105.651 25.2521 105.728 25.4845 105.806 25.6394C105.883 25.7943 105.961 26.0267 106.038 26.1816C106.115 26.3365 106.193 26.5689 106.27 26.7238C106.348 26.8787 106.425 27.1111 106.503 27.266C106.58 27.4209 106.658 27.6532 106.735 27.8082C106.813 27.9631 106.89 28.1954 106.967 28.3503C107.045 28.5053 107.122 28.7376 107.2 28.8925C107.277 29.0474 107.355 29.2798 107.432 29.4347C107.51 29.6671 107.587 29.822 107.665 29.9769C107.742 30.2093 107.819 30.3642 107.897 30.5191C107.974 30.7515 108.052 30.9064 108.129 31.0613C108.207 31.2937 108.284 31.4486 108.362 31.6035C108.439 31.8358 108.439 31.9908 108.594 32.1457C108.671 32.378 108.671 32.5329 108.826 32.6879C108.904 32.9202 108.904 33.0751 109.059 33.3075C109.136 33.5399 109.136 33.6948 109.291 33.8497C109.369 34.0821 109.369 34.237 109.523 34.3919C109.601 34.6242 109.601 34.7792 109.678 34.9341C109.756 35.1664 109.756 35.3213 109.833 35.4762C109.911 35.6312 109.911 35.8635 109.988 36.0184C109.988 36.1734 110.066 36.4057 110.143 36.5606C110.143 36.7155 110.221 36.9479 110.298 37.1028C110.298 37.2577 110.376 37.4901 110.453 37.645C110.453 37.7999 110.53 38.0323 110.608 38.1872C110.608 38.3421 110.685 38.5745 110.763 38.7294C110.763 38.8843 110.84 39.1167 110.918 39.2716C110.918 39.4265 110.995 39.6588 111.073 39.8138C111.073 39.9687 111.15 40.201 111.228 40.3559C111.228 40.5109 111.305 40.7432 111.382 40.8981C111.382 41.053 111.46 41.2854 111.537 41.4403C111.537 41.5952 111.615 41.8276 111.692 41.9825C111.692 42.1374 111.77 42.3698 111.77 42.5247C111.77 42.6796 111.847 42.912 111.847 43.0669C111.847 43.2218 111.925 43.4542 111.925 43.6091C111.925 43.8414 112.002 44.0738 112.08 44.2287C112.08 44.3836 112.157 44.616 112.157 44.7709C112.157 44.9258 112.157 45.0807 112.234 45.3131C112.234 45.468 112.234 45.6229 112.312 45.7778C112.312 45.7778 112.312 45.7778 112.312 45.8553C112.312 46.0102 112.312 46.1651 112.389 46.32C112.389 46.32 112.389 46.32 112.389 46.3975C112.389 46.5524 112.389 46.7073 112.467 46.8622V46.9397C112.467 47.0946 112.467 47.2495 112.544 47.4044V47.4818C112.544 47.6368 112.544 47.7917 112.544 47.9466V48.024C112.544 48.1789 112.544 48.3339 112.544 48.4113V48.4888C112.544 48.6437 112.544 48.7211 112.544 48.876V48.9535C112.544 49.1084 112.544 49.1859 112.544 49.3408V49.4182C112.544 49.5731 112.544 49.6506 112.544 49.8055V49.883C112.544 50.0379 112.544 50.1153 112.544 50.2702V50.3477C112.544 50.5026 112.544 50.5801 112.544 50.735V50.8124C112.544 50.9673 112.544 51.0448 112.544 51.1997V51.2772C112.544 51.4321 112.544 51.5095 112.544 51.6644V51.7419C112.544 51.8968 112.544 51.9743 112.544 52.1292V52.2066C112.544 52.3615 112.544 52.439 112.544 52.5939V52.6714C112.544 52.8263 112.544 52.9037 112.544 53.0586V53.1361C112.544 53.291 112.544 53.3685 112.544 53.5234C112.544 53.5234 112.544 53.5234 112.544 53.6008C112.544 53.7557 112.544 53.8332 112.544 53.9881C112.544 53.9881 112.544 53.9881 112.544 54.0656C112.544 54.2205 112.544 54.2979 112.544 54.4528C112.544 54.6077 112.544 54.6852 112.544 54.8401C112.544 54.995 112.467 55.0725 112.467 55.2274C112.467 57.5511 114.326 59.41 116.649 59.41C118.973 59.41 120.832 57.5511 120.832 55.2274C119.825 55.3823 119.748 55.2274 119.748 55.0725Z" fill="url(#paint2_linear)"/>
<path d="M64.675 21.0645C65.1397 20.987 65.6044 20.9096 66.0692 20.9096C66.5339 20.9096 66.9986 20.987 67.4634 21.0645C70.9489 20.4448 73.5824 17.4241 73.5824 13.7837C73.5824 10.3756 71.2587 7.43234 68.083 6.58033C68.0056 6.58033 67.9281 6.58033 67.8506 6.50287C67.6957 6.50287 67.5408 6.42542 67.4634 6.42542C67.3085 6.42542 67.231 6.34796 67.0761 6.34796C66.9212 6.34796 66.7663 6.27051 66.6114 6.27051C66.4565 6.27051 66.3015 6.27051 66.1466 6.27051C65.9917 6.27051 65.8368 6.27051 65.6819 6.27051C65.527 6.27051 65.3721 6.27051 65.2172 6.34796C65.0623 6.34796 64.9848 6.34796 64.8299 6.42542C64.675 6.42542 64.5201 6.50287 64.4426 6.50287C64.3652 6.50287 64.2877 6.50287 64.2102 6.58033C63.9779 6.65778 63.7455 6.65779 63.5131 6.73524C63.2808 6.8127 63.1259 6.8127 62.8935 6.89015C62.6611 6.96761 62.5062 7.04506 62.2739 7.12252C62.1964 7.12252 62.1964 7.12252 62.1189 7.19997H62.0415C61.8091 7.27743 61.6542 7.35488 61.4993 7.43234C61.2669 7.50979 61.112 7.58725 60.9571 7.66471C60.7248 7.74216 60.4149 7.89707 60.1826 8.05198C60.0277 8.12944 59.7953 8.28435 59.6404 8.3618C59.408 8.43926 59.2531 8.59417 59.0982 8.67163C58.9433 8.74908 58.7109 8.90399 58.556 9.0589C58.4011 9.13636 58.1687 9.29127 58.0138 9.44618H57.9364C57.7814 9.52364 57.5491 9.67855 57.3942 9.83346C57.2393 9.98837 57.0069 10.0658 56.852 10.2207C56.6971 10.3756 56.4647 10.4531 56.3098 10.608C56.1549 10.7629 55.9225 10.9178 55.7676 10.9953C55.6127 11.1502 55.3803 11.3051 55.2254 11.46C55.0705 11.6149 54.8381 11.7698 54.6832 11.9248C54.5283 12.0797 54.296 12.2346 54.141 12.3895C53.9861 12.5444 53.8312 12.6993 53.5989 12.8542C53.4439 13.0091 53.289 13.164 53.1341 13.319C52.9792 13.4739 52.8243 13.6288 52.6694 13.7837C52.5145 13.9386 52.3596 14.0935 52.2047 14.2484C52.0497 14.4033 51.8948 14.5582 51.7399 14.7906C51.585 14.9455 51.4301 15.1004 51.2752 15.3328C51.1203 15.4877 50.9654 15.6426 50.8105 15.875C50.6555 16.0299 50.5006 16.2623 50.3457 16.4172C50.1908 16.5721 50.0359 16.8044 49.881 16.9594C49.7261 17.1143 49.5712 17.3466 49.4163 17.5015C49.2614 17.6565 49.029 17.8888 48.8741 18.0437C48.7192 18.1986 48.5643 18.431 48.4093 18.5859C48.2544 18.7408 48.0221 18.9732 47.8672 19.2056C47.7122 19.3605 47.4799 19.5928 47.325 19.8252C47.1701 19.9801 46.9377 20.2125 46.8602 20.4448C46.7053 20.6772 46.473 20.8321 46.318 21.0645C46.1631 21.2194 45.9308 21.4518 45.8533 21.6841C45.6984 21.839 45.5435 22.0714 45.3886 22.2263C45.2337 22.4587 45.0013 22.6136 44.9239 22.846C44.7689 23.0783 44.5366 23.2332 44.3817 23.4656C44.2267 23.698 43.9944 23.8529 43.8395 24.0853C43.6846 24.3176 43.4522 24.4725 43.2973 24.7049C43.1424 24.9373 42.91 25.0922 42.7551 25.3245C42.6002 25.5569 42.3678 25.7118 42.2129 25.9442C42.058 26.1766 41.8256 26.3315 41.6707 26.5638C41.5158 26.7962 41.2834 26.9511 41.1285 27.1835C40.9736 27.4158 40.7413 27.5707 40.5863 27.8031C40.354 28.0355 40.1991 28.1904 40.0442 28.4228C39.8892 28.6551 39.6569 28.81 39.502 29.0424C39.2696 29.2748 39.1147 29.5071 38.9598 29.7395C38.8049 29.8944 38.65 30.1268 38.4951 30.3591C38.2627 30.5915 38.1078 30.7464 37.9529 30.9788C37.7205 31.2112 37.5656 31.3661 37.4107 31.5984C37.2558 31.8308 37.0234 31.9857 36.8685 32.2181C36.7136 32.4504 36.4812 32.6054 36.3263 32.8377C36.0939 33.0701 35.939 33.225 35.7841 33.4574C35.5517 33.6897 35.3968 33.8446 35.2419 34.077C35.0096 34.3094 34.8546 34.4643 34.6997 34.7741C34.4674 35.0065 34.3125 35.1614 34.1575 35.3937C34.0026 35.6261 33.7703 35.781 33.6928 36.0134C33.5379 36.1683 33.3055 36.4007 33.2281 36.633C33.0732 36.7879 32.8408 37.0203 32.7633 37.2527C32.6084 37.4076 32.3761 37.64 32.2986 37.8723C32.1437 38.0272 31.9113 38.2596 31.8339 38.492C31.679 38.6469 31.4466 38.8792 31.3692 39.0341C31.1368 39.1891 30.9819 39.4214 30.827 39.6538C30.827 39.6538 30.827 39.6538 30.7495 39.6538C30.5946 39.8087 30.3622 40.0411 30.2848 40.196L30.2073 40.2734C30.0524 40.4283 29.8975 40.5833 29.82 40.7382C29.7426 40.8156 29.7426 40.8156 29.6651 40.8931C29.5102 41.048 29.4328 41.1254 29.3553 41.2804C29.2779 41.3578 29.2004 41.4353 29.1229 41.5127C29.0455 41.5902 28.968 41.7451 28.8906 41.8225C28.8131 41.9 28.6582 42.0549 28.5808 42.1324C28.5033 42.2098 28.5033 42.2873 28.4258 42.3647C28.2709 42.5196 28.116 42.5971 28.0386 42.752L27.9611 42.8295C27.8062 42.9844 27.6513 43.1393 27.4964 43.2942C27.3415 43.4491 27.1866 43.604 27.0317 43.8364C26.8767 43.9913 26.7218 44.1462 26.5669 44.3011C26.412 44.456 26.2571 44.6109 26.1022 44.7659C25.9473 44.9208 25.7924 45.0757 25.6375 45.2306C25.4825 45.3855 25.3276 45.463 25.1727 45.6953C25.0178 45.8502 24.8629 46.0051 24.708 46.16C24.5531 46.315 24.3982 46.3924 24.2433 46.5473C24.0883 46.7022 23.9334 46.7797 23.7785 46.9346C23.6236 47.0121 23.4687 47.167 23.3138 47.3219C23.1589 47.3993 23.004 47.5542 22.8491 47.7092C22.6941 47.7866 22.5392 47.9415 22.3843 48.019C22.2294 48.0964 22.0745 48.2513 21.997 48.3288C21.8421 48.4063 21.6872 48.5612 21.6098 48.6386C21.4549 48.7161 21.2999 48.7935 21.2225 48.9484C21.0676 49.0259 20.9127 49.1034 20.8352 49.1808C20.7578 49.2583 20.6029 49.3357 20.5254 49.4132C20.3705 49.4906 20.293 49.5681 20.1381 49.6455C19.9832 49.723 19.9058 49.8005 19.7508 49.8779C19.5959 49.9554 19.5185 50.0328 19.3636 50.1103C19.2861 50.1877 19.2087 50.1877 19.1312 50.1877C18.9763 50.2652 18.8988 50.2652 18.7439 50.3426C18.589 50.4201 18.5116 50.4201 18.3566 50.4976C18.2792 50.4976 18.2792 50.4976 18.2792 50.575C18.2017 50.575 18.0468 50.6525 17.9694 50.6525C17.8919 50.6525 17.737 50.7299 17.6595 50.7299C17.5821 50.7299 17.4272 50.7299 17.3497 50.8074C17.2723 50.8074 17.1948 50.8074 17.1948 50.8074C17.1174 50.8074 17.1174 50.8074 17.0399 50.8074H16.9624C16.8075 50.8074 16.7301 50.8074 16.5752 50.8074C14.2515 50.8074 12.3926 52.6663 12.3926 54.99C12.3926 57.3136 14.2515 59.0951 16.5752 59.0951C16.885 59.0951 17.1948 59.0951 17.5046 59.0176C17.6595 59.0176 17.737 58.9402 17.8919 58.9402C18.1243 58.9402 18.3566 58.8627 18.589 58.7853C18.8214 58.7078 18.9763 58.7078 19.1312 58.6304C19.2861 58.5529 19.441 58.5529 19.5185 58.4755C19.7508 58.398 19.9058 58.3205 20.1381 58.2431C20.3705 58.1656 20.5254 58.0882 20.7578 58.0107C20.9127 57.9333 21.0676 57.8558 21.145 57.7784C21.2999 57.7009 21.4549 57.6234 21.5323 57.546C21.7647 57.4685 21.997 57.3136 22.2294 57.1587C22.3843 57.0813 22.5392 57.0038 22.6167 56.9264C22.7716 56.8489 22.9265 56.7714 23.0814 56.694C23.2363 56.6165 23.3912 56.5391 23.5462 56.3842C23.7785 56.3067 23.9334 56.1518 24.1658 55.9969C24.3207 55.9194 24.4756 55.7645 24.6305 55.6096C24.7854 55.5322 24.9404 55.3772 25.0953 55.2998C25.2502 55.2223 25.4051 55.0674 25.56 54.9125C25.7149 54.8351 25.8698 54.6801 26.0247 54.5252C26.1796 54.4478 26.3346 54.2929 26.4895 54.138C26.7218 53.983 26.8767 53.8281 27.0317 53.6732C27.1866 53.5183 27.3415 53.4409 27.4964 53.2859C27.6513 53.131 27.8062 53.0536 27.9611 52.8987C28.116 52.7438 28.2709 52.5888 28.4258 52.4339C28.5808 52.279 28.7357 52.1241 28.8906 51.9692C29.0455 51.8143 29.2779 51.6594 29.4328 51.5045C29.6651 51.3496 29.82 51.1946 29.975 50.9623C30.1299 50.8074 30.3622 50.6525 30.5171 50.4976C30.6721 50.3426 30.9044 50.1877 31.0593 50.0328C31.2142 49.8779 31.4466 49.723 31.6015 49.5681C31.7564 49.4132 31.9888 49.2583 32.1437 49.1034C32.2986 48.9484 32.531 48.7935 32.6859 48.5612C32.8408 48.4063 33.0732 48.2513 33.2281 48.019C33.4604 47.8641 33.6154 47.7092 33.7703 47.4768C33.7703 47.4768 33.7703 47.4768 33.7703 47.3993C33.9252 47.2444 34.0801 47.167 34.235 47.0121C34.235 46.9346 34.3125 46.9346 34.3125 46.8571C34.4674 46.7797 34.6223 46.6248 34.6997 46.4699C34.7772 46.3924 34.7772 46.315 34.8546 46.315C34.9321 46.2375 35.087 46.16 35.1645 46.0051C35.2419 45.9277 35.3194 45.8502 35.3968 45.7728C35.4743 45.6953 35.6292 45.6179 35.7067 45.5404C35.7841 45.463 35.8616 45.308 35.939 45.2306C36.0165 45.1531 36.0939 45.1531 36.1714 45.0757C36.3263 44.9982 36.4038 44.8433 36.4812 44.6884C36.5587 44.6109 36.5587 44.6109 36.6361 44.5335C36.791 44.3786 36.8685 44.2237 37.0234 44.1462L37.1009 44.0688C37.2558 43.9138 37.4107 43.7589 37.5656 43.604C37.5656 43.604 37.643 43.604 37.643 43.5266C37.8754 43.3717 38.0303 43.1393 38.1852 42.9844C38.4176 42.8295 38.5725 42.5971 38.7274 42.4422C38.9598 42.2873 39.1147 42.0549 39.2696 41.9C39.502 41.7451 39.6569 41.5127 39.8118 41.3578C40.0442 41.2029 40.1991 40.9705 40.354 40.8156C40.5863 40.6607 40.7413 40.4283 40.8962 40.196C41.1285 40.0411 41.2834 39.8087 41.4384 39.6538C41.6707 39.4989 41.8256 39.2665 41.9805 39.1116C42.2129 38.9567 42.3678 38.7243 42.5227 38.5694C42.7551 38.4145 42.91 38.1821 43.0649 38.0272C43.2973 37.8723 43.4522 37.64 43.6071 37.485C43.8395 37.3301 43.9944 37.0978 44.1493 36.9429C44.3817 36.7879 44.614 36.5556 44.7689 36.3232C45.0013 36.1683 45.1562 35.9359 45.3111 35.781C45.5435 35.6261 45.6984 35.3937 45.9308 35.2388C46.1631 35.0839 46.318 34.8516 46.473 34.6966C46.7053 34.5417 46.8602 34.3094 47.0151 34.1545C47.2475 33.9995 47.4024 33.7672 47.5573 33.6123C47.7897 33.4574 47.9446 33.225 48.0995 33.0701C48.3319 32.9152 48.4868 32.6828 48.6417 32.5279C48.8741 32.373 49.029 32.1406 49.2614 31.9857C49.4937 31.8308 49.6486 31.5984 49.881 31.4435C50.1134 31.2886 50.2683 31.1337 50.4232 30.9013C50.6555 30.7464 50.8105 30.5915 50.9654 30.3591C51.1977 30.2042 51.3526 30.0493 51.5076 29.817C51.7399 29.662 51.8948 29.5071 52.0497 29.3522C52.2047 29.1973 52.437 29.0424 52.5919 28.8875C52.8243 28.7326 52.9792 28.5777 53.1341 28.4228C53.289 28.2678 53.5214 28.1129 53.6763 27.958C53.8312 27.8031 54.0636 27.6482 54.2185 27.4933C54.3734 27.3384 54.6058 27.1835 54.7607 27.0286C54.9156 26.8736 55.148 26.7187 55.3029 26.5638C55.4578 26.4089 55.6902 26.254 55.8451 26.1766C56 26.0216 56.2323 25.9442 56.3873 25.7893C56.5422 25.6344 56.7745 25.5569 56.9294 25.402C57.0843 25.2471 57.2393 25.1696 57.4716 25.0147C57.6265 24.9373 57.7814 24.7824 57.9364 24.6274C58.0913 24.55 58.2462 24.3951 58.4011 24.2402C58.556 24.1627 58.7109 24.0078 58.8658 23.9303C59.0207 23.8529 59.1756 23.698 59.3306 23.6205C59.4855 23.5431 59.6404 23.3882 59.7953 23.3107C59.9502 23.2332 60.1051 23.1558 60.26 23.0009C60.4149 22.9234 60.5698 22.846 60.7248 22.7685C60.8797 22.6911 61.0346 22.6136 61.112 22.5361C61.2669 22.4587 61.4219 22.3812 61.4993 22.3038C61.6542 22.2263 61.7317 22.1489 61.8866 22.0714C62.0415 21.994 62.1189 21.9165 62.2739 21.9165C62.3513 21.839 62.4288 21.839 62.5062 21.7616C62.6611 21.6841 62.7386 21.6841 62.8935 21.6067C63.0484 21.5292 63.1259 21.5292 63.2033 21.4518C63.2808 21.4518 63.4357 21.3743 63.5131 21.3743C63.5906 21.3743 63.5906 21.3743 63.5906 21.2969C63.6681 21.2969 63.6681 21.2969 63.7455 21.2194C63.823 21.2194 63.823 21.2194 63.9004 21.1419L64.675 21.0645Z" fill="url(#paint3_linear)"/>
<path d="M67.6971 21.1436C67.7745 21.1436 67.7745 21.1436 67.7745 21.1436C67.852 21.1436 67.852 21.1436 67.9294 21.221C68.0069 21.221 68.0069 21.221 68.0843 21.2985C68.1618 21.2985 68.1618 21.2985 68.1618 21.376C68.2392 21.4534 68.3941 21.4534 68.4716 21.4534C68.5491 21.5309 68.704 21.5309 68.7814 21.6083C68.8589 21.6858 69.0138 21.6858 69.0912 21.7632C69.1687 21.8407 69.2462 21.8407 69.3236 21.9181C69.4785 21.9956 69.556 22.0731 69.7109 22.0731C69.8658 22.1505 69.9433 22.228 70.0982 22.3054C70.2531 22.3829 70.3305 22.4603 70.4854 22.5378C70.6404 22.6152 70.7953 22.6927 70.8727 22.7702C71.0276 22.8476 71.1825 22.9251 71.26 23.0025C71.4149 23.08 71.5698 23.2349 71.7247 23.3123C71.8796 23.3898 72.0345 23.5447 72.1895 23.6222C72.3444 23.6996 72.4993 23.8545 72.6542 23.932C72.8091 24.0869 72.964 24.1644 73.1189 24.2418C73.2738 24.3967 73.4288 24.4742 73.5837 24.6291C73.7386 24.784 73.8935 24.8615 74.1258 25.0164C74.2808 25.1713 74.4357 25.2487 74.668 25.4036C74.8229 25.5586 74.9779 25.7135 75.2102 25.7909C75.3651 25.9458 75.52 26.1007 75.7524 26.1782C75.9073 26.3331 76.0622 26.488 76.2946 26.5655C76.4495 26.7204 76.6044 26.8753 76.8368 27.0302C76.9917 27.1851 77.1466 27.34 77.379 27.4949C77.5339 27.6499 77.6888 27.8048 77.9212 27.9597C78.0761 28.1146 78.231 28.2695 78.4634 28.4244C78.6183 28.5793 78.8506 28.7342 79.0055 28.8891C79.1604 29.044 79.3928 29.199 79.5477 29.3539C79.7026 29.5088 79.935 29.6637 80.0899 29.8186C80.2448 29.9735 80.4772 30.2059 80.6321 30.3608C80.787 30.5157 81.0194 30.7481 81.1743 30.903C81.3292 31.0579 81.5616 31.2903 81.7165 31.4452C81.8714 31.6775 82.1038 31.8324 82.2587 31.9874C82.4136 32.2197 82.6459 32.3746 82.8783 32.5295C83.0332 32.7619 83.2656 32.9168 83.4205 33.0717C83.5754 33.3041 83.8078 33.459 83.9627 33.6139C84.1176 33.8463 84.35 34.0012 84.5049 34.1561C84.6598 34.3885 84.8922 34.5434 85.0471 34.6983C85.202 34.9307 85.4343 35.0856 85.5892 35.2405C85.7442 35.4728 85.9765 35.6278 86.1314 35.7827C86.2863 36.015 86.5187 36.1699 86.6736 36.3249C86.8285 36.5572 87.0609 36.7896 87.2933 36.9445C87.4482 37.1769 87.6805 37.3318 87.8355 37.4867C87.9904 37.7191 88.2227 37.874 88.3776 38.0289C88.5326 38.2612 88.7649 38.4162 88.9198 38.5711C89.0747 38.8034 89.3071 38.9583 89.462 39.1133C89.6169 39.3456 89.8493 39.5005 90.0042 39.6554C90.1591 39.8878 90.3915 40.0427 90.5464 40.1976C90.7013 40.43 90.9337 40.5849 91.0886 40.8173C91.2435 41.0496 91.4759 41.2045 91.6308 41.3595C91.7857 41.5918 92.018 41.7467 92.173 41.9016C92.3279 42.134 92.5602 42.2889 92.7151 42.4438C92.8701 42.6762 93.025 42.8311 93.2573 42.986C93.4122 43.2184 93.5672 43.3733 93.7995 43.5282C93.7995 43.5282 93.7995 43.5282 93.877 43.6057C94.0319 43.7606 94.1868 43.9155 94.3417 44.0704L94.4192 44.1479C94.4966 44.3028 94.6515 44.4577 94.8064 44.5351C94.8839 44.6126 94.9613 44.6126 94.9613 44.69C95.0388 44.845 95.1937 44.9224 95.2712 45.0773C95.3486 45.1548 95.4261 45.2322 95.5035 45.2322C95.581 45.3097 95.6584 45.4646 95.7359 45.542C95.8134 45.6195 95.9683 45.697 96.0457 45.7744C96.1232 45.8519 96.2006 45.9293 96.2781 46.0068C96.3556 46.0842 96.5105 46.2392 96.6654 46.3166C96.7428 46.3941 96.7428 46.4715 96.8203 46.4715C96.9752 46.6264 97.0526 46.7039 97.2076 46.8588C97.2076 46.9363 97.285 46.9362 97.285 47.0137C97.4399 47.1686 97.5948 47.3235 97.7497 47.401C97.7497 47.401 97.7497 47.401 97.7497 47.4784C97.9047 47.7108 98.137 47.8657 98.2919 48.0206C98.4468 48.1755 98.6018 48.4079 98.8341 48.5628C98.989 48.7177 99.1439 48.9501 99.3763 49.105C99.5312 49.2599 99.6861 49.4923 99.9185 49.5697C100.073 49.7246 100.228 49.957 100.461 50.0345C100.616 50.1894 100.771 50.3443 101.003 50.4992C101.158 50.6541 101.313 50.809 101.468 50.9639C101.623 51.1963 101.855 51.3512 102.01 51.5061C102.165 51.661 102.32 51.8159 102.552 51.9709C102.707 52.1258 102.862 52.2807 103.017 52.4356C103.172 52.5905 103.327 52.7454 103.481 52.9003C103.636 53.0552 103.791 53.2101 103.946 53.2876C104.101 53.4425 104.256 53.5974 104.411 53.6749C104.566 53.8298 104.798 53.9847 104.953 54.1396C105.108 54.2945 105.263 54.4494 105.418 54.5269C105.573 54.6818 105.728 54.7593 105.883 54.9142C106.037 55.0691 106.192 55.1465 106.347 55.3014C106.502 55.4563 106.657 55.5338 106.812 55.6113C106.967 55.7662 107.122 55.8436 107.277 55.9985C107.432 56.1534 107.664 56.3084 107.896 56.3858C108.051 56.4633 108.206 56.6182 108.361 56.6956C108.516 56.7731 108.671 56.8505 108.826 56.928C108.981 57.0055 109.136 57.0829 109.213 57.1604C109.446 57.3153 109.678 57.4702 109.91 57.5476C110.065 57.6251 110.22 57.7026 110.298 57.78C110.452 57.8575 110.53 57.9349 110.685 58.0124C110.84 58.0898 111.072 58.1673 111.304 58.2447C111.459 58.3222 111.692 58.3997 111.924 58.4771C112.079 58.5546 112.156 58.5546 112.311 58.632C112.466 58.7095 112.699 58.7869 112.854 58.7869C113.086 58.8644 113.318 58.9418 113.551 58.9418C113.706 58.9418 113.783 59.0193 113.938 59.0193C114.248 59.0967 114.558 59.0967 114.867 59.0967C117.191 59.0967 119.05 57.2378 119.05 54.9916C119.05 52.668 117.191 50.809 114.867 50.809C114.712 50.809 114.635 50.809 114.48 50.809H114.403C114.325 50.809 114.325 50.809 114.248 50.809C114.17 50.809 114.17 50.809 114.093 50.809C114.015 50.809 113.86 50.7316 113.783 50.7316C113.706 50.7316 113.551 50.6541 113.473 50.6541C113.396 50.5767 113.241 50.5767 113.163 50.5767C113.163 50.5767 113.086 50.5767 113.086 50.4992C113.008 50.4217 112.854 50.4217 112.699 50.3443C112.544 50.2668 112.466 50.2668 112.311 50.1894C112.234 50.1119 112.156 50.1119 112.079 50.1119C111.924 50.0345 111.847 49.957 111.692 49.8796C111.537 49.8021 111.459 49.7246 111.304 49.6472C111.15 49.5697 111.072 49.4923 110.917 49.4148C110.84 49.3374 110.685 49.2599 110.607 49.1825C110.452 49.105 110.375 49.0275 110.22 48.9501C110.065 48.8726 109.988 48.7177 109.833 48.6403C109.678 48.5628 109.6 48.4079 109.446 48.3304C109.291 48.253 109.213 48.0981 109.058 48.0206C108.903 47.8657 108.748 47.7883 108.593 47.7108C108.439 47.5559 108.284 47.4784 108.129 47.3235C107.974 47.1686 107.819 47.0912 107.664 46.9362C107.509 46.7813 107.354 46.6264 107.199 46.549C107.044 46.3941 106.889 46.2392 106.735 46.1617C106.58 46.0068 106.425 45.8519 106.27 45.697C106.115 45.5421 105.96 45.3871 105.805 45.2322C105.65 45.0773 105.495 44.9224 105.34 44.7675C105.185 44.6126 105.031 44.4577 104.876 44.3028C104.721 44.1479 104.566 43.9929 104.411 43.838C104.256 43.6831 104.101 43.4508 103.946 43.2958C103.791 43.1409 103.636 42.9086 103.481 42.8311L103.404 42.7537C103.249 42.5987 103.094 42.4438 103.017 42.3664C102.939 42.2889 102.939 42.2115 102.862 42.134C102.784 41.9791 102.629 41.9016 102.552 41.8242C102.475 41.7467 102.397 41.5918 102.32 41.5144C102.242 41.4369 102.165 41.3595 102.087 41.282C102.01 41.1271 101.855 40.9722 101.777 40.8947C101.7 40.8173 101.7 40.8173 101.623 40.7398C101.468 40.5849 101.39 40.43 101.235 40.2751L101.158 40.1976C101.003 39.9653 100.848 39.8104 100.693 39.6554C100.538 39.4231 100.383 39.2682 100.151 39.0358C99.996 38.8034 99.841 38.6485 99.6861 38.4936C99.5312 38.2612 99.3763 38.1063 99.2214 37.874C99.0665 37.6416 98.9116 37.4867 98.7567 37.2543C98.6018 37.022 98.4468 36.867 98.2919 36.6347C98.137 36.4023 97.9821 36.2474 97.8272 36.015C97.6723 35.7827 97.5174 35.6278 97.3625 35.3954C97.2076 35.163 97.0526 34.9307 96.8203 34.7757C96.6654 34.5434 96.5105 34.311 96.2781 34.0787C96.1232 33.8463 95.9683 33.6139 95.7359 33.459C95.581 33.2266 95.4261 32.9943 95.1937 32.8394C95.0388 32.607 94.8839 32.3746 94.6515 32.2197C94.4966 31.9874 94.3417 31.755 94.1093 31.6001C93.9544 31.3677 93.7995 31.1353 93.5672 30.9804C93.4122 30.7481 93.2573 30.5157 93.025 30.3608C92.8701 30.1284 92.7151 29.9735 92.5602 29.7411C92.4053 29.5088 92.2504 29.2764 92.018 29.044C91.8631 28.8117 91.7082 28.5793 91.4759 28.4244C91.3209 28.192 91.166 27.9597 90.9337 27.8048C90.7788 27.5724 90.6238 27.34 90.3915 27.1851C90.2366 26.9528 90.0817 26.7204 89.8493 26.5655C89.6944 26.3331 89.5395 26.1007 89.3071 25.9458C89.1522 25.7135 88.9973 25.4811 88.7649 25.3262C88.61 25.0938 88.4551 24.8615 88.2227 24.7065C88.0678 24.4742 87.9129 24.2418 87.6805 24.0869C87.5256 23.8545 87.3707 23.6222 87.1384 23.4673C86.9834 23.2349 86.8285 23.0025 86.5962 22.8476C86.4413 22.6152 86.2863 22.4603 86.054 22.228C85.8991 21.9956 85.7442 21.8407 85.5892 21.6858C85.4343 21.4534 85.2794 21.2985 85.1245 21.0661C84.9696 20.8338 84.8147 20.6789 84.5823 20.4465C84.4274 20.2141 84.2725 20.0592 84.0401 19.8269C83.8852 19.5945 83.7303 19.4396 83.498 19.2072C83.343 18.9748 83.1881 18.8199 83.0332 18.5876C82.8783 18.3552 82.7234 18.2003 82.491 18.0454C82.3361 17.813 82.1812 17.6581 82.0263 17.5032C81.8714 17.2708 81.7165 17.1159 81.4841 16.961C81.3292 16.7286 81.1743 16.5737 81.0194 16.4188C80.8645 16.2639 80.7096 16.0315 80.5546 15.8766C80.3997 15.7217 80.2448 15.4893 80.0899 15.3344C79.935 15.1795 79.7801 14.9472 79.6252 14.7922C79.4703 14.6373 79.3154 14.405 79.1604 14.2501C79.0055 14.0952 78.8506 13.9402 78.6957 13.7853C78.5408 13.6304 78.3859 13.4755 78.231 13.3206C78.0761 13.1657 77.9212 13.0108 77.7663 12.8559C77.6113 12.701 77.4564 12.546 77.2241 12.3911C77.0692 12.2362 76.9142 12.0813 76.6819 11.9264C76.527 11.7715 76.3721 11.6166 76.1397 11.4617C75.9848 11.3068 75.8299 11.1518 75.5975 10.9969C75.4426 10.842 75.2877 10.6871 75.0553 10.6097C74.9004 10.4547 74.7455 10.2998 74.5131 10.2224C74.3582 10.0675 74.2033 9.91256 73.9709 9.8351C73.816 9.68019 73.6611 9.60274 73.4288 9.44783C73.4288 9.44783 73.4287 9.44783 73.3513 9.44783C73.1964 9.29292 72.964 9.21546 72.8091 9.06055C72.6542 8.90564 72.4218 8.82818 72.2669 8.67327C72.112 8.51836 71.8796 8.44091 71.7247 8.36345C71.5698 8.28599 71.3375 8.13108 71.1825 8.05363C70.9502 7.89872 70.7178 7.82126 70.408 7.66635C70.2531 7.5889 70.0207 7.51144 69.8658 7.43398C69.7109 7.35653 69.4785 7.27907 69.3236 7.20162H69.2462C69.1687 7.20162 69.1687 7.12416 69.0912 7.12416C69.7109 7.12416 69.556 7.04671 69.3236 6.96925C69.0912 6.8918 68.9363 6.81434 68.704 6.81434C68.4716 6.73689 68.2392 6.65943 68.0069 6.65943C67.9294 6.65943 67.852 6.65943 67.7745 6.58198C67.6196 6.58198 67.4647 6.50452 67.3872 6.50452C67.2323 6.50452 67.1549 6.42706 67 6.42706C66.845 6.42706 66.6901 6.34961 66.5352 6.34961C66.3803 6.34961 66.2254 6.34961 66.0705 6.34961C65.9156 6.34961 65.7607 6.34961 65.6058 6.34961C65.4508 6.34961 65.2959 6.34961 65.141 6.42706C64.9861 6.42706 64.9087 6.42706 64.7537 6.50452C64.5988 6.50452 64.4439 6.58198 64.3665 6.58198C64.289 6.58198 64.2116 6.58198 64.1341 6.65943C60.9584 7.51144 58.6348 10.4547 58.6348 13.8628C58.6348 17.5032 61.2683 20.524 64.7537 21.1436C65.2185 21.0661 65.6832 20.9887 66.1479 20.9887C66.6127 20.9887 67.0774 21.0661 67.5421 21.1436H67.6971Z" fill="url(#paint4_linear)"/>
<path d="M66.2252 41.2029C66.1478 41.2804 66.0703 41.2804 66.0703 41.3578C65.9929 41.2804 65.9154 41.2804 65.9154 41.2029C65.838 41.1254 65.683 40.9705 65.6056 40.8931C65.5281 40.8156 65.3732 40.6607 65.2958 40.5833C65.2183 40.5058 65.0634 40.3509 64.986 40.2734C64.9085 40.196 64.7536 40.0411 64.6761 39.9636C64.5987 39.8087 64.4438 39.7313 64.3663 39.5763C64.2889 39.4214 64.1339 39.344 64.0565 39.1891C63.979 39.0342 63.8241 38.9567 63.7467 38.8018C63.6692 38.6469 63.5143 38.5694 63.4368 38.4145C63.3594 38.2596 63.2045 38.1047 63.127 38.0272C63.0496 37.8723 62.8947 37.7174 62.8172 37.64C62.8172 37.5625 62.7397 37.5625 62.7397 37.5625C63.5918 38.5694 64.9085 39.1891 66.3027 39.1891C67.6969 39.1891 69.0136 38.5694 69.8656 37.5625C69.7882 37.64 69.7882 37.64 69.7882 37.7174C69.7107 37.8723 69.5558 38.0272 69.4784 38.1047C69.4009 38.2596 69.246 38.3371 69.1685 38.492C69.0911 38.6469 68.9362 38.7243 68.8587 38.8792C68.7813 38.9567 68.6264 39.1116 68.5489 39.2665C68.4714 39.344 68.3165 39.4989 68.2391 39.6538C68.1616 39.7312 68.0067 39.8862 67.9293 40.0411C67.8518 40.1185 67.6969 40.2734 67.6194 40.3509C67.542 40.4283 67.3871 40.5833 67.3096 40.6607C67.2322 40.7382 67.0772 40.8931 66.9998 40.9705C66.4576 41.048 66.3027 41.1254 66.2252 41.2029Z" fill="#E69E44"/>
<path d="M73.5062 50.1137C73.5062 52.205 72.6542 54.1413 71.1825 55.5355C70.4854 56.2326 69.6334 56.6974 68.7814 57.0846C68.704 57.1621 68.5491 57.1621 68.4716 57.1621C68.1618 57.317 67.852 57.3945 67.5421 57.3945C67.3872 57.3945 67.3098 57.4719 67.1549 57.4719C67 57.4719 66.9225 57.5494 66.7676 57.5494C66.5352 57.5494 66.2254 57.6268 65.993 57.6268C65.7607 57.6268 65.4508 57.6268 65.2185 57.5494C65.0636 57.5494 64.9861 57.5494 64.8312 57.4719C64.6763 57.4719 64.5988 57.4719 64.4439 57.3945C64.2116 57.317 63.9792 57.317 63.7468 57.2396C63.5919 57.1621 63.437 57.1621 63.2821 57.0846C62.4301 56.7748 61.6555 56.2326 61.0359 55.6905C60.9584 55.613 60.9584 55.613 60.881 55.5355C60.7261 55.4581 60.6486 55.3032 60.4937 55.2257C60.2613 55.0708 60.1064 54.8384 59.8741 54.6835C59.7191 54.5286 59.5642 54.3737 59.4093 54.2188C59.2544 54.0639 59.0995 53.909 58.9446 53.7541C58.7897 53.5992 58.6348 53.4442 58.4799 53.2119C58.3249 53.057 58.17 52.9021 58.0151 52.6697L57.9377 52.5922C57.7828 52.4373 57.6278 52.2824 57.5504 52.05C57.3955 51.8951 57.2406 51.6628 57.1631 51.5079C57.0082 51.3529 56.8533 51.1206 56.7758 50.9657C56.6209 50.8108 56.466 50.5784 56.3886 50.4235C56.2336 50.2686 56.1562 50.0362 56.0013 49.8813C55.8464 49.7264 55.7689 49.494 55.614 49.3391C55.4591 49.1842 55.3816 48.9518 55.2267 48.7969C55.0718 48.642 54.9944 48.4096 54.8395 48.2547C54.6845 48.0998 54.6071 47.8675 54.5296 47.6351C54.3747 47.4802 54.2973 47.2478 54.2198 47.0154C54.0649 46.8605 53.9874 46.6282 53.91 46.3958C53.7551 46.1634 53.6776 46.0085 53.6002 45.7762C53.5227 45.6212 53.3678 45.3889 53.2903 45.1565C53.2129 44.9241 53.058 44.7692 52.9805 44.5369C52.9031 44.3045 52.7482 44.1496 52.6707 43.9172C52.5932 43.6849 52.4383 43.5299 52.3609 43.2976C52.2834 43.0652 52.1285 42.9103 52.0511 42.6779C51.9736 42.4456 51.8187 42.2907 51.7412 42.0583C51.6638 41.8259 51.5089 41.671 51.4314 41.4387C51.354 41.2063 51.199 41.0514 51.1216 40.819C51.0441 40.5866 50.9667 40.4317 50.8892 40.1994C50.8118 39.967 50.7343 39.8121 50.6569 39.5797C50.5794 39.3474 50.5019 39.1924 50.4245 38.9601C50.347 38.7277 50.2696 38.5728 50.1921 38.3404C50.1147 38.1081 50.0372 37.9532 49.9598 37.7208C49.8823 37.4884 49.8048 37.2561 49.7274 37.1011C49.6499 36.8688 49.5725 36.6364 49.495 36.404C49.4176 36.1717 49.3401 35.9393 49.2627 35.707C49.1852 35.4746 49.1077 35.2422 49.0303 35.0098C48.9528 34.7775 48.8754 34.5451 48.7979 34.3128C48.7205 34.0804 48.643 33.848 48.5656 33.6157C48.4881 33.3833 48.4106 33.1509 48.3332 32.9186C48.2557 32.6862 48.1783 32.4538 48.1008 32.2215C48.0234 31.9891 47.9459 31.8342 47.8685 31.6018C47.791 31.3694 47.7135 31.2145 47.6361 30.9822C47.5586 30.7498 47.4812 30.5174 47.4037 30.2851C47.3263 30.0527 47.2488 29.8203 47.1714 29.588C47.0939 29.3556 47.0164 29.1232 46.939 28.8909C46.8615 28.6585 46.7841 28.5036 46.7066 28.2712C46.6292 28.0389 46.5517 27.884 46.4743 27.6516C46.3968 27.4192 46.3194 27.1869 46.2419 26.9545C46.1644 26.7996 46.087 26.5672 46.087 26.4123C46.0095 26.1799 45.9321 26.025 45.8546 25.7927C45.7772 25.5603 45.6997 25.4054 45.6223 25.173C45.5448 24.9406 45.4673 24.7857 45.3899 24.5534C45.3124 24.321 45.235 24.1661 45.1575 23.9337C45.0801 23.7788 45.0026 23.5464 45.0026 23.3915C44.9252 23.1592 44.8477 23.0043 44.7702 22.7719C44.6928 22.5395 44.6153 22.3846 44.5379 22.1523C44.4604 21.9199 44.383 21.765 44.3055 21.5326C44.2281 21.3777 44.1506 21.2228 44.1506 20.9904C44.0731 20.8355 43.9957 20.6031 43.9182 20.3708C43.8408 20.2159 43.7633 19.9835 43.6859 19.8286C43.6084 19.6737 43.531 19.4413 43.4535 19.2864C43.376 19.1315 43.2986 18.8991 43.2211 18.7442C43.1437 18.5893 43.0662 18.4344 43.0662 18.202C42.9888 18.0471 42.9113 17.8147 42.8339 17.6598C42.7564 17.5049 42.6789 17.2726 42.6015 17.1176C42.524 16.9627 42.4466 16.7304 42.3691 16.5755C42.2917 16.4205 42.2142 16.2656 42.1368 16.0333C42.0593 15.8784 41.9818 15.7235 41.9044 15.4911C41.8269 15.3362 41.7495 15.1813 41.7495 15.1038C41.672 14.9489 41.5946 14.794 41.5171 14.6391C41.4397 14.4842 41.3622 14.3293 41.2847 14.1743C41.2073 14.0194 41.1298 13.8645 41.0524 13.7096C40.9749 13.5547 40.8975 13.3998 40.82 13.2449C40.7426 13.09 40.6651 12.9351 40.5876 12.7801C40.5102 12.7027 40.5102 12.5478 40.4327 12.4703C40.3553 12.3154 40.2778 12.238 40.2778 12.083C40.2778 12.0056 40.2004 12.0056 40.2004 11.9281C40.1229 11.8507 40.1229 11.7732 40.0455 11.6183C39.968 11.5409 39.968 11.4634 39.8905 11.3859C39.8905 11.3085 39.8131 11.231 39.8131 11.231C39.7356 11.1536 39.6582 10.9987 39.5807 10.9212V10.8438C39.5807 10.7663 39.5033 10.7663 39.5033 10.6888C39.4258 10.6114 39.3484 10.4565 39.2709 10.379C39.1935 10.3016 39.116 10.1467 39.0385 10.0692C38.9611 9.99175 38.8836 9.83684 38.8062 9.75938L38.7287 9.68193C38.6513 9.60447 38.5738 9.52702 38.4964 9.37211C38.4189 9.29465 38.3414 9.2172 38.264 9.13974C38.1865 9.06228 38.1091 8.98483 38.0316 8.90737C37.9542 8.82992 37.8767 8.75246 37.7993 8.67501C37.7218 8.59755 37.6443 8.59755 37.5669 8.5201C37.4894 8.5201 37.4894 8.44264 37.412 8.44264C37.412 8.44264 37.3345 8.44264 37.3345 8.36519C37.3345 8.36519 37.3345 8.36519 37.2571 8.36519C37.1796 8.36519 37.0247 8.36519 36.9472 8.36519C34.6236 8.36519 32.7646 6.50626 32.7646 4.18259C32.7646 1.85893 34.6236 0 36.9472 0C37.2571 0 37.5669 0.0774554 37.8767 0.0774554C38.0316 0.0774554 38.1865 0.154911 38.264 0.154911C38.4964 0.232366 38.7287 0.232366 38.9611 0.387277C39.0385 0.387277 39.1935 0.464733 39.2709 0.464733C39.5033 0.542188 39.8131 0.697099 40.0455 0.774554C40.1229 0.85201 40.2004 0.85201 40.2778 0.929465C40.5102 1.08438 40.7426 1.16183 40.9749 1.31674C41.2073 1.62656 41.2847 1.62656 41.3622 1.70402C41.4397 1.78147 41.5171 1.85893 41.5946 1.93639C41.8269 2.0913 42.0593 2.24621 42.2142 2.40112C42.2917 2.47857 42.3691 2.55603 42.4466 2.63348C42.524 2.71094 42.6015 2.7884 42.6789 2.86585C42.8339 3.02076 42.9888 3.17567 43.1437 3.40804C43.2211 3.48549 43.376 3.6404 43.4535 3.71786C43.531 3.79532 43.6084 3.87277 43.6859 4.02768C43.7633 4.10514 43.8408 4.26005 43.9182 4.3375C44.0731 4.49241 44.1506 4.64733 44.3055 4.87969C44.383 5.0346 44.5379 5.11206 44.6153 5.26697C44.6928 5.34442 44.7702 5.49933 44.8477 5.57679C44.9252 5.65425 45.0026 5.80916 45.0801 5.88661C45.1575 5.96407 45.235 6.11898 45.3124 6.27389C45.4673 6.4288 45.5448 6.58371 45.6223 6.81608C45.6997 6.89353 45.8546 7.04844 45.9321 7.20335C45.9321 7.20335 45.9321 7.20335 45.9321 7.28081C46.0095 7.35827 46.087 7.43572 46.087 7.51318C46.087 7.59063 46.087 7.59063 46.1644 7.66809C46.2419 7.74554 46.2419 7.823 46.3194 7.90045C46.3968 7.97791 46.3968 8.05536 46.3968 8.05536C46.3968 8.05536 46.4743 8.13282 46.4743 8.21028C46.5517 8.28773 46.5517 8.36519 46.5517 8.44264C46.5517 8.5201 46.6292 8.5201 46.6292 8.5201C46.7066 8.59755 46.7066 8.75246 46.7841 8.82992C46.7841 8.82992 46.7841 8.82992 46.8615 8.90737C46.939 9.06228 47.0164 9.2172 47.0939 9.37211C47.2488 9.60447 47.3263 9.75938 47.4037 9.99175C47.4812 10.1467 47.5586 10.3016 47.6361 10.4565C47.7135 10.6114 47.791 10.7663 47.8685 10.9212C47.9459 11.0761 48.0234 11.231 48.1008 11.3859C48.1783 11.5409 48.2557 11.6958 48.3332 11.8507C48.4106 12.0056 48.4881 12.1605 48.5656 12.3154C48.643 12.4703 48.7205 12.6252 48.7979 12.7801C48.9528 13.0125 49.0303 13.2449 49.1077 13.4772C49.1852 13.6322 49.2627 13.7871 49.3401 14.0194C49.4176 14.1743 49.495 14.3293 49.5725 14.5616C49.6499 14.7165 49.7274 14.8714 49.8048 15.1038C49.8823 15.2587 49.9598 15.4911 50.0372 15.646C50.1147 15.8009 50.1921 16.0333 50.2696 16.1882C50.347 16.3431 50.4245 16.5755 50.5019 16.7304C50.5794 16.8853 50.7343 17.1176 50.7343 17.2726C50.8118 17.4275 50.8892 17.6598 50.9667 17.8147C51.1216 18.0471 51.199 18.2795 51.354 18.5118C51.4314 18.6668 51.5863 18.8991 51.5863 19.054C51.6638 19.2089 51.8187 19.4413 51.8187 19.5962C51.8961 19.7511 52.0511 19.9835 52.1285 20.1384C52.206 20.2933 52.3609 20.5257 52.4383 20.6806C52.5158 20.8355 52.6707 21.0679 52.7481 21.2228C52.8256 21.3777 52.9805 21.6101 53.058 21.765C53.1354 21.9199 53.2903 22.1523 53.3678 22.3072C53.4453 22.4621 53.6002 22.6944 53.6776 22.8493C53.7551 23.0043 53.91 23.2366 53.9874 23.3915C54.1423 23.6239 54.2198 23.8563 54.2973 24.0886C54.3747 24.2435 54.5296 24.4759 54.6071 24.6308C54.6845 24.7857 54.8394 25.0181 54.9169 25.2505C55.0718 25.4054 55.1493 25.6377 55.2267 25.8701C55.3816 26.1025 55.4591 26.2574 55.5365 26.4898C55.614 26.7221 55.7689 26.877 55.8464 27.1094C55.9238 27.2643 56.0787 27.4967 56.1562 27.6516C56.2336 27.8065 56.3886 28.0389 56.466 28.1938C56.5435 28.3487 56.6984 28.5811 56.7758 28.736C56.8533 28.8909 57.0082 29.1232 57.0857 29.2782C57.1631 29.4331 57.318 29.6654 57.3955 29.8203C57.4729 29.9753 57.6278 30.2076 57.7053 30.3625C57.8602 30.5174 57.9377 30.7498 58.0151 30.9047C58.17 31.0596 58.2475 31.292 58.3249 31.4469C58.4799 31.6018 58.5573 31.8342 58.6348 31.9891C58.7897 32.144 58.8671 32.3764 58.9446 32.5313C59.0995 32.6862 59.177 32.8411 59.2544 33.0735C59.4093 33.2284 59.4868 33.3833 59.5642 33.6157C59.7191 33.7706 59.7966 33.9255 59.8741 34.1578C59.9515 34.3128 60.1064 34.4677 60.1839 34.6226C60.3388 34.7775 60.4162 34.9324 60.4937 35.0873C60.6486 35.2422 60.7261 35.3971 60.8035 35.552C60.881 35.707 61.0359 35.8619 61.1133 36.0168C61.2683 36.1717 61.3457 36.3266 61.4232 36.4815C61.5006 36.559 61.5006 36.6364 61.5781 36.7139C61.6555 36.7913 61.733 36.9462 61.8104 37.0237C61.8879 37.1011 61.9653 37.1786 61.9653 37.2561C61.9653 37.3335 62.0428 37.3335 62.0428 37.3335C62.1977 37.4884 62.2752 37.6433 62.3526 37.7208C62.5075 37.8757 62.585 37.9532 62.6624 38.1081C62.7399 38.263 62.8948 38.3404 62.9723 38.4953C63.0497 38.5728 63.2046 38.7277 63.2821 38.8826C63.3595 38.9601 63.5145 39.115 63.5919 39.2699C63.6694 39.3474 63.8243 39.5023 63.9017 39.6572C63.9792 39.7346 64.1341 39.8895 64.2116 39.967C64.289 40.0445 64.4439 40.1994 64.5214 40.2768C64.5988 40.3543 64.7537 40.5092 64.8312 40.5866C64.9087 40.6641 65.0636 40.7416 65.141 40.8965C65.2185 40.9739 65.2959 40.9739 65.2959 41.0514C65.2959 41.0514 65.2959 41.0514 65.3734 41.0514C65.4508 41.1288 65.6058 41.2063 65.6832 41.2837C65.7607 41.3612 65.9156 41.4387 65.993 41.5161C66.0705 41.5936 66.2254 41.671 66.3029 41.7485C66.3803 41.8259 66.5352 41.9034 66.6127 41.9808C66.6901 41.9808 66.6901 42.0583 66.7676 42.0583C66.845 42.1357 67 42.2132 67.0774 42.2907C67.1549 42.3681 67.3098 42.3681 67.3872 42.4456C67.4647 42.523 67.6196 42.523 67.6971 42.6005C67.6971 42.6005 67.7745 42.6005 67.7745 42.6779C67.852 42.7554 67.9294 42.7554 68.0843 42.8329C68.3167 42.9103 68.5491 43.0652 68.7814 43.1427C71.8796 44.7692 73.5062 47.2478 73.5062 50.1137Z" fill="url(#paint5_linear)"/>
<defs>
<linearGradient id="paint0_linear" x1="66.3258" y1="50.903" x2="94.0935" y2="2.44579" gradientUnits="userSpaceOnUse">
<stop offset="0.2076" stop-color="#E69E44"/>
<stop offset="0.8846" stop-color="#D65A97"/>
</linearGradient>
<linearGradient id="paint1_linear" x1="15.4272" y1="54.2202" x2="35.9979" y2="3.09119" gradientUnits="userSpaceOnUse">
<stop offset="0.0940493" stop-color="#89BE5C"/>
<stop offset="0.9379" stop-color="#DFE24B"/>
</linearGradient>
<linearGradient id="paint2_linear" x1="94.5442" y1="3.76041" x2="117.412" y2="54.3964" gradientUnits="userSpaceOnUse">
<stop offset="0.0975787" stop-color="#D7569C"/>
<stop offset="0.8825" stop-color="#505AA2"/>
</linearGradient>
<linearGradient id="paint3_linear" x1="17.7729" y1="54.5302" x2="67.3192" y2="11.7898" gradientUnits="userSpaceOnUse">
<stop offset="0.0771813" stop-color="#89BE5C"/>
<stop offset="0.8607" stop-color="#6CA2DA"/>
</linearGradient>
<linearGradient id="paint4_linear" x1="66.2383" y1="13.1292" x2="116.603" y2="55.5989" gradientUnits="userSpaceOnUse">
<stop offset="0.1043" stop-color="#6CA2DA"/>
<stop offset="0.8934" stop-color="#505AA2"/>
</linearGradient>
<linearGradient id="paint5_linear" x1="37.533" y1="3.52058" x2="65.9139" y2="51.0265" gradientUnits="userSpaceOnUse">
<stop offset="0.0788176" stop-color="#DFE24B"/>
<stop offset="0.8168" stop-color="#E69E44"/>
</linearGradient>
</defs>
</svg>
