<svg width="1440" height="552" viewBox="0 0 1440 552" fill="none" xmlns="http://www.w3.org/2000/svg">
<g filter="url(#filter0_d)">
<path d="M755 322.939C755 329.949 748.671 340.744 745.614 345.549C744.856 346.74 743.169 346.724 742.43 345.522C739.39 340.58 733 329.42 733 322.939C733 315.793 737.925 310 744 310C750.075 310 755 315.793 755 322.939Z" fill="#452E9C"/>
</g>
<path d="M748.636 317.574C748.636 317.885 748.386 318.135 748.075 318.135C748.064 318.135 748.044 318.135 748.033 318.135C748.033 318.135 748.033 318.135 748.023 318.135L748.012 318.145C748.002 318.145 748.002 318.155 747.992 318.155C747.981 318.166 747.971 318.166 747.961 318.176C747.95 318.187 747.94 318.197 747.929 318.207C747.919 318.218 747.909 318.228 747.898 318.238C747.888 318.249 747.877 318.259 747.867 318.27C747.857 318.28 747.846 318.29 747.836 318.311L747.825 318.322C747.815 318.332 747.805 318.353 747.794 318.363C747.784 318.374 747.774 318.394 747.763 318.405C747.753 318.425 747.742 318.436 747.732 318.446C747.732 318.457 747.722 318.467 747.722 318.467V318.477C747.711 318.488 747.701 318.509 747.69 318.519C747.69 318.529 747.68 318.54 747.68 318.54C747.67 318.55 747.67 318.561 747.659 318.571C747.649 318.581 747.649 318.592 747.638 318.612C747.638 318.623 747.628 318.623 747.628 318.633C747.618 318.654 747.618 318.664 747.607 318.685C747.597 318.696 747.597 318.716 747.587 318.727C747.576 318.748 747.566 318.768 747.555 318.789C747.545 318.81 747.535 318.831 747.524 318.851C747.514 318.872 747.503 318.893 747.493 318.914C747.483 318.935 747.472 318.955 747.462 318.976C747.451 318.997 747.441 319.018 747.431 319.038C747.42 319.059 747.42 319.08 747.41 319.09C747.399 319.111 747.389 319.132 747.379 319.163C747.368 319.184 747.358 319.215 747.348 319.236C747.337 319.257 747.327 319.288 747.316 319.309C747.306 319.329 747.296 319.36 747.285 319.381C747.275 319.402 747.264 319.433 747.254 319.454C747.244 319.475 747.244 319.496 747.233 319.527C747.223 319.558 747.212 319.579 747.202 319.599C747.192 319.631 747.181 319.651 747.171 319.672C747.161 319.703 747.15 319.724 747.14 319.745C747.129 319.776 747.119 319.797 747.109 319.828C747.098 319.859 747.088 319.88 747.077 319.911C747.067 319.942 747.057 319.963 747.046 319.994C747.036 320.025 747.025 320.046 747.015 320.077C747.005 320.109 747.005 320.129 746.984 320.16C746.974 320.181 746.974 320.212 746.963 320.233C746.953 320.264 746.942 320.285 746.932 320.316C746.922 320.347 746.911 320.368 746.901 320.399C746.89 320.431 746.88 320.451 746.87 320.483C746.859 320.514 746.849 320.534 746.838 320.566C746.828 320.586 746.828 320.618 746.818 320.638C746.807 320.67 746.797 320.701 746.787 320.732C746.776 320.763 746.766 320.794 746.755 320.815C746.745 320.846 746.735 320.877 746.724 320.898C746.714 320.929 746.703 320.96 746.693 320.992C746.683 321.023 746.672 321.054 746.662 321.085C746.651 321.116 746.641 321.147 746.631 321.179C746.62 321.21 746.61 321.231 746.6 321.262C746.589 321.293 746.579 321.314 746.568 321.345C746.558 321.376 746.548 321.407 746.537 321.438C746.527 321.469 746.516 321.501 746.506 321.532C746.496 321.563 746.485 321.594 746.475 321.625C746.464 321.657 746.454 321.688 746.444 321.719C746.433 321.75 746.423 321.781 746.413 321.812C746.402 321.844 746.392 321.875 746.381 321.906C746.371 321.937 746.361 321.968 746.35 321.999C746.34 322.031 746.329 322.062 746.319 322.082C746.309 322.114 746.298 322.145 746.288 322.166C746.277 322.197 746.267 322.228 746.257 322.249C746.246 322.28 746.236 322.301 746.226 322.332C746.215 322.363 746.205 322.394 746.194 322.415C746.184 322.446 746.174 322.467 746.163 322.498C746.153 322.529 746.142 322.55 746.132 322.581C746.122 322.612 746.111 322.633 746.09 322.664C746.08 322.695 746.07 322.716 746.049 322.747C746.039 322.779 746.028 322.799 746.007 322.83C745.997 322.862 745.987 322.882 745.966 322.914C745.955 322.945 745.945 322.966 745.924 322.997C745.914 323.028 745.893 323.049 745.883 323.08C745.872 323.111 745.852 323.132 745.841 323.163C745.831 323.194 745.81 323.215 745.8 323.246C745.789 323.277 745.768 323.298 745.758 323.329C745.748 323.36 745.727 323.381 745.716 323.412C745.706 323.443 745.685 323.464 745.675 323.495C745.665 323.527 745.644 323.547 745.623 323.568C745.613 323.599 745.592 323.62 745.571 323.641C745.55 323.672 745.54 323.693 745.519 323.714C745.509 323.745 745.488 323.765 745.467 323.786C745.446 323.807 745.436 323.838 745.415 323.859C745.394 323.88 745.384 323.911 745.363 323.932C745.342 323.953 745.332 323.984 745.311 324.004C745.291 324.025 745.27 324.056 745.259 324.077L745.249 324.088C745.228 324.108 745.207 324.14 745.187 324.16C745.166 324.181 745.145 324.202 745.124 324.233C745.103 324.254 745.083 324.275 745.062 324.295C745.041 324.316 745.02 324.337 745 324.358C744.968 324.389 744.948 324.41 744.916 324.43C744.906 324.441 744.885 324.462 744.865 324.472C744.854 324.482 744.854 324.482 744.844 324.493C744.75 324.576 744.657 324.638 744.542 324.68C744.532 324.69 744.511 324.69 744.501 324.69C744.48 324.69 744.439 324.701 744.397 324.701C744.376 324.701 744.366 324.711 744.345 324.711C744.324 324.711 744.314 324.721 744.293 324.721C744.262 324.721 744.22 324.732 744.189 324.732C744.158 324.732 744.117 324.732 744.085 324.721C744.065 324.721 744.054 324.721 744.033 324.711C744.013 324.711 744.002 324.711 743.981 324.701C743.95 324.69 743.919 324.69 743.888 324.68C743.867 324.669 743.846 324.669 743.826 324.659C743.701 324.607 743.597 324.545 743.504 324.451C743.317 324.264 743.192 324.015 743.192 323.724C743.192 323.34 743.41 323.007 743.732 322.841C743.763 322.82 743.794 322.81 743.826 322.799C743.836 322.789 743.846 322.789 743.867 322.779C743.867 322.779 743.878 322.779 743.878 322.768C743.888 322.758 743.909 322.758 743.919 322.747C743.93 322.737 743.95 322.727 743.961 322.727C743.971 322.716 743.992 322.706 744.002 322.695C744.013 322.695 744.013 322.685 744.023 322.685C744.033 322.675 744.054 322.664 744.065 322.654C744.075 322.643 744.096 322.633 744.106 322.623C744.117 322.612 744.137 322.602 744.148 322.592C744.158 322.581 744.179 322.571 744.189 322.56C744.189 322.56 744.189 322.56 744.2 322.56C744.21 322.55 744.22 322.55 744.22 322.54C744.231 322.529 744.252 322.508 744.262 322.498C744.272 322.488 744.293 322.467 744.304 322.456C744.314 322.446 744.335 322.425 744.345 322.415C744.355 322.405 744.376 322.384 744.387 322.373C744.397 322.353 744.418 322.342 744.428 322.321C744.439 322.301 744.459 322.29 744.47 322.269C744.48 322.249 744.501 322.238 744.511 322.218C744.522 322.197 744.542 322.186 744.553 322.166C744.563 322.145 744.584 322.124 744.594 322.114C744.605 322.093 744.626 322.072 744.636 322.062C744.636 322.051 744.646 322.051 744.646 322.041C744.657 322.031 744.657 322.02 744.667 322.02C744.678 322.01 744.688 321.989 744.698 321.979C744.709 321.968 744.709 321.958 744.719 321.947C744.729 321.927 744.75 321.906 744.761 321.885C744.771 321.864 744.792 321.844 744.802 321.823C744.813 321.802 744.833 321.781 744.844 321.76C744.854 321.74 744.875 321.719 744.885 321.698C744.896 321.677 744.916 321.657 744.927 321.636C744.937 321.615 744.958 321.594 744.968 321.563C744.979 321.542 745 321.511 745.01 321.49C745.02 321.469 745.041 321.438 745.052 321.418C745.062 321.397 745.083 321.366 745.093 321.345C745.103 321.324 745.124 321.293 745.135 321.272C745.145 321.241 745.166 321.22 745.176 321.199C745.187 321.179 745.207 321.147 745.218 321.127C745.228 321.106 745.249 321.075 745.259 321.054C745.27 321.033 745.291 321.002 745.301 320.981C745.311 320.95 745.332 320.929 745.342 320.908C745.353 320.888 745.374 320.857 745.384 320.836C745.394 320.805 745.405 320.784 745.426 320.763C745.436 320.732 745.446 320.711 745.467 320.69C745.478 320.659 745.498 320.638 745.509 320.607C745.519 320.576 745.54 320.555 745.55 320.524C745.561 320.493 745.581 320.472 745.592 320.441C745.602 320.41 745.613 320.389 745.633 320.358C745.644 320.327 745.654 320.306 745.675 320.285C745.685 320.254 745.706 320.223 745.716 320.192C745.727 320.171 745.737 320.14 745.748 320.119C745.758 320.088 745.768 320.067 745.789 320.046C745.8 320.015 745.81 319.994 745.831 319.973C745.841 319.942 745.852 319.922 745.872 319.901C745.883 319.87 745.893 319.849 745.914 319.828C745.924 319.797 745.935 319.776 745.955 319.755C745.966 319.724 745.976 319.703 745.987 319.683C745.997 319.651 746.007 319.631 746.028 319.61C746.039 319.579 746.049 319.558 746.059 319.537C746.07 319.506 746.09 319.475 746.111 319.444C746.122 319.423 746.132 319.392 746.142 319.371C746.153 319.35 746.163 319.319 746.174 319.298C746.184 319.277 746.194 319.246 746.205 319.225C746.215 319.205 746.226 319.173 746.236 319.153C746.246 319.132 746.257 319.101 746.267 319.08C746.277 319.059 746.288 319.028 746.298 319.007C746.309 318.986 746.319 318.955 746.329 318.935C746.34 318.914 746.35 318.883 746.361 318.862C746.371 318.831 746.392 318.799 746.402 318.768C746.413 318.748 746.423 318.727 746.433 318.706C746.444 318.685 746.454 318.664 746.464 318.644C746.475 318.623 746.485 318.602 746.496 318.581C746.506 318.561 746.516 318.54 746.527 318.519C746.537 318.498 746.548 318.477 746.558 318.457C746.568 318.436 746.579 318.415 746.589 318.394C746.6 318.363 746.62 318.342 746.631 318.311C746.641 318.29 746.651 318.27 746.662 318.249C746.662 318.249 746.662 318.249 746.672 318.238C746.683 318.228 746.683 318.207 746.693 318.197C746.693 318.187 746.703 318.187 746.703 318.187C746.714 318.176 746.714 318.166 746.724 318.155C746.724 318.145 746.735 318.145 746.735 318.135C746.735 318.124 746.745 318.114 746.745 318.114C746.755 318.103 746.755 318.093 746.766 318.083C746.766 318.072 746.766 318.072 746.776 318.062C746.787 318.051 746.787 318.041 746.797 318.031C746.797 318.031 746.797 318.031 746.797 318.02C746.807 318 746.818 317.979 746.838 317.958C746.849 317.937 746.87 317.906 746.88 317.885C746.89 317.864 746.901 317.854 746.911 317.833C746.922 317.813 746.932 317.802 746.942 317.792C746.953 317.781 746.963 317.761 746.974 317.75C746.984 317.729 746.994 317.709 747.015 317.698C747.025 317.677 747.046 317.646 747.067 317.626C747.077 317.615 747.088 317.594 747.098 317.584C747.109 317.574 747.119 317.563 747.129 317.542C747.14 317.532 747.15 317.511 747.171 317.501C747.192 317.48 747.212 317.449 747.233 317.428C747.244 317.418 747.254 317.407 747.264 317.397C747.275 317.387 747.285 317.376 747.296 317.366C747.316 317.345 747.348 317.314 747.379 317.293C747.389 317.283 747.399 317.272 747.41 317.262C747.42 317.252 747.431 317.241 747.441 317.241C747.472 317.22 747.503 317.2 747.535 317.189C747.545 317.179 747.555 317.179 747.566 317.168C747.597 317.148 747.628 317.137 747.67 317.127C747.68 317.116 747.69 317.116 747.711 317.116C747.742 317.106 747.774 317.096 747.805 317.085C747.825 317.085 747.846 317.075 747.867 317.075C747.909 317.064 747.95 317.064 747.992 317.064C748.386 317.013 748.636 317.262 748.636 317.574Z" fill="white"/>
<path d="M740.627 318.029C740.772 317.925 740.866 317.759 740.866 317.572C740.866 317.26 740.616 317.011 740.305 317.011C740.107 317.011 739.941 317.115 739.837 317.26C739.827 317.27 739.816 317.291 739.806 317.302C739.806 317.322 739.785 317.333 739.775 317.354C739.764 317.374 739.754 317.385 739.744 317.406C739.733 317.426 739.723 317.437 739.712 317.457C739.702 317.478 739.692 317.489 739.681 317.509C739.671 317.53 739.66 317.541 739.65 317.561C739.64 317.582 739.629 317.593 739.619 317.613C739.608 317.634 739.598 317.644 739.588 317.665C739.577 317.686 739.567 317.696 739.557 317.717C739.546 317.728 739.546 317.738 739.536 317.748C739.536 317.748 739.536 317.759 739.525 317.759L739.515 317.769C739.505 317.78 739.505 317.79 739.494 317.8C739.484 317.821 739.473 317.842 739.453 317.863C739.442 317.883 739.432 317.904 739.411 317.925C739.401 317.946 739.39 317.967 739.37 317.987C739.359 318.008 739.349 318.029 739.328 318.05C739.318 318.07 739.307 318.091 739.286 318.112C739.276 318.133 739.266 318.154 739.245 318.174C739.234 318.195 739.224 318.216 739.203 318.237C739.193 318.257 739.183 318.278 739.172 318.299C739.162 318.32 739.151 318.341 739.141 318.361C739.131 318.382 739.12 318.403 739.11 318.424C739.099 318.444 739.089 318.465 739.079 318.486C739.068 318.507 739.058 318.528 739.047 318.548C739.037 318.569 739.027 318.59 739.016 318.611C739.006 318.631 738.996 318.652 738.985 318.683C738.975 318.704 738.964 318.725 738.954 318.756C738.944 318.777 738.933 318.798 738.923 318.829C738.912 318.85 738.902 318.87 738.892 318.902C738.881 318.922 738.871 318.943 738.86 318.974C738.85 318.995 738.84 319.016 738.829 319.047C738.819 319.068 738.798 319.099 738.798 319.12C738.788 319.141 738.767 319.172 738.767 319.192C738.757 319.213 738.746 319.244 738.736 319.265C738.725 319.286 738.715 319.317 738.705 319.338C738.694 319.359 738.684 319.39 738.673 319.411C738.663 319.431 738.653 319.463 738.642 319.483C738.632 319.504 738.621 319.535 738.611 319.556C738.601 319.577 738.59 319.608 738.58 319.629C738.57 319.65 738.559 319.681 738.549 319.702C738.538 319.722 738.528 319.753 738.518 319.774C738.507 319.795 738.497 319.826 738.486 319.847C738.476 319.868 738.466 319.899 738.455 319.92C738.445 319.94 738.424 319.972 738.424 320.003C738.414 320.024 738.393 320.055 738.393 320.086C738.383 320.107 738.362 320.138 738.362 320.169C738.351 320.19 738.331 320.221 738.331 320.252C738.32 320.273 738.31 320.304 738.299 320.325C738.289 320.346 738.279 320.377 738.268 320.398C738.258 320.418 738.247 320.45 738.237 320.47C738.227 320.491 738.216 320.522 738.206 320.543C738.196 320.564 738.185 320.595 738.175 320.616C738.164 320.637 738.154 320.668 738.144 320.689C738.133 320.709 738.123 320.74 738.112 320.761C738.102 320.782 738.092 320.813 738.081 320.844C738.071 320.876 738.06 320.896 738.05 320.927C738.04 320.959 738.029 320.979 738.019 321.011C738.009 321.042 737.998 321.063 737.988 321.094C737.977 321.125 737.967 321.146 737.957 321.177C737.946 321.198 737.936 321.229 737.925 321.26C737.915 321.281 737.905 321.312 737.894 321.343C737.884 321.364 737.873 321.395 737.863 321.426C737.853 321.447 737.842 321.478 737.832 321.509C737.822 321.53 737.811 321.561 737.801 321.592C737.79 321.613 737.78 321.644 737.77 321.675C737.759 321.696 737.749 321.727 737.738 321.759C737.728 321.779 737.718 321.811 737.707 321.842C737.697 321.862 737.686 321.894 737.676 321.925C737.666 321.946 737.655 321.977 737.645 322.008C737.635 322.039 737.624 322.06 737.614 322.091C737.603 322.122 737.593 322.143 737.583 322.174C737.572 322.195 737.562 322.226 737.562 322.247C737.562 322.247 737.562 322.247 737.562 322.257C737.551 322.278 737.551 322.299 737.541 322.33C737.541 322.33 737.541 322.34 737.531 322.34C737.52 322.361 737.52 322.382 737.51 322.403C737.51 322.413 737.499 322.413 737.499 322.423C737.489 322.444 737.489 322.465 737.489 322.486C737.489 322.496 737.479 322.496 737.479 322.507C737.468 322.527 737.468 322.548 737.468 322.559C737.468 322.569 737.458 322.579 737.458 322.59C737.448 322.61 737.448 322.621 737.448 322.642C737.448 322.652 737.437 322.662 737.437 322.673C737.437 322.683 737.427 322.704 737.427 322.714C737.427 322.725 737.416 322.735 737.416 322.746C737.416 322.756 737.406 322.777 737.406 322.787C737.406 322.797 737.396 322.808 737.396 322.829C737.396 322.839 737.396 322.849 737.385 322.87C737.375 322.881 737.375 322.901 737.364 322.912C737.364 322.922 737.364 322.933 737.354 322.943C737.344 322.953 737.344 322.974 737.333 322.985C737.333 322.995 737.333 323.005 737.333 323.016C737.323 323.036 737.323 323.047 737.312 323.068C737.312 323.078 737.312 323.088 737.312 323.099C737.302 323.12 737.302 323.13 737.292 323.151C737.292 323.161 737.292 323.172 737.292 323.172C737.281 323.192 737.281 323.203 737.271 323.223C737.271 323.234 737.271 323.234 737.271 323.244C737.261 323.265 737.261 323.286 737.25 323.296C737.25 323.307 737.25 323.307 737.25 323.317C737.24 323.338 737.24 323.359 737.229 323.379C737.229 323.39 737.229 323.39 737.229 323.4C737.219 323.421 737.219 323.442 737.209 323.462V323.473C737.198 323.494 737.198 323.514 737.188 323.535V323.546C737.177 323.566 737.177 323.587 737.177 323.608V323.618C737.167 323.639 737.167 323.66 737.167 323.681V323.691C737.157 323.712 737.157 323.733 737.157 323.753C737.157 323.753 737.157 323.753 737.157 323.764C737.146 323.784 737.146 323.805 737.146 323.826C737.146 323.826 737.146 323.826 737.146 323.836C737.146 323.857 737.136 323.878 737.136 323.909C737.136 323.93 737.125 323.951 737.125 323.982C737.125 324.003 737.115 324.023 737.115 324.055C737.115 324.075 737.105 324.096 737.105 324.127C737.105 324.148 737.094 324.169 737.094 324.19C737.094 324.21 737.084 324.231 737.084 324.252C737.084 324.273 737.074 324.294 737.074 324.314C737.074 324.335 737.063 324.356 737.063 324.377C737.063 324.397 737.053 324.418 737.053 324.439C737.053 324.751 737.302 325 737.614 325C737.925 325 738.175 324.751 738.175 324.439C738.175 324.418 738.175 324.408 738.164 324.387C738.164 324.366 738.164 324.356 738.164 324.335C738.164 324.314 738.164 324.304 738.164 324.283C738.164 324.283 738.164 324.283 738.164 324.273C738.164 324.252 738.164 324.242 738.164 324.221C738.164 324.221 738.164 324.221 738.164 324.21C738.164 324.19 738.164 324.179 738.164 324.158V324.148C738.164 324.127 738.164 324.117 738.164 324.096V324.086C738.164 324.065 738.164 324.055 738.164 324.034V324.023C738.164 324.003 738.164 323.992 738.164 323.971V323.961C738.164 323.94 738.164 323.93 738.164 323.909V323.899C738.164 323.878 738.164 323.868 738.164 323.847V323.836C738.164 323.816 738.164 323.805 738.164 323.784V323.774C738.164 323.753 738.164 323.743 738.164 323.722V323.712C738.164 323.691 738.164 323.681 738.164 323.66V323.649C738.164 323.629 738.164 323.618 738.164 323.597V323.587C738.164 323.566 738.164 323.546 738.164 323.535V323.525C738.164 323.504 738.164 323.483 738.164 323.473V323.462C738.164 323.442 738.164 323.421 738.164 323.4V323.39C738.164 323.369 738.164 323.348 738.175 323.327V323.317C738.175 323.296 738.185 323.275 738.185 323.255C738.185 323.255 738.185 323.255 738.185 323.244C738.185 323.223 738.196 323.203 738.196 323.182C738.196 323.182 738.196 323.182 738.196 323.172C738.206 323.151 738.206 323.13 738.206 323.109C738.216 323.088 738.216 323.068 738.216 323.036C738.227 323.016 738.227 322.985 738.227 322.964C738.237 322.933 738.237 322.901 738.247 322.881C738.258 322.86 738.258 322.829 738.258 322.808C738.268 322.787 738.268 322.756 738.268 322.735C738.279 322.714 738.279 322.683 738.279 322.662C738.289 322.642 738.289 322.61 738.299 322.59C738.31 322.569 738.31 322.538 738.32 322.517C738.331 322.496 738.331 322.465 738.341 322.444C738.351 322.423 738.351 322.392 738.362 322.372C738.372 322.351 738.372 322.32 738.383 322.299C738.393 322.278 738.403 322.247 738.403 322.226C738.414 322.205 738.424 322.174 738.424 322.153C738.434 322.133 738.445 322.101 738.445 322.081C738.455 322.06 738.466 322.029 738.466 322.008C738.476 321.987 738.486 321.956 738.486 321.935C738.497 321.914 738.507 321.883 738.507 321.862C738.518 321.842 738.528 321.811 738.528 321.79C738.538 321.769 738.549 321.738 738.549 321.717C738.559 321.696 738.57 321.665 738.57 321.644C738.58 321.624 738.59 321.592 738.601 321.572C738.611 321.551 738.621 321.52 738.632 321.499C738.642 321.478 738.653 321.447 738.663 321.416C738.673 321.395 738.684 321.364 738.694 321.343C738.705 321.322 738.715 321.291 738.725 321.27C738.736 321.25 738.746 321.218 738.757 321.198C738.767 321.177 738.777 321.146 738.788 321.125C738.798 321.104 738.809 321.073 738.819 321.052C738.829 321.031 738.84 321 738.85 320.979C738.86 320.959 738.871 320.927 738.881 320.907C738.892 320.886 738.902 320.855 738.912 320.834C738.923 320.813 738.933 320.782 738.944 320.761C738.954 320.74 738.964 320.709 738.975 320.689C738.985 320.668 738.996 320.637 739.006 320.616C739.016 320.595 739.027 320.564 739.037 320.543C739.047 320.522 739.058 320.491 739.068 320.47C739.079 320.45 739.089 320.418 739.099 320.398C739.11 320.377 739.12 320.346 739.131 320.325C739.141 320.304 739.151 320.273 739.162 320.252C739.172 320.231 739.183 320.211 739.193 320.179C739.203 320.159 739.214 320.138 739.224 320.107C739.234 320.086 739.255 320.065 739.255 320.034C739.266 320.013 739.286 319.992 739.286 319.961C739.297 319.94 739.318 319.92 739.318 319.889C739.328 319.868 739.349 319.847 739.359 319.816C739.37 319.795 739.39 319.774 739.401 319.753C739.411 319.733 739.432 319.712 739.442 319.691C739.453 319.67 739.473 319.65 739.484 319.629C739.494 319.608 739.515 319.587 739.525 319.566C739.536 319.546 739.557 319.525 739.567 319.504C739.577 319.483 739.598 319.463 739.608 319.442C739.619 319.421 739.64 319.4 739.65 319.379C739.66 319.359 739.681 319.338 739.692 319.317C739.702 319.296 739.723 319.276 739.733 319.255C739.744 319.234 739.764 319.213 739.775 319.192C739.785 319.172 739.806 319.151 739.816 319.13C739.827 319.109 739.847 319.089 739.858 319.068C739.879 319.047 739.889 319.026 739.899 318.995C739.91 318.974 739.931 318.954 739.941 318.933C739.951 318.912 739.972 318.902 739.982 318.881C739.993 318.86 740.014 318.85 740.024 318.829C740.034 318.808 740.055 318.798 740.066 318.777C740.076 318.756 740.097 318.746 740.107 318.725C740.118 318.704 740.138 318.694 740.149 318.673C740.159 318.652 740.18 318.642 740.19 318.621C740.201 318.6 740.221 318.59 740.232 318.569C740.242 318.559 740.263 318.538 740.273 318.517C740.284 318.507 740.305 318.486 740.315 318.476C740.325 318.465 740.346 318.444 740.356 318.434C740.367 318.424 740.388 318.403 740.398 318.392C740.408 318.382 740.429 318.361 740.44 318.351C740.45 318.341 740.471 318.32 740.481 318.309C740.492 318.299 740.512 318.289 740.523 318.268C740.533 318.257 740.554 318.247 740.564 318.226C740.575 318.216 740.585 318.205 740.606 318.185C740.616 318.174 740.627 318.164 740.647 318.154C740.658 318.143 740.668 318.133 740.689 318.122C740.699 318.112 740.71 318.102 740.73 318.091C740.606 318.039 740.616 318.039 740.627 318.029Z" fill="white"/>
<path d="M751.399 324.387C751.399 324.356 751.399 324.335 751.389 324.314C751.389 324.294 751.389 324.273 751.378 324.252C751.378 324.231 751.368 324.21 751.368 324.19C751.368 324.169 751.358 324.148 751.358 324.127C751.358 324.107 751.347 324.086 751.347 324.055C751.347 324.034 751.337 324.013 751.337 323.982C751.337 323.961 751.326 323.94 751.326 323.909C751.326 323.888 751.316 323.868 751.316 323.836C751.316 323.836 751.316 323.836 751.316 323.826C751.316 323.805 751.306 323.784 751.306 323.764C751.306 323.764 751.306 323.764 751.306 323.753C751.306 323.733 751.295 323.712 751.295 323.691V323.681C751.295 323.66 751.285 323.639 751.285 323.618V323.608C751.285 323.587 751.274 323.566 751.274 323.546V323.535C751.274 323.514 751.264 323.494 751.254 323.473V323.462C751.254 323.442 751.243 323.421 751.233 323.4C751.233 323.39 751.233 323.39 751.233 323.379C751.233 323.359 751.222 323.338 751.212 323.317C751.212 323.307 751.212 323.307 751.212 323.296C751.212 323.275 751.202 323.255 751.191 323.244C751.191 323.234 751.191 323.234 751.191 323.223C751.191 323.203 751.181 323.182 751.171 323.172C751.171 323.161 751.171 323.151 751.171 323.151C751.171 323.13 751.16 323.12 751.15 323.099C751.15 323.088 751.15 323.078 751.15 323.068C751.15 323.047 751.139 323.036 751.129 323.016C751.129 323.005 751.129 322.995 751.129 322.985C751.129 322.964 751.119 322.953 751.108 322.943C751.108 322.933 751.108 322.922 751.098 322.912C751.098 322.901 751.087 322.881 751.077 322.87C751.077 322.86 751.077 322.849 751.067 322.829C751.067 322.818 751.056 322.808 751.056 322.787C751.056 322.777 751.056 322.756 751.046 322.746C751.046 322.735 751.035 322.725 751.035 322.714C751.035 322.704 751.035 322.683 751.025 322.673C751.025 322.662 751.015 322.652 751.015 322.642C751.015 322.621 751.004 322.61 751.004 322.59C751.004 322.579 750.994 322.569 750.994 322.559C750.994 322.538 750.984 322.517 750.984 322.507C750.984 322.496 750.973 322.496 750.973 322.486C750.973 322.465 750.963 322.444 750.963 322.423C750.963 322.413 750.952 322.413 750.952 322.403C750.952 322.382 750.942 322.361 750.932 322.34C750.932 322.34 750.932 322.33 750.921 322.33C750.921 322.309 750.911 322.278 750.9 322.257V322.247C750.89 322.226 750.89 322.195 750.88 322.174C750.869 322.143 750.869 322.122 750.848 322.091C750.838 322.06 750.838 322.039 750.817 322.008C750.807 321.977 750.807 321.956 750.786 321.925C750.776 321.894 750.776 321.873 750.755 321.842C750.745 321.811 750.734 321.79 750.724 321.759C750.713 321.727 750.703 321.707 750.693 321.675C750.682 321.644 750.672 321.624 750.661 321.592C750.651 321.561 750.641 321.54 750.63 321.509C750.62 321.478 750.61 321.457 750.599 321.426C750.589 321.395 750.578 321.374 750.568 321.343C750.558 321.312 750.547 321.291 750.537 321.26C750.526 321.229 750.516 321.208 750.506 321.177C750.495 321.146 750.485 321.125 750.474 321.094C750.464 321.063 750.454 321.042 750.443 321.011C750.433 320.979 750.423 320.959 750.412 320.927C750.402 320.896 750.391 320.876 750.381 320.844C750.371 320.813 750.36 320.792 750.35 320.761C750.339 320.73 750.329 320.709 750.319 320.689C750.308 320.657 750.298 320.637 750.287 320.616C750.277 320.585 750.267 320.564 750.256 320.543C750.246 320.512 750.236 320.491 750.225 320.47C750.215 320.439 750.204 320.418 750.194 320.398C750.184 320.366 750.173 320.346 750.163 320.325C750.152 320.294 750.142 320.273 750.132 320.252C750.121 320.221 750.111 320.2 750.1 320.169C750.09 320.138 750.08 320.117 750.069 320.086C750.059 320.055 750.049 320.034 750.038 320.003C750.028 319.972 750.017 319.951 750.007 319.92C749.997 319.889 749.986 319.868 749.976 319.847C749.965 319.826 749.955 319.795 749.945 319.774C749.934 319.753 749.924 319.722 749.913 319.702C749.903 319.681 749.893 319.65 749.882 319.629C749.872 319.608 749.862 319.577 749.851 319.556C749.841 319.535 749.83 319.504 749.82 319.483C749.81 319.463 749.799 319.431 749.789 319.411C749.778 319.39 749.768 319.359 749.758 319.338C749.747 319.317 749.737 319.286 749.726 319.265C749.716 319.244 749.706 319.213 749.695 319.192C749.685 319.172 749.675 319.141 749.664 319.12C749.654 319.099 749.643 319.068 749.633 319.047C749.623 319.026 749.612 318.995 749.602 318.974C749.591 318.954 749.581 318.922 749.571 318.902C749.56 318.881 749.55 318.85 749.539 318.829C749.529 318.808 749.519 318.777 749.508 318.756C749.498 318.735 749.488 318.715 749.477 318.683C749.467 318.663 749.456 318.642 749.446 318.611C749.436 318.59 749.425 318.569 749.415 318.548C749.404 318.528 749.394 318.507 749.384 318.486C749.373 318.465 749.363 318.444 749.352 318.424C749.342 318.403 749.332 318.382 749.321 318.361C749.311 318.341 749.301 318.32 749.29 318.299C749.28 318.278 749.269 318.257 749.259 318.237C749.249 318.216 749.238 318.195 749.217 318.174C749.207 318.154 749.197 318.133 749.176 318.112C749.165 318.091 749.155 318.07 749.134 318.05C749.124 318.029 749.113 318.008 749.093 317.987C749.082 317.967 749.072 317.946 749.051 317.925C749.041 317.904 749.03 317.883 749.01 317.863C748.999 317.842 748.989 317.821 748.968 317.8C748.958 317.79 748.958 317.78 748.947 317.769L748.937 317.759C748.937 317.759 748.937 317.748 748.926 317.748C748.916 317.738 748.916 317.728 748.906 317.717C748.895 317.696 748.885 317.676 748.875 317.665C748.864 317.644 748.854 317.634 748.843 317.613C748.833 317.593 748.823 317.582 748.812 317.561C748.802 317.541 748.791 317.53 748.781 317.509C748.771 317.489 748.76 317.478 748.75 317.457C748.739 317.437 748.729 317.426 748.719 317.406C748.708 317.385 748.698 317.374 748.688 317.354C748.677 317.333 748.667 317.322 748.656 317.302C748.646 317.281 748.636 317.27 748.625 317.26C748.521 317.115 748.355 317.011 748.158 317.011C747.846 317.011 747.597 317.26 747.597 317.572C747.597 317.759 747.69 317.925 747.836 318.029C747.846 318.039 747.856 318.05 747.867 318.06C747.877 318.07 747.888 318.081 747.908 318.091C747.919 318.102 747.929 318.112 747.95 318.122C747.96 318.133 747.971 318.143 747.991 318.154C748.002 318.164 748.012 318.174 748.033 318.195C748.043 318.205 748.054 318.216 748.075 318.237C748.085 318.247 748.095 318.268 748.116 318.278C748.127 318.289 748.137 318.309 748.158 318.32C748.168 318.33 748.178 318.351 748.199 318.361C748.21 318.372 748.22 318.392 748.241 318.403C748.251 318.424 748.262 318.434 748.282 318.444C748.293 318.465 748.303 318.476 748.324 318.486C748.334 318.507 748.345 318.517 748.365 318.538C748.376 318.559 748.386 318.569 748.407 318.59C748.417 318.611 748.428 318.621 748.449 318.642C748.459 318.663 748.469 318.673 748.49 318.694C748.501 318.715 748.511 318.725 748.532 318.746C748.542 318.767 748.552 318.777 748.573 318.798C748.584 318.818 748.594 318.839 748.615 318.85C748.625 318.87 748.636 318.891 748.656 318.902C748.667 318.922 748.688 318.943 748.698 318.964C748.708 318.985 748.729 319.016 748.739 319.037C748.75 319.057 748.76 319.078 748.781 319.099C748.791 319.12 748.802 319.141 748.823 319.161C748.833 319.182 748.843 319.203 748.864 319.224C748.875 319.244 748.885 319.265 748.906 319.286C748.916 319.307 748.926 319.328 748.947 319.348C748.958 319.369 748.968 319.39 748.989 319.411C748.999 319.431 749.01 319.452 749.03 319.473C749.041 319.494 749.051 319.515 749.072 319.535C749.082 319.556 749.093 319.577 749.113 319.598C749.124 319.618 749.134 319.639 749.155 319.66C749.165 319.681 749.176 319.702 749.197 319.722C749.207 319.743 749.217 319.764 749.238 319.785C749.249 319.805 749.259 319.826 749.28 319.857C749.29 319.878 749.3 319.909 749.311 319.93C749.321 319.951 749.332 319.982 749.342 320.003C749.352 320.024 749.363 320.055 749.373 320.076C749.384 320.096 749.394 320.127 749.404 320.148C749.415 320.169 749.425 320.2 749.436 320.221C749.446 320.242 749.456 320.273 749.467 320.294C749.477 320.314 749.488 320.346 749.498 320.366C749.508 320.387 749.519 320.418 749.529 320.439C749.539 320.46 749.55 320.491 749.56 320.512C749.571 320.533 749.581 320.564 749.591 320.585C749.602 320.605 749.612 320.637 749.623 320.657C749.633 320.678 749.643 320.709 749.654 320.73C749.664 320.751 749.675 320.782 749.685 320.803C749.695 320.824 749.706 320.855 749.716 320.876C749.726 320.896 749.737 320.927 749.747 320.948C749.758 320.979 749.768 321 749.778 321.021C749.789 321.052 749.799 321.073 749.81 321.094C749.82 321.125 749.83 321.146 749.841 321.166C749.851 321.198 749.862 321.218 749.872 321.239C749.882 321.27 749.882 321.291 749.903 321.312C749.913 321.343 749.913 321.364 749.934 321.385C749.945 321.416 749.945 321.437 749.965 321.468C749.976 321.499 749.976 321.52 749.997 321.54C750.007 321.572 750.007 321.592 750.028 321.613C750.038 321.644 750.038 321.665 750.049 321.686C750.059 321.717 750.059 321.738 750.069 321.759C750.08 321.779 750.08 321.811 750.09 321.831C750.09 321.852 750.1 321.883 750.111 321.904C750.111 321.925 750.121 321.956 750.132 321.977C750.132 321.998 750.142 322.029 750.152 322.049C750.152 322.07 750.163 322.101 750.173 322.122C750.173 322.143 750.184 322.174 750.194 322.195C750.194 322.216 750.204 322.247 750.215 322.268C750.215 322.288 750.225 322.32 750.236 322.34C750.236 322.361 750.246 322.392 750.256 322.413C750.256 322.434 750.267 322.465 750.277 322.486C750.277 322.507 750.287 322.538 750.298 322.559C750.298 322.579 750.308 322.61 750.319 322.631C750.319 322.652 750.329 322.683 750.329 322.704C750.329 322.725 750.339 322.756 750.339 322.777C750.339 322.798 750.35 322.829 750.35 322.849C750.35 322.881 750.36 322.912 750.371 322.933C750.371 322.953 750.381 322.985 750.381 323.005C750.381 323.026 750.381 323.047 750.391 323.078C750.391 323.099 750.391 323.12 750.402 323.14C750.402 323.14 750.402 323.14 750.402 323.151C750.402 323.172 750.402 323.192 750.412 323.213C750.412 323.213 750.412 323.213 750.412 323.223C750.412 323.244 750.412 323.265 750.423 323.286V323.296C750.423 323.317 750.423 323.338 750.433 323.359V323.369C750.433 323.39 750.433 323.41 750.433 323.431V323.442C750.433 323.462 750.433 323.483 750.433 323.494V323.504C750.433 323.525 750.433 323.535 750.433 323.556V323.566C750.433 323.587 750.433 323.597 750.433 323.618V323.629C750.433 323.649 750.433 323.66 750.433 323.681V323.691C750.433 323.712 750.433 323.722 750.433 323.743V323.753C750.433 323.774 750.433 323.784 750.433 323.805V323.816C750.433 323.836 750.433 323.847 750.433 323.868V323.878C750.433 323.899 750.433 323.909 750.433 323.93V323.94C750.433 323.961 750.433 323.971 750.433 323.992V324.003C750.433 324.023 750.433 324.034 750.433 324.055V324.065C750.433 324.086 750.433 324.096 750.433 324.117V324.127C750.433 324.148 750.433 324.158 750.433 324.179C750.433 324.179 750.433 324.179 750.433 324.19C750.433 324.21 750.433 324.221 750.433 324.242C750.433 324.242 750.433 324.242 750.433 324.252C750.433 324.273 750.433 324.283 750.433 324.304C750.433 324.325 750.433 324.335 750.433 324.356C750.433 324.377 750.423 324.387 750.423 324.408C750.423 324.719 750.672 324.969 750.984 324.969C751.295 324.969 751.545 324.719 751.545 324.408C751.409 324.429 751.399 324.408 751.399 324.387Z" fill="white"/>
<path d="M744.013 319.827C744.075 319.817 744.137 319.806 744.2 319.806C744.262 319.806 744.324 319.817 744.387 319.827C744.854 319.744 745.207 319.339 745.207 318.851C745.207 318.393 744.896 317.999 744.47 317.884C744.459 317.884 744.449 317.884 744.439 317.874C744.418 317.874 744.397 317.864 744.387 317.864C744.366 317.864 744.356 317.853 744.335 317.853C744.314 317.853 744.293 317.843 744.272 317.843C744.252 317.843 744.231 317.843 744.21 317.843C744.189 317.843 744.169 317.843 744.148 317.843C744.127 317.843 744.106 317.843 744.085 317.853C744.065 317.853 744.054 317.853 744.033 317.864C744.013 317.864 743.992 317.874 743.982 317.874C743.971 317.874 743.961 317.874 743.95 317.884C743.919 317.895 743.888 317.895 743.857 317.905C743.826 317.915 743.805 317.915 743.774 317.926C743.743 317.936 743.722 317.947 743.691 317.957C743.68 317.957 743.68 317.957 743.67 317.967H743.659C743.628 317.978 743.607 317.988 743.587 317.999C743.556 318.009 743.535 318.019 743.514 318.03C743.483 318.04 743.441 318.061 743.41 318.082C743.389 318.092 743.358 318.113 743.337 318.123C743.306 318.134 743.285 318.154 743.265 318.165C743.244 318.175 743.213 318.196 743.192 318.217C743.171 318.227 743.14 318.248 743.119 318.269H743.109C743.088 318.279 743.057 318.3 743.036 318.321C743.015 318.341 742.984 318.352 742.963 318.373C742.943 318.393 742.911 318.404 742.891 318.425C742.87 318.445 742.839 318.466 742.818 318.477C742.797 318.497 742.766 318.518 742.745 318.539C742.724 318.56 742.693 318.58 742.672 318.601C742.652 318.622 742.621 318.643 742.6 318.664C742.579 318.684 742.558 318.705 742.527 318.726C742.506 318.747 742.485 318.767 742.465 318.788C742.444 318.809 742.423 318.83 742.402 318.851C742.382 318.871 742.361 318.892 742.34 318.913C742.319 318.934 742.298 318.954 742.278 318.986C742.257 319.006 742.236 319.027 742.215 319.058C742.195 319.079 742.174 319.1 742.153 319.131C742.132 319.152 742.111 319.183 742.091 319.204C742.07 319.225 742.049 319.256 742.028 319.276C742.008 319.297 741.987 319.328 741.966 319.349C741.945 319.37 741.914 319.401 741.893 319.422C741.873 319.443 741.852 319.474 741.831 319.495C741.81 319.515 741.779 319.547 741.758 319.578C741.737 319.599 741.706 319.63 741.686 319.661C741.665 319.682 741.634 319.713 741.623 319.744C741.602 319.775 741.571 319.796 741.55 319.827C741.53 319.848 741.499 319.879 741.488 319.91C741.467 319.931 741.447 319.962 741.426 319.983C741.405 320.014 741.374 320.035 741.363 320.066C741.343 320.097 741.311 320.118 741.291 320.149C741.27 320.18 741.239 320.201 741.218 320.232C741.197 320.263 741.166 320.284 741.145 320.315C741.124 320.347 741.093 320.367 741.073 320.399C741.052 320.43 741.021 320.45 741 320.482C740.979 320.513 740.948 320.534 740.927 320.565C740.906 320.596 740.875 320.617 740.854 320.648C740.834 320.679 740.802 320.7 740.782 320.731C740.75 320.762 740.73 320.783 740.709 320.814C740.688 320.845 740.657 320.866 740.636 320.897C740.605 320.928 740.584 320.96 740.563 320.991C740.543 321.011 740.522 321.043 740.501 321.074C740.47 321.105 740.449 321.126 740.428 321.157C740.397 321.188 740.376 321.209 740.356 321.24C740.335 321.271 740.304 321.292 740.283 321.323C740.262 321.354 740.231 321.375 740.21 321.406C740.179 321.437 740.158 321.458 740.138 321.489C740.106 321.521 740.086 321.541 740.065 321.572C740.034 321.604 740.013 321.624 739.992 321.666C739.961 321.697 739.94 321.718 739.919 321.749C739.899 321.78 739.867 321.801 739.857 321.832C739.836 321.853 739.805 321.884 739.795 321.915C739.774 321.936 739.743 321.967 739.732 321.998C739.712 322.019 739.68 322.05 739.67 322.082C739.649 322.102 739.618 322.133 739.608 322.165C739.587 322.185 739.556 322.217 739.545 322.237C739.514 322.258 739.493 322.289 739.473 322.32C739.473 322.32 739.473 322.32 739.462 322.32C739.441 322.341 739.41 322.372 739.4 322.393L739.39 322.404C739.369 322.424 739.348 322.445 739.338 322.466C739.327 322.476 739.327 322.476 739.317 322.487C739.296 322.508 739.286 322.518 739.275 322.539C739.265 322.549 739.254 322.559 739.244 322.57C739.234 322.58 739.223 322.601 739.213 322.611C739.202 322.622 739.182 322.643 739.171 322.653C739.161 322.663 739.161 322.674 739.151 322.684C739.13 322.705 739.109 322.715 739.099 322.736L739.088 322.746C739.067 322.767 739.047 322.788 739.026 322.809C739.005 322.83 738.984 322.85 738.964 322.882C738.943 322.902 738.922 322.923 738.901 322.944C738.88 322.965 738.86 322.985 738.839 323.006C738.818 323.027 738.797 323.048 738.777 323.069C738.756 323.089 738.735 323.1 738.714 323.131C738.693 323.152 738.673 323.172 738.652 323.193C738.631 323.214 738.61 323.224 738.59 323.245C738.569 323.266 738.548 323.276 738.527 323.297C738.506 323.307 738.486 323.328 738.465 323.349C738.444 323.359 738.423 323.38 738.403 323.401C738.382 323.411 738.361 323.432 738.34 323.443C738.319 323.453 738.299 323.474 738.288 323.484C738.267 323.494 738.247 323.515 738.236 323.526C738.216 323.536 738.195 323.546 738.184 323.567C738.164 323.578 738.143 323.588 738.132 323.598C738.122 323.609 738.101 323.619 738.091 323.63C738.07 323.64 738.06 323.65 738.039 323.661C738.018 323.671 738.008 323.681 737.987 323.692C737.966 323.702 737.956 323.713 737.935 323.723C737.925 323.733 737.914 323.733 737.904 323.733C737.883 323.744 737.873 323.744 737.852 323.754C737.831 323.765 737.821 323.765 737.8 323.775C737.79 323.775 737.79 323.775 737.79 323.785C737.779 323.785 737.758 323.796 737.748 323.796C737.738 323.796 737.717 323.806 737.706 323.806C737.696 323.806 737.675 323.806 737.665 323.817C737.655 323.817 737.644 323.817 737.644 323.817C737.634 323.817 737.634 323.817 737.623 323.817H737.613C737.592 323.817 737.582 323.817 737.561 323.817C737.249 323.817 737 324.066 737 324.378C737 324.689 737.249 324.928 737.561 324.928C737.603 324.928 737.644 324.928 737.686 324.918C737.706 324.918 737.717 324.907 737.738 324.907C737.769 324.907 737.8 324.897 737.831 324.887C737.862 324.876 737.883 324.876 737.904 324.866C737.925 324.855 737.945 324.855 737.956 324.845C737.987 324.835 738.008 324.824 738.039 324.814C738.07 324.804 738.091 324.793 738.122 324.783C738.143 324.772 738.164 324.762 738.174 324.752C738.195 324.741 738.216 324.731 738.226 324.72C738.257 324.71 738.288 324.689 738.319 324.668C738.34 324.658 738.361 324.648 738.371 324.637C738.392 324.627 738.413 324.616 738.434 324.606C738.454 324.596 738.475 324.585 738.496 324.565C738.527 324.554 738.548 324.533 738.579 324.513C738.6 324.502 738.621 324.481 738.641 324.461C738.662 324.45 738.683 324.429 738.704 324.419C738.725 324.409 738.745 324.388 738.766 324.367C738.787 324.357 738.808 324.336 738.828 324.315C738.849 324.305 738.87 324.284 738.891 324.263C738.922 324.242 738.943 324.222 738.964 324.201C738.984 324.18 739.005 324.17 739.026 324.149C739.047 324.128 739.067 324.118 739.088 324.097C739.109 324.076 739.13 324.055 739.151 324.035C739.171 324.014 739.192 323.993 739.213 323.972C739.234 323.952 739.265 323.931 739.286 323.91C739.317 323.889 739.338 323.868 739.358 323.837C739.379 323.817 739.41 323.796 739.431 323.775C739.452 323.754 739.483 323.733 739.504 323.713C739.525 323.692 739.556 323.671 739.577 323.65C739.597 323.63 739.628 323.609 739.649 323.588C739.67 323.567 739.701 323.546 739.722 323.515C739.743 323.494 739.774 323.474 739.795 323.443C739.826 323.422 739.847 323.401 739.867 323.37C739.867 323.37 739.867 323.37 739.867 323.359C739.888 323.339 739.909 323.328 739.93 323.307C739.93 323.297 739.94 323.297 739.94 323.287C739.961 323.276 739.982 323.256 739.992 323.235C740.002 323.224 740.002 323.214 740.013 323.214C740.023 323.204 740.044 323.193 740.054 323.172C740.065 323.162 740.075 323.152 740.086 323.141C740.096 323.131 740.117 323.12 740.127 323.11C740.138 323.1 740.148 323.079 740.158 323.069C740.169 323.058 740.179 323.058 740.189 323.048C740.21 323.037 740.221 323.017 740.231 322.996C740.241 322.985 740.241 322.985 740.252 322.975C740.273 322.954 740.283 322.933 740.304 322.923L740.314 322.913C740.335 322.892 740.356 322.871 740.376 322.85C740.376 322.85 740.387 322.85 740.387 322.84C740.418 322.819 740.439 322.788 740.46 322.767C740.491 322.746 740.512 322.715 740.532 322.695C740.563 322.674 740.584 322.643 740.605 322.622C740.636 322.601 740.657 322.57 740.678 322.549C740.709 322.528 740.73 322.497 740.75 322.476C740.782 322.456 740.802 322.424 740.823 322.393C740.854 322.372 740.875 322.341 740.896 322.32C740.927 322.3 740.948 322.269 740.969 322.248C741 322.227 741.021 322.196 741.041 322.175C741.073 322.154 741.093 322.123 741.114 322.102C741.145 322.082 741.166 322.05 741.187 322.03C741.218 322.009 741.239 321.978 741.26 321.957C741.291 321.936 741.322 321.905 741.343 321.874C741.374 321.853 741.395 321.822 741.415 321.801C741.447 321.78 741.467 321.749 741.499 321.728C741.53 321.708 741.55 321.676 741.571 321.656C741.602 321.635 741.623 321.604 741.644 321.583C741.675 321.562 741.696 321.531 741.717 321.51C741.748 321.489 741.769 321.458 741.789 321.437C741.821 321.417 741.841 321.385 741.862 321.365C741.893 321.344 741.914 321.313 741.945 321.292C741.976 321.271 741.997 321.24 742.028 321.219C742.06 321.198 742.08 321.178 742.101 321.147C742.132 321.126 742.153 321.105 742.174 321.074C742.205 321.053 742.226 321.032 742.247 321.001C742.278 320.98 742.298 320.96 742.319 320.939C742.34 320.918 742.371 320.897 742.392 320.876C742.423 320.856 742.444 320.835 742.465 320.814C742.485 320.793 742.517 320.773 742.537 320.752C742.558 320.731 742.589 320.71 742.61 320.689C742.631 320.669 742.662 320.648 742.683 320.627C742.704 320.606 742.735 320.586 742.756 320.565C742.776 320.544 742.808 320.523 742.828 320.513C742.849 320.492 742.88 320.482 742.901 320.461C742.922 320.44 742.953 320.43 742.974 320.409C742.995 320.388 743.015 320.378 743.046 320.357C743.067 320.347 743.088 320.326 743.109 320.305C743.13 320.295 743.15 320.274 743.171 320.253C743.192 320.243 743.213 320.222 743.233 320.211C743.254 320.201 743.275 320.18 743.296 320.17C743.317 320.16 743.337 320.139 743.358 320.128C743.379 320.118 743.4 320.108 743.42 320.087C743.441 320.076 743.462 320.066 743.483 320.056C743.504 320.045 743.524 320.035 743.535 320.024C743.556 320.014 743.576 320.004 743.587 319.993C743.607 319.983 743.618 319.973 743.639 319.962C743.659 319.952 743.67 319.941 743.691 319.941C743.701 319.931 743.711 319.931 743.722 319.921C743.743 319.91 743.753 319.91 743.774 319.9C743.795 319.889 743.805 319.889 743.815 319.879C743.826 319.879 743.846 319.869 743.857 319.869C743.867 319.869 743.867 319.869 743.867 319.858C743.878 319.858 743.878 319.858 743.888 319.848C743.898 319.848 743.898 319.848 743.909 319.837L744.013 319.827Z" fill="white"/>
<path d="M744.417 319.839C744.428 319.839 744.428 319.839 744.428 319.839C744.438 319.839 744.438 319.839 744.448 319.849C744.459 319.849 744.459 319.849 744.469 319.86C744.48 319.86 744.48 319.86 744.48 319.87C744.49 319.88 744.511 319.88 744.521 319.88C744.531 319.891 744.552 319.891 744.563 319.901C744.573 319.912 744.594 319.912 744.604 319.922C744.615 319.932 744.625 319.932 744.635 319.943C744.656 319.953 744.667 319.963 744.687 319.963C744.708 319.974 744.718 319.984 744.739 319.995C744.76 320.005 744.77 320.015 744.791 320.026C744.812 320.036 744.833 320.047 744.843 320.057C744.864 320.067 744.885 320.078 744.895 320.088C744.916 320.099 744.937 320.119 744.957 320.13C744.978 320.14 744.999 320.161 745.02 320.171C745.041 320.182 745.061 320.202 745.082 320.213C745.103 320.234 745.124 320.244 745.144 320.254C745.165 320.275 745.186 320.286 745.207 320.306C745.228 320.327 745.248 320.337 745.279 320.358C745.3 320.379 745.321 320.389 745.352 320.41C745.373 320.431 745.394 320.452 745.425 320.462C745.446 320.483 745.466 320.504 745.498 320.514C745.518 320.535 745.539 320.556 745.57 320.566C745.591 320.587 745.612 320.608 745.643 320.628C745.664 320.649 745.685 320.67 745.716 320.691C745.737 320.712 745.757 320.732 745.789 320.753C745.809 320.774 745.83 320.795 745.861 320.815C745.882 320.836 745.913 320.857 745.934 320.878C745.955 320.899 745.986 320.919 746.007 320.94C746.028 320.961 746.059 320.982 746.079 321.002C746.1 321.023 746.131 321.054 746.152 321.075C746.173 321.096 746.204 321.127 746.225 321.148C746.246 321.169 746.277 321.2 746.298 321.221C746.318 321.252 746.35 321.273 746.37 321.293C746.391 321.324 746.422 321.345 746.453 321.366C746.474 321.397 746.505 321.418 746.526 321.439C746.547 321.47 746.578 321.491 746.599 321.511C746.62 321.543 746.651 321.563 746.672 321.584C746.692 321.615 746.724 321.636 746.744 321.657C746.765 321.688 746.796 321.709 746.817 321.73C746.838 321.761 746.869 321.782 746.89 321.802C746.911 321.834 746.942 321.854 746.963 321.875C746.983 321.906 747.014 321.937 747.046 321.958C747.066 321.989 747.098 322.01 747.118 322.031C747.139 322.062 747.17 322.083 747.191 322.104C747.212 322.135 747.243 322.156 747.264 322.176C747.285 322.208 747.316 322.228 747.337 322.249C747.357 322.28 747.388 322.301 747.409 322.322C747.43 322.353 747.461 322.374 747.482 322.395C747.503 322.426 747.534 322.446 747.555 322.478C747.575 322.509 747.607 322.53 747.627 322.55C747.648 322.582 747.679 322.602 747.7 322.623C747.721 322.654 747.752 322.675 747.773 322.696C747.794 322.727 747.814 322.748 747.846 322.769C747.866 322.8 747.887 322.821 747.918 322.841C747.918 322.841 747.918 322.841 747.929 322.852C747.95 322.872 747.97 322.893 747.991 322.914L748.001 322.924C748.012 322.945 748.033 322.966 748.053 322.976C748.064 322.987 748.074 322.987 748.074 322.997C748.085 323.018 748.105 323.028 748.116 323.049C748.126 323.059 748.137 323.07 748.147 323.07C748.157 323.08 748.168 323.101 748.178 323.111C748.188 323.122 748.209 323.132 748.22 323.143C748.23 323.153 748.24 323.163 748.251 323.174C748.261 323.184 748.282 323.205 748.303 323.215C748.313 323.226 748.313 323.236 748.324 323.236C748.344 323.257 748.355 323.267 748.375 323.288C748.375 323.298 748.386 323.298 748.386 323.309C748.407 323.33 748.427 323.35 748.448 323.361C748.448 323.361 748.448 323.361 748.448 323.371C748.469 323.402 748.5 323.423 748.521 323.444C748.542 323.465 748.562 323.496 748.594 323.517C748.614 323.537 748.635 323.569 748.666 323.589C748.687 323.61 748.708 323.641 748.739 323.652C748.76 323.672 748.781 323.704 748.812 323.714C748.833 323.735 748.853 323.756 748.885 323.776C748.905 323.797 748.926 323.818 748.947 323.839C748.968 323.87 748.999 323.891 749.02 323.911C749.04 323.932 749.061 323.953 749.092 323.974C749.113 323.994 749.134 324.015 749.155 324.036C749.175 324.057 749.196 324.078 749.217 324.098C749.238 324.119 749.259 324.14 749.279 324.15C749.3 324.171 749.321 324.192 749.342 324.202C749.362 324.223 749.394 324.244 749.414 324.265C749.435 324.285 749.456 324.306 749.477 324.317C749.497 324.337 749.518 324.348 749.539 324.368C749.56 324.389 749.581 324.4 749.601 324.42C749.622 324.441 749.643 324.452 749.664 324.462C749.684 324.483 749.705 324.493 749.726 324.514C749.747 324.535 749.778 324.555 749.809 324.566C749.83 324.576 749.851 324.597 749.871 324.607C749.892 324.618 749.913 324.628 749.934 324.639C749.955 324.649 749.975 324.659 749.986 324.67C750.017 324.691 750.048 324.711 750.079 324.722C750.1 324.732 750.121 324.742 750.131 324.753C750.152 324.763 750.162 324.774 750.183 324.784C750.204 324.794 750.235 324.805 750.266 324.815C750.287 324.826 750.318 324.836 750.349 324.846C750.37 324.857 750.381 324.857 750.401 324.867C750.422 324.878 750.453 324.888 750.474 324.888C750.505 324.898 750.536 324.909 750.568 324.909C750.588 324.909 750.599 324.919 750.62 324.919C750.661 324.93 750.703 324.93 750.744 324.93C751.056 324.93 751.305 324.68 751.305 324.379C751.305 324.067 751.056 323.818 750.744 323.818C750.723 323.818 750.713 323.818 750.692 323.818H750.682C750.671 323.818 750.671 323.818 750.661 323.818C750.651 323.818 750.651 323.818 750.64 323.818C750.63 323.818 750.609 323.807 750.599 323.807C750.588 323.807 750.568 323.797 750.557 323.797C750.547 323.787 750.526 323.787 750.516 323.787C750.516 323.787 750.505 323.787 750.505 323.776C750.495 323.766 750.474 323.766 750.453 323.756C750.433 323.745 750.422 323.745 750.401 323.735C750.391 323.724 750.381 323.724 750.37 323.724C750.349 323.714 750.339 323.704 750.318 323.693C750.297 323.683 750.287 323.672 750.266 323.662C750.246 323.652 750.235 323.641 750.214 323.631C750.204 323.62 750.183 323.61 750.173 323.6C750.152 323.589 750.142 323.579 750.121 323.569C750.1 323.558 750.09 323.537 750.069 323.527C750.048 323.517 750.038 323.496 750.017 323.485C749.996 323.475 749.986 323.454 749.965 323.444C749.944 323.423 749.923 323.413 749.903 323.402C749.882 323.382 749.861 323.371 749.84 323.35C749.82 323.33 749.799 323.319 749.778 323.298C749.757 323.278 749.736 323.257 749.716 323.246C749.695 323.226 749.674 323.205 749.653 323.195C749.633 323.174 749.612 323.153 749.591 323.132C749.57 323.111 749.549 323.091 749.529 323.07C749.508 323.049 749.487 323.028 749.466 323.008C749.446 322.987 749.425 322.966 749.404 322.945C749.383 322.924 749.362 322.904 749.342 322.883C749.321 322.862 749.3 322.831 749.279 322.81C749.259 322.789 749.238 322.758 749.217 322.748L749.207 322.737C749.186 322.717 749.165 322.696 749.155 322.685C749.144 322.675 749.144 322.665 749.134 322.654C749.123 322.634 749.103 322.623 749.092 322.613C749.082 322.602 749.072 322.582 749.061 322.571C749.051 322.561 749.04 322.55 749.03 322.54C749.02 322.519 748.999 322.498 748.988 322.488C748.978 322.478 748.978 322.478 748.968 322.467C748.947 322.446 748.936 322.426 748.916 322.405L748.905 322.395C748.885 322.363 748.864 322.343 748.843 322.322C748.822 322.291 748.801 322.27 748.77 322.239C748.749 322.208 748.729 322.187 748.708 322.166C748.687 322.135 748.666 322.114 748.646 322.083C748.625 322.052 748.604 322.031 748.583 322C748.562 321.969 748.542 321.948 748.521 321.917C748.5 321.885 748.479 321.865 748.459 321.834C748.438 321.802 748.417 321.782 748.396 321.75C748.375 321.719 748.355 321.688 748.324 321.667C748.303 321.636 748.282 321.605 748.251 321.574C748.23 321.543 748.209 321.511 748.178 321.491C748.157 321.46 748.137 321.428 748.105 321.408C748.085 321.376 748.064 321.345 748.033 321.324C748.012 321.293 747.991 321.262 747.96 321.241C747.939 321.21 747.918 321.179 747.887 321.158C747.866 321.127 747.846 321.096 747.814 321.075C747.794 321.044 747.773 321.023 747.752 320.992C747.731 320.961 747.711 320.93 747.679 320.899C747.659 320.867 747.638 320.836 747.607 320.815C747.586 320.784 747.565 320.753 747.534 320.732C747.513 320.701 747.492 320.67 747.461 320.649C747.44 320.618 747.42 320.587 747.388 320.566C747.368 320.535 747.347 320.504 747.316 320.483C747.295 320.452 747.274 320.421 747.243 320.4C747.222 320.369 747.201 320.337 747.17 320.317C747.15 320.286 747.129 320.254 747.098 320.234C747.077 320.202 747.056 320.171 747.025 320.15C747.004 320.119 746.983 320.088 746.952 320.067C746.931 320.036 746.911 320.015 746.879 319.984C746.859 319.953 746.838 319.932 746.817 319.912C746.796 319.88 746.776 319.86 746.755 319.828C746.734 319.797 746.713 319.776 746.682 319.745C746.661 319.714 746.64 319.693 746.609 319.662C746.589 319.631 746.568 319.61 746.537 319.579C746.516 319.548 746.495 319.527 746.474 319.496C746.453 319.465 746.433 319.444 746.402 319.423C746.381 319.392 746.36 319.371 746.339 319.351C746.318 319.319 746.298 319.299 746.266 319.278C746.246 319.247 746.225 319.226 746.204 319.205C746.183 319.184 746.163 319.153 746.142 319.132C746.121 319.112 746.1 319.08 746.079 319.06C746.059 319.039 746.038 319.008 746.017 318.987C745.996 318.966 745.976 318.935 745.955 318.914C745.934 318.893 745.913 318.873 745.892 318.852C745.872 318.831 745.851 318.81 745.83 318.79C745.809 318.769 745.789 318.748 745.768 318.727C745.747 318.706 745.726 318.686 745.695 318.665C745.674 318.644 745.653 318.623 745.622 318.603C745.602 318.582 745.581 318.561 745.55 318.54C745.529 318.519 745.508 318.499 745.477 318.478C745.456 318.457 745.435 318.436 745.404 318.426C745.383 318.405 745.363 318.384 745.331 318.374C745.311 318.353 745.29 318.332 745.259 318.322C745.238 318.301 745.217 318.291 745.186 318.27C745.186 318.27 745.186 318.27 745.176 318.27C745.155 318.249 745.124 318.239 745.103 318.218C745.082 318.197 745.051 318.187 745.03 318.166C745.009 318.145 744.978 318.135 744.957 318.125C744.937 318.114 744.905 318.093 744.885 318.083C744.854 318.062 744.822 318.052 744.781 318.031C744.76 318.021 744.729 318.01 744.708 318C744.687 317.99 744.656 317.979 744.635 317.969H744.625C744.615 317.969 744.615 317.958 744.604 317.958C744.687 317.958 744.667 317.948 744.635 317.938C744.604 317.927 744.583 317.917 744.552 317.917C744.521 317.906 744.49 317.896 744.459 317.896C744.448 317.896 744.438 317.896 744.428 317.886C744.407 317.886 744.386 317.875 744.376 317.875C744.355 317.875 744.344 317.865 744.324 317.865C744.303 317.865 744.282 317.854 744.261 317.854C744.241 317.854 744.22 317.854 744.199 317.854C744.178 317.854 744.157 317.854 744.137 317.854C744.116 317.854 744.095 317.854 744.074 317.865C744.054 317.865 744.043 317.865 744.022 317.875C744.002 317.875 743.981 317.886 743.97 317.886C743.96 317.886 743.95 317.886 743.939 317.896C743.513 318.01 743.202 318.405 743.202 318.862C743.202 319.351 743.555 319.756 744.022 319.839C744.085 319.828 744.147 319.818 744.209 319.818C744.272 319.818 744.334 319.828 744.396 319.839H744.417Z" fill="white"/>
<path d="M744.013 319.825C743.992 319.825 743.971 319.836 743.95 319.836L744.013 319.825Z" fill="white"/>
<path d="M744.418 319.836C744.407 319.836 744.386 319.825 744.376 319.825L744.418 319.836Z" fill="white"/>
<path d="M744.22 322.525C744.21 322.536 744.2 322.536 744.2 322.546C744.189 322.536 744.179 322.536 744.179 322.525C744.168 322.515 744.148 322.494 744.137 322.484C744.127 322.473 744.106 322.453 744.096 322.442C744.085 322.432 744.065 322.411 744.054 322.401C744.044 322.39 744.023 322.37 744.013 322.359C744.002 322.338 743.981 322.328 743.971 322.307C743.961 322.286 743.94 322.276 743.93 322.255C743.919 322.235 743.898 322.224 743.888 322.203C743.878 322.183 743.857 322.172 743.846 322.151C743.836 322.131 743.815 322.11 743.805 322.099C743.794 322.079 743.774 322.058 743.763 322.047C743.763 322.037 743.753 322.037 743.753 322.037C743.867 322.172 744.044 322.255 744.231 322.255C744.418 322.255 744.594 322.172 744.709 322.037C744.698 322.047 744.698 322.047 744.698 322.058C744.688 322.079 744.667 322.099 744.657 322.11C744.646 322.131 744.626 322.141 744.615 322.162C744.605 322.183 744.584 322.193 744.574 322.214C744.563 322.224 744.543 322.245 744.532 322.266C744.522 322.276 744.501 322.297 744.491 322.318C744.48 322.328 744.459 322.349 744.449 322.37C744.439 322.38 744.418 322.401 744.407 322.411C744.397 322.422 744.376 322.442 744.366 322.453C744.356 322.463 744.335 322.484 744.324 322.494C744.252 322.505 744.231 322.515 744.22 322.525Z" fill="white"/>
<path d="M745.197 323.722C745.197 324.002 745.082 324.262 744.885 324.449C744.791 324.543 744.677 324.605 744.563 324.657C744.553 324.667 744.532 324.667 744.521 324.667C744.48 324.688 744.438 324.698 744.397 324.698C744.376 324.698 744.365 324.709 744.345 324.709C744.324 324.709 744.314 324.719 744.293 324.719C744.262 324.719 744.22 324.73 744.189 324.73C744.158 324.73 744.116 324.73 744.085 324.719C744.064 324.719 744.054 324.719 744.033 324.709C744.012 324.709 744.002 324.709 743.981 324.698C743.95 324.688 743.919 324.688 743.888 324.678C743.867 324.667 743.846 324.667 743.825 324.657C743.711 324.615 743.607 324.543 743.524 324.47C743.514 324.459 743.514 324.459 743.503 324.449C743.482 324.439 743.472 324.418 743.451 324.407C743.42 324.387 743.399 324.356 743.368 324.335C743.347 324.314 743.327 324.293 743.306 324.272C743.285 324.252 743.264 324.231 743.243 324.21C743.223 324.189 743.202 324.169 743.181 324.137C743.16 324.117 743.14 324.096 743.119 324.065L743.108 324.054C743.088 324.033 743.067 324.013 743.056 323.982C743.036 323.961 743.015 323.93 743.005 323.909C742.984 323.888 742.963 323.857 742.953 323.836C742.932 323.815 742.911 323.784 742.901 323.763C742.88 323.743 742.869 323.711 742.849 323.691C742.828 323.67 742.818 323.639 742.797 323.618C742.776 323.597 742.766 323.566 742.745 323.545C742.724 323.524 742.714 323.493 742.693 323.472C742.672 323.452 742.662 323.42 742.651 323.389C742.631 323.369 742.62 323.337 742.61 323.306C742.589 323.285 742.579 323.254 742.568 323.223C742.547 323.192 742.537 323.171 742.527 323.14C742.516 323.119 742.495 323.088 742.485 323.057C742.475 323.026 742.454 323.005 742.444 322.974C742.433 322.943 742.412 322.922 742.402 322.891C742.392 322.859 742.371 322.839 742.36 322.808C742.35 322.776 742.329 322.756 742.319 322.724C742.308 322.693 742.288 322.672 742.277 322.641C742.267 322.61 742.246 322.589 742.236 322.558C742.225 322.527 742.205 322.506 742.194 322.475C742.184 322.444 742.173 322.423 742.163 322.392C742.153 322.361 742.142 322.34 742.132 322.309C742.121 322.278 742.111 322.257 742.101 322.226C742.09 322.195 742.08 322.174 742.069 322.143C742.059 322.111 742.049 322.091 742.038 322.06C742.028 322.028 742.018 321.997 742.007 321.976C741.997 321.945 741.986 321.914 741.976 321.883C741.966 321.852 741.955 321.821 741.945 321.789C741.934 321.758 741.924 321.727 741.914 321.696C741.903 321.665 741.893 321.634 741.882 321.602C741.872 321.571 741.862 321.54 741.851 321.509C741.841 321.478 741.831 321.447 741.82 321.415C741.81 321.384 741.799 321.353 741.789 321.322C741.779 321.291 741.768 321.27 741.758 321.239C741.747 321.208 741.737 321.187 741.727 321.156C741.716 321.124 741.706 321.093 741.695 321.062C741.685 321.031 741.675 321 741.664 320.969C741.654 320.937 741.644 320.906 741.633 320.875C741.623 320.844 741.612 320.823 741.602 320.792C741.592 320.761 741.581 320.74 741.571 320.709C741.56 320.678 741.55 320.647 741.54 320.615C741.529 320.595 741.519 320.563 741.519 320.543C741.508 320.512 741.498 320.491 741.488 320.46C741.477 320.428 741.467 320.408 741.457 320.376C741.446 320.345 741.436 320.325 741.425 320.293C741.415 320.262 741.405 320.241 741.394 320.21C741.384 320.189 741.373 320.158 741.373 320.138C741.363 320.106 741.353 320.086 741.342 320.054C741.332 320.023 741.321 320.002 741.311 319.971C741.301 319.94 741.29 319.919 741.28 319.888C741.27 319.867 741.259 319.847 741.259 319.815C741.249 319.795 741.238 319.764 741.228 319.732C741.218 319.712 741.207 319.68 741.197 319.66C741.186 319.639 741.176 319.608 741.166 319.587C741.155 319.566 741.145 319.535 741.134 319.514C741.124 319.493 741.114 319.473 741.114 319.441C741.103 319.421 741.093 319.39 741.083 319.369C741.072 319.348 741.062 319.317 741.051 319.296C741.041 319.275 741.031 319.244 741.02 319.223C741.01 319.202 740.999 319.182 740.989 319.151C740.979 319.13 740.968 319.109 740.958 319.078C740.947 319.057 740.937 319.036 740.937 319.026C740.927 319.005 740.916 318.984 740.906 318.964C740.896 318.943 740.885 318.922 740.875 318.901C740.864 318.88 740.854 318.86 740.844 318.839C740.833 318.818 740.823 318.797 740.812 318.777C740.802 318.756 740.792 318.735 740.781 318.714C740.771 318.704 740.771 318.683 740.76 318.673C740.75 318.652 740.74 318.641 740.74 318.621C740.74 318.61 740.729 318.61 740.729 318.6C740.719 318.59 740.719 318.579 740.709 318.558C740.698 318.548 740.698 318.538 740.688 318.527C740.688 318.517 740.677 318.506 740.677 318.506C740.667 318.496 740.657 318.475 740.646 318.465V318.454C740.646 318.444 740.636 318.444 740.636 318.434C740.625 318.423 740.615 318.403 740.605 318.392C740.594 318.382 740.584 318.361 740.573 318.351C740.563 318.34 740.553 318.319 740.542 318.309L740.532 318.299C740.522 318.288 740.511 318.278 740.501 318.257C740.49 318.247 740.48 318.236 740.47 318.226C740.459 318.216 740.449 318.205 740.438 318.195C740.428 318.184 740.418 318.174 740.407 318.164C740.397 318.153 740.386 318.153 740.376 318.143C740.366 318.143 740.366 318.132 740.355 318.132C740.355 318.132 740.345 318.132 740.345 318.122C740.345 318.122 740.345 318.122 740.335 318.122C740.324 318.122 740.303 318.122 740.293 318.122C739.981 318.122 739.732 317.873 739.732 317.561C739.732 317.249 739.981 317 740.293 317C740.335 317 740.376 317.01 740.418 317.01C740.438 317.01 740.459 317.021 740.47 317.021C740.501 317.031 740.532 317.031 740.563 317.052C740.573 317.052 740.594 317.062 740.605 317.062C740.636 317.073 740.677 317.094 740.709 317.104C740.719 317.114 740.729 317.114 740.74 317.125C740.771 317.145 740.802 317.156 740.833 317.177C740.864 317.218 740.875 317.218 740.885 317.229C740.896 317.239 740.906 317.249 740.916 317.26C740.947 317.281 740.979 317.301 740.999 317.322C741.01 317.332 741.02 317.343 741.031 317.353C741.041 317.364 741.051 317.374 741.062 317.384C741.083 317.405 741.103 317.426 741.124 317.457C741.134 317.468 741.155 317.488 741.166 317.499C741.176 317.509 741.186 317.519 741.197 317.54C741.207 317.551 741.218 317.571 741.228 317.582C741.249 317.603 741.259 317.623 741.28 317.655C741.29 317.675 741.311 317.686 741.321 317.706C741.332 317.717 741.342 317.738 741.353 317.748C741.363 317.758 741.373 317.779 741.384 317.79C741.394 317.8 741.405 317.821 741.415 317.842C741.436 317.862 741.446 317.883 741.457 317.914C741.467 317.925 741.488 317.945 741.498 317.966C741.498 317.966 741.498 317.966 741.498 317.977C741.508 317.987 741.519 317.997 741.519 318.008C741.519 318.018 741.519 318.018 741.529 318.029C741.54 318.039 741.54 318.049 741.55 318.06C741.56 318.07 741.56 318.08 741.56 318.08C741.56 318.08 741.571 318.091 741.571 318.101C741.581 318.112 741.581 318.122 741.581 318.132C741.581 318.143 741.592 318.143 741.592 318.143C741.602 318.153 741.602 318.174 741.612 318.184C741.612 318.184 741.612 318.184 741.623 318.195C741.633 318.216 741.644 318.236 741.654 318.257C741.675 318.288 741.685 318.309 741.695 318.34C741.706 318.361 741.716 318.382 741.727 318.403C741.737 318.423 741.747 318.444 741.758 318.465C741.768 318.486 741.779 318.506 741.789 318.527C741.799 318.548 741.81 318.569 741.82 318.59C741.831 318.61 741.841 318.631 741.851 318.652C741.862 318.673 741.872 318.693 741.882 318.714C741.903 318.745 741.914 318.777 741.924 318.808C741.934 318.828 741.945 318.849 741.955 318.88C741.966 318.901 741.976 318.922 741.986 318.953C741.997 318.974 742.007 318.995 742.018 319.026C742.028 319.047 742.038 319.078 742.049 319.099C742.059 319.119 742.069 319.151 742.08 319.171C742.09 319.192 742.101 319.223 742.111 319.244C742.121 319.265 742.142 319.296 742.142 319.317C742.153 319.338 742.163 319.369 742.173 319.39C742.194 319.421 742.205 319.452 742.225 319.483C742.236 319.504 742.256 319.535 742.256 319.556C742.267 319.577 742.288 319.608 742.288 319.628C742.298 319.649 742.319 319.68 742.329 319.701C742.34 319.722 742.36 319.753 742.371 319.774C742.381 319.795 742.402 319.826 742.412 319.847C742.423 319.867 742.444 319.899 742.454 319.919C742.464 319.94 742.485 319.971 742.495 319.992C742.506 320.013 742.527 320.044 742.537 320.065C742.547 320.086 742.568 320.117 742.579 320.138C742.599 320.169 742.61 320.2 742.62 320.231C742.631 320.252 742.651 320.283 742.662 320.304C742.672 320.325 742.693 320.356 742.703 320.387C742.724 320.408 742.734 320.439 742.745 320.47C742.766 320.501 742.776 320.522 742.786 320.553C742.797 320.584 742.818 320.605 742.828 320.636C742.838 320.657 742.859 320.688 742.869 320.709C742.88 320.73 742.901 320.761 742.911 320.782C742.921 320.802 742.942 320.834 742.953 320.854C742.963 320.875 742.984 320.906 742.994 320.927C743.005 320.948 743.025 320.979 743.036 321C743.046 321.021 743.067 321.052 743.077 321.073C743.098 321.093 743.108 321.124 743.119 321.145C743.14 321.166 743.15 321.197 743.16 321.218C743.181 321.239 743.192 321.27 743.202 321.291C743.223 321.311 743.233 321.343 743.243 321.363C743.264 321.384 743.275 321.405 743.285 321.436C743.306 321.457 743.316 321.478 743.327 321.509C743.347 321.53 743.358 321.55 743.368 321.582C743.379 321.602 743.399 321.623 743.41 321.644C743.43 321.665 743.441 321.686 743.451 321.706C743.472 321.727 743.482 321.748 743.493 321.769C743.503 321.789 743.524 321.81 743.534 321.831C743.555 321.852 743.566 321.873 743.576 321.893C743.586 321.904 743.586 321.914 743.597 321.924C743.607 321.935 743.617 321.956 743.628 321.966C743.638 321.976 743.649 321.987 743.649 321.997C743.649 322.008 743.659 322.008 743.659 322.008C743.68 322.028 743.69 322.049 743.701 322.06C743.721 322.08 743.732 322.091 743.742 322.111C743.753 322.132 743.773 322.143 743.784 322.163C743.794 322.174 743.815 322.195 743.825 322.215C743.836 322.226 743.856 322.247 743.867 322.267C743.877 322.278 743.898 322.298 743.908 322.319C743.919 322.33 743.94 322.35 743.95 322.361C743.96 322.371 743.981 322.392 743.991 322.402C744.002 322.413 744.023 322.434 744.033 322.444C744.043 322.454 744.064 322.465 744.075 322.485C744.085 322.496 744.095 322.496 744.095 322.506C744.095 322.506 744.095 322.506 744.106 322.506C744.116 322.517 744.137 322.527 744.147 322.537C744.158 322.548 744.178 322.558 744.189 322.569C744.199 322.579 744.22 322.589 744.23 322.6C744.241 322.61 744.262 322.621 744.272 322.631C744.282 322.631 744.282 322.641 744.293 322.641C744.303 322.652 744.324 322.662 744.334 322.672C744.345 322.683 744.365 322.683 744.376 322.693C744.386 322.704 744.407 322.704 744.417 322.714C744.417 322.714 744.428 322.714 744.428 322.724C744.438 322.735 744.449 322.735 744.469 322.745C744.501 322.756 744.532 322.776 744.563 322.787C744.978 323.005 745.197 323.337 745.197 323.722Z" fill="white"/>
<defs>
<filter id="filter0_d" x="715" y="295" width="58" height="72.4329" filterUnits="userSpaceOnUse" color-interpolation-filters="sRGB">
<feFlood flood-opacity="0" result="BackgroundImageFix"/>
<feColorMatrix in="SourceAlpha" type="matrix" values="0 0 0 0 0 0 0 0 0 0 0 0 0 0 0 0 0 0 127 0"/>
<feOffset dy="3"/>
<feGaussianBlur stdDeviation="9"/>
<feColorMatrix type="matrix" values="0 0 0 0 0.00392157 0 0 0 0 0.219608 0 0 0 0 0.470588 0 0 0 0.25 0"/>
<feBlend mode="normal" in2="BackgroundImageFix" result="effect1_dropShadow"/>
<feBlend mode="normal" in="SourceGraphic" in2="effect1_dropShadow" result="shape"/>
</filter>
</defs>
</svg>
