<svg width="28" height="19" viewBox="0 0 28 19" fill="none" xmlns="http://www.w3.org/2000/svg">
<path d="M3.5573 3.81753L10.0366 4.6505C10.2627 5.22465 11.4021 8.05079 11.6163 8.55651C11.6163 8.55651 11.6163 8.55651 11.6133 8.55651C9.73613 9.48468 7.85898 10.4099 5.98183 11.338C6.63333 11.219 7.29375 11.1595 7.95715 11.1595C8.82581 11.1595 9.67663 11.2637 10.4888 11.4689C12.1279 11.8854 13.6094 12.5518 15.0403 13.1973C16.3166 13.7715 17.5244 14.3159 18.7292 14.6282C18.8988 14.6729 19.0624 14.7115 19.226 14.7443C17.7981 11.82 13.9575 3.9395 13.1989 2.20514C12.8419 1.38705 12.351 1.08361 11.6549 0.994367L4.04518 0.0156309C2.99505 -0.118239 2.03416 0.622507 1.89731 1.67264C1.76642 2.72277 2.50716 3.68366 3.5573 3.81753Z" fill="white"/>
<path d="M0.496044 17.4844C0.707261 17.6361 0.948226 17.7075 1.18919 17.7075C1.24274 17.7075 1.29331 17.7046 1.34389 17.6956C1.65922 17.654 1.95671 17.4874 2.15603 17.2107C2.92652 16.1368 4.11945 15.2919 5.50872 14.8279C6.30599 14.5631 7.13895 14.4292 7.95705 14.4292C10.923 14.4292 13.4665 16.2023 16.1439 17.2226C17.5778 17.77 19.0742 18.1746 20.7014 18.1746C21.3857 18.1746 22.0937 18.1032 22.8285 17.9396C24.5569 17.5588 26.0384 16.7377 27.1093 15.5865C27.3652 15.3098 27.5972 15.0182 27.8025 14.7059C28.1654 14.1585 28.0137 13.4207 27.4663 13.0578C27.264 12.9239 27.0379 12.8615 26.8118 12.8615C26.4251 12.8615 26.0473 13.0489 25.8182 13.394C25.726 13.5338 25.6249 13.6677 25.5148 13.7985C24.7711 14.6851 23.6555 15.3217 22.3168 15.6162C21.0822 15.8869 19.7197 15.8066 18.503 15.4913C17.2238 15.1581 15.9863 14.6018 14.6714 14.0098C13.2732 13.3821 11.8303 12.7306 10.2656 12.3319C9.52183 12.1415 8.74242 12.0493 7.95407 12.0493C6.88014 12.0493 5.78836 12.2248 4.75012 12.5699C3.84279 12.8734 3.00089 13.2958 2.24527 13.8283C1.44801 14.3905 0.766759 15.0599 0.21938 15.8215C0.183682 15.872 0.153933 15.9226 0.127159 15.9762C-0.131656 16.4908 0.0111388 17.1364 0.496044 17.4844Z" fill="white"/>
<path d="M22.0403 11.963C24.3586 11.963 26.2379 10.0837 26.2379 7.76543C26.2379 5.44718 24.3586 3.56787 22.0403 3.56787C19.7221 3.56787 17.8428 5.44718 17.8428 7.76543C17.8428 10.0837 19.7221 11.963 22.0403 11.963Z" fill="white"/>
</svg>
