<svg width="28" height="22" viewBox="0 0 28 22" fill="none" xmlns="http://www.w3.org/2000/svg">
<path d="M2.47136 18.7135C3.16696 18.0461 4.05484 17.6616 4.99927 17.5654L5.0332 14.4437C4.85788 14.308 2.85026 12.2834 2.69191 12.1251L5.31596 13.6803C5.55914 13.8217 5.83625 13.8612 6.09639 13.799L10.3096 12.815C10.8808 12.6793 11.2314 12.1138 11.1013 11.5426C10.9656 10.9714 10.4001 10.6151 9.82888 10.7508L6.02853 11.6387L3.77207 10.2984C5.35555 10.7621 5.02189 10.6603 5.79666 10.8866L8.33588 10.2928L10.5923 8.2512C11.0221 7.86099 11.0617 7.18801 10.6659 6.75821C10.2756 6.32275 9.60266 6.29447 9.17286 6.68469L5.94935 9.61412L3.73248 8.89025C3.69855 8.87894 3.16696 8.7828 2.97468 8.7828H2.10376C0.938776 8.77714 0 9.72157 0 10.8809V18.3063C0.81436 17.95 1.78707 18.0857 2.47136 18.7135Z" fill="white"/>
<path d="M2.5505 8.16668C3.89646 8.16668 4.99358 7.07521 4.99358 5.7236C4.99358 4.37764 3.89646 3.28052 2.5505 3.28052C1.19889 3.28052 0.107422 4.37764 0.107422 5.7236C0.107422 7.06955 1.19889 8.16668 2.5505 8.16668Z" fill="white"/>
<path d="M16.5924 7.34041C16.1343 7.70801 16.0664 8.37533 16.4284 8.82775L19.3408 12.4528C19.4144 12.5489 19.5048 12.6281 19.6066 12.6903L21.5294 13.8836C21.4729 14.0419 21.4389 14.2116 21.422 14.3812L22.7001 14.008L20.4436 15.3483L16.6433 14.4604C16.0721 14.3303 15.5066 14.681 15.3708 15.2521C15.2408 15.8233 15.5914 16.3889 16.1626 16.5246L20.3758 17.5086C20.6302 17.5708 20.913 17.5312 21.1562 17.3898L23.7802 15.8346L22.0554 17.5652C23.3222 17.3729 24.6681 17.7122 25.6352 18.5831C25.8896 18.3739 26.1837 18.2381 26.4891 18.159V14.5848C26.4891 13.4255 25.5503 12.4811 24.3853 12.4811H23.5144C23.4466 12.4811 23.3844 12.4924 23.3222 12.498L20.8847 10.9824L18.0854 7.49876C17.7178 7.04634 17.0504 6.97282 16.5924 7.34041Z" fill="white"/>
<path d="M23.9387 11.8649C25.2903 11.8649 26.3818 10.7735 26.3818 9.42184C26.3818 8.07588 25.2903 6.97876 23.9387 6.97876C22.5927 6.97876 21.4956 8.07023 21.4956 9.42184C21.5013 10.7735 22.5927 11.8649 23.9387 11.8649Z" fill="white"/>
<path d="M15.3709 4.9882C16.7508 4.9882 17.8649 3.87411 17.8649 2.49422C17.8649 1.11999 16.7508 0.000244141 15.3709 0.000244141C13.991 0.000244141 12.877 1.11433 12.877 2.49422C12.877 3.86846 13.9967 4.9882 15.3709 4.9882Z" fill="white"/>
<path d="M27.7278 19.726C27.3716 19.3697 26.7834 19.364 26.4271 19.726C26.003 20.1501 25.2621 20.1501 24.8323 19.726C23.7126 18.6062 21.7615 18.6006 20.6361 19.726C20.212 20.1501 19.4711 20.1501 19.047 19.726C17.9442 18.6232 15.9592 18.6175 14.8508 19.726C14.4097 20.1614 13.6971 20.1671 13.256 19.726C12.1362 18.6062 10.2191 18.5723 9.02583 19.7599C8.61865 20.1671 7.91174 20.1671 7.50456 19.7599C6.40178 18.6571 4.48464 18.6571 3.3762 19.7599C2.8955 20.2406 2.05287 20.2406 1.57217 19.7599C1.21023 19.398 0.627736 19.398 0.271453 19.7599C-0.0904845 20.1218 -0.0904845 20.7043 0.271453 21.0606C0.859602 21.6488 1.64003 21.9711 2.47701 21.9711C3.30834 21.9711 4.09442 21.6488 4.68257 21.0606C5.08975 20.6534 5.79666 20.6534 6.20384 21.0606C7.30662 22.1634 9.18983 22.1973 10.3661 21.0267C10.7903 20.6025 11.5311 20.5969 11.9609 21.0267C13.1146 22.1804 14.9978 22.1804 16.1571 21.021C16.5756 20.6025 17.3278 20.6025 17.7463 21.021C18.8717 22.1408 20.8227 22.1408 21.9425 21.021C22.3723 20.5912 23.1075 20.5912 23.5373 21.021C24.657 22.1408 26.6137 22.1408 27.7335 21.021C28.0898 20.6648 28.0898 20.0823 27.7278 19.726Z" fill="white"/>
</svg>
