<svg width="28" height="18" viewBox="0 0 28 18" fill="none" xmlns="http://www.w3.org/2000/svg">
<path d="M7.16093 5.19101C8.48125 5.19101 9.55331 4.02867 9.55331 2.5955C9.55331 1.16233 8.48125 0 7.16093 0C5.84061 0 4.76855 1.16233 4.76855 2.5955C4.76855 4.02867 5.84061 5.19101 7.16093 5.19101Z" fill="white"/>
<path d="M2.30858 6.9008L4.66711 8.05185C4.66711 8.05749 4.66711 8.06877 4.66711 8.07442V13.2316C5.94793 12.9156 7.33032 13.2316 8.38545 14.2021C8.7522 13.8635 9.15281 13.604 9.58164 13.4121L9.60985 10.6361L9.8694 10.9408C10.033 11.1326 10.2474 11.2567 10.4901 11.3019L14.152 11.9338C14.7388 12.0354 15.2861 11.6009 15.3764 10.969C15.4667 10.337 15.0717 9.73892 14.4905 9.63736L11.1954 9.06748C9.1641 6.6751 10.823 8.62173 8.7917 6.23499C8.61114 6.02058 8.35159 5.83438 7.58423 5.83438H6.73222C6.41061 5.83438 6.10592 5.92466 5.83508 6.06572L3.58377 4.97674L2.06596 0.835214C1.84591 0.23712 1.22524 -0.0562851 0.677928 0.186338C0.124973 0.423319 -0.14022 1.10041 0.0741915 1.69286L1.74998 6.27449C1.85719 6.55097 2.05467 6.77666 2.30858 6.9008Z" fill="white"/>
<path d="M19.772 5.19101C21.0923 5.19101 22.1644 4.02867 22.1644 2.5955C22.1644 1.16233 21.0923 0 19.772 0C18.4517 0 17.3853 1.16233 17.3853 2.5955C17.3853 4.02867 18.4517 5.19101 19.772 5.19101Z" fill="white"/>
<path d="M14.3666 6.27449C14.4682 6.55661 14.6657 6.78231 14.9196 6.90644L17.2725 8.05749C17.2725 8.06313 17.2725 8.07442 17.2725 8.08006V13.1244C18.164 13.209 19.0273 13.5532 19.7156 14.2021C20.4097 13.5475 21.2899 13.1977 22.1927 13.1244L22.2209 10.6474L22.4804 10.952C22.644 11.1439 22.8585 11.268 23.1011 11.3132C23.2365 11.3357 26.7969 11.962 26.9323 11.962C27.4514 11.962 27.9028 11.5558 27.9874 10.9803C28.0777 10.3483 27.6827 9.75021 27.1015 9.64865L23.8064 9.07876C18.2825 2.57307 26.9661 12.8027 21.4027 6.24628C21.2222 6.03187 20.9626 5.84567 20.1952 5.84567H19.3376C19.016 5.84567 18.7169 5.93595 18.4405 6.077L16.1948 4.97674L14.677 0.835214C14.4626 0.23712 13.8419 -0.0562851 13.2889 0.186338C12.7416 0.423319 12.4708 1.10041 12.6909 1.69286L14.3666 6.27449Z" fill="white"/>
<path d="M26.1422 15.5052C25.7246 15.9623 25.0419 15.9623 24.6244 15.5052C23.5184 14.2978 21.5831 14.2978 20.4772 15.5052C20.0709 15.9453 19.3656 15.9453 18.9594 15.5052C17.8591 14.309 15.9125 14.309 14.8122 15.5052L14.7953 15.5222C14.3721 15.9623 13.7063 15.9566 13.2944 15.5052C12.1829 14.2978 10.3322 14.2131 9.10776 15.5447C8.72407 15.9566 8.04134 15.9623 7.65766 15.5447C6.53482 14.3203 4.70104 14.3203 3.5782 15.5447C3.12117 16.0469 2.3143 16.0469 1.85163 15.5447C1.49051 15.1498 0.898062 15.1498 0.536949 15.5447C0.175835 15.9397 0.175835 16.5773 0.536949 16.9723C1.11812 17.6042 1.89112 17.954 2.71492 17.954C3.53871 17.954 4.31172 17.6042 4.89288 16.9723C5.29349 16.5378 5.94237 16.5378 6.34298 16.9723C7.42068 18.1459 9.30524 18.1854 10.4563 16.9328C10.8795 16.4757 11.5566 16.4814 11.9741 16.9328C13.0913 18.1459 14.9476 18.2079 16.1213 16.9328L16.1382 16.9158C16.5388 16.4927 17.2441 16.5039 17.6391 16.9328C18.7506 18.1402 20.6803 18.1402 21.7862 16.9328C22.1925 16.4927 22.8978 16.4927 23.304 16.9328C24.4494 18.1741 26.3058 18.1797 27.4512 16.9328C27.8123 16.5378 27.8123 15.9002 27.4512 15.5052C27.0957 15.1046 26.5033 15.1103 26.1422 15.5052Z" fill="white"/>
</svg>
