<svg width="28" height="30" viewBox="0 0 28 30" fill="none" xmlns="http://www.w3.org/2000/svg">
<path d="M27.3702 5.92745L24.0982 3.38259C18.1775 -1.13582 9.86781 -1.13582 3.99906 3.43453L0.727102 5.97938C0.259679 6.291 0 6.81036 0 7.38165V19.7424C0 20.0021 0.155807 20.1579 0.363551 20.2617L4.83003 21.4563C5.71294 21.7159 6.64779 21.8198 7.5307 21.8198H7.79038L8.82909 29.1428C8.82909 29.1947 8.82909 29.1947 8.82909 29.2466V29.2986C8.82909 29.3505 8.88103 29.4024 8.93296 29.4544C8.9849 29.5063 9.03683 29.5063 9.08877 29.5583C9.08877 29.5583 9.08877 29.5583 9.14071 29.5583C9.19264 29.5583 9.24458 29.5583 9.29651 29.5583C9.29651 29.5583 9.29651 29.5583 9.34845 29.5583C9.40039 29.5583 9.45232 29.5583 9.50426 29.5583H9.55619C9.60813 29.5583 9.66007 29.5063 9.712 29.4544L11.9452 27.325L14.2304 29.3505C14.2304 29.3505 14.2824 29.4024 14.3343 29.4024C14.3343 29.4024 14.3343 29.4024 14.3862 29.4024C14.3862 29.4024 14.3862 29.4024 14.4382 29.4024C14.4901 29.4024 14.4901 29.4024 14.542 29.4024H14.594H14.6459C14.6978 29.4024 14.7498 29.4024 14.8017 29.4024C14.8017 29.4024 14.8536 29.4024 14.8536 29.3505C14.9056 29.3505 14.9056 29.2986 14.9575 29.2986L16.9311 27.5328L18.7488 29.2986L18.9046 29.4024C18.9566 29.4544 19.0085 29.5063 19.0605 29.5063C19.1124 29.5063 19.1643 29.5583 19.2682 29.5583C19.3201 29.5583 19.3721 29.5583 19.424 29.5063C19.424 29.5063 19.424 29.5063 19.4759 29.5063C19.5279 29.5063 19.5798 29.4544 19.6317 29.4024C19.6837 29.3505 19.6837 29.2986 19.7356 29.2466V29.1947C19.7356 29.1428 19.7356 29.1428 19.7356 29.0908L20.7743 21.8198H20.8782C21.865 21.8198 22.9037 21.664 23.8385 21.4043L27.6299 20.2617C27.8376 20.2098 27.9934 20.0021 27.9934 19.7424V7.38165C28.0454 6.81036 27.7857 6.291 27.3702 5.92745ZM19.7356 15.0682H8.30973V8.52424C8.30973 8.42037 8.4136 8.3165 8.51748 8.3165H19.5279C19.6317 8.3165 19.7356 8.42037 19.7356 8.52424V15.0682ZM20.7743 16.1069H21.5534C21.9689 16.1069 22.3324 16.4704 22.3324 16.8859C22.3324 17.3014 21.9689 17.6649 21.5534 17.6649H20.7743H7.79038H6.49198C6.07649 17.6649 5.71294 17.3014 5.71294 16.8859C5.71294 16.4704 6.07649 16.1069 6.49198 16.1069H7.27102H20.7743ZM16.7753 26.0266L15.0095 24.3647L17.4504 22.0276L19.2163 23.6376L16.7753 26.0266ZM14.2824 25.0918L16.0482 26.7537L14.542 28.2599L12.7762 26.546L14.2824 25.0918ZM11.8933 25.9227L9.29651 23.6376L11.0623 22.0276L13.5033 24.3647L11.8933 25.9227ZM14.2824 23.6376L11.8414 21.3005L14.2824 19.0672L16.7233 21.3005L14.2824 23.6376ZM15.373 18.7037H19.4759L17.5024 20.6253L15.373 18.7037ZM11.0623 20.6253L9.08877 18.7037H13.1917L11.0623 20.6253ZM8.51748 19.5866L10.3352 21.3005L8.9849 22.5469L8.77716 21.1966L8.51748 19.5866ZM11.1143 26.5979L9.712 28.0002L9.29651 24.9879L11.1143 26.5979ZM18.8527 28.0002L17.5543 26.7537L19.2682 25.0918L18.8527 28.0002ZM19.6317 22.5469L18.2295 21.3005L20.0472 19.5866L19.8395 21.1966L19.6317 22.5469ZM27.0066 19.3269L23.5789 20.3656C22.7479 20.6253 21.813 20.7292 20.9301 20.7811L21.2418 18.7037H21.5534C22.5402 18.7037 23.3711 17.8727 23.3711 16.8859C23.3711 15.8991 22.5402 15.0682 21.5534 15.0682H20.7743V8.52424C20.7743 7.84907 20.203 7.27778 19.5279 7.27778H8.51748C7.84231 7.27778 7.27102 7.84907 7.27102 8.52424V15.0682H6.49198C5.5052 15.0682 4.67422 15.8472 4.67422 16.8859C4.67422 17.9246 5.5052 18.7037 6.49198 18.7037H7.32295L7.63457 20.7811H7.5307C6.69972 20.7811 5.86875 20.6772 5.08971 20.4695L1.03872 19.3269V7.38165C1.03872 7.17391 1.14259 6.91423 1.35033 6.81036L4.62229 4.2655C10.1794 0.00676376 17.9179 0.00676376 23.4231 4.2655L26.695 6.81036C26.9028 6.96617 27.0066 7.17391 27.0066 7.38165V19.3269Z" fill="white"/>
</svg>
