<svg width="28" height="28" viewBox="0 0 28 28" fill="none" xmlns="http://www.w3.org/2000/svg">
<path d="M17.1639 5.42128C15.6679 5.42128 14.4565 4.20331 14.4565 2.71395C14.4565 1.22459 15.6679 0 17.1639 0C18.6599 0 19.8712 1.21797 19.8712 2.70733C19.8712 4.19669 18.6532 5.42128 17.1639 5.42128ZM17.1639 0.900236C16.171 0.900236 15.3568 1.7078 15.3568 2.70733C15.3568 3.70686 16.1643 4.51442 17.1639 4.51442C18.1568 4.51442 18.971 3.70686 18.971 2.70733C18.971 1.7078 18.1568 0.900236 17.1639 0.900236Z" fill="white"/>
<path d="M26.6499 20.3216C26.5241 20.3216 26.3983 20.3017 26.2726 20.2686L20.8381 18.4549C20.1827 18.2696 19.7723 17.6076 19.8981 16.9192L20.2423 15.0261C20.2887 14.7811 20.5203 14.6157 20.7652 14.662C21.0102 14.7083 21.1756 14.94 21.1293 15.1849L20.7851 17.0781C20.7454 17.3097 20.8778 17.5282 21.1028 17.5944L26.544 19.4081C26.6433 19.4346 26.7624 19.4213 26.8683 19.3618C26.9742 19.3022 27.0537 19.2095 27.0868 19.0904C27.153 18.8521 27.0139 18.6005 26.7756 18.5343L22.1222 16.9457C21.9104 16.8729 21.7846 16.6544 21.8243 16.436L22.1156 14.8142C22.1619 14.5693 22.3936 14.4038 22.6385 14.4502C22.8835 14.4965 23.0489 14.7282 23.0026 14.9731L22.7775 16.2109L27.0404 17.6672C27.7355 17.8658 28.1525 18.6204 27.9473 19.3353C27.848 19.6861 27.6163 19.9774 27.2986 20.1495C27.1 20.2686 26.8749 20.3216 26.6499 20.3216Z" fill="white"/>
<path d="M18.8323 12.5172C18.6867 12.5172 18.5477 12.4511 18.4616 12.3253L16.0191 8.83687C15.8734 8.63167 15.9264 8.35365 16.1316 8.20803C16.3368 8.0624 16.6148 8.11536 16.7604 8.32056L19.203 11.809C19.3486 12.0142 19.2957 12.2922 19.0905 12.4378C19.011 12.4908 18.925 12.5172 18.8323 12.5172Z" fill="white"/>
<path d="M23.9357 12.6429C23.7702 12.6429 23.618 12.5569 23.5385 12.398L20.5731 6.7649C20.2884 6.3214 19.6794 6.1162 19.2492 6.34126C19.2161 6.36112 19.183 6.37436 19.1433 6.38098L18.6203 6.51337C18.382 6.57294 18.1305 6.42731 18.0709 6.1824C18.0114 5.93748 18.157 5.69256 18.4019 5.63299L18.8785 5.51384C19.7125 5.10344 20.8114 5.44765 21.3541 6.30817L24.3329 11.9744C24.452 12.1928 24.366 12.4708 24.1409 12.5833C24.0813 12.6297 24.0085 12.6429 23.9357 12.6429Z" fill="white"/>
<path d="M4.2894 9.03534C2.91919 9.03534 1.80713 7.92328 1.80713 6.55307C1.80713 5.18286 2.91919 4.0708 4.2894 4.0708C5.65961 4.0708 6.77167 5.18286 6.77167 6.55307C6.77167 7.92328 5.65961 9.03534 4.2894 9.03534ZM4.2894 4.96442C3.41564 4.96442 2.70737 5.67269 2.70737 6.54645C2.70737 7.42021 3.41564 8.12848 4.2894 8.12848C5.16316 8.12848 5.87143 7.42021 5.87143 6.54645C5.87143 5.67269 5.16316 4.96442 4.2894 4.96442Z" fill="white"/>
<path d="M13.1989 21.4336C13.1526 21.4336 13.1062 21.4336 13.0665 21.427C12.4112 21.3608 11.9015 20.8379 11.8485 20.1892L11.405 15.6152C11.3521 14.9201 11.8088 14.3112 12.484 14.1722L16.2637 12.9807C16.502 12.9079 16.7535 13.0402 16.8329 13.2785C16.9058 13.5168 16.7734 13.7684 16.5351 13.8478L12.7289 15.0459C12.7091 15.0525 12.6892 15.0592 12.676 15.0592C12.4443 15.0989 12.2854 15.3041 12.3053 15.5357L12.7488 20.1097C12.7686 20.3348 12.9341 20.5069 13.1526 20.5334C13.179 20.5334 13.2055 20.5334 13.2386 20.5334C13.3578 20.5268 13.4637 20.4672 13.5431 20.3745C13.6225 20.2818 13.6623 20.1693 13.649 20.0435L13.2651 16.2837C13.2452 16.0719 13.371 15.88 13.5696 15.8071L16.3894 14.8672C16.6277 14.7878 16.8793 14.9135 16.9587 15.1518C17.0381 15.3901 16.9124 15.6417 16.6741 15.7211L14.1984 16.5419L14.5426 19.9509C14.5691 20.3216 14.4566 20.6724 14.2249 20.9438C13.9932 21.2218 13.6623 21.3873 13.3048 21.4138C13.2717 21.4336 13.232 21.4336 13.1989 21.4336Z" fill="white"/>
<path d="M28 27.5499H0V24.3131C0 23.3135 0.582506 22.3736 1.52908 21.8573C1.59527 21.8242 1.65485 21.7845 1.71442 21.7447C2.58156 21.1622 3.73995 21.1622 4.60709 21.7447C5.35508 22.2478 6.38771 22.2478 7.12908 21.7447C7.99622 21.1622 9.16123 21.1622 10.0217 21.7447C10.7697 22.2478 11.8024 22.2478 12.5437 21.7447C13.4109 21.1622 14.5759 21.1622 15.4364 21.7447C16.1844 22.2478 17.217 22.2478 17.9584 21.7447C18.8255 21.1622 19.9905 21.1622 20.8511 21.7447C21.5991 22.2478 22.6317 22.2478 23.3731 21.7447C24.2402 21.1622 25.4052 21.1622 26.2657 21.7447C26.3253 21.7845 26.3849 21.8242 26.4511 21.8573C27.391 22.367 27.9801 23.3069 27.9801 24.3131V27.5499H28ZM0.900236 26.6431H27.0931V24.3064C27.0931 23.6246 26.696 23.009 26.0407 22.645C25.948 22.5986 25.8619 22.5457 25.7825 22.4861C25.2199 22.1022 24.4586 22.1022 23.896 22.4861C22.8501 23.1944 21.4071 23.1944 20.3612 22.4861C19.7986 22.1022 19.044 22.1022 18.4747 22.4861C17.4288 23.1944 15.9858 23.1944 14.94 22.4861C14.3773 22.1022 13.6227 22.1022 13.0534 22.4861C12.0076 23.1944 10.5645 23.1944 9.51868 22.4861C8.95603 22.1022 8.20142 22.1022 7.63215 22.4861C6.58629 23.1944 5.14326 23.1944 4.0974 22.4861C3.53475 22.1022 2.78014 22.1022 2.21087 22.4861C2.12482 22.5457 2.03877 22.5986 1.9461 22.645C1.28416 23.0024 0.893617 23.6246 0.893617 24.3064V26.6431H0.900236Z" fill="white"/>
<path d="M9.61147 10.8558C9.01572 10.8558 8.47293 10.4652 8.30745 9.86948C8.20816 9.51866 8.25449 9.15459 8.4266 8.83686C8.60532 8.51913 8.88995 8.29407 9.24078 8.19478L17.7136 5.67941C18.0644 5.58012 18.4351 5.61984 18.7462 5.79856C19.0639 5.97728 19.289 6.26192 19.3883 6.61275C19.4876 6.96357 19.4413 7.32764 19.2691 7.64537C19.0904 7.9631 18.8058 8.18816 18.455 8.28745L9.98215 10.8028C9.863 10.8359 9.73724 10.8558 9.61147 10.8558ZM18.0909 6.53331C18.0512 6.53331 18.0115 6.53993 17.9651 6.55317L9.49232 9.06854H9.4857C9.36655 9.10163 9.27388 9.17445 9.2143 9.28036C9.15473 9.38627 9.14149 9.50542 9.17459 9.62457C9.24078 9.86286 9.49232 10.0085 9.73062 9.93568L18.2034 7.42031C18.3226 7.38721 18.4219 7.30778 18.4814 7.20187C18.541 7.09596 18.5543 6.97681 18.5212 6.85766C18.4881 6.73851 18.4152 6.64584 18.3093 6.58627C18.2431 6.54655 18.1637 6.53331 18.0909 6.53331Z" fill="white"/>
<path d="M16.7074 15.807C16.5949 15.807 16.489 15.7673 16.403 15.6879C16.3103 15.6018 16.2573 15.4827 16.2573 15.3503V12.1862C16.2573 11.9347 16.4625 11.7361 16.7074 11.7361H23.9358C24.1873 11.7361 24.3859 11.9347 24.3859 12.1862C24.3859 13.9205 22.9826 15.337 21.2483 15.3503L16.7538 15.8004C16.7405 15.807 16.7273 15.807 16.7074 15.807ZM17.1642 12.6429V14.8538L21.1821 14.45C21.1954 14.45 21.2152 14.45 21.2285 14.45C22.3207 14.45 23.2342 13.6756 23.4394 12.6429H17.1642Z" fill="white"/>
</svg>
