<svg width="28" height="30" viewBox="0 0 28 30" fill="none" xmlns="http://www.w3.org/2000/svg">
<path d="M27.1207 24.4451C26.6753 23.9882 26.1084 23.6931 25.4895 23.5775V23.1205H25.8134C26.1374 23.1205 26.3977 22.8602 26.3977 22.5362V21.3909H27.381C27.6645 21.3909 27.9074 21.1826 27.9537 20.8992C27.9884 20.6794 27.9942 20.0778 27.9884 19.1002C27.9884 18.9845 27.9884 18.8977 27.9884 18.8514C27.9884 16.8442 26.2241 15.4906 24.4714 15.0336L19.4793 13.7321L16.8184 13.0379C16.7663 12.4653 16.3614 11.9967 15.8235 11.8463L14.9789 8.30617C15.3144 8.06321 15.54 7.64094 15.54 7.16082V6.06753C15.54 5.54692 15.2739 5.08994 14.8864 4.85856C14.8979 4.14127 14.9037 3.44712 14.8921 2.70669C14.8806 1.8795 14.6492 1.19113 14.2269 0.70523C13.8394 0.248249 13.2956 -0.000488281 12.7114 -0.000488281C11.7511 -0.000488281 10.7215 0.716799 10.7157 2.05304V2.52159H3.92459C3.60065 2.52159 3.34034 2.78189 3.34034 3.10583V5.28083V8.15577C3.34034 8.4797 3.60065 8.74001 3.92459 8.74001C4.24852 8.74001 4.50883 8.4797 4.50883 8.15577V5.85929H7.1061C7.09454 5.9287 7.09453 5.99812 7.09453 6.06753V7.16082C7.09453 7.9186 7.65564 8.53176 8.33822 8.53176H13.8451L14.0939 9.5672L11.1264 9.57877C10.1314 9.58456 9.26954 9.85643 8.62166 10.3655C7.88124 10.9497 7.47053 11.8232 7.43583 12.8933C7.43583 12.9049 7.43583 12.9165 7.43583 12.928C7.46475 13.8015 7.16973 14.4725 6.60863 14.8138C6.18057 15.0741 5.65418 15.0915 5.23769 14.8543C4.76335 14.5882 4.50304 14.0445 4.50304 13.3272V12.7661C4.50304 12.4421 4.24274 12.1818 3.9188 12.1818C3.59487 12.1818 3.33456 12.4421 3.33456 12.7661V18.7126C3.33456 19.187 3.46182 19.6497 3.69899 20.0604C3.9188 20.5116 4.24274 20.8356 4.69394 21.0438C5.10464 21.2752 5.63104 21.362 6.169 21.3967V22.542C6.169 22.8659 6.42931 23.1263 6.75325 23.1263H6.95571L6.60285 23.5312H5.16827H5.16249H5.03523C3.24201 23.5543 0.534824 23.5948 0.0084273 26.4813C-0.0204956 26.6491 0.025781 26.8284 0.135688 26.9614C0.245595 27.0945 0.407563 27.1697 0.581101 27.1697H1.75537C1.85371 27.6903 2.09088 28.182 2.44373 28.5869C2.91807 29.1364 3.57173 29.5009 4.28901 29.6108C4.31794 29.6166 4.34686 29.6166 4.37578 29.6166H5.13935C5.16827 29.6166 5.19719 29.6166 5.22612 29.6108C5.93762 29.5009 6.59706 29.1364 7.0714 28.5869C7.42426 28.182 7.65564 27.6903 7.75976 27.1697H8.54646C8.6448 27.6903 8.88197 28.182 9.23483 28.5869C9.70916 29.1364 10.3628 29.5009 11.0801 29.6108C11.109 29.6166 11.138 29.6166 11.1669 29.6166H11.9304C11.9594 29.6166 11.9883 29.6166 12.0172 29.6108C12.7345 29.5009 13.3882 29.1364 13.8625 28.5869C14.2154 28.182 14.4467 27.6903 14.5509 27.1697H15.1467C15.245 27.6903 15.4822 28.182 15.835 28.5869C16.3094 29.1364 16.963 29.5009 17.6803 29.6108C17.7092 29.6166 17.7382 29.6166 17.7671 29.6166H18.5306C18.5596 29.6166 18.5885 29.6166 18.6174 29.6108C19.3289 29.5009 19.9884 29.1364 20.4627 28.5869C20.8156 28.182 21.0469 27.6903 21.1511 27.1697H21.9378C22.0361 27.6903 22.2733 28.182 22.6261 28.5869C23.1005 29.1364 23.7541 29.5009 24.4714 29.6108C24.5003 29.6166 24.5293 29.6166 24.5582 29.6166H25.3217C25.3507 29.6166 25.3796 29.6166 25.4085 29.6108C26.12 29.5009 26.7737 29.1364 27.2538 28.5869C27.7339 28.0316 28 27.3201 28 26.5854C27.9942 25.7814 27.6818 25.0178 27.1207 24.4451ZM25.2292 21.9578H20.7346V21.3967H25.2292V21.9578ZM7.34327 21.9578V21.4025C7.35484 21.4025 7.36641 21.4025 7.37798 21.4025C7.54573 21.3967 7.70192 21.3967 7.84075 21.3967H11.7396V21.9578H11.6239C11.5892 21.952 11.5487 21.9462 11.5082 21.9462C11.4677 21.9462 11.433 21.952 11.3925 21.9578H7.34327ZM12.0982 23.1205H12.3296C12.6535 23.1205 12.9138 22.8602 12.9138 22.5362V21.3909H19.5777V22.5362C19.5777 22.8602 19.838 23.1205 20.1619 23.1205H20.9197L20.1966 23.9592L12.104 23.9708V23.1205H12.0982ZM15.3549 12.9628C15.3549 12.9628 15.3607 12.9628 15.3549 12.9628C15.3607 12.9628 15.3607 12.9628 15.3607 12.9628H15.459C15.5689 12.9628 15.6673 13.0553 15.6673 13.171V13.8189C15.6673 13.9288 15.5747 14.0271 15.459 14.0271H12.2139C12.104 14.0271 12.0056 13.9346 12.0056 13.8189V13.171C12.0056 13.0611 12.0982 12.9628 12.2139 12.9628H15.3549ZM4.50883 4.69659V3.69007H11.2941C11.6123 3.69007 11.8726 3.42977 11.8784 3.11161L11.8842 2.06461C11.8899 1.47458 12.3064 1.168 12.7114 1.168C13.1741 1.168 13.7179 1.5787 13.7352 2.72983C13.7468 3.40663 13.741 4.04293 13.7294 4.70237H8.33822H4.50883V4.69659ZM8.344 7.37485C8.31508 7.36328 8.25724 7.28808 8.25724 7.1666V6.07332C8.25724 5.95184 8.31508 5.87664 8.344 5.86507H14.3021C14.331 5.87664 14.3889 5.95184 14.3889 6.07332V7.1666C14.3889 7.28808 14.331 7.36328 14.3021 7.37485H8.344ZM5.20876 19.991C4.98895 19.8927 4.8559 19.7538 4.746 19.534C4.74021 19.5167 4.72864 19.4993 4.71707 19.482C4.57824 19.2506 4.50304 18.9787 4.50304 18.7068V15.7683C4.55511 15.803 4.60717 15.8377 4.66501 15.8666C5.04101 16.0749 5.4575 16.1848 5.87399 16.1848C6.33097 16.1848 6.79374 16.0575 7.20444 15.8088C8.12419 15.2534 8.62745 14.1949 8.59274 12.9107C8.66216 10.9671 10.3802 10.7473 11.1206 10.7473L14.36 10.7357L14.6145 11.8001H12.2081C11.4503 11.8001 10.8372 12.4132 10.8372 13.171V13.8189C10.8372 14.5766 11.4503 15.1898 12.2081 15.1898H15.4533C16.0664 15.1898 16.587 14.7849 16.7606 14.2296L18.2588 14.6171L17.8134 14.9179C17.5473 15.0973 17.4779 15.4617 17.6572 15.7278C17.7671 15.8955 17.9522 15.9823 18.1431 15.9823C18.253 15.9823 18.3687 15.9476 18.467 15.884L19.757 15.0105L21.1684 15.3749L20.723 15.6757C20.4569 15.855 20.3875 16.2195 20.5668 16.4856C20.6767 16.6533 20.8618 16.7401 21.0469 16.7401C21.1568 16.7401 21.2725 16.7054 21.3709 16.6417L22.6608 15.7683L24.1706 16.1616C25.0036 16.3757 26.3283 17.0293 26.71 18.1804H24.3499C24.026 18.1804 23.7657 18.4407 23.7657 18.7647C23.7657 19.0886 24.026 19.3489 24.3499 19.3489H26.8199C26.8199 19.6034 26.8199 19.9447 26.8142 20.2282H15.7136C15.8292 19.858 16.078 19.6902 16.4193 19.5745C17.0845 19.3489 18.1778 19.3489 19.4388 19.3489H19.6586C19.9826 19.3489 20.2429 19.0886 20.2429 18.7647C20.2429 18.4407 19.9826 18.1804 19.6586 18.1804H19.4388C18.0216 18.1804 16.8994 18.1804 16.0491 18.4639C15.1814 18.7531 14.6723 19.3431 14.5219 20.2224H7.84653C7.69613 20.2224 7.52838 20.2282 7.35484 20.2282C7.21023 20.234 7.05404 20.234 6.89786 20.234C6.85737 20.2224 6.81109 20.2166 6.76481 20.2166C6.71854 20.2166 6.67805 20.2224 6.63177 20.234C6.09959 20.2282 5.55584 20.1819 5.26661 20.0142C5.24347 20.0142 5.22612 20.0026 5.20876 19.991ZM5.04679 24.6939H6.88051C7.04826 24.6939 7.21023 24.6187 7.32013 24.4914L8.50019 23.1205H10.9297V24.555C10.9297 24.7112 10.9933 24.8558 11.1032 24.9657C11.2132 25.0757 11.3578 25.1335 11.514 25.1335L20.4569 25.1161C20.6247 25.1161 20.7866 25.041 20.8965 24.9137L22.4468 23.1147H24.321V26.0012H20.6189H15.6673H14.0187H9.06708H7.22758H2.27598H1.3678C1.92891 24.8385 3.27671 24.717 5.04679 24.6939ZM5.08729 28.4538H4.41628C3.72213 28.3324 3.16102 27.8233 2.95278 27.1697H6.55079C6.34254 27.8175 5.78144 28.3266 5.08729 28.4538ZM11.8784 28.4538H11.2074C10.5132 28.3324 9.9579 27.8233 9.74387 27.1697H13.3419C13.1336 27.8175 12.5725 28.3266 11.8784 28.4538ZM18.4786 28.4538H17.8134C17.1192 28.3324 16.5581 27.8233 16.3441 27.1697H19.9421C19.7338 27.8175 19.1727 28.3266 18.4786 28.4538ZM25.2697 28.4538H24.6045C23.9103 28.3324 23.3492 27.8233 23.1352 27.1697H24.9053C25.2292 27.1697 25.4895 26.9094 25.4895 26.5854V24.7749C26.2646 25.012 26.8315 25.7409 26.8315 26.5854C26.8315 27.4994 26.1605 28.2919 25.2697 28.4538Z" fill="white"/>
<path d="M3.91286 11.0599C4.23679 11.0599 4.4971 10.7996 4.4971 10.4756V10.4583C4.4971 10.1343 4.23679 9.87402 3.91286 9.87402C3.58892 9.87402 3.32861 10.1343 3.32861 10.4583V10.4756C3.32861 10.7996 3.58892 11.0599 3.91286 11.0599Z" fill="white"/>
<path d="M22.0418 19.3374H22.0591C22.3831 19.3374 22.6434 19.0771 22.6434 18.7532C22.6434 18.4293 22.3831 18.1689 22.0591 18.1689H22.0418C21.7178 18.1689 21.4575 18.4293 21.4575 18.7532C21.4575 19.0771 21.7178 19.3374 22.0418 19.3374Z" fill="white"/>
</svg>
