<svg width="36" height="32" viewBox="0 0 36 32" fill="none" xmlns="http://www.w3.org/2000/svg">
<path d="M22.9697 5.39844H32.3947V6.57479H22.9697V5.39844Z" fill="#616161"/>
<path d="M30.0371 8.93262H32.3945V10.109H30.0371V8.93262Z" fill="#616161"/>
<path d="M34.7472 2.45545C34.0952 2.45545 33.5708 1.92633 33.5708 1.2791C33.5708 0.953126 33.3063 0.688566 32.9803 0.688566H15.3351L14.8201 0.173618C14.5886 -0.0578726 14.2154 -0.0578726 13.9886 0.173618L13.4784 0.683841H2.35742C2.03145 0.683841 1.76689 0.948402 1.76689 1.27438C1.76689 1.92633 1.23776 2.45073 0.590537 2.45073C0.26456 2.45545 0 2.71529 0 3.04126V16C0 16.326 0.26456 16.5905 0.590537 16.5905C1.24249 16.5905 1.76689 17.1197 1.76689 17.7669C1.76689 18.0929 2.03145 18.3574 2.35742 18.3574H4.69122L18.1602 31.8264C18.3917 32.0579 18.7649 32.0579 18.9917 31.8264L32.3142 18.5039C32.352 18.4614 32.385 18.4094 32.4087 18.3574H32.9803C33.3063 18.3574 33.5708 18.0929 33.5708 17.7669C33.5708 17.1149 34.1 16.5905 34.7472 16.5905C35.0732 16.5905 35.3377 16.326 35.3377 16V3.04126C35.3377 2.71529 35.0732 2.45545 34.7472 2.45545ZM2.87237 1.86491H12.3021L1.17635 12.9859V3.55621C2.00782 3.33889 2.65505 2.69167 2.87237 1.86491ZM2.87237 17.1763C2.65505 16.3496 2.00782 15.6976 1.18107 15.4851V14.8425L3.51487 17.1763H2.87237ZM18.5759 30.5744L1.91806 13.9166L14.4044 1.42556L31.0622 18.0834L18.5759 30.5744ZM34.1614 15.4851C33.3346 15.7024 32.6874 16.3496 32.4701 17.1763H31.8276L28.2938 13.6426H32.3945V12.4662H27.1127L26.5222 11.8757H32.3898V10.6993H25.3458L24.7553 10.1088H28.8607V8.93246H23.5789L22.9884 8.34192H32.3898V7.16557H21.8073L21.2168 6.57504H21.7837V5.39869H20.0357L16.502 1.86491H32.4606C32.6779 2.69167 33.3252 3.34362 34.1519 3.55621V15.4851H34.1614Z" fill="#616161"/>
<path d="M17.7397 24.7442L25.6529 16.8311L26.4844 17.6625L18.5712 25.5757L17.7397 24.7442Z" fill="#616161"/>
<path d="M18.9917 25.9962L26.9049 18.083L27.7364 18.9145L19.8232 26.8277L18.9917 25.9962Z" fill="#616161"/>
<path d="M13.7384 10.6668L11.6739 8.29044C11.6455 8.25737 11.6172 8.2243 11.5841 8.19123C11.244 7.85108 10.781 7.66211 10.2991 7.66211H10.2944C9.81252 7.66211 9.34954 7.85108 9.00939 8.19123C8.65507 8.55028 8.46137 9.03688 8.48027 9.54238C8.49917 10.0479 8.72121 10.5203 9.10387 10.851L11.4849 12.925L8.88656 19.1941C8.7968 19.4162 8.84404 19.6665 9.01411 19.8366L10.1763 21.0035C10.2991 21.1216 10.4645 21.1878 10.6345 21.1736C10.8046 21.1641 10.9605 21.0791 11.0645 20.9421L14.8344 15.9627L17.5934 18.6414L16.4785 21.6082C16.3982 21.8255 16.4502 22.0665 16.6155 22.2318L17.1919 22.8129C17.3005 22.9216 17.4517 22.9877 17.6076 22.9877H17.6501C17.8202 22.9735 17.9761 22.8932 18.08 22.7562L20.2579 19.8744L20.7351 19.3973L23.5555 17.2808C23.6925 17.1768 23.7775 17.0209 23.7917 16.8509C23.8059 16.6808 23.7397 16.5107 23.6216 16.3926L23.0453 15.8162C22.8846 15.6556 22.6437 15.5989 22.4264 15.6792L19.5115 16.7469L16.8328 13.9879L21.7555 10.2557C21.8925 10.1518 21.9728 9.99591 21.987 9.82583C21.9965 9.65576 21.9351 9.49041 21.8169 9.3723L20.6548 8.21013C20.4847 8.04005 20.2343 7.99281 20.0123 8.08257L13.7384 10.6668ZM20.4989 9.71245L15.5856 13.4352C15.4533 13.5391 15.3683 13.6903 15.3541 13.8604C15.3399 14.0305 15.4014 14.1958 15.5195 14.3139L18.9351 17.8335C19.0958 17.9941 19.3367 18.0508 19.554 17.9705L21.7083 17.1816L19.9934 18.4666C19.9698 18.4807 19.9509 18.4996 19.932 18.5185L19.3981 19.0524C19.3792 19.0713 19.3603 19.0949 19.3461 19.1138L18.0186 20.876L18.8454 18.6886C18.9257 18.4713 18.8737 18.2209 18.7036 18.0603L15.1793 14.6493C15.0707 14.5407 14.9195 14.484 14.7683 14.484H14.7258C14.5557 14.4982 14.4045 14.5832 14.3006 14.7155L10.5306 19.6902L10.1243 19.2839L12.7321 12.9864C12.8313 12.7549 12.7652 12.4809 12.5762 12.3155L9.87393 9.96756C9.67079 9.79277 9.59993 9.50931 9.69441 9.25892C9.7889 9.00853 10.0298 8.84318 10.2944 8.84318C10.4786 8.84791 10.6534 8.9235 10.7763 9.0605L13.129 11.7581C13.2943 11.947 13.5636 12.0132 13.7998 11.914L20.0973 9.30144L20.4989 9.71245Z" fill="#616161"/>
</svg>
