<svg width="32" height="33" viewBox="0 0 32 33" fill="none" xmlns="http://www.w3.org/2000/svg">
<path d="M31.4484 4.65102C31.3881 4.52379 31.2743 4.42333 31.1404 4.37646L20.0303 0.45881C19.7491 0.358358 19.4477 0.505688 19.3473 0.786955L16.8225 7.92577H15.7176V6.10424C15.7176 5.60867 15.4832 5.1332 15.0881 4.83184C14.693 4.53048 14.1773 4.42333 13.6951 4.55057L0.830521 7.94586V7.95256C0.596132 8.01283 0.435408 8.22043 0.428711 8.46152V30.9629C0.428711 31.8535 1.14527 32.5701 2.03595 32.5701H17.0368C17.9275 32.5701 18.6441 31.8535 18.6441 30.9629V26.101L22.9434 27.6145C23.2247 27.7149 23.5261 27.5676 23.6265 27.2863L31.4685 5.06623C31.5154 4.92559 31.5087 4.77826 31.4484 4.65102ZM13.9764 5.58188C14.1371 5.5417 14.3112 5.57519 14.4385 5.67564C14.5724 5.77609 14.6461 5.93682 14.6461 6.09754V7.92577H5.0964L13.9764 5.58188ZM17.5726 30.9629C17.5726 31.2575 17.3315 31.4986 17.0368 31.4986H2.03595C1.74129 31.4986 1.5002 31.2575 1.5002 30.9629V8.99727H17.0368C17.3315 8.99727 17.5726 9.23835 17.5726 9.53301V30.9629ZM21.9791 11.0398L22.6622 10.7117L22.9903 11.3947L20.3853 18.7612C20.3384 18.8952 20.3451 19.0425 20.4053 19.1698L20.9612 20.335L20.7871 20.8239L19.7223 19.7256C19.6084 19.605 19.441 19.5448 19.2736 19.5649L18.6441 19.6452V18.9287L19.0995 18.7077C19.2267 18.6474 19.3272 18.5336 19.374 18.3996L20.4455 15.3726L21.9791 11.0398ZM22.9836 14.6159L24.0685 16.3638L23.881 16.8928L22.5818 15.7544L22.9836 14.6159ZM18.6441 17.2612V15.7879L19.1731 15.7678L18.6441 17.2612ZM19.5549 14.6762L18.6441 14.7164V14.0065L19.9567 13.5511L19.5549 14.6762ZM22.7894 26.4291L18.6441 24.9625V20.7234L19.1463 20.6631L20.6263 22.1967C20.7268 22.2972 20.8674 22.3574 21.0148 22.3574C21.0549 22.3574 21.0884 22.3507 21.1286 22.344C21.3094 22.3039 21.4568 22.1766 21.517 21.9958L22.0528 20.4823C22.0996 20.3484 22.093 20.2011 22.0327 20.0738L21.4701 18.9086L22.2001 16.8326L23.7739 18.2121C23.8743 18.2992 23.9949 18.346 24.1288 18.346C24.1757 18.346 24.2225 18.3393 24.2627 18.3259C24.4368 18.2791 24.5708 18.1518 24.631 17.9844L25.1668 16.4709C25.2204 16.3169 25.2003 16.1495 25.1132 16.0088L23.439 13.3167L24.0685 11.5421C24.1154 11.4081 24.1087 11.2608 24.0484 11.1336L23.3921 9.7674C23.2649 9.49953 22.9434 9.38568 22.6756 9.51292L21.3094 10.1692C21.1822 10.2295 21.0817 10.3433 21.0349 10.4773L20.4053 12.2586L18.6374 12.8747V9.53301C18.6374 8.97718 18.3427 8.46152 17.8673 8.16686L18.7445 5.68234L18.9387 5.1265L20.171 1.64415L30.2765 5.21356L22.7894 26.4291Z" fill="#616161"/>
<path d="M27.022 8.60229L27.3769 7.59106L28.2944 7.91251L27.9394 8.92373L27.022 8.60229Z" fill="#616161"/>
<path d="M19.6689 6.01073L20.0239 4.99951L20.9413 5.32096L20.5864 6.33218L19.6689 6.01073Z" fill="#616161"/>
<path d="M25.1802 7.95922L25.5351 6.948L26.4526 7.26945L26.0976 8.28067L25.1802 7.95922Z" fill="#616161"/>
<path d="M21.5103 6.66015L21.8652 5.64893L22.7827 5.97037L22.4277 6.98159L21.5103 6.66015Z" fill="#616161"/>
<path d="M23.3452 7.30981L23.7001 6.29858L24.6176 6.62003L24.2627 7.63125L23.3452 7.30981Z" fill="#616161"/>
<path d="M9.28862 11.1405C6.32862 11.1405 3.93115 13.538 3.93115 16.498C3.93115 19.458 6.32862 21.8554 9.28862 21.8554C12.2486 21.8554 14.6461 19.458 14.6461 16.498C14.6461 13.538 12.2486 11.1472 9.28862 11.1405ZM13.1594 14.6697L12.4294 14.509C12.108 14.4353 11.7865 14.3818 11.4651 14.3349C11.4182 14.0134 11.3579 13.6853 11.291 13.3705L11.1302 12.6406C12.0142 13.0558 12.7308 13.7724 13.1594 14.6697ZM5.00265 16.498C5.00265 16.277 5.02274 16.0627 5.05622 15.8417L6.38219 15.547C6.5831 15.5001 6.7907 15.4667 6.9983 15.4265C6.94473 16.1363 6.94473 16.8462 6.9983 17.5628C6.7907 17.5293 6.58979 17.4891 6.38219 17.4422L5.05622 17.1476C5.02274 16.9333 5.00265 16.719 5.00265 16.498ZM8.08319 15.2925C8.88681 15.2189 9.69712 15.2189 10.494 15.2925C10.5677 16.0962 10.5677 16.9065 10.494 17.7034C9.69042 17.7771 8.88011 17.7771 8.08319 17.7034C8.00952 16.8998 8.00952 16.0962 8.08319 15.2925ZM11.5789 15.4332C11.7865 15.4667 11.9874 15.5068 12.195 15.5537L13.521 15.8484C13.5947 16.2837 13.5947 16.7257 13.521 17.1543L12.195 17.4489C11.9941 17.4958 11.7865 17.5293 11.5789 17.5695C11.6325 16.8529 11.6325 16.143 11.5789 15.4332ZM9.9449 12.2656L10.2396 13.5915C10.2864 13.7924 10.3199 14 10.3601 14.2077C9.65024 14.1541 8.93368 14.1541 8.22382 14.2077C8.2573 14 8.29748 13.7991 8.34436 13.5915L8.63902 12.2656C9.06762 12.1919 9.50961 12.1919 9.9449 12.2656ZM7.46038 12.6272L7.29966 13.3572C7.22599 13.6786 7.17242 14 7.12554 14.3215C6.80409 14.3684 6.47595 14.4286 6.1612 14.4956L5.43124 14.6563C5.84645 13.7724 6.56301 13.0558 7.46038 12.6272ZM5.42455 18.3262L6.1545 18.4869C6.47595 18.5606 6.79739 18.6142 7.11884 18.661C7.16572 18.9825 7.22599 19.3106 7.29296 19.6254L7.45368 20.3553C6.56301 19.9401 5.84645 19.2236 5.42455 18.3262ZM8.63902 20.7304L8.34436 19.4044C8.29748 19.2035 8.264 18.9959 8.22382 18.795C8.57875 18.8218 8.93368 18.8352 9.28862 18.8352C9.64355 18.8352 9.99848 18.8151 10.3534 18.795C10.3199 19.0026 10.2797 19.2035 10.2329 19.4044L9.93821 20.7304C9.50961 20.804 9.06762 20.804 8.63902 20.7304ZM11.1235 20.362L11.2843 19.6321C11.3579 19.3106 11.4115 18.9892 11.4584 18.6677C11.7798 18.6209 12.108 18.5606 12.4227 18.4936L13.1527 18.3329C12.7308 19.2236 12.0142 19.9401 11.1235 20.362Z" fill="#616161"/>
<path d="M5.00293 26.1411H13.5749V27.2126H5.00293V26.1411Z" fill="#616161"/>
<path d="M6.07422 28.2844H12.5032V29.3559H6.07422V28.2844Z" fill="#616161"/>
<path d="M8.75293 23.9982H9.82442V25.0697H8.75293V23.9982Z" fill="#616161"/>
<path d="M6.61035 23.9982H7.68184V25.0697H6.61035V23.9982Z" fill="#616161"/>
<path d="M10.896 23.9982H11.9675V25.0697H10.896V23.9982Z" fill="#616161"/>
</svg>
