<svg width="28" height="32" viewBox="0 0 28 32" fill="none" xmlns="http://www.w3.org/2000/svg">
<path d="M27.7823 14.9116C27.6735 8.10884 22.5306 3.26531 15.0476 2.80272V0.816327C15.0476 0.353741 14.6667 0 14.2313 0C13.7687 0 13.415 0.380952 13.415 0.816327V2.77551C5.4966 2.9932 0 8 0 15.1565C0 15.619 0.353741 15.9728 0.816327 15.9728H13.3878V26.6395C13.3878 29.5782 15.7823 32 18.7483 32C21.7143 32 24.1088 29.6054 24.1088 26.6395C24.1088 26.1769 23.7279 25.8231 23.2925 25.8231C22.8571 25.8231 22.4762 26.2041 22.4762 26.6395C22.4762 28.6803 20.8163 30.3401 18.7755 30.3401C16.7347 30.3401 15.0748 28.6803 15.0748 26.6395V15.9728H26.9932C27.0204 15.9728 27.0204 15.9728 27.0204 15.9728C27.483 15.9728 27.8367 15.5918 27.8367 15.1565C27.8095 15.0748 27.8095 14.9932 27.7823 14.9116ZM1.65986 14.3401C2.09524 8.46259 6.9932 4.40816 13.8776 4.40816C20.7891 4.40816 25.6871 8.43537 26.1224 14.3401H1.65986ZM17.3333 9.4966C17.3333 9.95918 16.9524 10.3129 16.517 10.3129H14.7211V12.0816C14.7211 12.5442 14.3673 12.898 13.9048 12.898C13.4422 12.898 13.0884 12.517 13.0884 12.0816V10.3401H11.3197C10.8571 10.3401 10.5034 9.95918 10.5034 9.52381C10.5034 9.06122 10.8844 8.70748 11.3197 8.70748H13.0612V6.91156C13.0612 6.44898 13.4422 6.09524 13.8776 6.09524C14.3401 6.09524 14.6939 6.47619 14.6939 6.91156V8.70748H16.4898C16.9524 8.68027 17.3333 9.06122 17.3333 9.4966Z" fill="#616161"/>
</svg>
