<svg width="45" height="29" viewBox="0 0 45 29" fill="none" xmlns="http://www.w3.org/2000/svg">
<path d="M35.5903 10.2546C34.2944 10.2546 33.0448 10.5323 31.8878 10.9951L30.3143 7.94055V3.08101C30.3143 2.80332 30.1291 2.52563 29.8514 2.43307L26.1489 1.04463C25.7787 0.90579 25.4084 1.09091 25.2696 1.46117C25.1307 1.83142 25.3159 2.20167 25.6861 2.34051L28.9721 3.54382V7.47773H15.4117V6.13558H17.0778C17.448 6.13558 17.772 5.81161 17.772 5.44136C17.772 5.07111 17.448 4.74714 17.0778 4.74714H12.7736C12.4034 4.74714 12.0794 5.07111 12.0794 5.44136C12.0794 5.81161 12.4034 6.13558 12.7736 6.13558H14.0232V8.03311L12.6811 10.9488C11.6629 10.5323 10.5059 10.3009 9.34882 10.3009C4.2116 10.3009 0 14.4662 0 19.6497C0 24.8332 4.16532 28.9985 9.34882 28.9985C14.2546 28.9985 18.2811 25.1572 18.6514 20.3439H21.6596C21.8911 20.3439 22.0762 20.2514 22.215 20.0662L29.4812 9.56039L30.6382 11.7356C28.0002 13.3092 26.2415 16.2712 26.2415 19.6034C26.2415 24.7407 30.4068 28.9523 35.5903 28.9523C40.7738 28.9523 44.9391 24.7869 44.9391 19.6034C44.9391 14.4199 40.7738 10.2546 35.5903 10.2546ZM9.34882 27.5638C4.9521 27.5638 1.38844 24.0002 1.38844 19.6034C1.38844 15.2067 4.9521 11.6431 9.34882 11.6431C10.3207 11.6431 11.2464 11.8282 12.0794 12.1521L8.70088 19.3257C8.70088 19.3257 8.70088 19.3257 8.70088 19.372C8.6546 19.4646 8.6546 19.5109 8.6546 19.6034C8.6546 19.6034 8.6546 19.6034 8.6546 19.6497C8.6546 19.7423 8.6546 19.7886 8.70088 19.8811V19.9274C8.70088 19.9737 8.70088 19.9737 8.74717 20.02C8.74717 20.0662 8.79345 20.0662 8.83973 20.1125C8.83973 20.1125 8.83973 20.1125 8.83973 20.1588C8.88601 20.2051 8.97857 20.2514 9.02485 20.2977H9.07113C9.1637 20.3439 9.20998 20.3439 9.30254 20.3439H17.2166C16.8927 24.3704 13.5141 27.5638 9.34882 27.5638ZM10.4133 18.9092L13.329 12.7538C15.5042 14.0034 17.0315 16.2712 17.2629 18.9092H10.4133ZM21.2894 18.9092H18.6051C18.3737 15.7158 16.5224 12.9852 13.8844 11.4579L15.134 8.81989H28.2316L21.2894 18.9092ZM35.544 27.5638C31.1473 27.5638 27.5837 24.0002 27.5837 19.6034C27.5837 16.7803 29.0647 14.3274 31.2862 12.8926L34.9424 19.9274C35.0812 20.1588 35.3126 20.2977 35.544 20.2977C35.6366 20.2977 35.7754 20.2514 35.868 20.2051C36.192 20.02 36.3308 19.6034 36.1457 19.2795L32.4895 12.2447C33.4614 11.8745 34.4796 11.6431 35.544 11.6431C39.9408 11.6431 43.5044 15.2067 43.5044 19.6034C43.5044 24.0002 39.9408 27.5638 35.544 27.5638Z" fill="#616161"/>
</svg>
