<svg width="32" height="32" viewBox="0 0 32 32" fill="none" xmlns="http://www.w3.org/2000/svg">
<path d="M31.4667 0H0.533333C0.24 0 0 0.24 0 0.533333V11.2H1.06667V1.06667H30.9333V12.8H12.2667V13.8667H31.4667C31.76 13.8667 32 13.6267 32 13.3333V0.533333C32 0.24 31.76 0 31.4667 0Z" fill="#616161"/>
<path d="M28.2668 2.66699H17.6001V3.73366H28.2668V2.66699Z" fill="#616161"/>
<path d="M29.8669 5.86621H19.2002V6.93288H29.8669V5.86621Z" fill="#616161"/>
<path d="M27.7331 9.06641H17.0664V10.1331H27.7331V9.06641Z" fill="#616161"/>
<path d="M17.0267 4.60046C16.66 3.72046 15.6533 3.30712 14.7733 3.67379C14.76 3.68046 14.7467 3.68712 14.7267 3.69379L10.4067 5.93379C10.58 5.58046 10.6667 5.19379 10.6667 4.80046C10.6667 3.32712 9.47333 2.13379 8 2.13379C6.52667 2.13379 5.33333 3.32712 5.33333 4.80046C5.33333 5.38046 5.52667 5.94046 5.88 6.40046H5.86C4.34667 6.41379 2.99333 7.35379 2.46 8.76712L1.03333 13.6738C0.693333 14.5538 1.13333 15.5405 2.01333 15.8805C2.41333 16.0338 2.86 16.0338 3.26 15.8738C3.72 15.6871 4.07333 15.3138 4.24 14.8471L4.8 13.0738V20.7938C4.34 20.4405 3.78 20.2471 3.2 20.2471C1.72667 20.2471 0.533333 21.4338 0.533333 22.9071C0.533333 23.6271 0.82 24.3205 1.34 24.8205C0.52 25.2338 0 26.0805 0 27.0005V31.4671C0 31.7605 0.24 32.0005 0.533333 32.0005H5.86667C6.16 32.0005 6.4 31.7605 6.4 31.4671V27.0005C6.4 26.2471 6.04667 25.5338 5.44667 25.0671H9.48667C8.88667 25.5271 8.54 26.2405 8.53333 27.0005V31.4671C8.53333 31.7605 8.77333 32.0005 9.06667 32.0005H14.4C14.6933 32.0005 14.9333 31.7605 14.9333 31.4671V27.0005C14.9333 26.0805 14.4133 25.2405 13.5933 24.8205C14.6467 23.7938 14.6667 22.1071 13.64 21.0538C13.0067 20.4071 12.0867 20.1205 11.2 20.3071V9.39379L16.0933 6.85379C16.9733 6.48046 17.3867 5.47379 17.0267 4.60046ZM8 3.20046C8.88667 3.20046 9.6 3.91379 9.6 4.80046C9.6 5.68712 8.88667 6.40046 8 6.40046C7.12 6.40046 6.4 5.68046 6.4 4.80046C6.4 3.91379 7.11333 3.20046 8 3.20046ZM3.2 21.3138C4.08667 21.3138 4.8 22.0271 4.8 22.9138C4.8 23.8005 4.08667 24.5138 3.2 24.5138C2.31333 24.5138 1.6 23.8005 1.6 22.9138C1.6 22.0338 2.32 21.3138 3.2 21.3138ZM5.33333 30.9338H1.06667V27.0005C1.06667 26.2271 1.69333 25.6071 2.46667 25.6005H3.93333C4.70667 25.6005 5.32667 26.2271 5.33333 27.0005V30.9338ZM13.8667 27.0005V30.9338H9.6V27.0005C9.6 26.2271 10.2267 25.6071 11 25.6005H12.4667C13.24 25.6005 13.8667 26.2271 13.8667 27.0005ZM11.7333 21.3138C12.6133 21.3138 13.3333 22.0338 13.3333 22.9138C13.3333 23.8005 12.62 24.5138 11.7333 24.5138C10.8467 24.5138 10.1333 23.8005 10.1333 22.9138C10.1333 22.0271 10.8467 21.3138 11.7333 21.3138ZM16.0467 5.48712C15.9733 5.66712 15.8267 5.81379 15.6467 5.88046L10.42 8.59379C10.24 8.68712 10.1333 8.86712 10.1333 9.06712V20.7938C9.13333 21.5338 8.78667 22.8671 9.30667 24.0005H8.53333V14.9338H7.46667V24.0005H5.62667C5.78 23.6671 5.86 23.3005 5.86 22.9338V9.60046C5.86 9.30712 5.62 9.06712 5.32667 9.06712C5.09333 9.06712 4.88667 9.22046 4.82 9.44046L3.22667 14.5071C3.10667 14.8405 2.74 15.0138 2.40667 14.8938C2.38667 14.8871 2.36 14.8738 2.34 14.8671C2.03333 14.7071 1.9 14.3338 2.04 14.0205L3.46667 9.10712C3.85333 8.12046 4.8 7.46712 5.85333 7.46712H9.62667C9.71333 7.46712 9.79333 7.44712 9.87333 7.40712L15.1733 4.65379C15.4933 4.52046 15.86 4.65379 16.0133 4.96712C16.1 5.12712 16.1133 5.32046 16.0467 5.48712Z" fill="#616161"/>
<path d="M22.1267 24.8201C23.1801 23.7935 23.2067 22.1068 22.1734 21.0468C21.1401 19.9868 19.4601 19.9668 18.4001 21.0001C17.3401 22.0335 17.3201 23.7135 18.3534 24.7735C18.3667 24.7868 18.3867 24.8068 18.4001 24.8201C17.5801 25.2401 17.0667 26.0801 17.0601 27.0001V31.4668C17.0601 31.7601 17.3001 32.0001 17.5934 32.0001H22.9267C23.2201 32.0001 23.4601 31.7601 23.4601 31.4668V27.0001C23.4667 26.0801 22.9467 25.2335 22.1267 24.8201ZM20.2667 21.3135C21.1534 21.3135 21.8667 22.0268 21.8667 22.9135C21.8667 23.8001 21.1534 24.5135 20.2667 24.5135C19.3801 24.5135 18.6667 23.8001 18.6667 22.9135C18.6667 22.0335 19.3867 21.3135 20.2667 21.3135ZM22.4001 30.9335H18.1334V27.0001C18.1334 26.2268 18.7601 25.6068 19.5334 25.6001H21.0001C21.7734 25.6001 22.3934 26.2268 22.4001 27.0001V30.9335Z" fill="#616161"/>
<path d="M30.6599 24.8201C31.7133 23.7935 31.7399 22.1068 30.7066 21.0468C29.6733 19.9868 27.9933 19.9668 26.9333 21.0001C25.8733 22.0335 25.8533 23.7135 26.8866 24.7735C26.8999 24.7868 26.9199 24.8068 26.9333 24.8201C26.1133 25.2401 25.5999 26.0801 25.5933 27.0001V31.4668C25.5933 31.7601 25.8333 32.0001 26.1266 32.0001H31.4599C31.7533 32.0001 31.9933 31.7601 31.9933 31.4668V27.0001C31.9999 26.0801 31.4799 25.2335 30.6599 24.8201ZM28.7999 21.3135C29.6866 21.3135 30.3999 22.0268 30.3999 22.9135C30.3999 23.8001 29.6866 24.5135 28.7999 24.5135C27.9133 24.5135 27.1999 23.8001 27.1999 22.9135C27.1999 22.0335 27.9199 21.3135 28.7999 21.3135ZM30.9333 30.9335H26.6666V27.0001C26.6666 26.2268 27.2933 25.6068 28.0666 25.6001H29.5333C30.3066 25.6001 30.9266 26.2268 30.9333 27.0001V30.9335Z" fill="#616161"/>
</svg>
