<svg width="34" height="34" viewBox="0 0 34 34" fill="none" xmlns="http://www.w3.org/2000/svg">
<path d="M26.6352 16.4355H23.2352C22.6109 16.4355 22.0996 16.9402 22.0996 17.5711V20.9711C22.0996 21.5953 22.6043 22.1066 23.2352 22.1066H29.4707C29.6766 22.1066 29.8691 21.9938 29.9687 21.8145C30.0684 21.6352 30.0617 21.416 29.9555 21.2367L27.1199 16.7012C27.007 16.5352 26.8277 16.4355 26.6352 16.4355ZM23.2352 20.9645V17.5645H26.323L28.448 20.9645H23.2352Z" fill="#616161"/>
<path d="M13.6004 22.1008H18.1359C18.7602 22.1008 19.2715 21.5961 19.2715 20.9652V17.5652C19.2715 16.941 18.7668 16.4297 18.1359 16.4297H13.6004C12.9762 16.4297 12.4648 16.9344 12.4648 17.5652V20.9652C12.4648 21.5961 12.9762 22.1008 13.6004 22.1008ZM13.6004 17.5652H18.1359V20.9652H13.6004V17.5652Z" fill="#616161"/>
<path d="M9.06484 16.4355H4.53594C3.91172 16.4355 3.40039 16.9402 3.40039 17.5711V20.9711C3.40039 21.5953 3.90508 22.1066 4.53594 22.1066H9.07149C9.6957 22.1066 10.207 21.602 10.207 20.9711V17.5711C10.2004 16.9402 9.6957 16.4355 9.06484 16.4355ZM9.06484 20.9645H4.53594V17.5645H9.07149L9.06484 20.9645Z" fill="#616161"/>
<path d="M7.36475 23.8008H6.23584C5.92373 23.8008 5.67139 24.0531 5.67139 24.3652C5.67139 24.6773 5.92373 24.9297 6.23584 24.9297H7.37139C7.6835 24.9297 7.93584 24.6773 7.93584 24.3652C7.93584 24.0531 7.67686 23.8008 7.36475 23.8008Z" fill="#616161"/>
<path d="M15.3003 23.8008C14.9882 23.8008 14.7358 24.0531 14.7358 24.3652C14.7358 24.6773 14.9882 24.9297 15.3003 24.9297H16.4358C16.7479 24.9297 17.0003 24.6773 17.0003 24.3652C17.0003 24.0531 16.7479 23.8008 16.4358 23.8008H15.3003Z" fill="#616161"/>
<path d="M25.5003 23.8008H24.3647C24.0526 23.8008 23.8003 24.0531 23.8003 24.3652C23.8003 24.6773 24.0526 24.9297 24.3647 24.9297H25.5003C25.8124 24.9297 26.0647 24.6773 26.0647 24.3652C26.0647 24.0531 25.8124 23.8008 25.5003 23.8008Z" fill="#616161"/>
<path d="M30.9521 6.92656L28.3291 4.82812V2.83594C28.3291 2.52383 28.0767 2.27148 27.7646 2.27148C27.4525 2.27148 27.2002 2.52383 27.2002 2.83594V4.82812L24.5771 6.92656C24.3314 7.11914 24.2916 7.47773 24.4908 7.72344C24.6834 7.96914 25.042 8.00898 25.2877 7.80976L27.2002 6.27578V8.83242L26.8017 9.23086C26.6556 9.37031 26.5959 9.58281 26.649 9.78203C26.7021 9.98125 26.8549 10.134 27.0541 10.1871C27.2533 10.2402 27.4658 10.1805 27.6052 10.0344L27.7713 9.86836L27.9373 10.0344C28.1564 10.2469 28.515 10.2469 28.7342 10.0277C28.9533 9.80859 28.9533 9.45664 28.7408 9.23086L28.3424 8.83242V6.27578L30.2549 7.80312C30.5006 7.9957 30.8592 7.95586 31.0517 7.7168C31.2377 7.47773 31.1978 7.11914 30.9521 6.92656Z" fill="#616161"/>
<path d="M32.3 12.4649C33.2363 12.4649 34 11.7013 34 10.7649V1.70049C34 0.76416 33.2363 0.000488281 32.3 0.000488281H23.2355C22.2992 0.000488281 21.5355 0.76416 21.5355 1.70049V10.7649C21.5355 11.7013 22.2992 12.4649 23.2355 12.4649H27.2V14.1716C27.1801 14.1716 27.1602 14.1649 27.1402 14.1649H1.7C0.763672 14.1649 0 14.9286 0 15.8649V29.4649C0 30.4013 0.763672 31.1649 1.7 31.1649H3.45312C3.72539 32.8052 5.13984 34.0005 6.8 34.0005C8.46016 34.0005 9.87461 32.8052 10.1469 31.1649H23.282C23.5543 32.7985 24.9754 34.0005 26.6289 34.0005C28.2824 34.0005 29.7035 32.8052 29.9758 31.1649H32.2934C33.2297 31.1649 33.9934 30.4013 33.9934 29.4649V24.1259C33.9934 23.8071 33.907 23.495 33.7344 23.2228L28.5746 14.9618C28.5016 14.8489 28.4219 14.7493 28.3289 14.663V12.4649H32.3ZM6.8 32.8649C5.54492 32.8649 4.53555 31.8489 4.53555 30.6005C4.53555 29.3454 5.55156 28.336 6.8 28.336C8.04844 28.336 9.06445 29.3521 9.06445 30.6005C9.06445 31.8556 8.05508 32.8649 6.8 32.8649ZM26.6355 32.8649C25.3805 32.8649 24.3711 31.8489 24.3711 30.6005C24.3711 29.3454 25.3871 28.336 26.6355 28.336C27.8906 28.336 28.9 29.3521 28.9 30.6005C28.9 31.8556 27.884 32.8649 26.6355 32.8649ZM32.7781 23.827C32.8312 23.92 32.8645 24.0196 32.8645 24.1259V27.7649H31.1645C30.8523 27.7649 30.6 28.0173 30.6 28.3294C30.6 28.6415 30.8523 28.8938 31.1645 28.8938H32.8645V29.4583C32.8645 29.7704 32.6121 30.0228 32.3 30.0228H29.9824C29.7102 28.3892 28.2891 27.1872 26.6355 27.1872C24.982 27.1872 23.5609 28.3825 23.2887 30.0228H10.1469C9.87461 28.3892 8.45352 27.1872 6.8 27.1872C5.14648 27.1872 3.72539 28.3825 3.45312 30.0228H1.7C1.38789 30.0228 1.13555 29.7704 1.13555 29.4583V28.8938H2.27109C2.5832 28.8938 2.83555 28.6415 2.83555 28.3294C2.83555 28.0173 2.5832 27.7649 2.27109 27.7649H1.13555V15.8649C1.13555 15.5528 1.38789 15.3005 1.7 15.3005H27.1402C27.3328 15.3005 27.5187 15.4001 27.6184 15.5661L32.7781 23.827ZM23.2355 11.336C22.9234 11.336 22.6711 11.0837 22.6711 10.7716V1.70049C22.6711 1.38838 22.9234 1.13604 23.2355 1.13604H32.3C32.6121 1.13604 32.8645 1.38838 32.8645 1.70049V10.7649C32.8645 11.0771 32.6121 11.3294 32.3 11.3294L23.2355 11.336Z" fill="#616161"/>
<path d="M22.1004 27.7646H11.3359C11.0238 27.7646 10.7715 28.017 10.7715 28.3291C10.7715 28.6412 11.0238 28.8936 11.3359 28.8936H22.1004C22.4125 28.8936 22.6648 28.6412 22.6648 28.3291C22.6648 28.017 22.4125 27.7646 22.1004 27.7646Z" fill="#616161"/>
</svg>
